G04 #@! TF.GenerationSoftware,KiCad,Pcbnew,5.1.3-ffb9f22~84~ubuntu18.04.1*
G04 #@! TF.CreationDate,2019-07-28T18:08:26+02:00*
G04 #@! TF.ProjectId,board,626f6172-642e-46b6-9963-61645f706362,rev?*
G04 #@! TF.SameCoordinates,Original*
G04 #@! TF.FileFunction,Copper,L2,Bot*
G04 #@! TF.FilePolarity,Positive*
%FSLAX46Y46*%
G04 Gerber Fmt 4.6, Leading zero omitted, Abs format (unit mm)*
G04 Created by KiCad (PCBNEW 5.1.3-ffb9f22~84~ubuntu18.04.1) date 2019-07-28 18:08:26*
%MOMM*%
%LPD*%
G04 APERTURE LIST*
%ADD10C,0.100000*%
%ADD11C,1.150000*%
%ADD12R,1.500000X1.000000*%
%ADD13C,1.500000*%
%ADD14C,0.800000*%
%ADD15C,0.400000*%
%ADD16C,0.250000*%
%ADD17C,0.600000*%
%ADD18C,0.254000*%
G04 APERTURE END LIST*
D10*
G36*
X78350905Y-102278424D02*
G01*
X78375173Y-102282024D01*
X78398972Y-102287985D01*
X78422071Y-102296250D01*
X78444250Y-102306740D01*
X78465293Y-102319352D01*
X78484999Y-102333967D01*
X78503177Y-102350443D01*
X78519653Y-102368621D01*
X78534268Y-102388327D01*
X78546880Y-102409370D01*
X78557370Y-102431549D01*
X78565635Y-102454648D01*
X78571596Y-102478447D01*
X78575196Y-102502715D01*
X78576400Y-102527219D01*
X78576400Y-103177221D01*
X78575196Y-103201725D01*
X78571596Y-103225993D01*
X78565635Y-103249792D01*
X78557370Y-103272891D01*
X78546880Y-103295070D01*
X78534268Y-103316113D01*
X78519653Y-103335819D01*
X78503177Y-103353997D01*
X78484999Y-103370473D01*
X78465293Y-103385088D01*
X78444250Y-103397700D01*
X78422071Y-103408190D01*
X78398972Y-103416455D01*
X78375173Y-103422416D01*
X78350905Y-103426016D01*
X78326401Y-103427220D01*
X77426399Y-103427220D01*
X77401895Y-103426016D01*
X77377627Y-103422416D01*
X77353828Y-103416455D01*
X77330729Y-103408190D01*
X77308550Y-103397700D01*
X77287507Y-103385088D01*
X77267801Y-103370473D01*
X77249623Y-103353997D01*
X77233147Y-103335819D01*
X77218532Y-103316113D01*
X77205920Y-103295070D01*
X77195430Y-103272891D01*
X77187165Y-103249792D01*
X77181204Y-103225993D01*
X77177604Y-103201725D01*
X77176400Y-103177221D01*
X77176400Y-102527219D01*
X77177604Y-102502715D01*
X77181204Y-102478447D01*
X77187165Y-102454648D01*
X77195430Y-102431549D01*
X77205920Y-102409370D01*
X77218532Y-102388327D01*
X77233147Y-102368621D01*
X77249623Y-102350443D01*
X77267801Y-102333967D01*
X77287507Y-102319352D01*
X77308550Y-102306740D01*
X77330729Y-102296250D01*
X77353828Y-102287985D01*
X77377627Y-102282024D01*
X77401895Y-102278424D01*
X77426399Y-102277220D01*
X78326401Y-102277220D01*
X78350905Y-102278424D01*
X78350905Y-102278424D01*
G37*
D11*
X77876400Y-102852220D03*
D10*
G36*
X78350905Y-104328424D02*
G01*
X78375173Y-104332024D01*
X78398972Y-104337985D01*
X78422071Y-104346250D01*
X78444250Y-104356740D01*
X78465293Y-104369352D01*
X78484999Y-104383967D01*
X78503177Y-104400443D01*
X78519653Y-104418621D01*
X78534268Y-104438327D01*
X78546880Y-104459370D01*
X78557370Y-104481549D01*
X78565635Y-104504648D01*
X78571596Y-104528447D01*
X78575196Y-104552715D01*
X78576400Y-104577219D01*
X78576400Y-105227221D01*
X78575196Y-105251725D01*
X78571596Y-105275993D01*
X78565635Y-105299792D01*
X78557370Y-105322891D01*
X78546880Y-105345070D01*
X78534268Y-105366113D01*
X78519653Y-105385819D01*
X78503177Y-105403997D01*
X78484999Y-105420473D01*
X78465293Y-105435088D01*
X78444250Y-105447700D01*
X78422071Y-105458190D01*
X78398972Y-105466455D01*
X78375173Y-105472416D01*
X78350905Y-105476016D01*
X78326401Y-105477220D01*
X77426399Y-105477220D01*
X77401895Y-105476016D01*
X77377627Y-105472416D01*
X77353828Y-105466455D01*
X77330729Y-105458190D01*
X77308550Y-105447700D01*
X77287507Y-105435088D01*
X77267801Y-105420473D01*
X77249623Y-105403997D01*
X77233147Y-105385819D01*
X77218532Y-105366113D01*
X77205920Y-105345070D01*
X77195430Y-105322891D01*
X77187165Y-105299792D01*
X77181204Y-105275993D01*
X77177604Y-105251725D01*
X77176400Y-105227221D01*
X77176400Y-104577219D01*
X77177604Y-104552715D01*
X77181204Y-104528447D01*
X77187165Y-104504648D01*
X77195430Y-104481549D01*
X77205920Y-104459370D01*
X77218532Y-104438327D01*
X77233147Y-104418621D01*
X77249623Y-104400443D01*
X77267801Y-104383967D01*
X77287507Y-104369352D01*
X77308550Y-104356740D01*
X77330729Y-104346250D01*
X77353828Y-104337985D01*
X77377627Y-104332024D01*
X77401895Y-104328424D01*
X77426399Y-104327220D01*
X78326401Y-104327220D01*
X78350905Y-104328424D01*
X78350905Y-104328424D01*
G37*
D11*
X77876400Y-104902220D03*
D12*
X83884600Y-111432140D03*
X83884600Y-108232140D03*
X88784600Y-111432140D03*
X88784600Y-108232140D03*
D13*
X87884000Y-116512340D03*
X82265520Y-116563140D03*
X85074760Y-116563140D03*
X79298800Y-116568220D03*
D14*
X79519780Y-102864920D03*
X76725780Y-103819960D03*
X76634340Y-106146600D03*
X75679300Y-105313480D03*
X74531220Y-105262680D03*
X74541380Y-107162600D03*
X75526900Y-107467400D03*
X74582020Y-108239560D03*
X75526900Y-108524040D03*
X74642980Y-109306360D03*
X74434700Y-111242000D03*
X74455020Y-112118140D03*
X74465180Y-112941100D03*
X74231500Y-115582700D03*
X75430380Y-115572540D03*
X76487020Y-115582700D03*
X77391260Y-116263420D03*
X77401420Y-117238780D03*
X77035660Y-118308120D03*
X83858100Y-110154720D03*
X84787740Y-109484160D03*
X85549740Y-110258860D03*
X86276180Y-109532420D03*
X87033100Y-110350300D03*
X87823040Y-109583220D03*
X88689180Y-110322360D03*
X90020140Y-105648760D03*
X91348560Y-105623360D03*
X91391740Y-104378760D03*
X90020140Y-104335580D03*
X85364320Y-111660940D03*
X95112840Y-109222540D03*
X94833440Y-108282740D03*
X92151200Y-111147860D03*
X92163900Y-112549940D03*
X93065600Y-113332260D03*
X78935580Y-112903000D03*
X80010000Y-113200180D03*
X81280000Y-113250980D03*
X81262220Y-114386360D03*
X79966820Y-114437160D03*
X79077820Y-113944400D03*
X86177120Y-115326160D03*
X94081600Y-116034820D03*
X87746840Y-115067080D03*
X90236040Y-115813840D03*
X85265260Y-108234480D03*
X74769980Y-114637820D03*
X80721200Y-111635540D03*
X83530440Y-115056920D03*
X80510380Y-110703360D03*
X77018160Y-110617000D03*
X76085700Y-110617000D03*
X80118400Y-109893203D03*
X91727020Y-109418120D03*
X94904560Y-110472220D03*
D15*
X77876400Y-102852220D02*
X79507080Y-102852220D01*
X79507080Y-102852220D02*
X79519780Y-102864920D01*
X77876400Y-102852220D02*
X77693520Y-102852220D01*
X77693520Y-102852220D02*
X76725780Y-103819960D01*
X76634340Y-106146600D02*
X76512420Y-106146600D01*
X76512420Y-106146600D02*
X75679300Y-105313480D01*
X74531220Y-105262680D02*
X74531220Y-107152440D01*
X74531220Y-107152440D02*
X74541380Y-107162600D01*
X75526900Y-107467400D02*
X75354180Y-107467400D01*
X75354180Y-107467400D02*
X74582020Y-108239560D01*
X75526900Y-108524040D02*
X75425300Y-108524040D01*
X75425300Y-108524040D02*
X74642980Y-109306360D01*
X74642980Y-109306360D02*
X74642980Y-111033720D01*
X74642980Y-111033720D02*
X74434700Y-111242000D01*
X74065181Y-113341099D02*
X74065181Y-114225019D01*
X74465180Y-112941100D02*
X74065181Y-113341099D01*
X74065181Y-114225019D02*
X74065181Y-115416381D01*
X74065181Y-115416381D02*
X74231500Y-115582700D01*
X75430380Y-115572540D02*
X76476860Y-115572540D01*
X76476860Y-115572540D02*
X76487020Y-115582700D01*
X76487020Y-115582700D02*
X76710540Y-115582700D01*
X76710540Y-115582700D02*
X77391260Y-116263420D01*
X77401420Y-117238780D02*
X77401420Y-117523260D01*
X83884600Y-111432140D02*
X83884600Y-110181220D01*
X83884600Y-110181220D02*
X83858100Y-110154720D01*
X84787740Y-109484160D02*
X84787740Y-109496860D01*
X84787740Y-109496860D02*
X85549740Y-110258860D01*
X86276180Y-109532420D02*
X86276180Y-109593380D01*
X86276180Y-109593380D02*
X87033100Y-110350300D01*
X87823040Y-109583220D02*
X87950040Y-109583220D01*
X87950040Y-109583220D02*
X88689180Y-110322360D01*
X91348560Y-105623360D02*
X91348560Y-104421940D01*
X91348560Y-104421940D02*
X91391740Y-104378760D01*
X84113400Y-111660940D02*
X83884600Y-111432140D01*
X85364320Y-111660940D02*
X84113400Y-111660940D01*
X95112840Y-109222540D02*
X95112840Y-108562140D01*
X95112840Y-108562140D02*
X94833440Y-108282740D01*
X91751201Y-111547859D02*
X91751201Y-112139781D01*
X92151200Y-111147860D02*
X91751201Y-111547859D01*
X91751201Y-112139781D02*
X92161360Y-112549940D01*
X92161360Y-112549940D02*
X92163900Y-112549940D01*
X78935580Y-112903000D02*
X79712820Y-112903000D01*
X79712820Y-112903000D02*
X80010000Y-113200180D01*
X81280000Y-113250980D02*
X81280000Y-114368580D01*
X81280000Y-114368580D02*
X81262220Y-114386360D01*
X79966820Y-114437160D02*
X79570580Y-114437160D01*
X79570580Y-114437160D02*
X79077820Y-113944400D01*
X86177120Y-115326160D02*
X87487760Y-115326160D01*
X87487760Y-115326160D02*
X87746840Y-115067080D01*
X75420220Y-115582700D02*
X75430380Y-115572540D01*
X74231500Y-115582700D02*
X75420220Y-115582700D01*
X77035660Y-117604540D02*
X77401420Y-117238780D01*
X77035660Y-118308120D02*
X77035660Y-117604540D01*
X87884000Y-116512340D02*
X89537540Y-116512340D01*
X89537540Y-116512340D02*
X90236040Y-115813840D01*
D16*
X83884600Y-108232140D02*
X85262920Y-108232140D01*
X85262920Y-108232140D02*
X85265260Y-108234480D01*
D17*
X75285699Y-114122101D02*
X75285699Y-110058101D01*
X74769980Y-114637820D02*
X75285699Y-114122101D01*
X77876400Y-107467400D02*
X77876400Y-104902220D01*
X75285699Y-110058101D02*
X77876400Y-107467400D01*
X84104680Y-104902220D02*
X77876400Y-104902220D01*
X88784600Y-108232140D02*
X87434600Y-108232140D01*
X87434600Y-108232140D02*
X84104680Y-104902220D01*
D16*
X82265520Y-116563140D02*
X82265520Y-113179860D01*
X82265520Y-113179860D02*
X80721200Y-111635540D01*
X85074760Y-116563140D02*
X85036660Y-116563140D01*
X85036660Y-116563140D02*
X83530440Y-115056920D01*
X80510380Y-110703360D02*
X77104520Y-110703360D01*
X77104520Y-110703360D02*
X77018160Y-110617000D01*
X80118400Y-109893203D02*
X76809497Y-109893203D01*
X76809497Y-109893203D02*
X76085700Y-110617000D01*
X91727020Y-109418120D02*
X92781120Y-110472220D01*
X92781120Y-110472220D02*
X94904560Y-110472220D01*
D18*
G36*
X95533773Y-102064815D02*
G01*
X95586847Y-102080838D01*
X95635795Y-102106865D01*
X95678754Y-102141902D01*
X95714092Y-102184618D01*
X95740461Y-102233386D01*
X95756854Y-102286344D01*
X95766819Y-102381149D01*
X95766456Y-109899187D01*
X95708497Y-109812446D01*
X95564334Y-109668283D01*
X95394816Y-109555015D01*
X95206458Y-109476994D01*
X95006499Y-109437220D01*
X94802621Y-109437220D01*
X94602662Y-109476994D01*
X94414304Y-109555015D01*
X94244786Y-109668283D01*
X94200849Y-109712220D01*
X93095922Y-109712220D01*
X92762020Y-109378319D01*
X92762020Y-109316181D01*
X92722246Y-109116222D01*
X92644225Y-108927864D01*
X92530957Y-108758346D01*
X92386794Y-108614183D01*
X92217276Y-108500915D01*
X92028918Y-108422894D01*
X91828959Y-108383120D01*
X91625081Y-108383120D01*
X91425122Y-108422894D01*
X91236764Y-108500915D01*
X91067246Y-108614183D01*
X90923083Y-108758346D01*
X90809815Y-108927864D01*
X90731794Y-109116222D01*
X90692020Y-109316181D01*
X90692020Y-109520059D01*
X90731794Y-109720018D01*
X90809815Y-109908376D01*
X90923083Y-110077894D01*
X91067246Y-110222057D01*
X91236764Y-110335325D01*
X91425122Y-110413346D01*
X91625081Y-110453120D01*
X91687219Y-110453120D01*
X92217321Y-110983223D01*
X92241119Y-111012221D01*
X92270117Y-111036019D01*
X92356844Y-111107194D01*
X92488873Y-111177766D01*
X92632134Y-111221223D01*
X92781120Y-111235897D01*
X92818453Y-111232220D01*
X94200849Y-111232220D01*
X94244786Y-111276157D01*
X94414304Y-111389425D01*
X94602662Y-111467446D01*
X94802621Y-111507220D01*
X95006499Y-111507220D01*
X95206458Y-111467446D01*
X95394816Y-111389425D01*
X95564334Y-111276157D01*
X95708497Y-111131994D01*
X95766400Y-111045336D01*
X95766062Y-118040455D01*
X95757198Y-118130864D01*
X95741030Y-118184414D01*
X95714772Y-118233797D01*
X95679417Y-118277147D01*
X95636321Y-118312799D01*
X95587123Y-118339401D01*
X95533685Y-118355942D01*
X95421440Y-118367740D01*
X77074832Y-118367740D01*
X76976696Y-118358118D01*
X76923146Y-118341950D01*
X76873763Y-118315692D01*
X76830413Y-118280337D01*
X76794761Y-118237241D01*
X76768159Y-118188043D01*
X76751618Y-118134605D01*
X76744040Y-118062509D01*
X76744040Y-117525213D01*
X78521412Y-117525213D01*
X78586937Y-117764080D01*
X78833916Y-117879980D01*
X79098760Y-117945470D01*
X79371292Y-117958032D01*
X79641038Y-117917185D01*
X79897632Y-117824497D01*
X80010663Y-117764080D01*
X80076188Y-117525213D01*
X79298800Y-116747825D01*
X78521412Y-117525213D01*
X76744040Y-117525213D01*
X76744040Y-117183003D01*
X76741051Y-117152658D01*
X76741094Y-117146547D01*
X76740126Y-117136681D01*
X76719725Y-116942585D01*
X76706790Y-116879570D01*
X76694728Y-116816340D01*
X76691863Y-116806850D01*
X76640435Y-116640712D01*
X77908988Y-116640712D01*
X77949835Y-116910458D01*
X78042523Y-117167052D01*
X78102940Y-117280083D01*
X78341807Y-117345608D01*
X79119195Y-116568220D01*
X79478405Y-116568220D01*
X80255793Y-117345608D01*
X80494660Y-117280083D01*
X80610560Y-117033104D01*
X80676050Y-116768260D01*
X80688612Y-116495728D01*
X80647765Y-116225982D01*
X80555077Y-115969388D01*
X80494660Y-115856357D01*
X80255793Y-115790832D01*
X79478405Y-116568220D01*
X79119195Y-116568220D01*
X78341807Y-115790832D01*
X78102940Y-115856357D01*
X77987040Y-116103336D01*
X77921550Y-116368180D01*
X77908988Y-116640712D01*
X76640435Y-116640712D01*
X76634151Y-116620412D01*
X76609211Y-116561083D01*
X76585108Y-116501425D01*
X76580454Y-116492672D01*
X76487629Y-116320995D01*
X76451659Y-116267667D01*
X76416407Y-116213797D01*
X76410141Y-116206115D01*
X76285738Y-116055737D01*
X76240083Y-116010400D01*
X76195053Y-115964417D01*
X76187415Y-115958098D01*
X76036173Y-115834748D01*
X75982586Y-115799146D01*
X75929477Y-115762781D01*
X75920756Y-115758066D01*
X75748434Y-115666441D01*
X75688964Y-115641929D01*
X75629792Y-115616568D01*
X75620322Y-115613637D01*
X75612340Y-115611227D01*
X78521412Y-115611227D01*
X79298800Y-116388615D01*
X80076188Y-115611227D01*
X80010663Y-115372360D01*
X79763684Y-115256460D01*
X79498840Y-115190970D01*
X79226308Y-115178408D01*
X78956562Y-115219255D01*
X78699968Y-115311943D01*
X78586937Y-115372360D01*
X78521412Y-115611227D01*
X75612340Y-115611227D01*
X75433486Y-115557228D01*
X75370356Y-115544728D01*
X75307417Y-115531350D01*
X75297558Y-115530314D01*
X75297262Y-115530285D01*
X75429754Y-115441757D01*
X75573917Y-115297594D01*
X75687185Y-115128076D01*
X75747412Y-114982677D01*
X75914354Y-114815734D01*
X75950043Y-114786445D01*
X76066885Y-114644073D01*
X76153706Y-114481641D01*
X76207170Y-114305393D01*
X76220699Y-114168033D01*
X76220699Y-114168032D01*
X76225223Y-114122101D01*
X76220699Y-114076169D01*
X76220699Y-111645424D01*
X76387598Y-111612226D01*
X76551930Y-111544157D01*
X76716262Y-111612226D01*
X76916221Y-111652000D01*
X77120099Y-111652000D01*
X77320058Y-111612226D01*
X77508416Y-111534205D01*
X77614443Y-111463360D01*
X79700172Y-111463360D01*
X79686200Y-111533601D01*
X79686200Y-111737479D01*
X79725974Y-111937438D01*
X79803995Y-112125796D01*
X79917263Y-112295314D01*
X80061426Y-112439477D01*
X80230944Y-112552745D01*
X80419302Y-112630766D01*
X80619261Y-112670540D01*
X80681399Y-112670540D01*
X81505521Y-113494663D01*
X81505520Y-115405231D01*
X81382634Y-115487341D01*
X81189721Y-115680254D01*
X81038149Y-115907097D01*
X80933745Y-116159151D01*
X80880520Y-116426729D01*
X80880520Y-116699551D01*
X80933745Y-116967129D01*
X81038149Y-117219183D01*
X81189721Y-117446026D01*
X81382634Y-117638939D01*
X81609477Y-117790511D01*
X81861531Y-117894915D01*
X82129109Y-117948140D01*
X82401931Y-117948140D01*
X82669509Y-117894915D01*
X82921563Y-117790511D01*
X83148406Y-117638939D01*
X83341319Y-117446026D01*
X83492891Y-117219183D01*
X83597295Y-116967129D01*
X83650520Y-116699551D01*
X83650520Y-116426729D01*
X83607085Y-116208366D01*
X83712272Y-116313554D01*
X83689760Y-116426729D01*
X83689760Y-116699551D01*
X83742985Y-116967129D01*
X83847389Y-117219183D01*
X83998961Y-117446026D01*
X84191874Y-117638939D01*
X84418717Y-117790511D01*
X84670771Y-117894915D01*
X84938349Y-117948140D01*
X85211171Y-117948140D01*
X85478749Y-117894915D01*
X85730803Y-117790511D01*
X85957646Y-117638939D01*
X86150559Y-117446026D01*
X86302131Y-117219183D01*
X86406535Y-116967129D01*
X86459760Y-116699551D01*
X86459760Y-116426729D01*
X86449656Y-116375929D01*
X86499000Y-116375929D01*
X86499000Y-116648751D01*
X86552225Y-116916329D01*
X86656629Y-117168383D01*
X86808201Y-117395226D01*
X87001114Y-117588139D01*
X87227957Y-117739711D01*
X87480011Y-117844115D01*
X87747589Y-117897340D01*
X88020411Y-117897340D01*
X88287989Y-117844115D01*
X88540043Y-117739711D01*
X88766886Y-117588139D01*
X88959799Y-117395226D01*
X88991795Y-117347340D01*
X89496522Y-117347340D01*
X89537540Y-117351380D01*
X89578558Y-117347340D01*
X89578559Y-117347340D01*
X89701229Y-117335258D01*
X89858627Y-117287512D01*
X90003686Y-117209976D01*
X90130831Y-117105631D01*
X90156986Y-117073762D01*
X90392815Y-116837933D01*
X90537938Y-116809066D01*
X90726296Y-116731045D01*
X90895814Y-116617777D01*
X91039977Y-116473614D01*
X91153245Y-116304096D01*
X91231266Y-116115738D01*
X91271040Y-115915779D01*
X91271040Y-115711901D01*
X91231266Y-115511942D01*
X91153245Y-115323584D01*
X91039977Y-115154066D01*
X90895814Y-115009903D01*
X90726296Y-114896635D01*
X90537938Y-114818614D01*
X90337979Y-114778840D01*
X90134101Y-114778840D01*
X89934142Y-114818614D01*
X89745784Y-114896635D01*
X89576266Y-115009903D01*
X89432103Y-115154066D01*
X89318835Y-115323584D01*
X89240814Y-115511942D01*
X89211947Y-115657065D01*
X89191673Y-115677340D01*
X88991795Y-115677340D01*
X88959799Y-115629454D01*
X88766886Y-115436541D01*
X88540043Y-115284969D01*
X88287989Y-115180565D01*
X88020411Y-115127340D01*
X87747589Y-115127340D01*
X87480011Y-115180565D01*
X87227957Y-115284969D01*
X87001114Y-115436541D01*
X86808201Y-115629454D01*
X86656629Y-115856297D01*
X86552225Y-116108351D01*
X86499000Y-116375929D01*
X86449656Y-116375929D01*
X86406535Y-116159151D01*
X86302131Y-115907097D01*
X86150559Y-115680254D01*
X85957646Y-115487341D01*
X85730803Y-115335769D01*
X85478749Y-115231365D01*
X85211171Y-115178140D01*
X84938349Y-115178140D01*
X84761616Y-115213295D01*
X84565440Y-115017119D01*
X84565440Y-114954981D01*
X84525666Y-114755022D01*
X84447645Y-114566664D01*
X84334377Y-114397146D01*
X84190214Y-114252983D01*
X84020696Y-114139715D01*
X83832338Y-114061694D01*
X83632379Y-114021920D01*
X83428501Y-114021920D01*
X83228542Y-114061694D01*
X83040184Y-114139715D01*
X83025520Y-114149513D01*
X83025520Y-113217182D01*
X83029196Y-113179859D01*
X83025520Y-113142536D01*
X83025520Y-113142527D01*
X83014523Y-113030874D01*
X82971066Y-112887613D01*
X82900494Y-112755584D01*
X82805521Y-112639859D01*
X82776523Y-112616061D01*
X82092602Y-111932140D01*
X82496528Y-111932140D01*
X82508788Y-112056622D01*
X82545098Y-112176320D01*
X82604063Y-112286634D01*
X82683415Y-112383325D01*
X82780106Y-112462677D01*
X82890420Y-112521642D01*
X83010118Y-112557952D01*
X83134600Y-112570212D01*
X83598850Y-112567140D01*
X83757600Y-112408390D01*
X83757600Y-111559140D01*
X84011600Y-111559140D01*
X84011600Y-112408390D01*
X84170350Y-112567140D01*
X84634600Y-112570212D01*
X84759082Y-112557952D01*
X84878780Y-112521642D01*
X84989094Y-112462677D01*
X85085785Y-112383325D01*
X85165137Y-112286634D01*
X85224102Y-112176320D01*
X85260412Y-112056622D01*
X85272672Y-111932140D01*
X85269600Y-111717890D01*
X85110850Y-111559140D01*
X84011600Y-111559140D01*
X83757600Y-111559140D01*
X82658350Y-111559140D01*
X82499600Y-111717890D01*
X82496528Y-111932140D01*
X82092602Y-111932140D01*
X81756200Y-111595739D01*
X81756200Y-111533601D01*
X81716426Y-111333642D01*
X81638405Y-111145284D01*
X81525137Y-110975766D01*
X81513739Y-110964368D01*
X81520149Y-110932140D01*
X82496528Y-110932140D01*
X82499600Y-111146390D01*
X82658350Y-111305140D01*
X83757600Y-111305140D01*
X83757600Y-110455890D01*
X84011600Y-110455890D01*
X84011600Y-111305140D01*
X85110850Y-111305140D01*
X85269600Y-111146390D01*
X85272672Y-110932140D01*
X87396528Y-110932140D01*
X87396528Y-111932140D01*
X87408788Y-112056622D01*
X87445098Y-112176320D01*
X87504063Y-112286634D01*
X87583415Y-112383325D01*
X87680106Y-112462677D01*
X87790420Y-112521642D01*
X87910118Y-112557952D01*
X88034600Y-112570212D01*
X89534600Y-112570212D01*
X89659082Y-112557952D01*
X89778780Y-112521642D01*
X89889094Y-112462677D01*
X89985785Y-112383325D01*
X90065137Y-112286634D01*
X90124102Y-112176320D01*
X90160412Y-112056622D01*
X90172672Y-111932140D01*
X90172672Y-110932140D01*
X90160412Y-110807658D01*
X90124102Y-110687960D01*
X90065137Y-110577646D01*
X89985785Y-110480955D01*
X89889094Y-110401603D01*
X89778780Y-110342638D01*
X89659082Y-110306328D01*
X89534600Y-110294068D01*
X88034600Y-110294068D01*
X87910118Y-110306328D01*
X87790420Y-110342638D01*
X87680106Y-110401603D01*
X87583415Y-110480955D01*
X87504063Y-110577646D01*
X87445098Y-110687960D01*
X87408788Y-110807658D01*
X87396528Y-110932140D01*
X85272672Y-110932140D01*
X85260412Y-110807658D01*
X85224102Y-110687960D01*
X85165137Y-110577646D01*
X85085785Y-110480955D01*
X84989094Y-110401603D01*
X84878780Y-110342638D01*
X84759082Y-110306328D01*
X84634600Y-110294068D01*
X84170350Y-110297140D01*
X84011600Y-110455890D01*
X83757600Y-110455890D01*
X83598850Y-110297140D01*
X83134600Y-110294068D01*
X83010118Y-110306328D01*
X82890420Y-110342638D01*
X82780106Y-110401603D01*
X82683415Y-110480955D01*
X82604063Y-110577646D01*
X82545098Y-110687960D01*
X82508788Y-110807658D01*
X82496528Y-110932140D01*
X81520149Y-110932140D01*
X81545380Y-110805299D01*
X81545380Y-110601421D01*
X81505606Y-110401462D01*
X81427585Y-110213104D01*
X81314317Y-110043586D01*
X81170154Y-109899423D01*
X81153400Y-109888228D01*
X81153400Y-109791264D01*
X81113626Y-109591305D01*
X81035605Y-109402947D01*
X80922337Y-109233429D01*
X80778174Y-109089266D01*
X80608656Y-108975998D01*
X80420298Y-108897977D01*
X80220339Y-108858203D01*
X80016461Y-108858203D01*
X79816502Y-108897977D01*
X79628144Y-108975998D01*
X79458626Y-109089266D01*
X79414689Y-109133203D01*
X77532887Y-109133203D01*
X78505066Y-108161024D01*
X78540744Y-108131744D01*
X78657586Y-107989372D01*
X78744407Y-107826940D01*
X78797871Y-107650692D01*
X78811400Y-107513332D01*
X78811400Y-107513326D01*
X78815923Y-107467401D01*
X78811400Y-107421476D01*
X78811400Y-105970108D01*
X78819787Y-105965625D01*
X78954362Y-105855182D01*
X78969103Y-105837220D01*
X83717391Y-105837220D01*
X85093532Y-107213362D01*
X85021002Y-107227789D01*
X84989094Y-107201603D01*
X84878780Y-107142638D01*
X84759082Y-107106328D01*
X84634600Y-107094068D01*
X83134600Y-107094068D01*
X83010118Y-107106328D01*
X82890420Y-107142638D01*
X82780106Y-107201603D01*
X82683415Y-107280955D01*
X82604063Y-107377646D01*
X82545098Y-107487960D01*
X82508788Y-107607658D01*
X82496528Y-107732140D01*
X82496528Y-108732140D01*
X82508788Y-108856622D01*
X82545098Y-108976320D01*
X82604063Y-109086634D01*
X82683415Y-109183325D01*
X82780106Y-109262677D01*
X82890420Y-109321642D01*
X83010118Y-109357952D01*
X83134600Y-109370212D01*
X84634600Y-109370212D01*
X84759082Y-109357952D01*
X84878780Y-109321642D01*
X84989094Y-109262677D01*
X85016412Y-109240258D01*
X85163321Y-109269480D01*
X85367199Y-109269480D01*
X85567158Y-109229706D01*
X85755516Y-109151685D01*
X85925034Y-109038417D01*
X86069197Y-108894254D01*
X86182465Y-108724736D01*
X86260486Y-108536378D01*
X86286378Y-108406208D01*
X86740974Y-108860804D01*
X86770256Y-108896484D01*
X86912628Y-109013326D01*
X87075060Y-109100147D01*
X87220284Y-109144200D01*
X87251308Y-109153611D01*
X87434599Y-109171664D01*
X87480531Y-109167140D01*
X87570132Y-109167140D01*
X87583415Y-109183325D01*
X87680106Y-109262677D01*
X87790420Y-109321642D01*
X87910118Y-109357952D01*
X88034600Y-109370212D01*
X89534600Y-109370212D01*
X89659082Y-109357952D01*
X89778780Y-109321642D01*
X89889094Y-109262677D01*
X89985785Y-109183325D01*
X90065137Y-109086634D01*
X90124102Y-108976320D01*
X90160412Y-108856622D01*
X90172672Y-108732140D01*
X90172672Y-107732140D01*
X90160412Y-107607658D01*
X90124102Y-107487960D01*
X90065137Y-107377646D01*
X89985785Y-107280955D01*
X89889094Y-107201603D01*
X89778780Y-107142638D01*
X89659082Y-107106328D01*
X89534600Y-107094068D01*
X88034600Y-107094068D01*
X87910118Y-107106328D01*
X87790420Y-107142638D01*
X87710244Y-107185494D01*
X84798310Y-104273561D01*
X84769024Y-104237876D01*
X84626652Y-104121034D01*
X84464220Y-104034213D01*
X84287972Y-103980749D01*
X84150612Y-103967220D01*
X84104680Y-103962696D01*
X84058748Y-103967220D01*
X78969103Y-103967220D01*
X78954362Y-103949258D01*
X78947806Y-103943878D01*
X79027585Y-103878405D01*
X79106937Y-103781714D01*
X79165902Y-103671400D01*
X79202212Y-103551702D01*
X79214472Y-103427220D01*
X79211400Y-103137970D01*
X79052650Y-102979220D01*
X78003400Y-102979220D01*
X78003400Y-102999220D01*
X77749400Y-102999220D01*
X77749400Y-102979220D01*
X77729400Y-102979220D01*
X77729400Y-102725220D01*
X77749400Y-102725220D01*
X77749400Y-102705220D01*
X78003400Y-102705220D01*
X78003400Y-102725220D01*
X79052650Y-102725220D01*
X79211400Y-102566470D01*
X79214472Y-102277220D01*
X79202212Y-102152738D01*
X79172867Y-102056000D01*
X95443872Y-102056000D01*
X95533773Y-102064815D01*
X95533773Y-102064815D01*
G37*
X95533773Y-102064815D02*
X95586847Y-102080838D01*
X95635795Y-102106865D01*
X95678754Y-102141902D01*
X95714092Y-102184618D01*
X95740461Y-102233386D01*
X95756854Y-102286344D01*
X95766819Y-102381149D01*
X95766456Y-109899187D01*
X95708497Y-109812446D01*
X95564334Y-109668283D01*
X95394816Y-109555015D01*
X95206458Y-109476994D01*
X95006499Y-109437220D01*
X94802621Y-109437220D01*
X94602662Y-109476994D01*
X94414304Y-109555015D01*
X94244786Y-109668283D01*
X94200849Y-109712220D01*
X93095922Y-109712220D01*
X92762020Y-109378319D01*
X92762020Y-109316181D01*
X92722246Y-109116222D01*
X92644225Y-108927864D01*
X92530957Y-108758346D01*
X92386794Y-108614183D01*
X92217276Y-108500915D01*
X92028918Y-108422894D01*
X91828959Y-108383120D01*
X91625081Y-108383120D01*
X91425122Y-108422894D01*
X91236764Y-108500915D01*
X91067246Y-108614183D01*
X90923083Y-108758346D01*
X90809815Y-108927864D01*
X90731794Y-109116222D01*
X90692020Y-109316181D01*
X90692020Y-109520059D01*
X90731794Y-109720018D01*
X90809815Y-109908376D01*
X90923083Y-110077894D01*
X91067246Y-110222057D01*
X91236764Y-110335325D01*
X91425122Y-110413346D01*
X91625081Y-110453120D01*
X91687219Y-110453120D01*
X92217321Y-110983223D01*
X92241119Y-111012221D01*
X92270117Y-111036019D01*
X92356844Y-111107194D01*
X92488873Y-111177766D01*
X92632134Y-111221223D01*
X92781120Y-111235897D01*
X92818453Y-111232220D01*
X94200849Y-111232220D01*
X94244786Y-111276157D01*
X94414304Y-111389425D01*
X94602662Y-111467446D01*
X94802621Y-111507220D01*
X95006499Y-111507220D01*
X95206458Y-111467446D01*
X95394816Y-111389425D01*
X95564334Y-111276157D01*
X95708497Y-111131994D01*
X95766400Y-111045336D01*
X95766062Y-118040455D01*
X95757198Y-118130864D01*
X95741030Y-118184414D01*
X95714772Y-118233797D01*
X95679417Y-118277147D01*
X95636321Y-118312799D01*
X95587123Y-118339401D01*
X95533685Y-118355942D01*
X95421440Y-118367740D01*
X77074832Y-118367740D01*
X76976696Y-118358118D01*
X76923146Y-118341950D01*
X76873763Y-118315692D01*
X76830413Y-118280337D01*
X76794761Y-118237241D01*
X76768159Y-118188043D01*
X76751618Y-118134605D01*
X76744040Y-118062509D01*
X76744040Y-117525213D01*
X78521412Y-117525213D01*
X78586937Y-117764080D01*
X78833916Y-117879980D01*
X79098760Y-117945470D01*
X79371292Y-117958032D01*
X79641038Y-117917185D01*
X79897632Y-117824497D01*
X80010663Y-117764080D01*
X80076188Y-117525213D01*
X79298800Y-116747825D01*
X78521412Y-117525213D01*
X76744040Y-117525213D01*
X76744040Y-117183003D01*
X76741051Y-117152658D01*
X76741094Y-117146547D01*
X76740126Y-117136681D01*
X76719725Y-116942585D01*
X76706790Y-116879570D01*
X76694728Y-116816340D01*
X76691863Y-116806850D01*
X76640435Y-116640712D01*
X77908988Y-116640712D01*
X77949835Y-116910458D01*
X78042523Y-117167052D01*
X78102940Y-117280083D01*
X78341807Y-117345608D01*
X79119195Y-116568220D01*
X79478405Y-116568220D01*
X80255793Y-117345608D01*
X80494660Y-117280083D01*
X80610560Y-117033104D01*
X80676050Y-116768260D01*
X80688612Y-116495728D01*
X80647765Y-116225982D01*
X80555077Y-115969388D01*
X80494660Y-115856357D01*
X80255793Y-115790832D01*
X79478405Y-116568220D01*
X79119195Y-116568220D01*
X78341807Y-115790832D01*
X78102940Y-115856357D01*
X77987040Y-116103336D01*
X77921550Y-116368180D01*
X77908988Y-116640712D01*
X76640435Y-116640712D01*
X76634151Y-116620412D01*
X76609211Y-116561083D01*
X76585108Y-116501425D01*
X76580454Y-116492672D01*
X76487629Y-116320995D01*
X76451659Y-116267667D01*
X76416407Y-116213797D01*
X76410141Y-116206115D01*
X76285738Y-116055737D01*
X76240083Y-116010400D01*
X76195053Y-115964417D01*
X76187415Y-115958098D01*
X76036173Y-115834748D01*
X75982586Y-115799146D01*
X75929477Y-115762781D01*
X75920756Y-115758066D01*
X75748434Y-115666441D01*
X75688964Y-115641929D01*
X75629792Y-115616568D01*
X75620322Y-115613637D01*
X75612340Y-115611227D01*
X78521412Y-115611227D01*
X79298800Y-116388615D01*
X80076188Y-115611227D01*
X80010663Y-115372360D01*
X79763684Y-115256460D01*
X79498840Y-115190970D01*
X79226308Y-115178408D01*
X78956562Y-115219255D01*
X78699968Y-115311943D01*
X78586937Y-115372360D01*
X78521412Y-115611227D01*
X75612340Y-115611227D01*
X75433486Y-115557228D01*
X75370356Y-115544728D01*
X75307417Y-115531350D01*
X75297558Y-115530314D01*
X75297262Y-115530285D01*
X75429754Y-115441757D01*
X75573917Y-115297594D01*
X75687185Y-115128076D01*
X75747412Y-114982677D01*
X75914354Y-114815734D01*
X75950043Y-114786445D01*
X76066885Y-114644073D01*
X76153706Y-114481641D01*
X76207170Y-114305393D01*
X76220699Y-114168033D01*
X76220699Y-114168032D01*
X76225223Y-114122101D01*
X76220699Y-114076169D01*
X76220699Y-111645424D01*
X76387598Y-111612226D01*
X76551930Y-111544157D01*
X76716262Y-111612226D01*
X76916221Y-111652000D01*
X77120099Y-111652000D01*
X77320058Y-111612226D01*
X77508416Y-111534205D01*
X77614443Y-111463360D01*
X79700172Y-111463360D01*
X79686200Y-111533601D01*
X79686200Y-111737479D01*
X79725974Y-111937438D01*
X79803995Y-112125796D01*
X79917263Y-112295314D01*
X80061426Y-112439477D01*
X80230944Y-112552745D01*
X80419302Y-112630766D01*
X80619261Y-112670540D01*
X80681399Y-112670540D01*
X81505521Y-113494663D01*
X81505520Y-115405231D01*
X81382634Y-115487341D01*
X81189721Y-115680254D01*
X81038149Y-115907097D01*
X80933745Y-116159151D01*
X80880520Y-116426729D01*
X80880520Y-116699551D01*
X80933745Y-116967129D01*
X81038149Y-117219183D01*
X81189721Y-117446026D01*
X81382634Y-117638939D01*
X81609477Y-117790511D01*
X81861531Y-117894915D01*
X82129109Y-117948140D01*
X82401931Y-117948140D01*
X82669509Y-117894915D01*
X82921563Y-117790511D01*
X83148406Y-117638939D01*
X83341319Y-117446026D01*
X83492891Y-117219183D01*
X83597295Y-116967129D01*
X83650520Y-116699551D01*
X83650520Y-116426729D01*
X83607085Y-116208366D01*
X83712272Y-116313554D01*
X83689760Y-116426729D01*
X83689760Y-116699551D01*
X83742985Y-116967129D01*
X83847389Y-117219183D01*
X83998961Y-117446026D01*
X84191874Y-117638939D01*
X84418717Y-117790511D01*
X84670771Y-117894915D01*
X84938349Y-117948140D01*
X85211171Y-117948140D01*
X85478749Y-117894915D01*
X85730803Y-117790511D01*
X85957646Y-117638939D01*
X86150559Y-117446026D01*
X86302131Y-117219183D01*
X86406535Y-116967129D01*
X86459760Y-116699551D01*
X86459760Y-116426729D01*
X86449656Y-116375929D01*
X86499000Y-116375929D01*
X86499000Y-116648751D01*
X86552225Y-116916329D01*
X86656629Y-117168383D01*
X86808201Y-117395226D01*
X87001114Y-117588139D01*
X87227957Y-117739711D01*
X87480011Y-117844115D01*
X87747589Y-117897340D01*
X88020411Y-117897340D01*
X88287989Y-117844115D01*
X88540043Y-117739711D01*
X88766886Y-117588139D01*
X88959799Y-117395226D01*
X88991795Y-117347340D01*
X89496522Y-117347340D01*
X89537540Y-117351380D01*
X89578558Y-117347340D01*
X89578559Y-117347340D01*
X89701229Y-117335258D01*
X89858627Y-117287512D01*
X90003686Y-117209976D01*
X90130831Y-117105631D01*
X90156986Y-117073762D01*
X90392815Y-116837933D01*
X90537938Y-116809066D01*
X90726296Y-116731045D01*
X90895814Y-116617777D01*
X91039977Y-116473614D01*
X91153245Y-116304096D01*
X91231266Y-116115738D01*
X91271040Y-115915779D01*
X91271040Y-115711901D01*
X91231266Y-115511942D01*
X91153245Y-115323584D01*
X91039977Y-115154066D01*
X90895814Y-115009903D01*
X90726296Y-114896635D01*
X90537938Y-114818614D01*
X90337979Y-114778840D01*
X90134101Y-114778840D01*
X89934142Y-114818614D01*
X89745784Y-114896635D01*
X89576266Y-115009903D01*
X89432103Y-115154066D01*
X89318835Y-115323584D01*
X89240814Y-115511942D01*
X89211947Y-115657065D01*
X89191673Y-115677340D01*
X88991795Y-115677340D01*
X88959799Y-115629454D01*
X88766886Y-115436541D01*
X88540043Y-115284969D01*
X88287989Y-115180565D01*
X88020411Y-115127340D01*
X87747589Y-115127340D01*
X87480011Y-115180565D01*
X87227957Y-115284969D01*
X87001114Y-115436541D01*
X86808201Y-115629454D01*
X86656629Y-115856297D01*
X86552225Y-116108351D01*
X86499000Y-116375929D01*
X86449656Y-116375929D01*
X86406535Y-116159151D01*
X86302131Y-115907097D01*
X86150559Y-115680254D01*
X85957646Y-115487341D01*
X85730803Y-115335769D01*
X85478749Y-115231365D01*
X85211171Y-115178140D01*
X84938349Y-115178140D01*
X84761616Y-115213295D01*
X84565440Y-115017119D01*
X84565440Y-114954981D01*
X84525666Y-114755022D01*
X84447645Y-114566664D01*
X84334377Y-114397146D01*
X84190214Y-114252983D01*
X84020696Y-114139715D01*
X83832338Y-114061694D01*
X83632379Y-114021920D01*
X83428501Y-114021920D01*
X83228542Y-114061694D01*
X83040184Y-114139715D01*
X83025520Y-114149513D01*
X83025520Y-113217182D01*
X83029196Y-113179859D01*
X83025520Y-113142536D01*
X83025520Y-113142527D01*
X83014523Y-113030874D01*
X82971066Y-112887613D01*
X82900494Y-112755584D01*
X82805521Y-112639859D01*
X82776523Y-112616061D01*
X82092602Y-111932140D01*
X82496528Y-111932140D01*
X82508788Y-112056622D01*
X82545098Y-112176320D01*
X82604063Y-112286634D01*
X82683415Y-112383325D01*
X82780106Y-112462677D01*
X82890420Y-112521642D01*
X83010118Y-112557952D01*
X83134600Y-112570212D01*
X83598850Y-112567140D01*
X83757600Y-112408390D01*
X83757600Y-111559140D01*
X84011600Y-111559140D01*
X84011600Y-112408390D01*
X84170350Y-112567140D01*
X84634600Y-112570212D01*
X84759082Y-112557952D01*
X84878780Y-112521642D01*
X84989094Y-112462677D01*
X85085785Y-112383325D01*
X85165137Y-112286634D01*
X85224102Y-112176320D01*
X85260412Y-112056622D01*
X85272672Y-111932140D01*
X85269600Y-111717890D01*
X85110850Y-111559140D01*
X84011600Y-111559140D01*
X83757600Y-111559140D01*
X82658350Y-111559140D01*
X82499600Y-111717890D01*
X82496528Y-111932140D01*
X82092602Y-111932140D01*
X81756200Y-111595739D01*
X81756200Y-111533601D01*
X81716426Y-111333642D01*
X81638405Y-111145284D01*
X81525137Y-110975766D01*
X81513739Y-110964368D01*
X81520149Y-110932140D01*
X82496528Y-110932140D01*
X82499600Y-111146390D01*
X82658350Y-111305140D01*
X83757600Y-111305140D01*
X83757600Y-110455890D01*
X84011600Y-110455890D01*
X84011600Y-111305140D01*
X85110850Y-111305140D01*
X85269600Y-111146390D01*
X85272672Y-110932140D01*
X87396528Y-110932140D01*
X87396528Y-111932140D01*
X87408788Y-112056622D01*
X87445098Y-112176320D01*
X87504063Y-112286634D01*
X87583415Y-112383325D01*
X87680106Y-112462677D01*
X87790420Y-112521642D01*
X87910118Y-112557952D01*
X88034600Y-112570212D01*
X89534600Y-112570212D01*
X89659082Y-112557952D01*
X89778780Y-112521642D01*
X89889094Y-112462677D01*
X89985785Y-112383325D01*
X90065137Y-112286634D01*
X90124102Y-112176320D01*
X90160412Y-112056622D01*
X90172672Y-111932140D01*
X90172672Y-110932140D01*
X90160412Y-110807658D01*
X90124102Y-110687960D01*
X90065137Y-110577646D01*
X89985785Y-110480955D01*
X89889094Y-110401603D01*
X89778780Y-110342638D01*
X89659082Y-110306328D01*
X89534600Y-110294068D01*
X88034600Y-110294068D01*
X87910118Y-110306328D01*
X87790420Y-110342638D01*
X87680106Y-110401603D01*
X87583415Y-110480955D01*
X87504063Y-110577646D01*
X87445098Y-110687960D01*
X87408788Y-110807658D01*
X87396528Y-110932140D01*
X85272672Y-110932140D01*
X85260412Y-110807658D01*
X85224102Y-110687960D01*
X85165137Y-110577646D01*
X85085785Y-110480955D01*
X84989094Y-110401603D01*
X84878780Y-110342638D01*
X84759082Y-110306328D01*
X84634600Y-110294068D01*
X84170350Y-110297140D01*
X84011600Y-110455890D01*
X83757600Y-110455890D01*
X83598850Y-110297140D01*
X83134600Y-110294068D01*
X83010118Y-110306328D01*
X82890420Y-110342638D01*
X82780106Y-110401603D01*
X82683415Y-110480955D01*
X82604063Y-110577646D01*
X82545098Y-110687960D01*
X82508788Y-110807658D01*
X82496528Y-110932140D01*
X81520149Y-110932140D01*
X81545380Y-110805299D01*
X81545380Y-110601421D01*
X81505606Y-110401462D01*
X81427585Y-110213104D01*
X81314317Y-110043586D01*
X81170154Y-109899423D01*
X81153400Y-109888228D01*
X81153400Y-109791264D01*
X81113626Y-109591305D01*
X81035605Y-109402947D01*
X80922337Y-109233429D01*
X80778174Y-109089266D01*
X80608656Y-108975998D01*
X80420298Y-108897977D01*
X80220339Y-108858203D01*
X80016461Y-108858203D01*
X79816502Y-108897977D01*
X79628144Y-108975998D01*
X79458626Y-109089266D01*
X79414689Y-109133203D01*
X77532887Y-109133203D01*
X78505066Y-108161024D01*
X78540744Y-108131744D01*
X78657586Y-107989372D01*
X78744407Y-107826940D01*
X78797871Y-107650692D01*
X78811400Y-107513332D01*
X78811400Y-107513326D01*
X78815923Y-107467401D01*
X78811400Y-107421476D01*
X78811400Y-105970108D01*
X78819787Y-105965625D01*
X78954362Y-105855182D01*
X78969103Y-105837220D01*
X83717391Y-105837220D01*
X85093532Y-107213362D01*
X85021002Y-107227789D01*
X84989094Y-107201603D01*
X84878780Y-107142638D01*
X84759082Y-107106328D01*
X84634600Y-107094068D01*
X83134600Y-107094068D01*
X83010118Y-107106328D01*
X82890420Y-107142638D01*
X82780106Y-107201603D01*
X82683415Y-107280955D01*
X82604063Y-107377646D01*
X82545098Y-107487960D01*
X82508788Y-107607658D01*
X82496528Y-107732140D01*
X82496528Y-108732140D01*
X82508788Y-108856622D01*
X82545098Y-108976320D01*
X82604063Y-109086634D01*
X82683415Y-109183325D01*
X82780106Y-109262677D01*
X82890420Y-109321642D01*
X83010118Y-109357952D01*
X83134600Y-109370212D01*
X84634600Y-109370212D01*
X84759082Y-109357952D01*
X84878780Y-109321642D01*
X84989094Y-109262677D01*
X85016412Y-109240258D01*
X85163321Y-109269480D01*
X85367199Y-109269480D01*
X85567158Y-109229706D01*
X85755516Y-109151685D01*
X85925034Y-109038417D01*
X86069197Y-108894254D01*
X86182465Y-108724736D01*
X86260486Y-108536378D01*
X86286378Y-108406208D01*
X86740974Y-108860804D01*
X86770256Y-108896484D01*
X86912628Y-109013326D01*
X87075060Y-109100147D01*
X87220284Y-109144200D01*
X87251308Y-109153611D01*
X87434599Y-109171664D01*
X87480531Y-109167140D01*
X87570132Y-109167140D01*
X87583415Y-109183325D01*
X87680106Y-109262677D01*
X87790420Y-109321642D01*
X87910118Y-109357952D01*
X88034600Y-109370212D01*
X89534600Y-109370212D01*
X89659082Y-109357952D01*
X89778780Y-109321642D01*
X89889094Y-109262677D01*
X89985785Y-109183325D01*
X90065137Y-109086634D01*
X90124102Y-108976320D01*
X90160412Y-108856622D01*
X90172672Y-108732140D01*
X90172672Y-107732140D01*
X90160412Y-107607658D01*
X90124102Y-107487960D01*
X90065137Y-107377646D01*
X89985785Y-107280955D01*
X89889094Y-107201603D01*
X89778780Y-107142638D01*
X89659082Y-107106328D01*
X89534600Y-107094068D01*
X88034600Y-107094068D01*
X87910118Y-107106328D01*
X87790420Y-107142638D01*
X87710244Y-107185494D01*
X84798310Y-104273561D01*
X84769024Y-104237876D01*
X84626652Y-104121034D01*
X84464220Y-104034213D01*
X84287972Y-103980749D01*
X84150612Y-103967220D01*
X84104680Y-103962696D01*
X84058748Y-103967220D01*
X78969103Y-103967220D01*
X78954362Y-103949258D01*
X78947806Y-103943878D01*
X79027585Y-103878405D01*
X79106937Y-103781714D01*
X79165902Y-103671400D01*
X79202212Y-103551702D01*
X79214472Y-103427220D01*
X79211400Y-103137970D01*
X79052650Y-102979220D01*
X78003400Y-102979220D01*
X78003400Y-102999220D01*
X77749400Y-102999220D01*
X77749400Y-102979220D01*
X77729400Y-102979220D01*
X77729400Y-102725220D01*
X77749400Y-102725220D01*
X77749400Y-102705220D01*
X78003400Y-102705220D01*
X78003400Y-102725220D01*
X79052650Y-102725220D01*
X79211400Y-102566470D01*
X79214472Y-102277220D01*
X79202212Y-102152738D01*
X79172867Y-102056000D01*
X95443872Y-102056000D01*
X95533773Y-102064815D01*
G36*
X76645863Y-103781714D02*
G01*
X76725215Y-103878405D01*
X76804994Y-103943878D01*
X76798438Y-103949258D01*
X76687995Y-104083833D01*
X76605928Y-104237369D01*
X76555392Y-104403965D01*
X76538328Y-104577219D01*
X76538328Y-105227221D01*
X76555392Y-105400475D01*
X76605928Y-105567071D01*
X76687995Y-105720607D01*
X76798438Y-105855182D01*
X76933013Y-105965625D01*
X76941401Y-105970108D01*
X76941400Y-107080110D01*
X74657035Y-109364476D01*
X74621356Y-109393757D01*
X74504514Y-109536129D01*
X74479996Y-109582000D01*
X74417693Y-109698561D01*
X74364228Y-109874810D01*
X74346175Y-110058101D01*
X74350700Y-110104043D01*
X74350699Y-113691216D01*
X74279724Y-113720615D01*
X74110206Y-113833883D01*
X73966043Y-113978046D01*
X73852775Y-114147564D01*
X73774754Y-114335922D01*
X73734980Y-114535881D01*
X73734980Y-114739759D01*
X73774754Y-114939718D01*
X73852775Y-115128076D01*
X73966043Y-115297594D01*
X74110206Y-115441757D01*
X74209166Y-115507880D01*
X65068761Y-115507880D01*
X64978376Y-115499018D01*
X64924826Y-115482850D01*
X64875443Y-115456592D01*
X64832093Y-115421237D01*
X64796441Y-115378141D01*
X64769839Y-115328943D01*
X64753298Y-115275505D01*
X64744040Y-115187425D01*
X64744040Y-105192602D01*
X64752903Y-105102215D01*
X64769070Y-105048666D01*
X64795328Y-104999283D01*
X64830681Y-104955935D01*
X64873780Y-104920280D01*
X64922977Y-104893679D01*
X64976415Y-104877138D01*
X65064495Y-104867880D01*
X75068917Y-104867880D01*
X75099262Y-104864891D01*
X75105372Y-104864934D01*
X75115238Y-104863966D01*
X75309335Y-104843565D01*
X75372350Y-104830630D01*
X75435580Y-104818568D01*
X75445070Y-104815703D01*
X75631508Y-104757991D01*
X75690837Y-104733051D01*
X75750495Y-104708948D01*
X75759248Y-104704294D01*
X75930925Y-104611469D01*
X75984238Y-104575509D01*
X76038123Y-104540247D01*
X76045805Y-104533982D01*
X76196183Y-104409578D01*
X76241520Y-104363923D01*
X76287503Y-104318893D01*
X76293822Y-104311255D01*
X76417172Y-104160013D01*
X76452797Y-104106393D01*
X76489139Y-104053316D01*
X76493854Y-104044596D01*
X76585479Y-103872274D01*
X76609991Y-103812804D01*
X76633350Y-103758304D01*
X76645863Y-103781714D01*
X76645863Y-103781714D01*
G37*
X76645863Y-103781714D02*
X76725215Y-103878405D01*
X76804994Y-103943878D01*
X76798438Y-103949258D01*
X76687995Y-104083833D01*
X76605928Y-104237369D01*
X76555392Y-104403965D01*
X76538328Y-104577219D01*
X76538328Y-105227221D01*
X76555392Y-105400475D01*
X76605928Y-105567071D01*
X76687995Y-105720607D01*
X76798438Y-105855182D01*
X76933013Y-105965625D01*
X76941401Y-105970108D01*
X76941400Y-107080110D01*
X74657035Y-109364476D01*
X74621356Y-109393757D01*
X74504514Y-109536129D01*
X74479996Y-109582000D01*
X74417693Y-109698561D01*
X74364228Y-109874810D01*
X74346175Y-110058101D01*
X74350700Y-110104043D01*
X74350699Y-113691216D01*
X74279724Y-113720615D01*
X74110206Y-113833883D01*
X73966043Y-113978046D01*
X73852775Y-114147564D01*
X73774754Y-114335922D01*
X73734980Y-114535881D01*
X73734980Y-114739759D01*
X73774754Y-114939718D01*
X73852775Y-115128076D01*
X73966043Y-115297594D01*
X74110206Y-115441757D01*
X74209166Y-115507880D01*
X65068761Y-115507880D01*
X64978376Y-115499018D01*
X64924826Y-115482850D01*
X64875443Y-115456592D01*
X64832093Y-115421237D01*
X64796441Y-115378141D01*
X64769839Y-115328943D01*
X64753298Y-115275505D01*
X64744040Y-115187425D01*
X64744040Y-105192602D01*
X64752903Y-105102215D01*
X64769070Y-105048666D01*
X64795328Y-104999283D01*
X64830681Y-104955935D01*
X64873780Y-104920280D01*
X64922977Y-104893679D01*
X64976415Y-104877138D01*
X65064495Y-104867880D01*
X75068917Y-104867880D01*
X75099262Y-104864891D01*
X75105372Y-104864934D01*
X75115238Y-104863966D01*
X75309335Y-104843565D01*
X75372350Y-104830630D01*
X75435580Y-104818568D01*
X75445070Y-104815703D01*
X75631508Y-104757991D01*
X75690837Y-104733051D01*
X75750495Y-104708948D01*
X75759248Y-104704294D01*
X75930925Y-104611469D01*
X75984238Y-104575509D01*
X76038123Y-104540247D01*
X76045805Y-104533982D01*
X76196183Y-104409578D01*
X76241520Y-104363923D01*
X76287503Y-104318893D01*
X76293822Y-104311255D01*
X76417172Y-104160013D01*
X76452797Y-104106393D01*
X76489139Y-104053316D01*
X76493854Y-104044596D01*
X76585479Y-103872274D01*
X76609991Y-103812804D01*
X76633350Y-103758304D01*
X76645863Y-103781714D01*
M02*
