M48
; DRILL file {KiCad 5.1.3-ffb9f22~84~ubuntu18.04.1} date So 28 Jul 2019 18:08:33 CEST
; FORMAT={-:-/ absolute / inch / decimal}
; #@! TF.CreationDate,2019-07-28T18:08:33+02:00
; #@! TF.GenerationSoftware,Kicad,Pcbnew,5.1.3-ffb9f22~84~ubuntu18.04.1
; #@! TF.FileFunction,Plated,1,2,PTH
FMAT,2
INCH
T1C0.0157
%
G90
G05
T1
X2.9225Y-4.5505
X2.9305Y-4.3796
X2.9313Y-4.4141
X2.9317Y-4.4465
X2.9343Y-4.1442
X2.9347Y-4.219
X2.9363Y-4.2614
X2.9387Y-4.3034
X2.9437Y-4.5133
X2.9697Y-4.5501
X2.9735Y-4.231
X2.9735Y-4.2726
X2.9795Y-4.1462
X2.9955Y-4.355
X3.0113Y-4.5505
X3.0171Y-4.179
X3.0207Y-4.0874
X3.0322Y-4.355
X3.0329Y-4.6578
X3.0469Y-4.5773
X3.0473Y-4.6157
X3.1077Y-4.445
X3.1133Y-4.486
X3.1307Y-4.0498
X3.1483Y-4.5054
X3.15Y-4.4567
X3.1543Y-4.3265
X3.1697Y-4.3584
X3.178Y-4.3951
X3.1993Y-4.5034
X3.2Y-4.4587
X3.2886Y-4.5298
X3.3015Y-4.3368
X3.3381Y-4.3104
X3.3569Y-4.2612
X3.3608Y-4.3961
X3.3681Y-4.3409
X3.3928Y-4.5404
X3.3967Y-4.3123
X3.4265Y-4.3445
X3.4546Y-4.5302
X3.4576Y-4.3143
X3.4917Y-4.3434
X3.5441Y-4.1077
X3.5441Y-4.1594
X3.5526Y-4.5596
X3.5964Y-4.1584
X3.5981Y-4.1094
X3.6113Y-4.3078
X3.628Y-4.3759
X3.6285Y-4.4311
X3.664Y-4.4619
X3.704Y-4.5683
X3.7336Y-4.2631
X3.7364Y-4.3493
X3.7446Y-4.3001
T0
M30
