G04 #@! TF.GenerationSoftware,KiCad,Pcbnew,5.1.3-ffb9f22~84~ubuntu18.04.1*
G04 #@! TF.CreationDate,2019-07-28T18:08:26+02:00*
G04 #@! TF.ProjectId,board,626f6172-642e-46b6-9963-61645f706362,rev?*
G04 #@! TF.SameCoordinates,Original*
G04 #@! TF.FileFunction,Soldermask,Bot*
G04 #@! TF.FilePolarity,Negative*
%FSLAX46Y46*%
G04 Gerber Fmt 4.6, Leading zero omitted, Abs format (unit mm)*
G04 Created by KiCad (PCBNEW 5.1.3-ffb9f22~84~ubuntu18.04.1) date 2019-07-28 18:08:26*
%MOMM*%
%LPD*%
G04 APERTURE LIST*
%ADD10C,0.100000*%
G04 APERTURE END LIST*
D10*
G36*
X79532442Y-115798001D02*
G01*
X79665952Y-115853303D01*
X79678216Y-115858383D01*
X79809408Y-115946042D01*
X79920978Y-116057612D01*
X80005244Y-116183726D01*
X80008638Y-116188806D01*
X80069019Y-116334578D01*
X80099800Y-116489327D01*
X80099800Y-116647113D01*
X80069019Y-116801862D01*
X80010742Y-116942554D01*
X80008637Y-116947636D01*
X79920978Y-117078828D01*
X79809408Y-117190398D01*
X79678216Y-117278057D01*
X79678215Y-117278058D01*
X79678214Y-117278058D01*
X79532442Y-117338439D01*
X79377693Y-117369220D01*
X79219907Y-117369220D01*
X79065158Y-117338439D01*
X78919386Y-117278058D01*
X78919385Y-117278058D01*
X78919384Y-117278057D01*
X78788192Y-117190398D01*
X78676622Y-117078828D01*
X78588963Y-116947636D01*
X78586858Y-116942554D01*
X78528581Y-116801862D01*
X78497800Y-116647113D01*
X78497800Y-116489327D01*
X78528581Y-116334578D01*
X78588962Y-116188806D01*
X78592356Y-116183726D01*
X78676622Y-116057612D01*
X78788192Y-115946042D01*
X78919384Y-115858383D01*
X78931648Y-115853303D01*
X79065158Y-115798001D01*
X79219907Y-115767220D01*
X79377693Y-115767220D01*
X79532442Y-115798001D01*
X79532442Y-115798001D01*
G37*
G36*
X85308402Y-115792921D02*
G01*
X85454174Y-115853302D01*
X85454176Y-115853303D01*
X85585368Y-115940962D01*
X85696938Y-116052532D01*
X85750655Y-116132926D01*
X85784598Y-116183726D01*
X85844979Y-116329498D01*
X85875760Y-116484247D01*
X85875760Y-116642033D01*
X85844979Y-116796782D01*
X85842874Y-116801863D01*
X85784597Y-116942556D01*
X85696938Y-117073748D01*
X85585368Y-117185318D01*
X85454176Y-117272977D01*
X85454175Y-117272978D01*
X85454174Y-117272978D01*
X85308402Y-117333359D01*
X85153653Y-117364140D01*
X84995867Y-117364140D01*
X84841118Y-117333359D01*
X84695346Y-117272978D01*
X84695345Y-117272978D01*
X84695344Y-117272977D01*
X84564152Y-117185318D01*
X84452582Y-117073748D01*
X84364923Y-116942556D01*
X84306646Y-116801863D01*
X84304541Y-116796782D01*
X84273760Y-116642033D01*
X84273760Y-116484247D01*
X84304541Y-116329498D01*
X84364922Y-116183726D01*
X84398865Y-116132926D01*
X84452582Y-116052532D01*
X84564152Y-115940962D01*
X84695344Y-115853303D01*
X84695346Y-115853302D01*
X84841118Y-115792921D01*
X84995867Y-115762140D01*
X85153653Y-115762140D01*
X85308402Y-115792921D01*
X85308402Y-115792921D01*
G37*
G36*
X82499162Y-115792921D02*
G01*
X82644934Y-115853302D01*
X82644936Y-115853303D01*
X82776128Y-115940962D01*
X82887698Y-116052532D01*
X82941415Y-116132926D01*
X82975358Y-116183726D01*
X83035739Y-116329498D01*
X83066520Y-116484247D01*
X83066520Y-116642033D01*
X83035739Y-116796782D01*
X83033634Y-116801863D01*
X82975357Y-116942556D01*
X82887698Y-117073748D01*
X82776128Y-117185318D01*
X82644936Y-117272977D01*
X82644935Y-117272978D01*
X82644934Y-117272978D01*
X82499162Y-117333359D01*
X82344413Y-117364140D01*
X82186627Y-117364140D01*
X82031878Y-117333359D01*
X81886106Y-117272978D01*
X81886105Y-117272978D01*
X81886104Y-117272977D01*
X81754912Y-117185318D01*
X81643342Y-117073748D01*
X81555683Y-116942556D01*
X81497406Y-116801863D01*
X81495301Y-116796782D01*
X81464520Y-116642033D01*
X81464520Y-116484247D01*
X81495301Y-116329498D01*
X81555682Y-116183726D01*
X81589625Y-116132926D01*
X81643342Y-116052532D01*
X81754912Y-115940962D01*
X81886104Y-115853303D01*
X81886106Y-115853302D01*
X82031878Y-115792921D01*
X82186627Y-115762140D01*
X82344413Y-115762140D01*
X82499162Y-115792921D01*
X82499162Y-115792921D01*
G37*
G36*
X88117642Y-115742121D02*
G01*
X88252550Y-115798002D01*
X88263416Y-115802503D01*
X88394608Y-115890162D01*
X88506178Y-116001732D01*
X88543516Y-116057613D01*
X88593838Y-116132926D01*
X88654219Y-116278698D01*
X88685000Y-116433447D01*
X88685000Y-116591233D01*
X88654219Y-116745982D01*
X88631072Y-116801863D01*
X88593837Y-116891756D01*
X88506178Y-117022948D01*
X88394608Y-117134518D01*
X88263416Y-117222177D01*
X88263415Y-117222178D01*
X88263414Y-117222178D01*
X88117642Y-117282559D01*
X87962893Y-117313340D01*
X87805107Y-117313340D01*
X87650358Y-117282559D01*
X87504586Y-117222178D01*
X87504585Y-117222178D01*
X87504584Y-117222177D01*
X87373392Y-117134518D01*
X87261822Y-117022948D01*
X87174163Y-116891756D01*
X87136928Y-116801863D01*
X87113781Y-116745982D01*
X87083000Y-116591233D01*
X87083000Y-116433447D01*
X87113781Y-116278698D01*
X87174162Y-116132926D01*
X87224484Y-116057613D01*
X87261822Y-116001732D01*
X87373392Y-115890162D01*
X87504584Y-115802503D01*
X87515450Y-115798002D01*
X87650358Y-115742121D01*
X87805107Y-115711340D01*
X87962893Y-115711340D01*
X88117642Y-115742121D01*
X88117642Y-115742121D01*
G37*
G36*
X84685600Y-111983140D02*
G01*
X83083600Y-111983140D01*
X83083600Y-110881140D01*
X84685600Y-110881140D01*
X84685600Y-111983140D01*
X84685600Y-111983140D01*
G37*
G36*
X89585600Y-111983140D02*
G01*
X87983600Y-111983140D01*
X87983600Y-110881140D01*
X89585600Y-110881140D01*
X89585600Y-111983140D01*
X89585600Y-111983140D01*
G37*
G36*
X89585600Y-108783140D02*
G01*
X87983600Y-108783140D01*
X87983600Y-107681140D01*
X89585600Y-107681140D01*
X89585600Y-108783140D01*
X89585600Y-108783140D01*
G37*
G36*
X84685600Y-108783140D02*
G01*
X83083600Y-108783140D01*
X83083600Y-107681140D01*
X84685600Y-107681140D01*
X84685600Y-108783140D01*
X84685600Y-108783140D01*
G37*
G36*
X78465074Y-104280685D02*
G01*
X78502767Y-104292119D01*
X78537503Y-104310686D01*
X78567948Y-104335672D01*
X78592934Y-104366117D01*
X78611501Y-104400853D01*
X78622935Y-104438546D01*
X78627400Y-104483881D01*
X78627400Y-105320559D01*
X78622935Y-105365894D01*
X78611501Y-105403587D01*
X78592934Y-105438323D01*
X78567948Y-105468768D01*
X78537503Y-105493754D01*
X78502767Y-105512321D01*
X78465074Y-105523755D01*
X78419739Y-105528220D01*
X77333061Y-105528220D01*
X77287726Y-105523755D01*
X77250033Y-105512321D01*
X77215297Y-105493754D01*
X77184852Y-105468768D01*
X77159866Y-105438323D01*
X77141299Y-105403587D01*
X77129865Y-105365894D01*
X77125400Y-105320559D01*
X77125400Y-104483881D01*
X77129865Y-104438546D01*
X77141299Y-104400853D01*
X77159866Y-104366117D01*
X77184852Y-104335672D01*
X77215297Y-104310686D01*
X77250033Y-104292119D01*
X77287726Y-104280685D01*
X77333061Y-104276220D01*
X78419739Y-104276220D01*
X78465074Y-104280685D01*
X78465074Y-104280685D01*
G37*
G36*
X78465074Y-102230685D02*
G01*
X78502767Y-102242119D01*
X78537503Y-102260686D01*
X78567948Y-102285672D01*
X78592934Y-102316117D01*
X78611501Y-102350853D01*
X78622935Y-102388546D01*
X78627400Y-102433881D01*
X78627400Y-103270559D01*
X78622935Y-103315894D01*
X78611501Y-103353587D01*
X78592934Y-103388323D01*
X78567948Y-103418768D01*
X78537503Y-103443754D01*
X78502767Y-103462321D01*
X78465074Y-103473755D01*
X78419739Y-103478220D01*
X77333061Y-103478220D01*
X77287726Y-103473755D01*
X77250033Y-103462321D01*
X77215297Y-103443754D01*
X77184852Y-103418768D01*
X77159866Y-103388323D01*
X77141299Y-103353587D01*
X77129865Y-103315894D01*
X77125400Y-103270559D01*
X77125400Y-102433881D01*
X77129865Y-102388546D01*
X77141299Y-102350853D01*
X77159866Y-102316117D01*
X77184852Y-102285672D01*
X77215297Y-102260686D01*
X77250033Y-102242119D01*
X77287726Y-102230685D01*
X77333061Y-102226220D01*
X78419739Y-102226220D01*
X78465074Y-102230685D01*
X78465074Y-102230685D01*
G37*
M02*
