G04 #@! TF.GenerationSoftware,KiCad,Pcbnew,5.1.3-ffb9f22~84~ubuntu18.04.1*
G04 #@! TF.CreationDate,2019-07-28T18:08:26+02:00*
G04 #@! TF.ProjectId,board,626f6172-642e-46b6-9963-61645f706362,rev?*
G04 #@! TF.SameCoordinates,Original*
G04 #@! TF.FileFunction,Legend,Top*
G04 #@! TF.FilePolarity,Positive*
%FSLAX46Y46*%
G04 Gerber Fmt 4.6, Leading zero omitted, Abs format (unit mm)*
G04 Created by KiCad (PCBNEW 5.1.3-ffb9f22~84~ubuntu18.04.1) date 2019-07-28 18:08:26*
%MOMM*%
%LPD*%
G04 APERTURE LIST*
%ADD10C,0.300000*%
%ADD11C,0.120000*%
%ADD12C,0.150000*%
G04 APERTURE END LIST*
D10*
X89393909Y-112468660D02*
G75*
G03X89393909Y-112468660I-105289J0D01*
G01*
D11*
X80196948Y-117758280D02*
X80719452Y-117758280D01*
X80196948Y-116338280D02*
X80719452Y-116338280D01*
X78654652Y-108284080D02*
X78132148Y-108284080D01*
X78654652Y-106864080D02*
X78132148Y-106864080D01*
X80521740Y-104205672D02*
X80521740Y-103683168D01*
X81941740Y-104205672D02*
X81941740Y-103683168D01*
X85149948Y-117732880D02*
X85672452Y-117732880D01*
X85149948Y-116312880D02*
X85672452Y-116312880D01*
X93836748Y-116338280D02*
X94359252Y-116338280D01*
X93836748Y-117758280D02*
X94359252Y-117758280D01*
X90084652Y-117758280D02*
X89562148Y-117758280D01*
X90084652Y-116338280D02*
X89562148Y-116338280D01*
X92889000Y-108139488D02*
X92889000Y-108661992D01*
X94309000Y-108139488D02*
X94309000Y-108661992D01*
X93569800Y-112762540D02*
G75*
G02X92869800Y-112062540I0J700000D01*
G01*
X92869800Y-111462540D02*
G75*
G02X93569800Y-110762540I700000J0D01*
G01*
X94969800Y-110762540D02*
G75*
G02X95669800Y-111462540I0J-700000D01*
G01*
X95669800Y-112062540D02*
G75*
G02X94969800Y-112762540I-700000J0D01*
G01*
X95669800Y-111462540D02*
X95669800Y-112062540D01*
X93569800Y-110762540D02*
X94969800Y-110762540D01*
X92869800Y-112062540D02*
X92869800Y-111462540D01*
X94969800Y-112762540D02*
X93569800Y-112762540D01*
X93862148Y-114075140D02*
X94384652Y-114075140D01*
X93862148Y-115495140D02*
X94384652Y-115495140D01*
X77478160Y-114472840D02*
X77478160Y-113542840D01*
X77478160Y-111312840D02*
X77478160Y-112242840D01*
X77478160Y-111312840D02*
X75318160Y-111312840D01*
X77478160Y-114472840D02*
X76018160Y-114472840D01*
X83075540Y-105843680D02*
X82625540Y-105843680D01*
X82625540Y-105843680D02*
X82625540Y-106293680D01*
X89395540Y-105843680D02*
X89845540Y-105843680D01*
X89845540Y-105843680D02*
X89845540Y-106293680D01*
X83075540Y-113063680D02*
X82625540Y-113063680D01*
X82625540Y-113063680D02*
X82625540Y-112613680D01*
X89395540Y-113063680D02*
X89845540Y-113063680D01*
X89845540Y-113063680D02*
X89845540Y-112613680D01*
X89845540Y-112613680D02*
X91135540Y-112613680D01*
D12*
X80291533Y-115755422D02*
X80243914Y-115803041D01*
X80101057Y-115850660D01*
X80005819Y-115850660D01*
X79862961Y-115803041D01*
X79767723Y-115707803D01*
X79720104Y-115612565D01*
X79672485Y-115422089D01*
X79672485Y-115279232D01*
X79720104Y-115088756D01*
X79767723Y-114993518D01*
X79862961Y-114898280D01*
X80005819Y-114850660D01*
X80101057Y-114850660D01*
X80243914Y-114898280D01*
X80291533Y-114945899D01*
X81243914Y-115850660D02*
X80672485Y-115850660D01*
X80958200Y-115850660D02*
X80958200Y-114850660D01*
X80862961Y-114993518D01*
X80767723Y-115088756D01*
X80672485Y-115136375D01*
X78210113Y-109399342D02*
X78162494Y-109446961D01*
X78019637Y-109494580D01*
X77924399Y-109494580D01*
X77781541Y-109446961D01*
X77686303Y-109351723D01*
X77638684Y-109256485D01*
X77591065Y-109066009D01*
X77591065Y-108923152D01*
X77638684Y-108732676D01*
X77686303Y-108637438D01*
X77781541Y-108542200D01*
X77924399Y-108494580D01*
X78019637Y-108494580D01*
X78162494Y-108542200D01*
X78210113Y-108589819D01*
X78591065Y-108589819D02*
X78638684Y-108542200D01*
X78733922Y-108494580D01*
X78972018Y-108494580D01*
X79067256Y-108542200D01*
X79114875Y-108589819D01*
X79162494Y-108685057D01*
X79162494Y-108780295D01*
X79114875Y-108923152D01*
X78543446Y-109494580D01*
X79162494Y-109494580D01*
X83280522Y-103321146D02*
X83328141Y-103368765D01*
X83375760Y-103511622D01*
X83375760Y-103606860D01*
X83328141Y-103749718D01*
X83232903Y-103844956D01*
X83137665Y-103892575D01*
X82947189Y-103940194D01*
X82804332Y-103940194D01*
X82613856Y-103892575D01*
X82518618Y-103844956D01*
X82423380Y-103749718D01*
X82375760Y-103606860D01*
X82375760Y-103511622D01*
X82423380Y-103368765D01*
X82470999Y-103321146D01*
X82709094Y-102464003D02*
X83375760Y-102464003D01*
X82328141Y-102702099D02*
X83042427Y-102940194D01*
X83042427Y-102321146D01*
X84725213Y-115937302D02*
X84677594Y-115984921D01*
X84534737Y-116032540D01*
X84439499Y-116032540D01*
X84296641Y-115984921D01*
X84201403Y-115889683D01*
X84153784Y-115794445D01*
X84106165Y-115603969D01*
X84106165Y-115461112D01*
X84153784Y-115270636D01*
X84201403Y-115175398D01*
X84296641Y-115080160D01*
X84439499Y-115032540D01*
X84534737Y-115032540D01*
X84677594Y-115080160D01*
X84725213Y-115127779D01*
X85629975Y-115032540D02*
X85153784Y-115032540D01*
X85106165Y-115508731D01*
X85153784Y-115461112D01*
X85249022Y-115413493D01*
X85487118Y-115413493D01*
X85582356Y-115461112D01*
X85629975Y-115508731D01*
X85677594Y-115603969D01*
X85677594Y-115842064D01*
X85629975Y-115937302D01*
X85582356Y-115984921D01*
X85487118Y-116032540D01*
X85249022Y-116032540D01*
X85153784Y-115984921D01*
X85106165Y-115937302D01*
X93859053Y-118860842D02*
X93811434Y-118908461D01*
X93668577Y-118956080D01*
X93573339Y-118956080D01*
X93430481Y-118908461D01*
X93335243Y-118813223D01*
X93287624Y-118717985D01*
X93240005Y-118527509D01*
X93240005Y-118384652D01*
X93287624Y-118194176D01*
X93335243Y-118098938D01*
X93430481Y-118003700D01*
X93573339Y-117956080D01*
X93668577Y-117956080D01*
X93811434Y-118003700D01*
X93859053Y-118051319D01*
X94716196Y-117956080D02*
X94525720Y-117956080D01*
X94430481Y-118003700D01*
X94382862Y-118051319D01*
X94287624Y-118194176D01*
X94240005Y-118384652D01*
X94240005Y-118765604D01*
X94287624Y-118860842D01*
X94335243Y-118908461D01*
X94430481Y-118956080D01*
X94620958Y-118956080D01*
X94716196Y-118908461D01*
X94763815Y-118860842D01*
X94811434Y-118765604D01*
X94811434Y-118527509D01*
X94763815Y-118432271D01*
X94716196Y-118384652D01*
X94620958Y-118337033D01*
X94430481Y-118337033D01*
X94335243Y-118384652D01*
X94287624Y-118432271D01*
X94240005Y-118527509D01*
X89612173Y-118792262D02*
X89564554Y-118839881D01*
X89421697Y-118887500D01*
X89326459Y-118887500D01*
X89183601Y-118839881D01*
X89088363Y-118744643D01*
X89040744Y-118649405D01*
X88993125Y-118458929D01*
X88993125Y-118316072D01*
X89040744Y-118125596D01*
X89088363Y-118030358D01*
X89183601Y-117935120D01*
X89326459Y-117887500D01*
X89421697Y-117887500D01*
X89564554Y-117935120D01*
X89612173Y-117982739D01*
X89945506Y-117887500D02*
X90612173Y-117887500D01*
X90183601Y-118887500D01*
X95551262Y-107098126D02*
X95598881Y-107145745D01*
X95646500Y-107288602D01*
X95646500Y-107383840D01*
X95598881Y-107526698D01*
X95503643Y-107621936D01*
X95408405Y-107669555D01*
X95217929Y-107717174D01*
X95075072Y-107717174D01*
X94884596Y-107669555D01*
X94789358Y-107621936D01*
X94694120Y-107526698D01*
X94646500Y-107383840D01*
X94646500Y-107288602D01*
X94694120Y-107145745D01*
X94741739Y-107098126D01*
X95075072Y-106526698D02*
X95027453Y-106621936D01*
X94979834Y-106669555D01*
X94884596Y-106717174D01*
X94836977Y-106717174D01*
X94741739Y-106669555D01*
X94694120Y-106621936D01*
X94646500Y-106526698D01*
X94646500Y-106336221D01*
X94694120Y-106240983D01*
X94741739Y-106193364D01*
X94836977Y-106145745D01*
X94884596Y-106145745D01*
X94979834Y-106193364D01*
X95027453Y-106240983D01*
X95075072Y-106336221D01*
X95075072Y-106526698D01*
X95122691Y-106621936D01*
X95170310Y-106669555D01*
X95265548Y-106717174D01*
X95456024Y-106717174D01*
X95551262Y-106669555D01*
X95598881Y-106621936D01*
X95646500Y-106526698D01*
X95646500Y-106336221D01*
X95598881Y-106240983D01*
X95551262Y-106193364D01*
X95456024Y-106145745D01*
X95265548Y-106145745D01*
X95170310Y-106193364D01*
X95122691Y-106240983D01*
X95075072Y-106336221D01*
X93720706Y-112876080D02*
X93720706Y-113590366D01*
X93673087Y-113733223D01*
X93577849Y-113828461D01*
X93434992Y-113876080D01*
X93339754Y-113876080D01*
X94196897Y-113876080D02*
X94196897Y-112876080D01*
X94577849Y-112876080D01*
X94673087Y-112923700D01*
X94720706Y-112971319D01*
X94768325Y-113066557D01*
X94768325Y-113209414D01*
X94720706Y-113304652D01*
X94673087Y-113352271D01*
X94577849Y-113399890D01*
X94196897Y-113399890D01*
X95720706Y-113876080D02*
X95149278Y-113876080D01*
X95434992Y-113876080D02*
X95434992Y-112876080D01*
X95339754Y-113018938D01*
X95244516Y-113114176D01*
X95149278Y-113161795D01*
X92283540Y-115307406D02*
X91807350Y-115640740D01*
X92283540Y-115878835D02*
X91283540Y-115878835D01*
X91283540Y-115497882D01*
X91331160Y-115402644D01*
X91378779Y-115355025D01*
X91474017Y-115307406D01*
X91616874Y-115307406D01*
X91712112Y-115355025D01*
X91759731Y-115402644D01*
X91807350Y-115497882D01*
X91807350Y-115878835D01*
X92283540Y-114355025D02*
X92283540Y-114926454D01*
X92283540Y-114640740D02*
X91283540Y-114640740D01*
X91426398Y-114735978D01*
X91521636Y-114831216D01*
X91569255Y-114926454D01*
X77841860Y-112120584D02*
X78651384Y-112120584D01*
X78746622Y-112072965D01*
X78794241Y-112025346D01*
X78841860Y-111930108D01*
X78841860Y-111739632D01*
X78794241Y-111644394D01*
X78746622Y-111596775D01*
X78651384Y-111549156D01*
X77841860Y-111549156D01*
X78841860Y-110549156D02*
X78841860Y-111120584D01*
X78841860Y-110834870D02*
X77841860Y-110834870D01*
X77984718Y-110930108D01*
X78079956Y-111025346D01*
X78127575Y-111120584D01*
X89778935Y-113386620D02*
X89778935Y-114196144D01*
X89826554Y-114291382D01*
X89874173Y-114339001D01*
X89969411Y-114386620D01*
X90159887Y-114386620D01*
X90255125Y-114339001D01*
X90302744Y-114291382D01*
X90350363Y-114196144D01*
X90350363Y-113386620D01*
X90778935Y-113481859D02*
X90826554Y-113434240D01*
X90921792Y-113386620D01*
X91159887Y-113386620D01*
X91255125Y-113434240D01*
X91302744Y-113481859D01*
X91350363Y-113577097D01*
X91350363Y-113672335D01*
X91302744Y-113815192D01*
X90731316Y-114386620D01*
X91350363Y-114386620D01*
M02*
