G04 #@! TF.GenerationSoftware,KiCad,Pcbnew,5.1.3-ffb9f22~84~ubuntu18.04.1*
G04 #@! TF.CreationDate,2019-07-28T18:08:26+02:00*
G04 #@! TF.ProjectId,board,626f6172-642e-46b6-9963-61645f706362,rev?*
G04 #@! TF.SameCoordinates,Original*
G04 #@! TF.FileFunction,Soldermask,Top*
G04 #@! TF.FilePolarity,Negative*
%FSLAX46Y46*%
G04 Gerber Fmt 4.6, Leading zero omitted, Abs format (unit mm)*
G04 Created by KiCad (PCBNEW 5.1.3-ffb9f22~84~ubuntu18.04.1) date 2019-07-28 18:08:26*
%MOMM*%
%LPD*%
G04 APERTURE LIST*
%ADD10C,0.100000*%
G04 APERTURE END LIST*
D10*
G36*
X81946874Y-116301745D02*
G01*
X81984567Y-116313179D01*
X82019303Y-116331746D01*
X82049748Y-116356732D01*
X82074734Y-116387177D01*
X82093301Y-116421913D01*
X82104735Y-116459606D01*
X82109200Y-116504941D01*
X82109200Y-117591619D01*
X82104735Y-117636954D01*
X82093301Y-117674647D01*
X82074734Y-117709383D01*
X82049748Y-117739828D01*
X82019303Y-117764814D01*
X81984567Y-117783381D01*
X81946874Y-117794815D01*
X81901539Y-117799280D01*
X81064861Y-117799280D01*
X81019526Y-117794815D01*
X80981833Y-117783381D01*
X80947097Y-117764814D01*
X80916652Y-117739828D01*
X80891666Y-117709383D01*
X80873099Y-117674647D01*
X80861665Y-117636954D01*
X80857200Y-117591619D01*
X80857200Y-116504941D01*
X80861665Y-116459606D01*
X80873099Y-116421913D01*
X80891666Y-116387177D01*
X80916652Y-116356732D01*
X80947097Y-116331746D01*
X80981833Y-116313179D01*
X81019526Y-116301745D01*
X81064861Y-116297280D01*
X81901539Y-116297280D01*
X81946874Y-116301745D01*
X81946874Y-116301745D01*
G37*
G36*
X93536674Y-116301745D02*
G01*
X93574367Y-116313179D01*
X93609103Y-116331746D01*
X93639548Y-116356732D01*
X93664534Y-116387177D01*
X93683101Y-116421913D01*
X93694535Y-116459606D01*
X93699000Y-116504941D01*
X93699000Y-117591619D01*
X93694535Y-117636954D01*
X93683101Y-117674647D01*
X93664534Y-117709383D01*
X93639548Y-117739828D01*
X93609103Y-117764814D01*
X93574367Y-117783381D01*
X93536674Y-117794815D01*
X93491339Y-117799280D01*
X92654661Y-117799280D01*
X92609326Y-117794815D01*
X92571633Y-117783381D01*
X92536897Y-117764814D01*
X92506452Y-117739828D01*
X92481466Y-117709383D01*
X92462899Y-117674647D01*
X92451465Y-117636954D01*
X92447000Y-117591619D01*
X92447000Y-116504941D01*
X92451465Y-116459606D01*
X92462899Y-116421913D01*
X92481466Y-116387177D01*
X92506452Y-116356732D01*
X92536897Y-116331746D01*
X92571633Y-116313179D01*
X92609326Y-116301745D01*
X92654661Y-116297280D01*
X93491339Y-116297280D01*
X93536674Y-116301745D01*
X93536674Y-116301745D01*
G37*
G36*
X89262074Y-116301745D02*
G01*
X89299767Y-116313179D01*
X89334503Y-116331746D01*
X89364948Y-116356732D01*
X89389934Y-116387177D01*
X89408501Y-116421913D01*
X89419935Y-116459606D01*
X89424400Y-116504941D01*
X89424400Y-117591619D01*
X89419935Y-117636954D01*
X89408501Y-117674647D01*
X89389934Y-117709383D01*
X89364948Y-117739828D01*
X89334503Y-117764814D01*
X89299767Y-117783381D01*
X89262074Y-117794815D01*
X89216739Y-117799280D01*
X88380061Y-117799280D01*
X88334726Y-117794815D01*
X88297033Y-117783381D01*
X88262297Y-117764814D01*
X88231852Y-117739828D01*
X88206866Y-117709383D01*
X88188299Y-117674647D01*
X88176865Y-117636954D01*
X88172400Y-117591619D01*
X88172400Y-116504941D01*
X88176865Y-116459606D01*
X88188299Y-116421913D01*
X88206866Y-116387177D01*
X88231852Y-116356732D01*
X88262297Y-116331746D01*
X88297033Y-116313179D01*
X88334726Y-116301745D01*
X88380061Y-116297280D01*
X89216739Y-116297280D01*
X89262074Y-116301745D01*
X89262074Y-116301745D01*
G37*
G36*
X91312074Y-116301745D02*
G01*
X91349767Y-116313179D01*
X91384503Y-116331746D01*
X91414948Y-116356732D01*
X91439934Y-116387177D01*
X91458501Y-116421913D01*
X91469935Y-116459606D01*
X91474400Y-116504941D01*
X91474400Y-117591619D01*
X91469935Y-117636954D01*
X91458501Y-117674647D01*
X91439934Y-117709383D01*
X91414948Y-117739828D01*
X91384503Y-117764814D01*
X91349767Y-117783381D01*
X91312074Y-117794815D01*
X91266739Y-117799280D01*
X90430061Y-117799280D01*
X90384726Y-117794815D01*
X90347033Y-117783381D01*
X90312297Y-117764814D01*
X90281852Y-117739828D01*
X90256866Y-117709383D01*
X90238299Y-117674647D01*
X90226865Y-117636954D01*
X90222400Y-117591619D01*
X90222400Y-116504941D01*
X90226865Y-116459606D01*
X90238299Y-116421913D01*
X90256866Y-116387177D01*
X90281852Y-116356732D01*
X90312297Y-116331746D01*
X90347033Y-116313179D01*
X90384726Y-116301745D01*
X90430061Y-116297280D01*
X91266739Y-116297280D01*
X91312074Y-116301745D01*
X91312074Y-116301745D01*
G37*
G36*
X79896874Y-116301745D02*
G01*
X79934567Y-116313179D01*
X79969303Y-116331746D01*
X79999748Y-116356732D01*
X80024734Y-116387177D01*
X80043301Y-116421913D01*
X80054735Y-116459606D01*
X80059200Y-116504941D01*
X80059200Y-117591619D01*
X80054735Y-117636954D01*
X80043301Y-117674647D01*
X80024734Y-117709383D01*
X79999748Y-117739828D01*
X79969303Y-117764814D01*
X79934567Y-117783381D01*
X79896874Y-117794815D01*
X79851539Y-117799280D01*
X79014861Y-117799280D01*
X78969526Y-117794815D01*
X78931833Y-117783381D01*
X78897097Y-117764814D01*
X78866652Y-117739828D01*
X78841666Y-117709383D01*
X78823099Y-117674647D01*
X78811665Y-117636954D01*
X78807200Y-117591619D01*
X78807200Y-116504941D01*
X78811665Y-116459606D01*
X78823099Y-116421913D01*
X78841666Y-116387177D01*
X78866652Y-116356732D01*
X78897097Y-116331746D01*
X78931833Y-116313179D01*
X78969526Y-116301745D01*
X79014861Y-116297280D01*
X79851539Y-116297280D01*
X79896874Y-116301745D01*
X79896874Y-116301745D01*
G37*
G36*
X95586674Y-116301745D02*
G01*
X95624367Y-116313179D01*
X95659103Y-116331746D01*
X95689548Y-116356732D01*
X95714534Y-116387177D01*
X95733101Y-116421913D01*
X95744535Y-116459606D01*
X95749000Y-116504941D01*
X95749000Y-117591619D01*
X95744535Y-117636954D01*
X95733101Y-117674647D01*
X95714534Y-117709383D01*
X95689548Y-117739828D01*
X95659103Y-117764814D01*
X95624367Y-117783381D01*
X95586674Y-117794815D01*
X95541339Y-117799280D01*
X94704661Y-117799280D01*
X94659326Y-117794815D01*
X94621633Y-117783381D01*
X94586897Y-117764814D01*
X94556452Y-117739828D01*
X94531466Y-117709383D01*
X94512899Y-117674647D01*
X94501465Y-117636954D01*
X94497000Y-117591619D01*
X94497000Y-116504941D01*
X94501465Y-116459606D01*
X94512899Y-116421913D01*
X94531466Y-116387177D01*
X94556452Y-116356732D01*
X94586897Y-116331746D01*
X94621633Y-116313179D01*
X94659326Y-116301745D01*
X94704661Y-116297280D01*
X95541339Y-116297280D01*
X95586674Y-116301745D01*
X95586674Y-116301745D01*
G37*
G36*
X86899874Y-116276345D02*
G01*
X86937567Y-116287779D01*
X86972303Y-116306346D01*
X87002748Y-116331332D01*
X87027734Y-116361777D01*
X87046301Y-116396513D01*
X87057735Y-116434206D01*
X87062200Y-116479541D01*
X87062200Y-117566219D01*
X87057735Y-117611554D01*
X87046301Y-117649247D01*
X87027734Y-117683983D01*
X87002748Y-117714428D01*
X86972303Y-117739414D01*
X86937567Y-117757981D01*
X86899874Y-117769415D01*
X86854539Y-117773880D01*
X86017861Y-117773880D01*
X85972526Y-117769415D01*
X85934833Y-117757981D01*
X85900097Y-117739414D01*
X85869652Y-117714428D01*
X85844666Y-117683983D01*
X85826099Y-117649247D01*
X85814665Y-117611554D01*
X85810200Y-117566219D01*
X85810200Y-116479541D01*
X85814665Y-116434206D01*
X85826099Y-116396513D01*
X85844666Y-116361777D01*
X85869652Y-116331332D01*
X85900097Y-116306346D01*
X85934833Y-116287779D01*
X85972526Y-116276345D01*
X86017861Y-116271880D01*
X86854539Y-116271880D01*
X86899874Y-116276345D01*
X86899874Y-116276345D01*
G37*
G36*
X84849874Y-116276345D02*
G01*
X84887567Y-116287779D01*
X84922303Y-116306346D01*
X84952748Y-116331332D01*
X84977734Y-116361777D01*
X84996301Y-116396513D01*
X85007735Y-116434206D01*
X85012200Y-116479541D01*
X85012200Y-117566219D01*
X85007735Y-117611554D01*
X84996301Y-117649247D01*
X84977734Y-117683983D01*
X84952748Y-117714428D01*
X84922303Y-117739414D01*
X84887567Y-117757981D01*
X84849874Y-117769415D01*
X84804539Y-117773880D01*
X83967861Y-117773880D01*
X83922526Y-117769415D01*
X83884833Y-117757981D01*
X83850097Y-117739414D01*
X83819652Y-117714428D01*
X83794666Y-117683983D01*
X83776099Y-117649247D01*
X83764665Y-117611554D01*
X83760200Y-117566219D01*
X83760200Y-116479541D01*
X83764665Y-116434206D01*
X83776099Y-116396513D01*
X83794666Y-116361777D01*
X83819652Y-116331332D01*
X83850097Y-116306346D01*
X83884833Y-116287779D01*
X83922526Y-116276345D01*
X83967861Y-116271880D01*
X84804539Y-116271880D01*
X84849874Y-116276345D01*
X84849874Y-116276345D01*
G37*
G36*
X93562074Y-114038605D02*
G01*
X93599767Y-114050039D01*
X93634503Y-114068606D01*
X93664948Y-114093592D01*
X93689934Y-114124037D01*
X93708501Y-114158773D01*
X93719935Y-114196466D01*
X93724400Y-114241801D01*
X93724400Y-115328479D01*
X93719935Y-115373814D01*
X93708501Y-115411507D01*
X93689934Y-115446243D01*
X93664948Y-115476688D01*
X93634503Y-115501674D01*
X93599767Y-115520241D01*
X93562074Y-115531675D01*
X93516739Y-115536140D01*
X92680061Y-115536140D01*
X92634726Y-115531675D01*
X92597033Y-115520241D01*
X92562297Y-115501674D01*
X92531852Y-115476688D01*
X92506866Y-115446243D01*
X92488299Y-115411507D01*
X92476865Y-115373814D01*
X92472400Y-115328479D01*
X92472400Y-114241801D01*
X92476865Y-114196466D01*
X92488299Y-114158773D01*
X92506866Y-114124037D01*
X92531852Y-114093592D01*
X92562297Y-114068606D01*
X92597033Y-114050039D01*
X92634726Y-114038605D01*
X92680061Y-114034140D01*
X93516739Y-114034140D01*
X93562074Y-114038605D01*
X93562074Y-114038605D01*
G37*
G36*
X95612074Y-114038605D02*
G01*
X95649767Y-114050039D01*
X95684503Y-114068606D01*
X95714948Y-114093592D01*
X95739934Y-114124037D01*
X95758501Y-114158773D01*
X95769935Y-114196466D01*
X95774400Y-114241801D01*
X95774400Y-115328479D01*
X95769935Y-115373814D01*
X95758501Y-115411507D01*
X95739934Y-115446243D01*
X95714948Y-115476688D01*
X95684503Y-115501674D01*
X95649767Y-115520241D01*
X95612074Y-115531675D01*
X95566739Y-115536140D01*
X94730061Y-115536140D01*
X94684726Y-115531675D01*
X94647033Y-115520241D01*
X94612297Y-115501674D01*
X94581852Y-115476688D01*
X94556866Y-115446243D01*
X94538299Y-115411507D01*
X94526865Y-115373814D01*
X94522400Y-115328479D01*
X94522400Y-114241801D01*
X94526865Y-114196466D01*
X94538299Y-114158773D01*
X94556866Y-114124037D01*
X94581852Y-114093592D01*
X94612297Y-114068606D01*
X94647033Y-114050039D01*
X94684726Y-114038605D01*
X94730061Y-114034140D01*
X95566739Y-114034140D01*
X95612074Y-114038605D01*
X95612074Y-114038605D01*
G37*
G36*
X72988060Y-114993180D02*
G01*
X64886060Y-114993180D01*
X64886060Y-112991180D01*
X72988060Y-112991180D01*
X72988060Y-114993180D01*
X72988060Y-114993180D01*
G37*
G36*
X83655835Y-112829003D02*
G01*
X83662849Y-112831131D01*
X83676617Y-112838490D01*
X83699256Y-112847867D01*
X83723289Y-112852647D01*
X83747793Y-112852647D01*
X83771826Y-112847866D01*
X83794463Y-112838490D01*
X83808231Y-112831131D01*
X83815245Y-112829003D01*
X83828680Y-112827680D01*
X84142400Y-112827680D01*
X84155835Y-112829003D01*
X84162849Y-112831131D01*
X84176617Y-112838490D01*
X84199256Y-112847867D01*
X84223289Y-112852647D01*
X84247793Y-112852647D01*
X84271826Y-112847866D01*
X84294463Y-112838490D01*
X84308231Y-112831131D01*
X84315245Y-112829003D01*
X84328680Y-112827680D01*
X84642400Y-112827680D01*
X84655835Y-112829003D01*
X84662849Y-112831131D01*
X84676617Y-112838490D01*
X84699256Y-112847867D01*
X84723289Y-112852647D01*
X84747793Y-112852647D01*
X84771826Y-112847866D01*
X84794463Y-112838490D01*
X84808231Y-112831131D01*
X84815245Y-112829003D01*
X84828680Y-112827680D01*
X85142400Y-112827680D01*
X85155835Y-112829003D01*
X85162849Y-112831131D01*
X85176617Y-112838490D01*
X85199256Y-112847867D01*
X85223289Y-112852647D01*
X85247793Y-112852647D01*
X85271826Y-112847866D01*
X85294463Y-112838490D01*
X85308231Y-112831131D01*
X85315245Y-112829003D01*
X85328680Y-112827680D01*
X85642400Y-112827680D01*
X85655835Y-112829003D01*
X85662849Y-112831131D01*
X85676617Y-112838490D01*
X85699256Y-112847867D01*
X85723289Y-112852647D01*
X85747793Y-112852647D01*
X85771826Y-112847866D01*
X85794463Y-112838490D01*
X85808231Y-112831131D01*
X85815245Y-112829003D01*
X85828680Y-112827680D01*
X86142400Y-112827680D01*
X86155835Y-112829003D01*
X86162849Y-112831131D01*
X86176617Y-112838490D01*
X86199256Y-112847867D01*
X86223289Y-112852647D01*
X86247793Y-112852647D01*
X86271826Y-112847866D01*
X86294463Y-112838490D01*
X86308231Y-112831131D01*
X86315245Y-112829003D01*
X86328680Y-112827680D01*
X86642400Y-112827680D01*
X86655835Y-112829003D01*
X86662849Y-112831131D01*
X86676617Y-112838490D01*
X86699256Y-112847867D01*
X86723289Y-112852647D01*
X86747793Y-112852647D01*
X86771826Y-112847866D01*
X86794463Y-112838490D01*
X86808231Y-112831131D01*
X86815245Y-112829003D01*
X86828680Y-112827680D01*
X87142400Y-112827680D01*
X87155835Y-112829003D01*
X87162849Y-112831131D01*
X87176617Y-112838490D01*
X87199256Y-112847867D01*
X87223289Y-112852647D01*
X87247793Y-112852647D01*
X87271826Y-112847866D01*
X87294463Y-112838490D01*
X87308231Y-112831131D01*
X87315245Y-112829003D01*
X87328680Y-112827680D01*
X87642400Y-112827680D01*
X87655835Y-112829003D01*
X87662849Y-112831131D01*
X87676617Y-112838490D01*
X87699256Y-112847867D01*
X87723289Y-112852647D01*
X87747793Y-112852647D01*
X87771826Y-112847866D01*
X87794463Y-112838490D01*
X87808231Y-112831131D01*
X87815245Y-112829003D01*
X87828680Y-112827680D01*
X88142400Y-112827680D01*
X88155835Y-112829003D01*
X88162849Y-112831131D01*
X88176617Y-112838490D01*
X88199256Y-112847867D01*
X88223289Y-112852647D01*
X88247793Y-112852647D01*
X88271826Y-112847866D01*
X88294463Y-112838490D01*
X88308231Y-112831131D01*
X88315245Y-112829003D01*
X88328680Y-112827680D01*
X88642400Y-112827680D01*
X88655835Y-112829003D01*
X88662849Y-112831131D01*
X88676617Y-112838490D01*
X88699256Y-112847867D01*
X88723289Y-112852647D01*
X88747793Y-112852647D01*
X88771826Y-112847866D01*
X88794463Y-112838490D01*
X88808231Y-112831131D01*
X88815245Y-112829003D01*
X88828680Y-112827680D01*
X89142400Y-112827680D01*
X89155835Y-112829003D01*
X89162850Y-112831131D01*
X89169316Y-112834588D01*
X89174982Y-112839238D01*
X89179632Y-112844904D01*
X89183089Y-112851370D01*
X89185217Y-112858385D01*
X89186540Y-112871820D01*
X89186540Y-114360540D01*
X89185217Y-114373975D01*
X89183089Y-114380990D01*
X89179632Y-114387456D01*
X89174982Y-114393122D01*
X89169316Y-114397772D01*
X89162850Y-114401229D01*
X89155835Y-114403357D01*
X89142400Y-114404680D01*
X88828680Y-114404680D01*
X88815245Y-114403357D01*
X88808231Y-114401229D01*
X88794463Y-114393870D01*
X88771824Y-114384493D01*
X88747791Y-114379713D01*
X88723287Y-114379713D01*
X88699254Y-114384494D01*
X88676617Y-114393870D01*
X88662849Y-114401229D01*
X88655835Y-114403357D01*
X88642400Y-114404680D01*
X88328680Y-114404680D01*
X88315245Y-114403357D01*
X88308231Y-114401229D01*
X88294463Y-114393870D01*
X88271824Y-114384493D01*
X88247791Y-114379713D01*
X88223287Y-114379713D01*
X88199254Y-114384494D01*
X88176617Y-114393870D01*
X88162849Y-114401229D01*
X88155835Y-114403357D01*
X88142400Y-114404680D01*
X87828680Y-114404680D01*
X87815245Y-114403357D01*
X87808231Y-114401229D01*
X87794463Y-114393870D01*
X87771824Y-114384493D01*
X87747791Y-114379713D01*
X87723287Y-114379713D01*
X87699254Y-114384494D01*
X87676617Y-114393870D01*
X87662849Y-114401229D01*
X87655835Y-114403357D01*
X87642400Y-114404680D01*
X87328680Y-114404680D01*
X87315245Y-114403357D01*
X87308231Y-114401229D01*
X87294463Y-114393870D01*
X87271824Y-114384493D01*
X87247791Y-114379713D01*
X87223287Y-114379713D01*
X87199254Y-114384494D01*
X87176617Y-114393870D01*
X87162849Y-114401229D01*
X87155835Y-114403357D01*
X87142400Y-114404680D01*
X86828680Y-114404680D01*
X86815245Y-114403357D01*
X86808231Y-114401229D01*
X86794463Y-114393870D01*
X86771824Y-114384493D01*
X86747791Y-114379713D01*
X86723287Y-114379713D01*
X86699254Y-114384494D01*
X86676617Y-114393870D01*
X86662849Y-114401229D01*
X86655835Y-114403357D01*
X86642400Y-114404680D01*
X86328680Y-114404680D01*
X86315245Y-114403357D01*
X86308231Y-114401229D01*
X86294463Y-114393870D01*
X86271824Y-114384493D01*
X86247791Y-114379713D01*
X86223287Y-114379713D01*
X86199254Y-114384494D01*
X86176617Y-114393870D01*
X86162849Y-114401229D01*
X86155835Y-114403357D01*
X86142400Y-114404680D01*
X85828680Y-114404680D01*
X85815245Y-114403357D01*
X85808231Y-114401229D01*
X85794463Y-114393870D01*
X85771824Y-114384493D01*
X85747791Y-114379713D01*
X85723287Y-114379713D01*
X85699254Y-114384494D01*
X85676617Y-114393870D01*
X85662849Y-114401229D01*
X85655835Y-114403357D01*
X85642400Y-114404680D01*
X85328680Y-114404680D01*
X85315245Y-114403357D01*
X85308231Y-114401229D01*
X85294463Y-114393870D01*
X85271824Y-114384493D01*
X85247791Y-114379713D01*
X85223287Y-114379713D01*
X85199254Y-114384494D01*
X85176617Y-114393870D01*
X85162849Y-114401229D01*
X85155835Y-114403357D01*
X85142400Y-114404680D01*
X84828680Y-114404680D01*
X84815245Y-114403357D01*
X84808231Y-114401229D01*
X84794463Y-114393870D01*
X84771824Y-114384493D01*
X84747791Y-114379713D01*
X84723287Y-114379713D01*
X84699254Y-114384494D01*
X84676617Y-114393870D01*
X84662849Y-114401229D01*
X84655835Y-114403357D01*
X84642400Y-114404680D01*
X84328680Y-114404680D01*
X84315245Y-114403357D01*
X84308231Y-114401229D01*
X84294463Y-114393870D01*
X84271824Y-114384493D01*
X84247791Y-114379713D01*
X84223287Y-114379713D01*
X84199254Y-114384494D01*
X84176617Y-114393870D01*
X84162849Y-114401229D01*
X84155835Y-114403357D01*
X84142400Y-114404680D01*
X83828680Y-114404680D01*
X83815245Y-114403357D01*
X83808231Y-114401229D01*
X83794463Y-114393870D01*
X83771824Y-114384493D01*
X83747791Y-114379713D01*
X83723287Y-114379713D01*
X83699254Y-114384494D01*
X83676617Y-114393870D01*
X83662849Y-114401229D01*
X83655835Y-114403357D01*
X83642400Y-114404680D01*
X83328680Y-114404680D01*
X83315245Y-114403357D01*
X83308230Y-114401229D01*
X83301764Y-114397772D01*
X83296098Y-114393122D01*
X83291448Y-114387456D01*
X83287991Y-114380990D01*
X83285863Y-114373975D01*
X83284540Y-114360540D01*
X83284540Y-112871820D01*
X83285863Y-112858385D01*
X83287991Y-112851370D01*
X83291448Y-112844904D01*
X83296098Y-112839238D01*
X83301764Y-112834588D01*
X83308230Y-112831131D01*
X83315245Y-112829003D01*
X83328680Y-112827680D01*
X83642400Y-112827680D01*
X83655835Y-112829003D01*
X83655835Y-112829003D01*
G37*
G36*
X76219160Y-114293840D02*
G01*
X75217160Y-114293840D01*
X75217160Y-113391840D01*
X76219160Y-113391840D01*
X76219160Y-114293840D01*
X76219160Y-114293840D01*
G37*
G36*
X78219160Y-113343840D02*
G01*
X77217160Y-113343840D01*
X77217160Y-112441840D01*
X78219160Y-112441840D01*
X78219160Y-113343840D01*
X78219160Y-113343840D01*
G37*
G36*
X94129799Y-110962277D02*
G01*
X94139408Y-110965192D01*
X94148272Y-110969930D01*
X94156037Y-110976303D01*
X94166248Y-110988746D01*
X94173178Y-110999115D01*
X94190505Y-111016442D01*
X94210880Y-111030055D01*
X94233520Y-111039431D01*
X94257553Y-111044211D01*
X94282057Y-111044210D01*
X94306090Y-111039428D01*
X94328729Y-111030050D01*
X94349102Y-111016435D01*
X94366429Y-110999108D01*
X94373358Y-110988738D01*
X94383563Y-110976303D01*
X94391328Y-110969930D01*
X94400192Y-110965192D01*
X94409801Y-110962277D01*
X94425940Y-110960688D01*
X94913661Y-110960688D01*
X94931999Y-110962494D01*
X94944250Y-110963096D01*
X94962669Y-110963096D01*
X94984949Y-110965290D01*
X95069033Y-110982016D01*
X95090460Y-110988516D01*
X95169658Y-111021320D01*
X95175103Y-111024231D01*
X95175109Y-111024233D01*
X95183969Y-111028969D01*
X95183973Y-111028972D01*
X95189414Y-111031880D01*
X95260699Y-111079511D01*
X95278004Y-111093712D01*
X95338628Y-111154336D01*
X95352829Y-111171641D01*
X95400460Y-111242926D01*
X95403368Y-111248367D01*
X95403371Y-111248371D01*
X95408107Y-111257231D01*
X95408109Y-111257237D01*
X95411020Y-111262682D01*
X95443824Y-111341880D01*
X95450324Y-111363307D01*
X95467050Y-111447391D01*
X95469244Y-111469671D01*
X95469244Y-111488090D01*
X95469846Y-111500341D01*
X95471652Y-111518679D01*
X95471652Y-112006402D01*
X95469846Y-112024739D01*
X95469244Y-112036990D01*
X95469244Y-112055409D01*
X95467050Y-112077689D01*
X95450324Y-112161773D01*
X95443824Y-112183200D01*
X95411020Y-112262398D01*
X95408109Y-112267843D01*
X95408107Y-112267849D01*
X95403371Y-112276709D01*
X95403368Y-112276713D01*
X95400460Y-112282154D01*
X95352829Y-112353439D01*
X95338628Y-112370744D01*
X95278004Y-112431368D01*
X95260699Y-112445569D01*
X95189414Y-112493200D01*
X95183973Y-112496108D01*
X95183969Y-112496111D01*
X95175109Y-112500847D01*
X95175103Y-112500849D01*
X95169658Y-112503760D01*
X95090460Y-112536564D01*
X95069033Y-112543064D01*
X94984949Y-112559790D01*
X94962669Y-112561984D01*
X94944250Y-112561984D01*
X94931999Y-112562586D01*
X94913662Y-112564392D01*
X94425940Y-112564392D01*
X94409801Y-112562803D01*
X94400192Y-112559888D01*
X94391328Y-112555150D01*
X94383563Y-112548777D01*
X94373352Y-112536334D01*
X94366422Y-112525965D01*
X94349095Y-112508638D01*
X94328720Y-112495025D01*
X94306080Y-112485649D01*
X94282047Y-112480869D01*
X94257543Y-112480870D01*
X94233510Y-112485652D01*
X94210871Y-112495030D01*
X94190498Y-112508645D01*
X94173171Y-112525972D01*
X94166242Y-112536342D01*
X94156037Y-112548777D01*
X94148272Y-112555150D01*
X94139408Y-112559888D01*
X94129799Y-112562803D01*
X94113660Y-112564392D01*
X93625938Y-112564392D01*
X93607601Y-112562586D01*
X93595350Y-112561984D01*
X93576931Y-112561984D01*
X93554651Y-112559790D01*
X93470567Y-112543064D01*
X93449140Y-112536564D01*
X93369942Y-112503760D01*
X93364497Y-112500849D01*
X93364491Y-112500847D01*
X93355631Y-112496111D01*
X93355627Y-112496108D01*
X93350186Y-112493200D01*
X93278901Y-112445569D01*
X93261596Y-112431368D01*
X93200972Y-112370744D01*
X93186771Y-112353439D01*
X93139140Y-112282154D01*
X93136232Y-112276713D01*
X93136229Y-112276709D01*
X93131493Y-112267849D01*
X93131491Y-112267843D01*
X93128580Y-112262398D01*
X93095776Y-112183200D01*
X93089276Y-112161773D01*
X93072550Y-112077689D01*
X93070356Y-112055409D01*
X93070356Y-112036990D01*
X93069754Y-112024739D01*
X93067948Y-112006402D01*
X93067948Y-111518679D01*
X93069754Y-111500341D01*
X93070356Y-111488090D01*
X93070356Y-111469671D01*
X93072550Y-111447391D01*
X93089276Y-111363307D01*
X93095776Y-111341880D01*
X93128580Y-111262682D01*
X93131491Y-111257237D01*
X93131493Y-111257231D01*
X93136229Y-111248371D01*
X93136232Y-111248367D01*
X93139140Y-111242926D01*
X93186771Y-111171641D01*
X93200972Y-111154336D01*
X93261596Y-111093712D01*
X93278901Y-111079511D01*
X93350186Y-111031880D01*
X93355627Y-111028972D01*
X93355631Y-111028969D01*
X93364491Y-111024233D01*
X93364497Y-111024231D01*
X93369942Y-111021320D01*
X93449140Y-110988516D01*
X93470567Y-110982016D01*
X93554651Y-110965290D01*
X93576931Y-110963096D01*
X93595350Y-110963096D01*
X93607601Y-110962494D01*
X93625939Y-110960688D01*
X94113660Y-110960688D01*
X94129799Y-110962277D01*
X94129799Y-110962277D01*
G37*
G36*
X72988060Y-112533180D02*
G01*
X65386060Y-112533180D01*
X65386060Y-110431180D01*
X72988060Y-110431180D01*
X72988060Y-112533180D01*
X72988060Y-112533180D01*
G37*
G36*
X91155835Y-106504003D02*
G01*
X91162850Y-106506131D01*
X91169316Y-106509588D01*
X91174982Y-106514238D01*
X91179632Y-106519904D01*
X91183089Y-106526370D01*
X91185217Y-106533385D01*
X91186540Y-106546820D01*
X91186540Y-106860540D01*
X91185217Y-106873975D01*
X91183089Y-106880989D01*
X91175730Y-106894757D01*
X91166353Y-106917396D01*
X91161573Y-106941429D01*
X91161573Y-106965933D01*
X91166354Y-106989966D01*
X91175730Y-107012603D01*
X91183089Y-107026371D01*
X91185217Y-107033385D01*
X91186540Y-107046820D01*
X91186540Y-107360540D01*
X91185217Y-107373975D01*
X91183089Y-107380989D01*
X91175730Y-107394757D01*
X91166353Y-107417396D01*
X91161573Y-107441429D01*
X91161573Y-107465933D01*
X91166354Y-107489966D01*
X91175730Y-107512603D01*
X91183089Y-107526371D01*
X91185217Y-107533385D01*
X91186540Y-107546820D01*
X91186540Y-107860540D01*
X91185217Y-107873975D01*
X91183089Y-107880989D01*
X91175730Y-107894757D01*
X91166353Y-107917396D01*
X91161573Y-107941429D01*
X91161573Y-107965933D01*
X91166354Y-107989966D01*
X91175730Y-108012603D01*
X91183089Y-108026371D01*
X91185217Y-108033385D01*
X91186540Y-108046820D01*
X91186540Y-108360540D01*
X91185217Y-108373975D01*
X91183089Y-108380989D01*
X91175730Y-108394757D01*
X91166353Y-108417396D01*
X91161573Y-108441429D01*
X91161573Y-108465933D01*
X91166354Y-108489966D01*
X91175730Y-108512603D01*
X91183089Y-108526371D01*
X91185217Y-108533385D01*
X91186540Y-108546820D01*
X91186540Y-108860540D01*
X91185217Y-108873975D01*
X91183089Y-108880989D01*
X91175730Y-108894757D01*
X91166353Y-108917396D01*
X91161573Y-108941429D01*
X91161573Y-108965933D01*
X91166354Y-108989966D01*
X91175730Y-109012603D01*
X91183089Y-109026371D01*
X91185217Y-109033385D01*
X91186540Y-109046820D01*
X91186540Y-109360540D01*
X91185217Y-109373975D01*
X91183089Y-109380989D01*
X91175730Y-109394757D01*
X91166353Y-109417396D01*
X91161573Y-109441429D01*
X91161573Y-109465933D01*
X91166354Y-109489966D01*
X91175730Y-109512603D01*
X91183089Y-109526371D01*
X91185217Y-109533385D01*
X91186540Y-109546820D01*
X91186540Y-109860540D01*
X91185217Y-109873975D01*
X91183089Y-109880989D01*
X91175730Y-109894757D01*
X91166353Y-109917396D01*
X91161573Y-109941429D01*
X91161573Y-109965933D01*
X91166354Y-109989966D01*
X91175730Y-110012603D01*
X91183089Y-110026371D01*
X91185217Y-110033385D01*
X91186540Y-110046820D01*
X91186540Y-110360540D01*
X91185217Y-110373975D01*
X91183089Y-110380989D01*
X91175730Y-110394757D01*
X91166353Y-110417396D01*
X91161573Y-110441429D01*
X91161573Y-110465933D01*
X91166354Y-110489966D01*
X91175730Y-110512603D01*
X91183089Y-110526371D01*
X91185217Y-110533385D01*
X91186540Y-110546820D01*
X91186540Y-110860540D01*
X91185217Y-110873975D01*
X91183089Y-110880989D01*
X91175730Y-110894757D01*
X91166353Y-110917396D01*
X91161573Y-110941429D01*
X91161573Y-110965933D01*
X91166354Y-110989966D01*
X91175730Y-111012603D01*
X91183089Y-111026371D01*
X91185217Y-111033385D01*
X91186540Y-111046820D01*
X91186540Y-111360540D01*
X91185217Y-111373975D01*
X91183089Y-111380989D01*
X91175730Y-111394757D01*
X91166353Y-111417396D01*
X91161573Y-111441429D01*
X91161573Y-111465933D01*
X91166354Y-111489966D01*
X91175730Y-111512603D01*
X91183089Y-111526371D01*
X91185217Y-111533385D01*
X91186540Y-111546820D01*
X91186540Y-111860540D01*
X91185217Y-111873975D01*
X91183089Y-111880989D01*
X91175730Y-111894757D01*
X91166353Y-111917396D01*
X91161573Y-111941429D01*
X91161573Y-111965933D01*
X91166354Y-111989966D01*
X91175730Y-112012603D01*
X91183089Y-112026371D01*
X91185217Y-112033385D01*
X91186540Y-112046820D01*
X91186540Y-112360540D01*
X91185217Y-112373975D01*
X91183089Y-112380990D01*
X91179632Y-112387456D01*
X91174982Y-112393122D01*
X91169316Y-112397772D01*
X91162850Y-112401229D01*
X91155835Y-112403357D01*
X91142400Y-112404680D01*
X89653680Y-112404680D01*
X89640245Y-112403357D01*
X89633230Y-112401229D01*
X89626764Y-112397772D01*
X89621098Y-112393122D01*
X89616448Y-112387456D01*
X89612991Y-112380990D01*
X89610863Y-112373975D01*
X89609540Y-112360540D01*
X89609540Y-112046820D01*
X89610863Y-112033385D01*
X89612991Y-112026371D01*
X89620350Y-112012603D01*
X89629727Y-111989964D01*
X89634507Y-111965931D01*
X89634507Y-111941427D01*
X89629726Y-111917394D01*
X89620350Y-111894757D01*
X89612991Y-111880989D01*
X89610863Y-111873975D01*
X89609540Y-111860540D01*
X89609540Y-111546820D01*
X89610863Y-111533385D01*
X89612991Y-111526371D01*
X89620350Y-111512603D01*
X89629727Y-111489964D01*
X89634507Y-111465931D01*
X89634507Y-111441427D01*
X89629726Y-111417394D01*
X89620350Y-111394757D01*
X89612991Y-111380989D01*
X89610863Y-111373975D01*
X89609540Y-111360540D01*
X89609540Y-111046820D01*
X89610863Y-111033385D01*
X89612991Y-111026371D01*
X89620350Y-111012603D01*
X89629727Y-110989964D01*
X89634507Y-110965931D01*
X89634507Y-110941427D01*
X89629726Y-110917394D01*
X89620350Y-110894757D01*
X89612991Y-110880989D01*
X89610863Y-110873975D01*
X89609540Y-110860540D01*
X89609540Y-110546820D01*
X89610863Y-110533385D01*
X89612991Y-110526371D01*
X89620350Y-110512603D01*
X89629727Y-110489964D01*
X89634507Y-110465931D01*
X89634507Y-110441427D01*
X89629726Y-110417394D01*
X89620350Y-110394757D01*
X89612991Y-110380989D01*
X89610863Y-110373975D01*
X89609540Y-110360540D01*
X89609540Y-110046820D01*
X89610863Y-110033385D01*
X89612991Y-110026371D01*
X89620350Y-110012603D01*
X89629727Y-109989964D01*
X89634507Y-109965931D01*
X89634507Y-109941427D01*
X89629726Y-109917394D01*
X89620350Y-109894757D01*
X89612991Y-109880989D01*
X89610863Y-109873975D01*
X89609540Y-109860540D01*
X89609540Y-109546820D01*
X89610863Y-109533385D01*
X89612991Y-109526371D01*
X89620350Y-109512603D01*
X89629727Y-109489964D01*
X89634507Y-109465931D01*
X89634507Y-109441427D01*
X89629726Y-109417394D01*
X89620350Y-109394757D01*
X89612991Y-109380989D01*
X89610863Y-109373975D01*
X89609540Y-109360540D01*
X89609540Y-109046820D01*
X89610863Y-109033385D01*
X89612991Y-109026371D01*
X89620350Y-109012603D01*
X89629727Y-108989964D01*
X89634507Y-108965931D01*
X89634507Y-108941427D01*
X89629726Y-108917394D01*
X89620350Y-108894757D01*
X89612991Y-108880989D01*
X89610863Y-108873975D01*
X89609540Y-108860540D01*
X89609540Y-108546820D01*
X89610863Y-108533385D01*
X89612991Y-108526371D01*
X89620350Y-108512603D01*
X89629727Y-108489964D01*
X89634507Y-108465931D01*
X89634507Y-108441427D01*
X89629726Y-108417394D01*
X89620350Y-108394757D01*
X89612991Y-108380989D01*
X89610863Y-108373975D01*
X89609540Y-108360540D01*
X89609540Y-108046820D01*
X89610863Y-108033385D01*
X89612991Y-108026371D01*
X89620350Y-108012603D01*
X89629727Y-107989964D01*
X89634507Y-107965931D01*
X89634507Y-107941427D01*
X89629726Y-107917394D01*
X89620350Y-107894757D01*
X89612991Y-107880989D01*
X89610863Y-107873975D01*
X89609540Y-107860540D01*
X89609540Y-107546820D01*
X89610863Y-107533385D01*
X89612991Y-107526371D01*
X89620350Y-107512603D01*
X89629727Y-107489964D01*
X89634507Y-107465931D01*
X89634507Y-107441427D01*
X89629726Y-107417394D01*
X89620350Y-107394757D01*
X89612991Y-107380989D01*
X89610863Y-107373975D01*
X89609540Y-107360540D01*
X89609540Y-107046820D01*
X89610863Y-107033385D01*
X89612991Y-107026371D01*
X89620350Y-107012603D01*
X89629727Y-106989964D01*
X89634507Y-106965931D01*
X89634507Y-106941427D01*
X89629726Y-106917394D01*
X89620350Y-106894757D01*
X89612991Y-106880989D01*
X89610863Y-106873975D01*
X89609540Y-106860540D01*
X89609540Y-106546820D01*
X89610863Y-106533385D01*
X89612991Y-106526370D01*
X89616448Y-106519904D01*
X89621098Y-106514238D01*
X89626764Y-106509588D01*
X89633230Y-106506131D01*
X89640245Y-106504003D01*
X89653680Y-106502680D01*
X91142400Y-106502680D01*
X91155835Y-106504003D01*
X91155835Y-106504003D01*
G37*
G36*
X82830835Y-106504003D02*
G01*
X82837850Y-106506131D01*
X82844316Y-106509588D01*
X82849982Y-106514238D01*
X82854632Y-106519904D01*
X82858089Y-106526370D01*
X82860217Y-106533385D01*
X82861540Y-106546820D01*
X82861540Y-106860540D01*
X82860217Y-106873975D01*
X82858089Y-106880989D01*
X82850730Y-106894757D01*
X82841353Y-106917396D01*
X82836573Y-106941429D01*
X82836573Y-106965933D01*
X82841354Y-106989966D01*
X82850730Y-107012603D01*
X82858089Y-107026371D01*
X82860217Y-107033385D01*
X82861540Y-107046820D01*
X82861540Y-107360540D01*
X82860217Y-107373975D01*
X82858089Y-107380989D01*
X82850730Y-107394757D01*
X82841353Y-107417396D01*
X82836573Y-107441429D01*
X82836573Y-107465933D01*
X82841354Y-107489966D01*
X82850730Y-107512603D01*
X82858089Y-107526371D01*
X82860217Y-107533385D01*
X82861540Y-107546820D01*
X82861540Y-107860540D01*
X82860217Y-107873975D01*
X82858089Y-107880989D01*
X82850730Y-107894757D01*
X82841353Y-107917396D01*
X82836573Y-107941429D01*
X82836573Y-107965933D01*
X82841354Y-107989966D01*
X82850730Y-108012603D01*
X82858089Y-108026371D01*
X82860217Y-108033385D01*
X82861540Y-108046820D01*
X82861540Y-108360540D01*
X82860217Y-108373975D01*
X82858089Y-108380989D01*
X82850730Y-108394757D01*
X82841353Y-108417396D01*
X82836573Y-108441429D01*
X82836573Y-108465933D01*
X82841354Y-108489966D01*
X82850730Y-108512603D01*
X82858089Y-108526371D01*
X82860217Y-108533385D01*
X82861540Y-108546820D01*
X82861540Y-108860540D01*
X82860217Y-108873975D01*
X82858089Y-108880989D01*
X82850730Y-108894757D01*
X82841353Y-108917396D01*
X82836573Y-108941429D01*
X82836573Y-108965933D01*
X82841354Y-108989966D01*
X82850730Y-109012603D01*
X82858089Y-109026371D01*
X82860217Y-109033385D01*
X82861540Y-109046820D01*
X82861540Y-109360540D01*
X82860217Y-109373975D01*
X82858089Y-109380989D01*
X82850730Y-109394757D01*
X82841353Y-109417396D01*
X82836573Y-109441429D01*
X82836573Y-109465933D01*
X82841354Y-109489966D01*
X82850730Y-109512603D01*
X82858089Y-109526371D01*
X82860217Y-109533385D01*
X82861540Y-109546820D01*
X82861540Y-109860540D01*
X82860217Y-109873975D01*
X82858089Y-109880989D01*
X82850730Y-109894757D01*
X82841353Y-109917396D01*
X82836573Y-109941429D01*
X82836573Y-109965933D01*
X82841354Y-109989966D01*
X82850730Y-110012603D01*
X82858089Y-110026371D01*
X82860217Y-110033385D01*
X82861540Y-110046820D01*
X82861540Y-110360540D01*
X82860217Y-110373975D01*
X82858089Y-110380989D01*
X82850730Y-110394757D01*
X82841353Y-110417396D01*
X82836573Y-110441429D01*
X82836573Y-110465933D01*
X82841354Y-110489966D01*
X82850730Y-110512603D01*
X82858089Y-110526371D01*
X82860217Y-110533385D01*
X82861540Y-110546820D01*
X82861540Y-110860540D01*
X82860217Y-110873975D01*
X82858089Y-110880989D01*
X82850730Y-110894757D01*
X82841353Y-110917396D01*
X82836573Y-110941429D01*
X82836573Y-110965933D01*
X82841354Y-110989966D01*
X82850730Y-111012603D01*
X82858089Y-111026371D01*
X82860217Y-111033385D01*
X82861540Y-111046820D01*
X82861540Y-111360540D01*
X82860217Y-111373975D01*
X82858089Y-111380989D01*
X82850730Y-111394757D01*
X82841353Y-111417396D01*
X82836573Y-111441429D01*
X82836573Y-111465933D01*
X82841354Y-111489966D01*
X82850730Y-111512603D01*
X82858089Y-111526371D01*
X82860217Y-111533385D01*
X82861540Y-111546820D01*
X82861540Y-111860540D01*
X82860217Y-111873975D01*
X82858089Y-111880989D01*
X82850730Y-111894757D01*
X82841353Y-111917396D01*
X82836573Y-111941429D01*
X82836573Y-111965933D01*
X82841354Y-111989966D01*
X82850730Y-112012603D01*
X82858089Y-112026371D01*
X82860217Y-112033385D01*
X82861540Y-112046820D01*
X82861540Y-112360540D01*
X82860217Y-112373975D01*
X82858089Y-112380990D01*
X82854632Y-112387456D01*
X82849982Y-112393122D01*
X82844316Y-112397772D01*
X82837850Y-112401229D01*
X82830835Y-112403357D01*
X82817400Y-112404680D01*
X81328680Y-112404680D01*
X81315245Y-112403357D01*
X81308230Y-112401229D01*
X81301764Y-112397772D01*
X81296098Y-112393122D01*
X81291448Y-112387456D01*
X81287991Y-112380990D01*
X81285863Y-112373975D01*
X81284540Y-112360540D01*
X81284540Y-112046820D01*
X81285863Y-112033385D01*
X81287991Y-112026371D01*
X81295350Y-112012603D01*
X81304727Y-111989964D01*
X81309507Y-111965931D01*
X81309507Y-111941427D01*
X81304726Y-111917394D01*
X81295350Y-111894757D01*
X81287991Y-111880989D01*
X81285863Y-111873975D01*
X81284540Y-111860540D01*
X81284540Y-111546820D01*
X81285863Y-111533385D01*
X81287991Y-111526371D01*
X81295350Y-111512603D01*
X81304727Y-111489964D01*
X81309507Y-111465931D01*
X81309507Y-111441427D01*
X81304726Y-111417394D01*
X81295350Y-111394757D01*
X81287991Y-111380989D01*
X81285863Y-111373975D01*
X81284540Y-111360540D01*
X81284540Y-111046820D01*
X81285863Y-111033385D01*
X81287991Y-111026371D01*
X81295350Y-111012603D01*
X81304727Y-110989964D01*
X81309507Y-110965931D01*
X81309507Y-110941427D01*
X81304726Y-110917394D01*
X81295350Y-110894757D01*
X81287991Y-110880989D01*
X81285863Y-110873975D01*
X81284540Y-110860540D01*
X81284540Y-110546820D01*
X81285863Y-110533385D01*
X81287991Y-110526371D01*
X81295350Y-110512603D01*
X81304727Y-110489964D01*
X81309507Y-110465931D01*
X81309507Y-110441427D01*
X81304726Y-110417394D01*
X81295350Y-110394757D01*
X81287991Y-110380989D01*
X81285863Y-110373975D01*
X81284540Y-110360540D01*
X81284540Y-110046820D01*
X81285863Y-110033385D01*
X81287991Y-110026371D01*
X81295350Y-110012603D01*
X81304727Y-109989964D01*
X81309507Y-109965931D01*
X81309507Y-109941427D01*
X81304726Y-109917394D01*
X81295350Y-109894757D01*
X81287991Y-109880989D01*
X81285863Y-109873975D01*
X81284540Y-109860540D01*
X81284540Y-109546820D01*
X81285863Y-109533385D01*
X81287991Y-109526371D01*
X81295350Y-109512603D01*
X81304727Y-109489964D01*
X81309507Y-109465931D01*
X81309507Y-109441427D01*
X81304726Y-109417394D01*
X81295350Y-109394757D01*
X81287991Y-109380989D01*
X81285863Y-109373975D01*
X81284540Y-109360540D01*
X81284540Y-109046820D01*
X81285863Y-109033385D01*
X81287991Y-109026371D01*
X81295350Y-109012603D01*
X81304727Y-108989964D01*
X81309507Y-108965931D01*
X81309507Y-108941427D01*
X81304726Y-108917394D01*
X81295350Y-108894757D01*
X81287991Y-108880989D01*
X81285863Y-108873975D01*
X81284540Y-108860540D01*
X81284540Y-108546820D01*
X81285863Y-108533385D01*
X81287991Y-108526371D01*
X81295350Y-108512603D01*
X81304727Y-108489964D01*
X81309507Y-108465931D01*
X81309507Y-108441427D01*
X81304726Y-108417394D01*
X81295350Y-108394757D01*
X81287991Y-108380989D01*
X81285863Y-108373975D01*
X81284540Y-108360540D01*
X81284540Y-108046820D01*
X81285863Y-108033385D01*
X81287991Y-108026371D01*
X81295350Y-108012603D01*
X81304727Y-107989964D01*
X81309507Y-107965931D01*
X81309507Y-107941427D01*
X81304726Y-107917394D01*
X81295350Y-107894757D01*
X81287991Y-107880989D01*
X81285863Y-107873975D01*
X81284540Y-107860540D01*
X81284540Y-107546820D01*
X81285863Y-107533385D01*
X81287991Y-107526371D01*
X81295350Y-107512603D01*
X81304727Y-107489964D01*
X81309507Y-107465931D01*
X81309507Y-107441427D01*
X81304726Y-107417394D01*
X81295350Y-107394757D01*
X81287991Y-107380989D01*
X81285863Y-107373975D01*
X81284540Y-107360540D01*
X81284540Y-107046820D01*
X81285863Y-107033385D01*
X81287991Y-107026371D01*
X81295350Y-107012603D01*
X81304727Y-106989964D01*
X81309507Y-106965931D01*
X81309507Y-106941427D01*
X81304726Y-106917394D01*
X81295350Y-106894757D01*
X81287991Y-106880989D01*
X81285863Y-106873975D01*
X81284540Y-106860540D01*
X81284540Y-106546820D01*
X81285863Y-106533385D01*
X81287991Y-106526370D01*
X81291448Y-106519904D01*
X81296098Y-106514238D01*
X81301764Y-106509588D01*
X81308230Y-106506131D01*
X81315245Y-106504003D01*
X81328680Y-106502680D01*
X82817400Y-106502680D01*
X82830835Y-106504003D01*
X82830835Y-106504003D01*
G37*
G36*
X76219160Y-112393840D02*
G01*
X75217160Y-112393840D01*
X75217160Y-111491840D01*
X76219160Y-111491840D01*
X76219160Y-112393840D01*
X76219160Y-112393840D01*
G37*
G36*
X94187674Y-108804205D02*
G01*
X94225367Y-108815639D01*
X94260103Y-108834206D01*
X94290548Y-108859192D01*
X94315534Y-108889637D01*
X94334101Y-108924373D01*
X94345535Y-108962066D01*
X94350000Y-109007401D01*
X94350000Y-109844079D01*
X94345535Y-109889414D01*
X94334101Y-109927107D01*
X94315534Y-109961843D01*
X94290548Y-109992288D01*
X94260103Y-110017274D01*
X94225367Y-110035841D01*
X94187674Y-110047275D01*
X94142339Y-110051740D01*
X93055661Y-110051740D01*
X93010326Y-110047275D01*
X92972633Y-110035841D01*
X92937897Y-110017274D01*
X92907452Y-109992288D01*
X92882466Y-109961843D01*
X92863899Y-109927107D01*
X92852465Y-109889414D01*
X92848000Y-109844079D01*
X92848000Y-109007401D01*
X92852465Y-108962066D01*
X92863899Y-108924373D01*
X92882466Y-108889637D01*
X92907452Y-108859192D01*
X92937897Y-108834206D01*
X92972633Y-108815639D01*
X93010326Y-108804205D01*
X93055661Y-108799740D01*
X94142339Y-108799740D01*
X94187674Y-108804205D01*
X94187674Y-108804205D01*
G37*
G36*
X72988060Y-109933180D02*
G01*
X65386060Y-109933180D01*
X65386060Y-107831180D01*
X72988060Y-107831180D01*
X72988060Y-109933180D01*
X72988060Y-109933180D01*
G37*
G36*
X79882074Y-106827545D02*
G01*
X79919767Y-106838979D01*
X79954503Y-106857546D01*
X79984948Y-106882532D01*
X80009934Y-106912977D01*
X80028501Y-106947713D01*
X80039935Y-106985406D01*
X80044400Y-107030741D01*
X80044400Y-108117419D01*
X80039935Y-108162754D01*
X80028501Y-108200447D01*
X80009934Y-108235183D01*
X79984948Y-108265628D01*
X79954503Y-108290614D01*
X79919767Y-108309181D01*
X79882074Y-108320615D01*
X79836739Y-108325080D01*
X79000061Y-108325080D01*
X78954726Y-108320615D01*
X78917033Y-108309181D01*
X78882297Y-108290614D01*
X78851852Y-108265628D01*
X78826866Y-108235183D01*
X78808299Y-108200447D01*
X78796865Y-108162754D01*
X78792400Y-108117419D01*
X78792400Y-107030741D01*
X78796865Y-106985406D01*
X78808299Y-106947713D01*
X78826866Y-106912977D01*
X78851852Y-106882532D01*
X78882297Y-106857546D01*
X78917033Y-106838979D01*
X78954726Y-106827545D01*
X79000061Y-106823080D01*
X79836739Y-106823080D01*
X79882074Y-106827545D01*
X79882074Y-106827545D01*
G37*
G36*
X77832074Y-106827545D02*
G01*
X77869767Y-106838979D01*
X77904503Y-106857546D01*
X77934948Y-106882532D01*
X77959934Y-106912977D01*
X77978501Y-106947713D01*
X77989935Y-106985406D01*
X77994400Y-107030741D01*
X77994400Y-108117419D01*
X77989935Y-108162754D01*
X77978501Y-108200447D01*
X77959934Y-108235183D01*
X77934948Y-108265628D01*
X77904503Y-108290614D01*
X77869767Y-108309181D01*
X77832074Y-108320615D01*
X77786739Y-108325080D01*
X76950061Y-108325080D01*
X76904726Y-108320615D01*
X76867033Y-108309181D01*
X76832297Y-108290614D01*
X76801852Y-108265628D01*
X76776866Y-108235183D01*
X76758299Y-108200447D01*
X76746865Y-108162754D01*
X76742400Y-108117419D01*
X76742400Y-107030741D01*
X76746865Y-106985406D01*
X76758299Y-106947713D01*
X76776866Y-106912977D01*
X76801852Y-106882532D01*
X76832297Y-106857546D01*
X76867033Y-106838979D01*
X76904726Y-106827545D01*
X76950061Y-106823080D01*
X77786739Y-106823080D01*
X77832074Y-106827545D01*
X77832074Y-106827545D01*
G37*
G36*
X94187674Y-106754205D02*
G01*
X94225367Y-106765639D01*
X94260103Y-106784206D01*
X94290548Y-106809192D01*
X94315534Y-106839637D01*
X94334101Y-106874373D01*
X94345535Y-106912066D01*
X94350000Y-106957401D01*
X94350000Y-107794079D01*
X94345535Y-107839414D01*
X94334101Y-107877107D01*
X94315534Y-107911843D01*
X94290548Y-107942288D01*
X94260103Y-107967274D01*
X94225367Y-107985841D01*
X94187674Y-107997275D01*
X94142339Y-108001740D01*
X93055661Y-108001740D01*
X93010326Y-107997275D01*
X92972633Y-107985841D01*
X92937897Y-107967274D01*
X92907452Y-107942288D01*
X92882466Y-107911843D01*
X92863899Y-107877107D01*
X92852465Y-107839414D01*
X92848000Y-107794079D01*
X92848000Y-106957401D01*
X92852465Y-106912066D01*
X92863899Y-106874373D01*
X92882466Y-106839637D01*
X92907452Y-106809192D01*
X92937897Y-106784206D01*
X92972633Y-106765639D01*
X93010326Y-106754205D01*
X93055661Y-106749740D01*
X94142339Y-106749740D01*
X94187674Y-106754205D01*
X94187674Y-106754205D01*
G37*
G36*
X72988060Y-107373180D02*
G01*
X64886060Y-107373180D01*
X64886060Y-105371180D01*
X72988060Y-105371180D01*
X72988060Y-107373180D01*
X72988060Y-107373180D01*
G37*
G36*
X83655835Y-104504003D02*
G01*
X83662849Y-104506131D01*
X83676617Y-104513490D01*
X83699256Y-104522867D01*
X83723289Y-104527647D01*
X83747793Y-104527647D01*
X83771826Y-104522866D01*
X83794463Y-104513490D01*
X83808231Y-104506131D01*
X83815245Y-104504003D01*
X83828680Y-104502680D01*
X84142400Y-104502680D01*
X84155835Y-104504003D01*
X84162849Y-104506131D01*
X84176617Y-104513490D01*
X84199256Y-104522867D01*
X84223289Y-104527647D01*
X84247793Y-104527647D01*
X84271826Y-104522866D01*
X84294463Y-104513490D01*
X84308231Y-104506131D01*
X84315245Y-104504003D01*
X84328680Y-104502680D01*
X84642400Y-104502680D01*
X84655835Y-104504003D01*
X84662849Y-104506131D01*
X84676617Y-104513490D01*
X84699256Y-104522867D01*
X84723289Y-104527647D01*
X84747793Y-104527647D01*
X84771826Y-104522866D01*
X84794463Y-104513490D01*
X84808231Y-104506131D01*
X84815245Y-104504003D01*
X84828680Y-104502680D01*
X85142400Y-104502680D01*
X85155835Y-104504003D01*
X85162849Y-104506131D01*
X85176617Y-104513490D01*
X85199256Y-104522867D01*
X85223289Y-104527647D01*
X85247793Y-104527647D01*
X85271826Y-104522866D01*
X85294463Y-104513490D01*
X85308231Y-104506131D01*
X85315245Y-104504003D01*
X85328680Y-104502680D01*
X85642400Y-104502680D01*
X85655835Y-104504003D01*
X85662849Y-104506131D01*
X85676617Y-104513490D01*
X85699256Y-104522867D01*
X85723289Y-104527647D01*
X85747793Y-104527647D01*
X85771826Y-104522866D01*
X85794463Y-104513490D01*
X85808231Y-104506131D01*
X85815245Y-104504003D01*
X85828680Y-104502680D01*
X86142400Y-104502680D01*
X86155835Y-104504003D01*
X86162849Y-104506131D01*
X86176617Y-104513490D01*
X86199256Y-104522867D01*
X86223289Y-104527647D01*
X86247793Y-104527647D01*
X86271826Y-104522866D01*
X86294463Y-104513490D01*
X86308231Y-104506131D01*
X86315245Y-104504003D01*
X86328680Y-104502680D01*
X86642400Y-104502680D01*
X86655835Y-104504003D01*
X86662849Y-104506131D01*
X86676617Y-104513490D01*
X86699256Y-104522867D01*
X86723289Y-104527647D01*
X86747793Y-104527647D01*
X86771826Y-104522866D01*
X86794463Y-104513490D01*
X86808231Y-104506131D01*
X86815245Y-104504003D01*
X86828680Y-104502680D01*
X87142400Y-104502680D01*
X87155835Y-104504003D01*
X87162849Y-104506131D01*
X87176617Y-104513490D01*
X87199256Y-104522867D01*
X87223289Y-104527647D01*
X87247793Y-104527647D01*
X87271826Y-104522866D01*
X87294463Y-104513490D01*
X87308231Y-104506131D01*
X87315245Y-104504003D01*
X87328680Y-104502680D01*
X87642400Y-104502680D01*
X87655835Y-104504003D01*
X87662849Y-104506131D01*
X87676617Y-104513490D01*
X87699256Y-104522867D01*
X87723289Y-104527647D01*
X87747793Y-104527647D01*
X87771826Y-104522866D01*
X87794463Y-104513490D01*
X87808231Y-104506131D01*
X87815245Y-104504003D01*
X87828680Y-104502680D01*
X88142400Y-104502680D01*
X88155835Y-104504003D01*
X88162849Y-104506131D01*
X88176617Y-104513490D01*
X88199256Y-104522867D01*
X88223289Y-104527647D01*
X88247793Y-104527647D01*
X88271826Y-104522866D01*
X88294463Y-104513490D01*
X88308231Y-104506131D01*
X88315245Y-104504003D01*
X88328680Y-104502680D01*
X88642400Y-104502680D01*
X88655835Y-104504003D01*
X88662849Y-104506131D01*
X88676617Y-104513490D01*
X88699256Y-104522867D01*
X88723289Y-104527647D01*
X88747793Y-104527647D01*
X88771826Y-104522866D01*
X88794463Y-104513490D01*
X88808231Y-104506131D01*
X88815245Y-104504003D01*
X88828680Y-104502680D01*
X89142400Y-104502680D01*
X89155835Y-104504003D01*
X89162850Y-104506131D01*
X89169316Y-104509588D01*
X89174982Y-104514238D01*
X89179632Y-104519904D01*
X89183089Y-104526370D01*
X89185217Y-104533385D01*
X89186540Y-104546820D01*
X89186540Y-106035540D01*
X89185217Y-106048975D01*
X89183089Y-106055990D01*
X89179632Y-106062456D01*
X89174982Y-106068122D01*
X89169316Y-106072772D01*
X89162850Y-106076229D01*
X89155835Y-106078357D01*
X89142400Y-106079680D01*
X88828680Y-106079680D01*
X88815245Y-106078357D01*
X88808231Y-106076229D01*
X88794463Y-106068870D01*
X88771824Y-106059493D01*
X88747791Y-106054713D01*
X88723287Y-106054713D01*
X88699254Y-106059494D01*
X88676617Y-106068870D01*
X88662849Y-106076229D01*
X88655835Y-106078357D01*
X88642400Y-106079680D01*
X88328680Y-106079680D01*
X88315245Y-106078357D01*
X88308231Y-106076229D01*
X88294463Y-106068870D01*
X88271824Y-106059493D01*
X88247791Y-106054713D01*
X88223287Y-106054713D01*
X88199254Y-106059494D01*
X88176617Y-106068870D01*
X88162849Y-106076229D01*
X88155835Y-106078357D01*
X88142400Y-106079680D01*
X87828680Y-106079680D01*
X87815245Y-106078357D01*
X87808231Y-106076229D01*
X87794463Y-106068870D01*
X87771824Y-106059493D01*
X87747791Y-106054713D01*
X87723287Y-106054713D01*
X87699254Y-106059494D01*
X87676617Y-106068870D01*
X87662849Y-106076229D01*
X87655835Y-106078357D01*
X87642400Y-106079680D01*
X87328680Y-106079680D01*
X87315245Y-106078357D01*
X87308231Y-106076229D01*
X87294463Y-106068870D01*
X87271824Y-106059493D01*
X87247791Y-106054713D01*
X87223287Y-106054713D01*
X87199254Y-106059494D01*
X87176617Y-106068870D01*
X87162849Y-106076229D01*
X87155835Y-106078357D01*
X87142400Y-106079680D01*
X86828680Y-106079680D01*
X86815245Y-106078357D01*
X86808231Y-106076229D01*
X86794463Y-106068870D01*
X86771824Y-106059493D01*
X86747791Y-106054713D01*
X86723287Y-106054713D01*
X86699254Y-106059494D01*
X86676617Y-106068870D01*
X86662849Y-106076229D01*
X86655835Y-106078357D01*
X86642400Y-106079680D01*
X86328680Y-106079680D01*
X86315245Y-106078357D01*
X86308231Y-106076229D01*
X86294463Y-106068870D01*
X86271824Y-106059493D01*
X86247791Y-106054713D01*
X86223287Y-106054713D01*
X86199254Y-106059494D01*
X86176617Y-106068870D01*
X86162849Y-106076229D01*
X86155835Y-106078357D01*
X86142400Y-106079680D01*
X85828680Y-106079680D01*
X85815245Y-106078357D01*
X85808231Y-106076229D01*
X85794463Y-106068870D01*
X85771824Y-106059493D01*
X85747791Y-106054713D01*
X85723287Y-106054713D01*
X85699254Y-106059494D01*
X85676617Y-106068870D01*
X85662849Y-106076229D01*
X85655835Y-106078357D01*
X85642400Y-106079680D01*
X85328680Y-106079680D01*
X85315245Y-106078357D01*
X85308231Y-106076229D01*
X85294463Y-106068870D01*
X85271824Y-106059493D01*
X85247791Y-106054713D01*
X85223287Y-106054713D01*
X85199254Y-106059494D01*
X85176617Y-106068870D01*
X85162849Y-106076229D01*
X85155835Y-106078357D01*
X85142400Y-106079680D01*
X84828680Y-106079680D01*
X84815245Y-106078357D01*
X84808231Y-106076229D01*
X84794463Y-106068870D01*
X84771824Y-106059493D01*
X84747791Y-106054713D01*
X84723287Y-106054713D01*
X84699254Y-106059494D01*
X84676617Y-106068870D01*
X84662849Y-106076229D01*
X84655835Y-106078357D01*
X84642400Y-106079680D01*
X84328680Y-106079680D01*
X84315245Y-106078357D01*
X84308231Y-106076229D01*
X84294463Y-106068870D01*
X84271824Y-106059493D01*
X84247791Y-106054713D01*
X84223287Y-106054713D01*
X84199254Y-106059494D01*
X84176617Y-106068870D01*
X84162849Y-106076229D01*
X84155835Y-106078357D01*
X84142400Y-106079680D01*
X83828680Y-106079680D01*
X83815245Y-106078357D01*
X83808231Y-106076229D01*
X83794463Y-106068870D01*
X83771824Y-106059493D01*
X83747791Y-106054713D01*
X83723287Y-106054713D01*
X83699254Y-106059494D01*
X83676617Y-106068870D01*
X83662849Y-106076229D01*
X83655835Y-106078357D01*
X83642400Y-106079680D01*
X83328680Y-106079680D01*
X83315245Y-106078357D01*
X83308230Y-106076229D01*
X83301764Y-106072772D01*
X83296098Y-106068122D01*
X83291448Y-106062456D01*
X83287991Y-106055990D01*
X83285863Y-106048975D01*
X83284540Y-106035540D01*
X83284540Y-104546820D01*
X83285863Y-104533385D01*
X83287991Y-104526370D01*
X83291448Y-104519904D01*
X83296098Y-104514238D01*
X83301764Y-104509588D01*
X83308230Y-104506131D01*
X83315245Y-104504003D01*
X83328680Y-104502680D01*
X83642400Y-104502680D01*
X83655835Y-104504003D01*
X83655835Y-104504003D01*
G37*
G36*
X81820414Y-104347885D02*
G01*
X81858107Y-104359319D01*
X81892843Y-104377886D01*
X81923288Y-104402872D01*
X81948274Y-104433317D01*
X81966841Y-104468053D01*
X81978275Y-104505746D01*
X81982740Y-104551081D01*
X81982740Y-105387759D01*
X81978275Y-105433094D01*
X81966841Y-105470787D01*
X81948274Y-105505523D01*
X81923288Y-105535968D01*
X81892843Y-105560954D01*
X81858107Y-105579521D01*
X81820414Y-105590955D01*
X81775079Y-105595420D01*
X80688401Y-105595420D01*
X80643066Y-105590955D01*
X80605373Y-105579521D01*
X80570637Y-105560954D01*
X80540192Y-105535968D01*
X80515206Y-105505523D01*
X80496639Y-105470787D01*
X80485205Y-105433094D01*
X80480740Y-105387759D01*
X80480740Y-104551081D01*
X80485205Y-104505746D01*
X80496639Y-104468053D01*
X80515206Y-104433317D01*
X80540192Y-104402872D01*
X80570637Y-104377886D01*
X80605373Y-104359319D01*
X80643066Y-104347885D01*
X80688401Y-104343420D01*
X81775079Y-104343420D01*
X81820414Y-104347885D01*
X81820414Y-104347885D01*
G37*
G36*
X81820414Y-102297885D02*
G01*
X81858107Y-102309319D01*
X81892843Y-102327886D01*
X81923288Y-102352872D01*
X81948274Y-102383317D01*
X81966841Y-102418053D01*
X81978275Y-102455746D01*
X81982740Y-102501081D01*
X81982740Y-103337759D01*
X81978275Y-103383094D01*
X81966841Y-103420787D01*
X81948274Y-103455523D01*
X81923288Y-103485968D01*
X81892843Y-103510954D01*
X81858107Y-103529521D01*
X81820414Y-103540955D01*
X81775079Y-103545420D01*
X80688401Y-103545420D01*
X80643066Y-103540955D01*
X80605373Y-103529521D01*
X80570637Y-103510954D01*
X80540192Y-103485968D01*
X80515206Y-103455523D01*
X80496639Y-103420787D01*
X80485205Y-103383094D01*
X80480740Y-103337759D01*
X80480740Y-102501081D01*
X80485205Y-102455746D01*
X80496639Y-102418053D01*
X80515206Y-102383317D01*
X80540192Y-102352872D01*
X80570637Y-102327886D01*
X80605373Y-102309319D01*
X80643066Y-102297885D01*
X80688401Y-102293420D01*
X81775079Y-102293420D01*
X81820414Y-102297885D01*
X81820414Y-102297885D01*
G37*
M02*
