G04 #@! TF.GenerationSoftware,KiCad,Pcbnew,5.1.3-ffb9f22~84~ubuntu18.04.1*
G04 #@! TF.CreationDate,2019-07-28T18:08:26+02:00*
G04 #@! TF.ProjectId,board,626f6172-642e-46b6-9963-61645f706362,rev?*
G04 #@! TF.SameCoordinates,Original*
G04 #@! TF.FileFunction,Paste,Bot*
G04 #@! TF.FilePolarity,Positive*
%FSLAX46Y46*%
G04 Gerber Fmt 4.6, Leading zero omitted, Abs format (unit mm)*
G04 Created by KiCad (PCBNEW 5.1.3-ffb9f22~84~ubuntu18.04.1) date 2019-07-28 18:08:26*
%MOMM*%
%LPD*%
G04 APERTURE LIST*
%ADD10C,0.100000*%
%ADD11C,1.150000*%
%ADD12R,1.500000X1.000000*%
G04 APERTURE END LIST*
D10*
G36*
X78350905Y-102278424D02*
G01*
X78375173Y-102282024D01*
X78398972Y-102287985D01*
X78422071Y-102296250D01*
X78444250Y-102306740D01*
X78465293Y-102319352D01*
X78484999Y-102333967D01*
X78503177Y-102350443D01*
X78519653Y-102368621D01*
X78534268Y-102388327D01*
X78546880Y-102409370D01*
X78557370Y-102431549D01*
X78565635Y-102454648D01*
X78571596Y-102478447D01*
X78575196Y-102502715D01*
X78576400Y-102527219D01*
X78576400Y-103177221D01*
X78575196Y-103201725D01*
X78571596Y-103225993D01*
X78565635Y-103249792D01*
X78557370Y-103272891D01*
X78546880Y-103295070D01*
X78534268Y-103316113D01*
X78519653Y-103335819D01*
X78503177Y-103353997D01*
X78484999Y-103370473D01*
X78465293Y-103385088D01*
X78444250Y-103397700D01*
X78422071Y-103408190D01*
X78398972Y-103416455D01*
X78375173Y-103422416D01*
X78350905Y-103426016D01*
X78326401Y-103427220D01*
X77426399Y-103427220D01*
X77401895Y-103426016D01*
X77377627Y-103422416D01*
X77353828Y-103416455D01*
X77330729Y-103408190D01*
X77308550Y-103397700D01*
X77287507Y-103385088D01*
X77267801Y-103370473D01*
X77249623Y-103353997D01*
X77233147Y-103335819D01*
X77218532Y-103316113D01*
X77205920Y-103295070D01*
X77195430Y-103272891D01*
X77187165Y-103249792D01*
X77181204Y-103225993D01*
X77177604Y-103201725D01*
X77176400Y-103177221D01*
X77176400Y-102527219D01*
X77177604Y-102502715D01*
X77181204Y-102478447D01*
X77187165Y-102454648D01*
X77195430Y-102431549D01*
X77205920Y-102409370D01*
X77218532Y-102388327D01*
X77233147Y-102368621D01*
X77249623Y-102350443D01*
X77267801Y-102333967D01*
X77287507Y-102319352D01*
X77308550Y-102306740D01*
X77330729Y-102296250D01*
X77353828Y-102287985D01*
X77377627Y-102282024D01*
X77401895Y-102278424D01*
X77426399Y-102277220D01*
X78326401Y-102277220D01*
X78350905Y-102278424D01*
X78350905Y-102278424D01*
G37*
D11*
X77876400Y-102852220D03*
D10*
G36*
X78350905Y-104328424D02*
G01*
X78375173Y-104332024D01*
X78398972Y-104337985D01*
X78422071Y-104346250D01*
X78444250Y-104356740D01*
X78465293Y-104369352D01*
X78484999Y-104383967D01*
X78503177Y-104400443D01*
X78519653Y-104418621D01*
X78534268Y-104438327D01*
X78546880Y-104459370D01*
X78557370Y-104481549D01*
X78565635Y-104504648D01*
X78571596Y-104528447D01*
X78575196Y-104552715D01*
X78576400Y-104577219D01*
X78576400Y-105227221D01*
X78575196Y-105251725D01*
X78571596Y-105275993D01*
X78565635Y-105299792D01*
X78557370Y-105322891D01*
X78546880Y-105345070D01*
X78534268Y-105366113D01*
X78519653Y-105385819D01*
X78503177Y-105403997D01*
X78484999Y-105420473D01*
X78465293Y-105435088D01*
X78444250Y-105447700D01*
X78422071Y-105458190D01*
X78398972Y-105466455D01*
X78375173Y-105472416D01*
X78350905Y-105476016D01*
X78326401Y-105477220D01*
X77426399Y-105477220D01*
X77401895Y-105476016D01*
X77377627Y-105472416D01*
X77353828Y-105466455D01*
X77330729Y-105458190D01*
X77308550Y-105447700D01*
X77287507Y-105435088D01*
X77267801Y-105420473D01*
X77249623Y-105403997D01*
X77233147Y-105385819D01*
X77218532Y-105366113D01*
X77205920Y-105345070D01*
X77195430Y-105322891D01*
X77187165Y-105299792D01*
X77181204Y-105275993D01*
X77177604Y-105251725D01*
X77176400Y-105227221D01*
X77176400Y-104577219D01*
X77177604Y-104552715D01*
X77181204Y-104528447D01*
X77187165Y-104504648D01*
X77195430Y-104481549D01*
X77205920Y-104459370D01*
X77218532Y-104438327D01*
X77233147Y-104418621D01*
X77249623Y-104400443D01*
X77267801Y-104383967D01*
X77287507Y-104369352D01*
X77308550Y-104356740D01*
X77330729Y-104346250D01*
X77353828Y-104337985D01*
X77377627Y-104332024D01*
X77401895Y-104328424D01*
X77426399Y-104327220D01*
X78326401Y-104327220D01*
X78350905Y-104328424D01*
X78350905Y-104328424D01*
G37*
D11*
X77876400Y-104902220D03*
D12*
X83884600Y-111432140D03*
X83884600Y-108232140D03*
X88784600Y-111432140D03*
X88784600Y-108232140D03*
M02*
