G04 #@! TF.GenerationSoftware,KiCad,Pcbnew,5.1.3-ffb9f22~84~ubuntu18.04.1*
G04 #@! TF.CreationDate,2019-07-28T18:08:26+02:00*
G04 #@! TF.ProjectId,board,626f6172-642e-46b6-9963-61645f706362,rev?*
G04 #@! TF.SameCoordinates,Original*
G04 #@! TF.FileFunction,Legend,Bot*
G04 #@! TF.FilePolarity,Positive*
%FSLAX46Y46*%
G04 Gerber Fmt 4.6, Leading zero omitted, Abs format (unit mm)*
G04 Created by KiCad (PCBNEW 5.1.3-ffb9f22~84~ubuntu18.04.1) date 2019-07-28 18:08:26*
%MOMM*%
%LPD*%
G04 APERTURE LIST*
%ADD10C,0.180000*%
%ADD11C,0.010000*%
%ADD12C,0.120000*%
%ADD13C,0.150000*%
G04 APERTURE END LIST*
D10*
X65587619Y-113514426D02*
X66254285Y-113514426D01*
X66159047Y-113514426D02*
X66206666Y-113466807D01*
X66254285Y-113371569D01*
X66254285Y-113228712D01*
X66206666Y-113133474D01*
X66111428Y-113085855D01*
X65587619Y-113085855D01*
X66111428Y-113085855D02*
X66206666Y-113038236D01*
X66254285Y-112942998D01*
X66254285Y-112800140D01*
X66206666Y-112704902D01*
X66111428Y-112657283D01*
X65587619Y-112657283D01*
X65587619Y-112181093D02*
X66254285Y-112181093D01*
X66587619Y-112181093D02*
X66540000Y-112228712D01*
X66492380Y-112181093D01*
X66540000Y-112133474D01*
X66587619Y-112181093D01*
X66492380Y-112181093D01*
X66254285Y-111704902D02*
X65587619Y-111704902D01*
X66159047Y-111704902D02*
X66206666Y-111657283D01*
X66254285Y-111562045D01*
X66254285Y-111419188D01*
X66206666Y-111323950D01*
X66111428Y-111276331D01*
X65587619Y-111276331D01*
X65587619Y-110800140D02*
X66254285Y-110800140D01*
X66587619Y-110800140D02*
X66540000Y-110847760D01*
X66492380Y-110800140D01*
X66540000Y-110752521D01*
X66587619Y-110800140D01*
X66492380Y-110800140D01*
X65587619Y-110323950D02*
X66587619Y-110323950D01*
X66206666Y-110323950D02*
X66254285Y-110228712D01*
X66254285Y-110038236D01*
X66206666Y-109942998D01*
X66159047Y-109895379D01*
X66063809Y-109847760D01*
X65778095Y-109847760D01*
X65682857Y-109895379D01*
X65635238Y-109942998D01*
X65587619Y-110038236D01*
X65587619Y-110228712D01*
X65635238Y-110323950D01*
X65587619Y-109276331D02*
X65635238Y-109371569D01*
X65730476Y-109419188D01*
X66587619Y-109419188D01*
X65587619Y-108895379D02*
X66254285Y-108895379D01*
X66587619Y-108895379D02*
X66540000Y-108942998D01*
X66492380Y-108895379D01*
X66540000Y-108847760D01*
X66587619Y-108895379D01*
X66492380Y-108895379D01*
X66254285Y-108419188D02*
X65587619Y-108419188D01*
X66159047Y-108419188D02*
X66206666Y-108371569D01*
X66254285Y-108276331D01*
X66254285Y-108133474D01*
X66206666Y-108038236D01*
X66111428Y-107990617D01*
X65587619Y-107990617D01*
X65587619Y-107514426D02*
X66587619Y-107514426D01*
X65968571Y-107419188D02*
X65587619Y-107133474D01*
X66254285Y-107133474D02*
X65873333Y-107514426D01*
X94807586Y-102427114D02*
X94807586Y-103236638D01*
X94855205Y-103331876D01*
X94902824Y-103379495D01*
X94998062Y-103427114D01*
X95140920Y-103427114D01*
X95236158Y-103379495D01*
X94807586Y-103046161D02*
X94902824Y-103093780D01*
X95093300Y-103093780D01*
X95188539Y-103046161D01*
X95236158Y-102998542D01*
X95283777Y-102903304D01*
X95283777Y-102617590D01*
X95236158Y-102522352D01*
X95188539Y-102474733D01*
X95093300Y-102427114D01*
X94902824Y-102427114D01*
X94807586Y-102474733D01*
X94331396Y-103093780D02*
X94331396Y-102427114D01*
X94331396Y-102093780D02*
X94379015Y-102141400D01*
X94331396Y-102189019D01*
X94283777Y-102141400D01*
X94331396Y-102093780D01*
X94331396Y-102189019D01*
X93998062Y-102427114D02*
X93617110Y-102427114D01*
X93855205Y-102093780D02*
X93855205Y-102950923D01*
X93807586Y-103046161D01*
X93712348Y-103093780D01*
X93617110Y-103093780D01*
X93283777Y-103093780D02*
X93283777Y-102093780D01*
X92855205Y-103093780D02*
X92855205Y-102569971D01*
X92902824Y-102474733D01*
X92998062Y-102427114D01*
X93140920Y-102427114D01*
X93236158Y-102474733D01*
X93283777Y-102522352D01*
X91950443Y-102427114D02*
X91950443Y-103093780D01*
X92379015Y-102427114D02*
X92379015Y-102950923D01*
X92331396Y-103046161D01*
X92236158Y-103093780D01*
X92093300Y-103093780D01*
X91998062Y-103046161D01*
X91950443Y-102998542D01*
X91474253Y-103093780D02*
X91474253Y-102093780D01*
X91474253Y-102474733D02*
X91379015Y-102427114D01*
X91188539Y-102427114D01*
X91093300Y-102474733D01*
X91045681Y-102522352D01*
X90998062Y-102617590D01*
X90998062Y-102903304D01*
X91045681Y-102998542D01*
X91093300Y-103046161D01*
X91188539Y-103093780D01*
X91379015Y-103093780D01*
X91474253Y-103046161D01*
X90569491Y-102998542D02*
X90521872Y-103046161D01*
X90569491Y-103093780D01*
X90617110Y-103046161D01*
X90569491Y-102998542D01*
X90569491Y-103093780D01*
X89664729Y-103046161D02*
X89759967Y-103093780D01*
X89950443Y-103093780D01*
X90045681Y-103046161D01*
X90093300Y-102998542D01*
X90140920Y-102903304D01*
X90140920Y-102617590D01*
X90093300Y-102522352D01*
X90045681Y-102474733D01*
X89950443Y-102427114D01*
X89759967Y-102427114D01*
X89664729Y-102474733D01*
X89093300Y-103093780D02*
X89188539Y-103046161D01*
X89236158Y-102998542D01*
X89283777Y-102903304D01*
X89283777Y-102617590D01*
X89236158Y-102522352D01*
X89188539Y-102474733D01*
X89093300Y-102427114D01*
X88950443Y-102427114D01*
X88855205Y-102474733D01*
X88807586Y-102522352D01*
X88759967Y-102617590D01*
X88759967Y-102903304D01*
X88807586Y-102998542D01*
X88855205Y-103046161D01*
X88950443Y-103093780D01*
X89093300Y-103093780D01*
X88331396Y-103093780D02*
X88331396Y-102427114D01*
X88331396Y-102522352D02*
X88283777Y-102474733D01*
X88188539Y-102427114D01*
X88045681Y-102427114D01*
X87950443Y-102474733D01*
X87902824Y-102569971D01*
X87902824Y-103093780D01*
X87902824Y-102569971D02*
X87855205Y-102474733D01*
X87759967Y-102427114D01*
X87617110Y-102427114D01*
X87521872Y-102474733D01*
X87474253Y-102569971D01*
X87474253Y-103093780D01*
X86283777Y-102046161D02*
X87140920Y-103331876D01*
X85950443Y-103093780D02*
X85950443Y-102427114D01*
X85950443Y-102522352D02*
X85902824Y-102474733D01*
X85807586Y-102427114D01*
X85664729Y-102427114D01*
X85569491Y-102474733D01*
X85521872Y-102569971D01*
X85521872Y-103093780D01*
X85521872Y-102569971D02*
X85474253Y-102474733D01*
X85379015Y-102427114D01*
X85236158Y-102427114D01*
X85140920Y-102474733D01*
X85093300Y-102569971D01*
X85093300Y-103093780D01*
X84617110Y-103093780D02*
X84617110Y-102427114D01*
X84617110Y-102093780D02*
X84664729Y-102141400D01*
X84617110Y-102189019D01*
X84569491Y-102141400D01*
X84617110Y-102093780D01*
X84617110Y-102189019D01*
X83712348Y-103046161D02*
X83807586Y-103093780D01*
X83998062Y-103093780D01*
X84093300Y-103046161D01*
X84140920Y-102998542D01*
X84188539Y-102903304D01*
X84188539Y-102617590D01*
X84140920Y-102522352D01*
X84093300Y-102474733D01*
X83998062Y-102427114D01*
X83807586Y-102427114D01*
X83712348Y-102474733D01*
X83283777Y-103093780D02*
X83283777Y-102093780D01*
X82855205Y-103093780D02*
X82855205Y-102569971D01*
X82902824Y-102474733D01*
X82998062Y-102427114D01*
X83140920Y-102427114D01*
X83236158Y-102474733D01*
X83283777Y-102522352D01*
X82474253Y-102427114D02*
X81950443Y-102427114D01*
X82474253Y-103093780D01*
X81950443Y-103093780D01*
D11*
G36*
X73590632Y-110213370D02*
G01*
X73590202Y-110134826D01*
X73589038Y-110077982D01*
X73586773Y-110039175D01*
X73583040Y-110014742D01*
X73577474Y-110001018D01*
X73569707Y-109994340D01*
X73559375Y-109991044D01*
X73558037Y-109990724D01*
X73533901Y-109985718D01*
X73486279Y-109976451D01*
X73420239Y-109963888D01*
X73340852Y-109948993D01*
X73253184Y-109932729D01*
X73250105Y-109932161D01*
X73164191Y-109915870D01*
X73088284Y-109900628D01*
X73026935Y-109887419D01*
X72984698Y-109877226D01*
X72966125Y-109871032D01*
X72965796Y-109870737D01*
X72956727Y-109852492D01*
X72941613Y-109814875D01*
X72923718Y-109766009D01*
X72923622Y-109765737D01*
X72900487Y-109704187D01*
X72871015Y-109631623D01*
X72841383Y-109563223D01*
X72839918Y-109559986D01*
X72789354Y-109448578D01*
X72957820Y-109201881D01*
X73009177Y-109126203D01*
X73055091Y-109057649D01*
X73092950Y-109000192D01*
X73120143Y-108957804D01*
X73134059Y-108934455D01*
X73135091Y-108932238D01*
X73130496Y-108915270D01*
X73108325Y-108883579D01*
X73067533Y-108835928D01*
X73007075Y-108771082D01*
X72942753Y-108704883D01*
X72879368Y-108641066D01*
X72821529Y-108583951D01*
X72772805Y-108536975D01*
X72736770Y-108503577D01*
X72716996Y-108487195D01*
X72715978Y-108486586D01*
X72702408Y-108484775D01*
X72680247Y-108491597D01*
X72646502Y-108508740D01*
X72598180Y-108537887D01*
X72532288Y-108580725D01*
X72447463Y-108637832D01*
X72372803Y-108688514D01*
X72305840Y-108733819D01*
X72250464Y-108771130D01*
X72210560Y-108797828D01*
X72190018Y-108811295D01*
X72188624Y-108812143D01*
X72168942Y-108810499D01*
X72130687Y-108798035D01*
X72081091Y-108777232D01*
X72065252Y-108769818D01*
X71994690Y-108737466D01*
X71914627Y-108702952D01*
X71845351Y-108674915D01*
X71793935Y-108654712D01*
X71754861Y-108638665D01*
X71734439Y-108629392D01*
X71732866Y-108628239D01*
X71730259Y-108611184D01*
X71723117Y-108570982D01*
X71712457Y-108512978D01*
X71699295Y-108442517D01*
X71684647Y-108364945D01*
X71669531Y-108285608D01*
X71654962Y-108209849D01*
X71641958Y-108143016D01*
X71631535Y-108090452D01*
X71624710Y-108057504D01*
X71622781Y-108049423D01*
X71618018Y-108041075D01*
X71607262Y-108034774D01*
X71586882Y-108030235D01*
X71553246Y-108027176D01*
X71502725Y-108025313D01*
X71431688Y-108024362D01*
X71336504Y-108024040D01*
X71297488Y-108024023D01*
X70980181Y-108024023D01*
X70965141Y-108100223D01*
X70956985Y-108142617D01*
X70945081Y-108205880D01*
X70930864Y-108282318D01*
X70915770Y-108364237D01*
X70911625Y-108386880D01*
X70896927Y-108462474D01*
X70882475Y-108528327D01*
X70869605Y-108578914D01*
X70859658Y-108608706D01*
X70856693Y-108613668D01*
X70835697Y-108625854D01*
X70795013Y-108643327D01*
X70742658Y-108662703D01*
X70731380Y-108666546D01*
X70661457Y-108691941D01*
X70582562Y-108723463D01*
X70511714Y-108754311D01*
X70511385Y-108754463D01*
X70400247Y-108805833D01*
X70151727Y-108636881D01*
X69903208Y-108467928D01*
X69685922Y-108684851D01*
X69621254Y-108750461D01*
X69564247Y-108810301D01*
X69517947Y-108861013D01*
X69485396Y-108899234D01*
X69469637Y-108921605D01*
X69468637Y-108924814D01*
X69476511Y-108943654D01*
X69498402Y-108982100D01*
X69531713Y-109035950D01*
X69573849Y-109101004D01*
X69621037Y-109171340D01*
X69669170Y-109242725D01*
X69711052Y-109306372D01*
X69744109Y-109358239D01*
X69765762Y-109394285D01*
X69773437Y-109410413D01*
X69766943Y-109430091D01*
X69749830Y-109467405D01*
X69725654Y-109514659D01*
X69722967Y-109519668D01*
X69691053Y-109583303D01*
X69675401Y-109626939D01*
X69675235Y-109654078D01*
X69689776Y-109668223D01*
X69689980Y-109668305D01*
X69707201Y-109675375D01*
X69748081Y-109692238D01*
X69809455Y-109717585D01*
X69888161Y-109750109D01*
X69981033Y-109788502D01*
X70084908Y-109831458D01*
X70185478Y-109873058D01*
X70296464Y-109918776D01*
X70399277Y-109960754D01*
X70490765Y-109997732D01*
X70567779Y-110028453D01*
X70627165Y-110051658D01*
X70665771Y-110066090D01*
X70680180Y-110070537D01*
X70696708Y-110059384D01*
X70723050Y-110030211D01*
X70752093Y-109991309D01*
X70843941Y-109880523D01*
X70949221Y-109793929D01*
X71065714Y-109732564D01*
X71191204Y-109697465D01*
X71323473Y-109689672D01*
X71384523Y-109695337D01*
X71511185Y-109726202D01*
X71623039Y-109779360D01*
X71718979Y-109851513D01*
X71797904Y-109939363D01*
X71858710Y-110039615D01*
X71900293Y-110148970D01*
X71921552Y-110264133D01*
X71921381Y-110381805D01*
X71898679Y-110498690D01*
X71852342Y-110611491D01*
X71781267Y-110716911D01*
X71741069Y-110760912D01*
X71637851Y-110845301D01*
X71525055Y-110904058D01*
X71405970Y-110937576D01*
X71283885Y-110946245D01*
X71162087Y-110930457D01*
X71043864Y-110890602D01*
X70932505Y-110827073D01*
X70831296Y-110740259D01*
X70752093Y-110643251D01*
X70721818Y-110602843D01*
X70695761Y-110574298D01*
X70680155Y-110564023D01*
X70663137Y-110569403D01*
X70622480Y-110584705D01*
X70561338Y-110608668D01*
X70482861Y-110640036D01*
X70390200Y-110677548D01*
X70286508Y-110719947D01*
X70185454Y-110761617D01*
X70074373Y-110807590D01*
X69971439Y-110850173D01*
X69879815Y-110888059D01*
X69802664Y-110919940D01*
X69743149Y-110944509D01*
X69704436Y-110960460D01*
X69689980Y-110966370D01*
X69675295Y-110980332D01*
X69675338Y-111007340D01*
X69690881Y-111050867D01*
X69722696Y-111114390D01*
X69722967Y-111114892D01*
X69747657Y-111162720D01*
X69765642Y-111201383D01*
X69773366Y-111223185D01*
X69773437Y-111224147D01*
X69765602Y-111240559D01*
X69743815Y-111276793D01*
X69710652Y-111328806D01*
X69668689Y-111392555D01*
X69621037Y-111463220D01*
X69572789Y-111535164D01*
X69530829Y-111600006D01*
X69497753Y-111653545D01*
X69476159Y-111691583D01*
X69468637Y-111709747D01*
X69478523Y-111726472D01*
X69506154Y-111760100D01*
X69548485Y-111807270D01*
X69602475Y-111864622D01*
X69665081Y-111928796D01*
X69685997Y-111949783D01*
X69903357Y-112166781D01*
X70145760Y-112001612D01*
X70220199Y-111951416D01*
X70287008Y-111907361D01*
X70342315Y-111871918D01*
X70382251Y-111847561D01*
X70402944Y-111836758D01*
X70404417Y-111836442D01*
X70423922Y-111842137D01*
X70463158Y-111857454D01*
X70515550Y-111879743D01*
X70550625Y-111895387D01*
X70617779Y-111924639D01*
X70685622Y-111952186D01*
X70742946Y-111973543D01*
X70760408Y-111979345D01*
X70807042Y-111995828D01*
X70843075Y-112011940D01*
X70856693Y-112020790D01*
X70865028Y-112040320D01*
X70876843Y-112082946D01*
X70890799Y-112143135D01*
X70905558Y-112215358D01*
X70911625Y-112247680D01*
X70926707Y-112329758D01*
X70941311Y-112408485D01*
X70954000Y-112476171D01*
X70963338Y-112525120D01*
X70965141Y-112534337D01*
X70980181Y-112610537D01*
X71297488Y-112610537D01*
X71401826Y-112610366D01*
X71480767Y-112609664D01*
X71537942Y-112608146D01*
X71576981Y-112605531D01*
X71601515Y-112601534D01*
X71615175Y-112595871D01*
X71621591Y-112588260D01*
X71622781Y-112585137D01*
X71627000Y-112566302D01*
X71635418Y-112524692D01*
X71647019Y-112465650D01*
X71660785Y-112394523D01*
X71675700Y-112316655D01*
X71690748Y-112237393D01*
X71704911Y-112162082D01*
X71717174Y-112096067D01*
X71726519Y-112044693D01*
X71731930Y-112013305D01*
X71732866Y-112006321D01*
X71745384Y-111999995D01*
X71778734Y-111985990D01*
X71826603Y-111966925D01*
X71845351Y-111959646D01*
X71917785Y-111930284D01*
X71997810Y-111895709D01*
X72065252Y-111864743D01*
X72116821Y-111841957D01*
X72159195Y-111826798D01*
X72185146Y-111821738D01*
X72188624Y-111822544D01*
X72205044Y-111833239D01*
X72241563Y-111857660D01*
X72294293Y-111893185D01*
X72359345Y-111937193D01*
X72432829Y-111987063D01*
X72447335Y-111996924D01*
X72533276Y-112054788D01*
X72598719Y-112097324D01*
X72646676Y-112126226D01*
X72680160Y-112143190D01*
X72702185Y-112149913D01*
X72715763Y-112148090D01*
X72715849Y-112148044D01*
X72733683Y-112133694D01*
X72768163Y-112101957D01*
X72815712Y-112056270D01*
X72872758Y-112000076D01*
X72935725Y-111936812D01*
X72942753Y-111929678D01*
X73019960Y-111849950D01*
X73076650Y-111788423D01*
X73113870Y-111743859D01*
X73132665Y-111715023D01*
X73135091Y-111702322D01*
X73124509Y-111683786D01*
X73100064Y-111645319D01*
X73064368Y-111590894D01*
X73020033Y-111524482D01*
X72969669Y-111450055D01*
X72957820Y-111432679D01*
X72789354Y-111185983D01*
X72839918Y-111074574D01*
X72869385Y-111006823D01*
X72899021Y-110934097D01*
X72922650Y-110871577D01*
X72923622Y-110868823D01*
X72941523Y-110819920D01*
X72956660Y-110782223D01*
X72965770Y-110763855D01*
X72965796Y-110763824D01*
X72982263Y-110757995D01*
X73022761Y-110748088D01*
X73082738Y-110735085D01*
X73157640Y-110719971D01*
X73242916Y-110703728D01*
X73250105Y-110702399D01*
X73337966Y-110686105D01*
X73417720Y-110671147D01*
X73484299Y-110658489D01*
X73532633Y-110649094D01*
X73557655Y-110643926D01*
X73558037Y-110643836D01*
X73568681Y-110640691D01*
X73576718Y-110634576D01*
X73582513Y-110621827D01*
X73586433Y-110598780D01*
X73588845Y-110561771D01*
X73590115Y-110507136D01*
X73590609Y-110431213D01*
X73590694Y-110330336D01*
X73590694Y-110317280D01*
X73590632Y-110213370D01*
X73590632Y-110213370D01*
G37*
X73590632Y-110213370D02*
X73590202Y-110134826D01*
X73589038Y-110077982D01*
X73586773Y-110039175D01*
X73583040Y-110014742D01*
X73577474Y-110001018D01*
X73569707Y-109994340D01*
X73559375Y-109991044D01*
X73558037Y-109990724D01*
X73533901Y-109985718D01*
X73486279Y-109976451D01*
X73420239Y-109963888D01*
X73340852Y-109948993D01*
X73253184Y-109932729D01*
X73250105Y-109932161D01*
X73164191Y-109915870D01*
X73088284Y-109900628D01*
X73026935Y-109887419D01*
X72984698Y-109877226D01*
X72966125Y-109871032D01*
X72965796Y-109870737D01*
X72956727Y-109852492D01*
X72941613Y-109814875D01*
X72923718Y-109766009D01*
X72923622Y-109765737D01*
X72900487Y-109704187D01*
X72871015Y-109631623D01*
X72841383Y-109563223D01*
X72839918Y-109559986D01*
X72789354Y-109448578D01*
X72957820Y-109201881D01*
X73009177Y-109126203D01*
X73055091Y-109057649D01*
X73092950Y-109000192D01*
X73120143Y-108957804D01*
X73134059Y-108934455D01*
X73135091Y-108932238D01*
X73130496Y-108915270D01*
X73108325Y-108883579D01*
X73067533Y-108835928D01*
X73007075Y-108771082D01*
X72942753Y-108704883D01*
X72879368Y-108641066D01*
X72821529Y-108583951D01*
X72772805Y-108536975D01*
X72736770Y-108503577D01*
X72716996Y-108487195D01*
X72715978Y-108486586D01*
X72702408Y-108484775D01*
X72680247Y-108491597D01*
X72646502Y-108508740D01*
X72598180Y-108537887D01*
X72532288Y-108580725D01*
X72447463Y-108637832D01*
X72372803Y-108688514D01*
X72305840Y-108733819D01*
X72250464Y-108771130D01*
X72210560Y-108797828D01*
X72190018Y-108811295D01*
X72188624Y-108812143D01*
X72168942Y-108810499D01*
X72130687Y-108798035D01*
X72081091Y-108777232D01*
X72065252Y-108769818D01*
X71994690Y-108737466D01*
X71914627Y-108702952D01*
X71845351Y-108674915D01*
X71793935Y-108654712D01*
X71754861Y-108638665D01*
X71734439Y-108629392D01*
X71732866Y-108628239D01*
X71730259Y-108611184D01*
X71723117Y-108570982D01*
X71712457Y-108512978D01*
X71699295Y-108442517D01*
X71684647Y-108364945D01*
X71669531Y-108285608D01*
X71654962Y-108209849D01*
X71641958Y-108143016D01*
X71631535Y-108090452D01*
X71624710Y-108057504D01*
X71622781Y-108049423D01*
X71618018Y-108041075D01*
X71607262Y-108034774D01*
X71586882Y-108030235D01*
X71553246Y-108027176D01*
X71502725Y-108025313D01*
X71431688Y-108024362D01*
X71336504Y-108024040D01*
X71297488Y-108024023D01*
X70980181Y-108024023D01*
X70965141Y-108100223D01*
X70956985Y-108142617D01*
X70945081Y-108205880D01*
X70930864Y-108282318D01*
X70915770Y-108364237D01*
X70911625Y-108386880D01*
X70896927Y-108462474D01*
X70882475Y-108528327D01*
X70869605Y-108578914D01*
X70859658Y-108608706D01*
X70856693Y-108613668D01*
X70835697Y-108625854D01*
X70795013Y-108643327D01*
X70742658Y-108662703D01*
X70731380Y-108666546D01*
X70661457Y-108691941D01*
X70582562Y-108723463D01*
X70511714Y-108754311D01*
X70511385Y-108754463D01*
X70400247Y-108805833D01*
X70151727Y-108636881D01*
X69903208Y-108467928D01*
X69685922Y-108684851D01*
X69621254Y-108750461D01*
X69564247Y-108810301D01*
X69517947Y-108861013D01*
X69485396Y-108899234D01*
X69469637Y-108921605D01*
X69468637Y-108924814D01*
X69476511Y-108943654D01*
X69498402Y-108982100D01*
X69531713Y-109035950D01*
X69573849Y-109101004D01*
X69621037Y-109171340D01*
X69669170Y-109242725D01*
X69711052Y-109306372D01*
X69744109Y-109358239D01*
X69765762Y-109394285D01*
X69773437Y-109410413D01*
X69766943Y-109430091D01*
X69749830Y-109467405D01*
X69725654Y-109514659D01*
X69722967Y-109519668D01*
X69691053Y-109583303D01*
X69675401Y-109626939D01*
X69675235Y-109654078D01*
X69689776Y-109668223D01*
X69689980Y-109668305D01*
X69707201Y-109675375D01*
X69748081Y-109692238D01*
X69809455Y-109717585D01*
X69888161Y-109750109D01*
X69981033Y-109788502D01*
X70084908Y-109831458D01*
X70185478Y-109873058D01*
X70296464Y-109918776D01*
X70399277Y-109960754D01*
X70490765Y-109997732D01*
X70567779Y-110028453D01*
X70627165Y-110051658D01*
X70665771Y-110066090D01*
X70680180Y-110070537D01*
X70696708Y-110059384D01*
X70723050Y-110030211D01*
X70752093Y-109991309D01*
X70843941Y-109880523D01*
X70949221Y-109793929D01*
X71065714Y-109732564D01*
X71191204Y-109697465D01*
X71323473Y-109689672D01*
X71384523Y-109695337D01*
X71511185Y-109726202D01*
X71623039Y-109779360D01*
X71718979Y-109851513D01*
X71797904Y-109939363D01*
X71858710Y-110039615D01*
X71900293Y-110148970D01*
X71921552Y-110264133D01*
X71921381Y-110381805D01*
X71898679Y-110498690D01*
X71852342Y-110611491D01*
X71781267Y-110716911D01*
X71741069Y-110760912D01*
X71637851Y-110845301D01*
X71525055Y-110904058D01*
X71405970Y-110937576D01*
X71283885Y-110946245D01*
X71162087Y-110930457D01*
X71043864Y-110890602D01*
X70932505Y-110827073D01*
X70831296Y-110740259D01*
X70752093Y-110643251D01*
X70721818Y-110602843D01*
X70695761Y-110574298D01*
X70680155Y-110564023D01*
X70663137Y-110569403D01*
X70622480Y-110584705D01*
X70561338Y-110608668D01*
X70482861Y-110640036D01*
X70390200Y-110677548D01*
X70286508Y-110719947D01*
X70185454Y-110761617D01*
X70074373Y-110807590D01*
X69971439Y-110850173D01*
X69879815Y-110888059D01*
X69802664Y-110919940D01*
X69743149Y-110944509D01*
X69704436Y-110960460D01*
X69689980Y-110966370D01*
X69675295Y-110980332D01*
X69675338Y-111007340D01*
X69690881Y-111050867D01*
X69722696Y-111114390D01*
X69722967Y-111114892D01*
X69747657Y-111162720D01*
X69765642Y-111201383D01*
X69773366Y-111223185D01*
X69773437Y-111224147D01*
X69765602Y-111240559D01*
X69743815Y-111276793D01*
X69710652Y-111328806D01*
X69668689Y-111392555D01*
X69621037Y-111463220D01*
X69572789Y-111535164D01*
X69530829Y-111600006D01*
X69497753Y-111653545D01*
X69476159Y-111691583D01*
X69468637Y-111709747D01*
X69478523Y-111726472D01*
X69506154Y-111760100D01*
X69548485Y-111807270D01*
X69602475Y-111864622D01*
X69665081Y-111928796D01*
X69685997Y-111949783D01*
X69903357Y-112166781D01*
X70145760Y-112001612D01*
X70220199Y-111951416D01*
X70287008Y-111907361D01*
X70342315Y-111871918D01*
X70382251Y-111847561D01*
X70402944Y-111836758D01*
X70404417Y-111836442D01*
X70423922Y-111842137D01*
X70463158Y-111857454D01*
X70515550Y-111879743D01*
X70550625Y-111895387D01*
X70617779Y-111924639D01*
X70685622Y-111952186D01*
X70742946Y-111973543D01*
X70760408Y-111979345D01*
X70807042Y-111995828D01*
X70843075Y-112011940D01*
X70856693Y-112020790D01*
X70865028Y-112040320D01*
X70876843Y-112082946D01*
X70890799Y-112143135D01*
X70905558Y-112215358D01*
X70911625Y-112247680D01*
X70926707Y-112329758D01*
X70941311Y-112408485D01*
X70954000Y-112476171D01*
X70963338Y-112525120D01*
X70965141Y-112534337D01*
X70980181Y-112610537D01*
X71297488Y-112610537D01*
X71401826Y-112610366D01*
X71480767Y-112609664D01*
X71537942Y-112608146D01*
X71576981Y-112605531D01*
X71601515Y-112601534D01*
X71615175Y-112595871D01*
X71621591Y-112588260D01*
X71622781Y-112585137D01*
X71627000Y-112566302D01*
X71635418Y-112524692D01*
X71647019Y-112465650D01*
X71660785Y-112394523D01*
X71675700Y-112316655D01*
X71690748Y-112237393D01*
X71704911Y-112162082D01*
X71717174Y-112096067D01*
X71726519Y-112044693D01*
X71731930Y-112013305D01*
X71732866Y-112006321D01*
X71745384Y-111999995D01*
X71778734Y-111985990D01*
X71826603Y-111966925D01*
X71845351Y-111959646D01*
X71917785Y-111930284D01*
X71997810Y-111895709D01*
X72065252Y-111864743D01*
X72116821Y-111841957D01*
X72159195Y-111826798D01*
X72185146Y-111821738D01*
X72188624Y-111822544D01*
X72205044Y-111833239D01*
X72241563Y-111857660D01*
X72294293Y-111893185D01*
X72359345Y-111937193D01*
X72432829Y-111987063D01*
X72447335Y-111996924D01*
X72533276Y-112054788D01*
X72598719Y-112097324D01*
X72646676Y-112126226D01*
X72680160Y-112143190D01*
X72702185Y-112149913D01*
X72715763Y-112148090D01*
X72715849Y-112148044D01*
X72733683Y-112133694D01*
X72768163Y-112101957D01*
X72815712Y-112056270D01*
X72872758Y-112000076D01*
X72935725Y-111936812D01*
X72942753Y-111929678D01*
X73019960Y-111849950D01*
X73076650Y-111788423D01*
X73113870Y-111743859D01*
X73132665Y-111715023D01*
X73135091Y-111702322D01*
X73124509Y-111683786D01*
X73100064Y-111645319D01*
X73064368Y-111590894D01*
X73020033Y-111524482D01*
X72969669Y-111450055D01*
X72957820Y-111432679D01*
X72789354Y-111185983D01*
X72839918Y-111074574D01*
X72869385Y-111006823D01*
X72899021Y-110934097D01*
X72922650Y-110871577D01*
X72923622Y-110868823D01*
X72941523Y-110819920D01*
X72956660Y-110782223D01*
X72965770Y-110763855D01*
X72965796Y-110763824D01*
X72982263Y-110757995D01*
X73022761Y-110748088D01*
X73082738Y-110735085D01*
X73157640Y-110719971D01*
X73242916Y-110703728D01*
X73250105Y-110702399D01*
X73337966Y-110686105D01*
X73417720Y-110671147D01*
X73484299Y-110658489D01*
X73532633Y-110649094D01*
X73557655Y-110643926D01*
X73558037Y-110643836D01*
X73568681Y-110640691D01*
X73576718Y-110634576D01*
X73582513Y-110621827D01*
X73586433Y-110598780D01*
X73588845Y-110561771D01*
X73590115Y-110507136D01*
X73590609Y-110431213D01*
X73590694Y-110330336D01*
X73590694Y-110317280D01*
X73590632Y-110213370D01*
G36*
X68866014Y-107163685D02*
G01*
X68828483Y-107106259D01*
X68794884Y-107078561D01*
X68733916Y-107056618D01*
X68685672Y-107054875D01*
X68621164Y-107058823D01*
X68556046Y-107207594D01*
X68522778Y-107279931D01*
X68496016Y-107327196D01*
X68472836Y-107351773D01*
X68450313Y-107356043D01*
X68425525Y-107342391D01*
X68409094Y-107327337D01*
X68382745Y-107283534D01*
X68380899Y-107235891D01*
X68401434Y-107192135D01*
X68442228Y-107159991D01*
X68456633Y-107154242D01*
X68501624Y-107126704D01*
X68520798Y-107095022D01*
X68537201Y-107051566D01*
X68475014Y-107051566D01*
X68432697Y-107055408D01*
X68397011Y-107070457D01*
X68356037Y-107102000D01*
X68350713Y-107106688D01*
X68314260Y-107141774D01*
X68294697Y-107171933D01*
X68285697Y-107209665D01*
X68282750Y-107240945D01*
X68282015Y-107296895D01*
X68291320Y-107336725D01*
X68305134Y-107361572D01*
X68335513Y-107400624D01*
X68368367Y-107427655D01*
X68409686Y-107444763D01*
X68465459Y-107454042D01*
X68541675Y-107457587D01*
X68580358Y-107457870D01*
X68626733Y-107456908D01*
X68626733Y-107369273D01*
X68601854Y-107368257D01*
X68597780Y-107365724D01*
X68603315Y-107349006D01*
X68617963Y-107313031D01*
X68638790Y-107264949D01*
X68643266Y-107254894D01*
X68674166Y-107194128D01*
X68701323Y-107160648D01*
X68726760Y-107153290D01*
X68752499Y-107170889D01*
X68763871Y-107185424D01*
X68786616Y-107237870D01*
X68782858Y-107286958D01*
X68755096Y-107328053D01*
X68705828Y-107356522D01*
X68666723Y-107365649D01*
X68626733Y-107369273D01*
X68626733Y-107456908D01*
X68670731Y-107455995D01*
X68737596Y-107449084D01*
X68786285Y-107435396D01*
X68822131Y-107413184D01*
X68850467Y-107380706D01*
X68859625Y-107366547D01*
X68883473Y-107302227D01*
X68884974Y-107231807D01*
X68866014Y-107163685D01*
X68866014Y-107163685D01*
G37*
X68866014Y-107163685D02*
X68828483Y-107106259D01*
X68794884Y-107078561D01*
X68733916Y-107056618D01*
X68685672Y-107054875D01*
X68621164Y-107058823D01*
X68556046Y-107207594D01*
X68522778Y-107279931D01*
X68496016Y-107327196D01*
X68472836Y-107351773D01*
X68450313Y-107356043D01*
X68425525Y-107342391D01*
X68409094Y-107327337D01*
X68382745Y-107283534D01*
X68380899Y-107235891D01*
X68401434Y-107192135D01*
X68442228Y-107159991D01*
X68456633Y-107154242D01*
X68501624Y-107126704D01*
X68520798Y-107095022D01*
X68537201Y-107051566D01*
X68475014Y-107051566D01*
X68432697Y-107055408D01*
X68397011Y-107070457D01*
X68356037Y-107102000D01*
X68350713Y-107106688D01*
X68314260Y-107141774D01*
X68294697Y-107171933D01*
X68285697Y-107209665D01*
X68282750Y-107240945D01*
X68282015Y-107296895D01*
X68291320Y-107336725D01*
X68305134Y-107361572D01*
X68335513Y-107400624D01*
X68368367Y-107427655D01*
X68409686Y-107444763D01*
X68465459Y-107454042D01*
X68541675Y-107457587D01*
X68580358Y-107457870D01*
X68626733Y-107456908D01*
X68626733Y-107369273D01*
X68601854Y-107368257D01*
X68597780Y-107365724D01*
X68603315Y-107349006D01*
X68617963Y-107313031D01*
X68638790Y-107264949D01*
X68643266Y-107254894D01*
X68674166Y-107194128D01*
X68701323Y-107160648D01*
X68726760Y-107153290D01*
X68752499Y-107170889D01*
X68763871Y-107185424D01*
X68786616Y-107237870D01*
X68782858Y-107286958D01*
X68755096Y-107328053D01*
X68705828Y-107356522D01*
X68666723Y-107365649D01*
X68626733Y-107369273D01*
X68626733Y-107456908D01*
X68670731Y-107455995D01*
X68737596Y-107449084D01*
X68786285Y-107435396D01*
X68822131Y-107413184D01*
X68850467Y-107380706D01*
X68859625Y-107366547D01*
X68883473Y-107302227D01*
X68884974Y-107231807D01*
X68866014Y-107163685D01*
G36*
X68874228Y-107664680D02*
G01*
X68866646Y-107647332D01*
X68833852Y-107605924D01*
X68786433Y-107570515D01*
X68735829Y-107548616D01*
X68710882Y-107545051D01*
X68676053Y-107557001D01*
X68657623Y-107583213D01*
X68646464Y-107611316D01*
X68644408Y-107624185D01*
X68659331Y-107630451D01*
X68691805Y-107642824D01*
X68706478Y-107648252D01*
X68757236Y-107678690D01*
X68782553Y-107722760D01*
X68781774Y-107779270D01*
X68780777Y-107783455D01*
X68766473Y-107813625D01*
X68738587Y-107835804D01*
X68693693Y-107850953D01*
X68628365Y-107860030D01*
X68539176Y-107863994D01*
X68491719Y-107864366D01*
X68416909Y-107864550D01*
X68365911Y-107865758D01*
X68333509Y-107868971D01*
X68314485Y-107875171D01*
X68303624Y-107885340D01*
X68295708Y-107900461D01*
X68295310Y-107901334D01*
X68282999Y-107930452D01*
X68278466Y-107944877D01*
X68292171Y-107947094D01*
X68330055Y-107948991D01*
X68387265Y-107950433D01*
X68458953Y-107951282D01*
X68511415Y-107951451D01*
X68612933Y-107950588D01*
X68689948Y-107947210D01*
X68746957Y-107940138D01*
X68788454Y-107928192D01*
X68818937Y-107910190D01*
X68842900Y-107884953D01*
X68859625Y-107860033D01*
X68881883Y-107800109D01*
X68886904Y-107730369D01*
X68874228Y-107664680D01*
X68874228Y-107664680D01*
G37*
X68874228Y-107664680D02*
X68866646Y-107647332D01*
X68833852Y-107605924D01*
X68786433Y-107570515D01*
X68735829Y-107548616D01*
X68710882Y-107545051D01*
X68676053Y-107557001D01*
X68657623Y-107583213D01*
X68646464Y-107611316D01*
X68644408Y-107624185D01*
X68659331Y-107630451D01*
X68691805Y-107642824D01*
X68706478Y-107648252D01*
X68757236Y-107678690D01*
X68782553Y-107722760D01*
X68781774Y-107779270D01*
X68780777Y-107783455D01*
X68766473Y-107813625D01*
X68738587Y-107835804D01*
X68693693Y-107850953D01*
X68628365Y-107860030D01*
X68539176Y-107863994D01*
X68491719Y-107864366D01*
X68416909Y-107864550D01*
X68365911Y-107865758D01*
X68333509Y-107868971D01*
X68314485Y-107875171D01*
X68303624Y-107885340D01*
X68295708Y-107900461D01*
X68295310Y-107901334D01*
X68282999Y-107930452D01*
X68278466Y-107944877D01*
X68292171Y-107947094D01*
X68330055Y-107948991D01*
X68387265Y-107950433D01*
X68458953Y-107951282D01*
X68511415Y-107951451D01*
X68612933Y-107950588D01*
X68689948Y-107947210D01*
X68746957Y-107940138D01*
X68788454Y-107928192D01*
X68818937Y-107910190D01*
X68842900Y-107884953D01*
X68859625Y-107860033D01*
X68881883Y-107800109D01*
X68886904Y-107730369D01*
X68874228Y-107664680D01*
G36*
X68876645Y-108172404D02*
G01*
X68857636Y-108130613D01*
X68834602Y-108097811D01*
X68808847Y-108073777D01*
X68775622Y-108057183D01*
X68730180Y-108046703D01*
X68667773Y-108041009D01*
X68583653Y-108038773D01*
X68528259Y-108038537D01*
X68312154Y-108038537D01*
X68295310Y-108075506D01*
X68282999Y-108104624D01*
X68278466Y-108119049D01*
X68291955Y-108121808D01*
X68328327Y-108123998D01*
X68381438Y-108125338D01*
X68423608Y-108125623D01*
X68484533Y-108126846D01*
X68532865Y-108130144D01*
X68562462Y-108134959D01*
X68568751Y-108138784D01*
X68562328Y-108164497D01*
X68545855Y-108204862D01*
X68523522Y-108251601D01*
X68499523Y-108296435D01*
X68478050Y-108331087D01*
X68463295Y-108347278D01*
X68463135Y-108347342D01*
X68435828Y-108345950D01*
X68409761Y-108333462D01*
X68388588Y-108311537D01*
X68381506Y-108279537D01*
X68382331Y-108252188D01*
X68382938Y-108213454D01*
X68373864Y-108193122D01*
X68349888Y-108180911D01*
X68345367Y-108179371D01*
X68311174Y-108174077D01*
X68290412Y-108188233D01*
X68280518Y-108225132D01*
X68278688Y-108264991D01*
X68292253Y-108336718D01*
X68311625Y-108373848D01*
X68357135Y-108419704D01*
X68412997Y-108444024D01*
X68472023Y-108446207D01*
X68527027Y-108425651D01*
X68561494Y-108394731D01*
X68580791Y-108363860D01*
X68605221Y-108315338D01*
X68629995Y-108258795D01*
X68633781Y-108249370D01*
X68661189Y-108187261D01*
X68685346Y-108151458D01*
X68709361Y-108139943D01*
X68736345Y-108150700D01*
X68757437Y-108169166D01*
X68783408Y-108212811D01*
X68785356Y-108260834D01*
X68765343Y-108304874D01*
X68725429Y-108336571D01*
X68715132Y-108340731D01*
X68677256Y-108364953D01*
X68649138Y-108400315D01*
X68626063Y-108444937D01*
X68691495Y-108444937D01*
X68731474Y-108442311D01*
X68762983Y-108431050D01*
X68796602Y-108406081D01*
X68822496Y-108382111D01*
X68859163Y-108344839D01*
X68878859Y-108315879D01*
X68886760Y-108284775D01*
X68888066Y-108249567D01*
X68876645Y-108172404D01*
X68876645Y-108172404D01*
G37*
X68876645Y-108172404D02*
X68857636Y-108130613D01*
X68834602Y-108097811D01*
X68808847Y-108073777D01*
X68775622Y-108057183D01*
X68730180Y-108046703D01*
X68667773Y-108041009D01*
X68583653Y-108038773D01*
X68528259Y-108038537D01*
X68312154Y-108038537D01*
X68295310Y-108075506D01*
X68282999Y-108104624D01*
X68278466Y-108119049D01*
X68291955Y-108121808D01*
X68328327Y-108123998D01*
X68381438Y-108125338D01*
X68423608Y-108125623D01*
X68484533Y-108126846D01*
X68532865Y-108130144D01*
X68562462Y-108134959D01*
X68568751Y-108138784D01*
X68562328Y-108164497D01*
X68545855Y-108204862D01*
X68523522Y-108251601D01*
X68499523Y-108296435D01*
X68478050Y-108331087D01*
X68463295Y-108347278D01*
X68463135Y-108347342D01*
X68435828Y-108345950D01*
X68409761Y-108333462D01*
X68388588Y-108311537D01*
X68381506Y-108279537D01*
X68382331Y-108252188D01*
X68382938Y-108213454D01*
X68373864Y-108193122D01*
X68349888Y-108180911D01*
X68345367Y-108179371D01*
X68311174Y-108174077D01*
X68290412Y-108188233D01*
X68280518Y-108225132D01*
X68278688Y-108264991D01*
X68292253Y-108336718D01*
X68311625Y-108373848D01*
X68357135Y-108419704D01*
X68412997Y-108444024D01*
X68472023Y-108446207D01*
X68527027Y-108425651D01*
X68561494Y-108394731D01*
X68580791Y-108363860D01*
X68605221Y-108315338D01*
X68629995Y-108258795D01*
X68633781Y-108249370D01*
X68661189Y-108187261D01*
X68685346Y-108151458D01*
X68709361Y-108139943D01*
X68736345Y-108150700D01*
X68757437Y-108169166D01*
X68783408Y-108212811D01*
X68785356Y-108260834D01*
X68765343Y-108304874D01*
X68725429Y-108336571D01*
X68715132Y-108340731D01*
X68677256Y-108364953D01*
X68649138Y-108400315D01*
X68626063Y-108444937D01*
X68691495Y-108444937D01*
X68731474Y-108442311D01*
X68762983Y-108431050D01*
X68796602Y-108406081D01*
X68822496Y-108382111D01*
X68859163Y-108344839D01*
X68878859Y-108315879D01*
X68886760Y-108284775D01*
X68888066Y-108249567D01*
X68876645Y-108172404D01*
G36*
X68874317Y-108537447D02*
G01*
X68836130Y-108535232D01*
X68778094Y-108533496D01*
X68704800Y-108532381D01*
X68627925Y-108532023D01*
X68367784Y-108532023D01*
X68321853Y-108577954D01*
X68293551Y-108609605D01*
X68282087Y-108637390D01*
X68282812Y-108675365D01*
X68284659Y-108690440D01*
X68290032Y-108737554D01*
X68293111Y-108776524D01*
X68293395Y-108786023D01*
X68291535Y-108818047D01*
X68286866Y-108863848D01*
X68284659Y-108881606D01*
X68281245Y-108925223D01*
X68288660Y-108954535D01*
X68311553Y-108983600D01*
X68321853Y-108994092D01*
X68367784Y-109040023D01*
X68854378Y-109040023D01*
X68871222Y-109003054D01*
X68883698Y-108971221D01*
X68888066Y-108952597D01*
X68874262Y-108947822D01*
X68835694Y-108943359D01*
X68776624Y-108939505D01*
X68701317Y-108936558D01*
X68637694Y-108935137D01*
X68387323Y-108931166D01*
X68382424Y-108896521D01*
X68385849Y-108865012D01*
X68396939Y-108849572D01*
X68417672Y-108845257D01*
X68461835Y-108841572D01*
X68523834Y-108838811D01*
X68598071Y-108837268D01*
X68636274Y-108837045D01*
X68856197Y-108836823D01*
X68872131Y-108791114D01*
X68882965Y-108758762D01*
X68888018Y-108741165D01*
X68888066Y-108740657D01*
X68874332Y-108738892D01*
X68836250Y-108736951D01*
X68778498Y-108734998D01*
X68705753Y-108733196D01*
X68637694Y-108731937D01*
X68387323Y-108727966D01*
X68387323Y-108640880D01*
X68615740Y-108636884D01*
X68844158Y-108632888D01*
X68866112Y-108590433D01*
X68881187Y-108559088D01*
X68888029Y-108540536D01*
X68888066Y-108540001D01*
X68874317Y-108537447D01*
X68874317Y-108537447D01*
G37*
X68874317Y-108537447D02*
X68836130Y-108535232D01*
X68778094Y-108533496D01*
X68704800Y-108532381D01*
X68627925Y-108532023D01*
X68367784Y-108532023D01*
X68321853Y-108577954D01*
X68293551Y-108609605D01*
X68282087Y-108637390D01*
X68282812Y-108675365D01*
X68284659Y-108690440D01*
X68290032Y-108737554D01*
X68293111Y-108776524D01*
X68293395Y-108786023D01*
X68291535Y-108818047D01*
X68286866Y-108863848D01*
X68284659Y-108881606D01*
X68281245Y-108925223D01*
X68288660Y-108954535D01*
X68311553Y-108983600D01*
X68321853Y-108994092D01*
X68367784Y-109040023D01*
X68854378Y-109040023D01*
X68871222Y-109003054D01*
X68883698Y-108971221D01*
X68888066Y-108952597D01*
X68874262Y-108947822D01*
X68835694Y-108943359D01*
X68776624Y-108939505D01*
X68701317Y-108936558D01*
X68637694Y-108935137D01*
X68387323Y-108931166D01*
X68382424Y-108896521D01*
X68385849Y-108865012D01*
X68396939Y-108849572D01*
X68417672Y-108845257D01*
X68461835Y-108841572D01*
X68523834Y-108838811D01*
X68598071Y-108837268D01*
X68636274Y-108837045D01*
X68856197Y-108836823D01*
X68872131Y-108791114D01*
X68882965Y-108758762D01*
X68888018Y-108741165D01*
X68888066Y-108740657D01*
X68874332Y-108738892D01*
X68836250Y-108736951D01*
X68778498Y-108734998D01*
X68705753Y-108733196D01*
X68637694Y-108731937D01*
X68387323Y-108727966D01*
X68387323Y-108640880D01*
X68615740Y-108636884D01*
X68844158Y-108632888D01*
X68866112Y-108590433D01*
X68881187Y-108559088D01*
X68888029Y-108540536D01*
X68888066Y-108540001D01*
X68874317Y-108537447D01*
G36*
X68767622Y-109127163D02*
G01*
X68659143Y-109127347D01*
X68575693Y-109128061D01*
X68513276Y-109129605D01*
X68467895Y-109132279D01*
X68435551Y-109136386D01*
X68412247Y-109142225D01*
X68393985Y-109150098D01*
X68383562Y-109156059D01*
X68327035Y-109205425D01*
X68291603Y-109268016D01*
X68278890Y-109337267D01*
X68290517Y-109406612D01*
X68311412Y-109447905D01*
X68347558Y-109491255D01*
X68391704Y-109520799D01*
X68449518Y-109538625D01*
X68526667Y-109546817D01*
X68583266Y-109547978D01*
X68587333Y-109547822D01*
X68587333Y-109446423D01*
X68522430Y-109445804D01*
X68479466Y-109442966D01*
X68451358Y-109436440D01*
X68431027Y-109424757D01*
X68415692Y-109410797D01*
X68386090Y-109363915D01*
X68383561Y-109313579D01*
X68408275Y-109266004D01*
X68411624Y-109262301D01*
X68429045Y-109246497D01*
X68449771Y-109236587D01*
X68480618Y-109231222D01*
X68528403Y-109229052D01*
X68581232Y-109228709D01*
X68647599Y-109229453D01*
X68691874Y-109232532D01*
X68720971Y-109239219D01*
X68741807Y-109250784D01*
X68752873Y-109260267D01*
X68780782Y-109304320D01*
X68784137Y-109355056D01*
X68762821Y-109403484D01*
X68754907Y-109412830D01*
X68737333Y-109428740D01*
X68716393Y-109438670D01*
X68685198Y-109444002D01*
X68636858Y-109446117D01*
X68587333Y-109446423D01*
X68587333Y-109547822D01*
X68674412Y-109544470D01*
X68742894Y-109532554D01*
X68794380Y-109510145D01*
X68834537Y-109475156D01*
X68855119Y-109447905D01*
X68877355Y-109398373D01*
X68887676Y-109340964D01*
X68884913Y-109287598D01*
X68873768Y-109257737D01*
X68870597Y-109246019D01*
X68882423Y-109238243D01*
X68914114Y-109232815D01*
X68962387Y-109228709D01*
X69016151Y-109224213D01*
X69048498Y-109217967D01*
X69066995Y-109206604D01*
X69079210Y-109186752D01*
X69084618Y-109174280D01*
X69104379Y-109127109D01*
X68767622Y-109127163D01*
X68767622Y-109127163D01*
G37*
X68767622Y-109127163D02*
X68659143Y-109127347D01*
X68575693Y-109128061D01*
X68513276Y-109129605D01*
X68467895Y-109132279D01*
X68435551Y-109136386D01*
X68412247Y-109142225D01*
X68393985Y-109150098D01*
X68383562Y-109156059D01*
X68327035Y-109205425D01*
X68291603Y-109268016D01*
X68278890Y-109337267D01*
X68290517Y-109406612D01*
X68311412Y-109447905D01*
X68347558Y-109491255D01*
X68391704Y-109520799D01*
X68449518Y-109538625D01*
X68526667Y-109546817D01*
X68583266Y-109547978D01*
X68587333Y-109547822D01*
X68587333Y-109446423D01*
X68522430Y-109445804D01*
X68479466Y-109442966D01*
X68451358Y-109436440D01*
X68431027Y-109424757D01*
X68415692Y-109410797D01*
X68386090Y-109363915D01*
X68383561Y-109313579D01*
X68408275Y-109266004D01*
X68411624Y-109262301D01*
X68429045Y-109246497D01*
X68449771Y-109236587D01*
X68480618Y-109231222D01*
X68528403Y-109229052D01*
X68581232Y-109228709D01*
X68647599Y-109229453D01*
X68691874Y-109232532D01*
X68720971Y-109239219D01*
X68741807Y-109250784D01*
X68752873Y-109260267D01*
X68780782Y-109304320D01*
X68784137Y-109355056D01*
X68762821Y-109403484D01*
X68754907Y-109412830D01*
X68737333Y-109428740D01*
X68716393Y-109438670D01*
X68685198Y-109444002D01*
X68636858Y-109446117D01*
X68587333Y-109446423D01*
X68587333Y-109547822D01*
X68674412Y-109544470D01*
X68742894Y-109532554D01*
X68794380Y-109510145D01*
X68834537Y-109475156D01*
X68855119Y-109447905D01*
X68877355Y-109398373D01*
X68887676Y-109340964D01*
X68884913Y-109287598D01*
X68873768Y-109257737D01*
X68870597Y-109246019D01*
X68882423Y-109238243D01*
X68914114Y-109232815D01*
X68962387Y-109228709D01*
X69016151Y-109224213D01*
X69048498Y-109217967D01*
X69066995Y-109206604D01*
X69079210Y-109186752D01*
X69084618Y-109174280D01*
X69104379Y-109127109D01*
X68767622Y-109127163D01*
G36*
X68883225Y-109787354D02*
G01*
X68858896Y-109721422D01*
X68815863Y-109668007D01*
X68785571Y-109647116D01*
X68729986Y-109624341D01*
X68689794Y-109624814D01*
X68662763Y-109648718D01*
X68658167Y-109657563D01*
X68643836Y-109695750D01*
X68647508Y-109715252D01*
X68671573Y-109721858D01*
X68684866Y-109722194D01*
X68733770Y-109734288D01*
X68767981Y-109765809D01*
X68784504Y-109809621D01*
X68780346Y-109858585D01*
X68758753Y-109898386D01*
X68746436Y-109911830D01*
X68731493Y-109921359D01*
X68708905Y-109927795D01*
X68673652Y-109931963D01*
X68620714Y-109934683D01*
X68545073Y-109936778D01*
X68521123Y-109937320D01*
X68439190Y-109939299D01*
X68381525Y-109941549D01*
X68343372Y-109944923D01*
X68319976Y-109950274D01*
X68306582Y-109958456D01*
X68298435Y-109970321D01*
X68294836Y-109977918D01*
X68282528Y-110010178D01*
X68278466Y-110029169D01*
X68292032Y-110035444D01*
X68333046Y-110039274D01*
X68401981Y-110040680D01*
X68499311Y-110039682D01*
X68514323Y-110039372D01*
X68603121Y-110037179D01*
X68667961Y-110034587D01*
X68713913Y-110030898D01*
X68746045Y-110025416D01*
X68769427Y-110017445D01*
X68789128Y-110006287D01*
X68797570Y-110000450D01*
X68834923Y-109966984D01*
X68863977Y-109929553D01*
X68866513Y-109924971D01*
X68886537Y-109857854D01*
X68883225Y-109787354D01*
X68883225Y-109787354D01*
G37*
X68883225Y-109787354D02*
X68858896Y-109721422D01*
X68815863Y-109668007D01*
X68785571Y-109647116D01*
X68729986Y-109624341D01*
X68689794Y-109624814D01*
X68662763Y-109648718D01*
X68658167Y-109657563D01*
X68643836Y-109695750D01*
X68647508Y-109715252D01*
X68671573Y-109721858D01*
X68684866Y-109722194D01*
X68733770Y-109734288D01*
X68767981Y-109765809D01*
X68784504Y-109809621D01*
X68780346Y-109858585D01*
X68758753Y-109898386D01*
X68746436Y-109911830D01*
X68731493Y-109921359D01*
X68708905Y-109927795D01*
X68673652Y-109931963D01*
X68620714Y-109934683D01*
X68545073Y-109936778D01*
X68521123Y-109937320D01*
X68439190Y-109939299D01*
X68381525Y-109941549D01*
X68343372Y-109944923D01*
X68319976Y-109950274D01*
X68306582Y-109958456D01*
X68298435Y-109970321D01*
X68294836Y-109977918D01*
X68282528Y-110010178D01*
X68278466Y-110029169D01*
X68292032Y-110035444D01*
X68333046Y-110039274D01*
X68401981Y-110040680D01*
X68499311Y-110039682D01*
X68514323Y-110039372D01*
X68603121Y-110037179D01*
X68667961Y-110034587D01*
X68713913Y-110030898D01*
X68746045Y-110025416D01*
X68769427Y-110017445D01*
X68789128Y-110006287D01*
X68797570Y-110000450D01*
X68834923Y-109966984D01*
X68863977Y-109929553D01*
X68866513Y-109924971D01*
X68886537Y-109857854D01*
X68883225Y-109787354D01*
G36*
X68882012Y-110277536D02*
G01*
X68860893Y-110220664D01*
X68860487Y-110220013D01*
X68834600Y-110184840D01*
X68804347Y-110158873D01*
X68764922Y-110140610D01*
X68711518Y-110128548D01*
X68639329Y-110121184D01*
X68543548Y-110117016D01*
X68529902Y-110116651D01*
X68324138Y-110111404D01*
X68301302Y-110155564D01*
X68285870Y-110187517D01*
X68278557Y-110206810D01*
X68278466Y-110207702D01*
X68291958Y-110211041D01*
X68328354Y-110213693D01*
X68381528Y-110215324D01*
X68424587Y-110215680D01*
X68494339Y-110215688D01*
X68538143Y-110218877D01*
X68559036Y-110229992D01*
X68560055Y-110253779D01*
X68544239Y-110294984D01*
X68515165Y-110357194D01*
X68491017Y-110402939D01*
X68470067Y-110426467D01*
X68447233Y-110433384D01*
X68446103Y-110433394D01*
X68406768Y-110421981D01*
X68385518Y-110388188D01*
X68382441Y-110336471D01*
X68382974Y-110299219D01*
X68372245Y-110279577D01*
X68346475Y-110267328D01*
X68313643Y-110260278D01*
X68295014Y-110270438D01*
X68292348Y-110274263D01*
X68281640Y-110310279D01*
X68280124Y-110360714D01*
X68287221Y-110412654D01*
X68300192Y-110449458D01*
X68343395Y-110500342D01*
X68403534Y-110529266D01*
X68450518Y-110534994D01*
X68492898Y-110530623D01*
X68527492Y-110514805D01*
X68558217Y-110483483D01*
X68588990Y-110432602D01*
X68623728Y-110358104D01*
X68625692Y-110353566D01*
X68656693Y-110286459D01*
X68682118Y-110245048D01*
X68704966Y-110227299D01*
X68728235Y-110231173D01*
X68754924Y-110254637D01*
X68761066Y-110261653D01*
X68784880Y-110308650D01*
X68783877Y-110357347D01*
X68760529Y-110399758D01*
X68717305Y-110427896D01*
X68708820Y-110430511D01*
X68667672Y-110455972D01*
X68647852Y-110488279D01*
X68628210Y-110534994D01*
X68679030Y-110534994D01*
X68752898Y-110520784D01*
X68820653Y-110478605D01*
X68843319Y-110456656D01*
X68872411Y-110406763D01*
X68885580Y-110343313D01*
X68882012Y-110277536D01*
X68882012Y-110277536D01*
G37*
X68882012Y-110277536D02*
X68860893Y-110220664D01*
X68860487Y-110220013D01*
X68834600Y-110184840D01*
X68804347Y-110158873D01*
X68764922Y-110140610D01*
X68711518Y-110128548D01*
X68639329Y-110121184D01*
X68543548Y-110117016D01*
X68529902Y-110116651D01*
X68324138Y-110111404D01*
X68301302Y-110155564D01*
X68285870Y-110187517D01*
X68278557Y-110206810D01*
X68278466Y-110207702D01*
X68291958Y-110211041D01*
X68328354Y-110213693D01*
X68381528Y-110215324D01*
X68424587Y-110215680D01*
X68494339Y-110215688D01*
X68538143Y-110218877D01*
X68559036Y-110229992D01*
X68560055Y-110253779D01*
X68544239Y-110294984D01*
X68515165Y-110357194D01*
X68491017Y-110402939D01*
X68470067Y-110426467D01*
X68447233Y-110433384D01*
X68446103Y-110433394D01*
X68406768Y-110421981D01*
X68385518Y-110388188D01*
X68382441Y-110336471D01*
X68382974Y-110299219D01*
X68372245Y-110279577D01*
X68346475Y-110267328D01*
X68313643Y-110260278D01*
X68295014Y-110270438D01*
X68292348Y-110274263D01*
X68281640Y-110310279D01*
X68280124Y-110360714D01*
X68287221Y-110412654D01*
X68300192Y-110449458D01*
X68343395Y-110500342D01*
X68403534Y-110529266D01*
X68450518Y-110534994D01*
X68492898Y-110530623D01*
X68527492Y-110514805D01*
X68558217Y-110483483D01*
X68588990Y-110432602D01*
X68623728Y-110358104D01*
X68625692Y-110353566D01*
X68656693Y-110286459D01*
X68682118Y-110245048D01*
X68704966Y-110227299D01*
X68728235Y-110231173D01*
X68754924Y-110254637D01*
X68761066Y-110261653D01*
X68784880Y-110308650D01*
X68783877Y-110357347D01*
X68760529Y-110399758D01*
X68717305Y-110427896D01*
X68708820Y-110430511D01*
X68667672Y-110455972D01*
X68647852Y-110488279D01*
X68628210Y-110534994D01*
X68679030Y-110534994D01*
X68752898Y-110520784D01*
X68820653Y-110478605D01*
X68843319Y-110456656D01*
X68872411Y-110406763D01*
X68885580Y-110343313D01*
X68882012Y-110277536D01*
G36*
X68981691Y-110941394D02*
G01*
X68922367Y-110937141D01*
X68887408Y-110932255D01*
X68872160Y-110925485D01*
X68871965Y-110915578D01*
X68873785Y-110912366D01*
X68886965Y-110869636D01*
X68886195Y-110814053D01*
X68872647Y-110757543D01*
X68855119Y-110722198D01*
X68827119Y-110685959D01*
X68795431Y-110659467D01*
X68755167Y-110641281D01*
X68701437Y-110629958D01*
X68629354Y-110624058D01*
X68534029Y-110622137D01*
X68515743Y-110622103D01*
X68310334Y-110622080D01*
X68294400Y-110667789D01*
X68283560Y-110700253D01*
X68278512Y-110718065D01*
X68278466Y-110718589D01*
X68292152Y-110720343D01*
X68329904Y-110721836D01*
X68386756Y-110722954D01*
X68457746Y-110723583D01*
X68500907Y-110723680D01*
X68586007Y-110723882D01*
X68646999Y-110724922D01*
X68688803Y-110727449D01*
X68716338Y-110732116D01*
X68734524Y-110739573D01*
X68748282Y-110750469D01*
X68754907Y-110757273D01*
X68781605Y-110804008D01*
X68783605Y-110855008D01*
X68761025Y-110901279D01*
X68752873Y-110909836D01*
X68737544Y-110922387D01*
X68719362Y-110931092D01*
X68693071Y-110936649D01*
X68653418Y-110939754D01*
X68595148Y-110941104D01*
X68514807Y-110941394D01*
X68310334Y-110941394D01*
X68294400Y-110987103D01*
X68283560Y-111019567D01*
X68278512Y-111037379D01*
X68278466Y-111037903D01*
X68292357Y-111039243D01*
X68331541Y-111040452D01*
X68392280Y-111041479D01*
X68470839Y-111042278D01*
X68563482Y-111042799D01*
X68666471Y-111042994D01*
X69063638Y-111042994D01*
X69083536Y-110995823D01*
X69103433Y-110948651D01*
X68981691Y-110941394D01*
X68981691Y-110941394D01*
G37*
X68981691Y-110941394D02*
X68922367Y-110937141D01*
X68887408Y-110932255D01*
X68872160Y-110925485D01*
X68871965Y-110915578D01*
X68873785Y-110912366D01*
X68886965Y-110869636D01*
X68886195Y-110814053D01*
X68872647Y-110757543D01*
X68855119Y-110722198D01*
X68827119Y-110685959D01*
X68795431Y-110659467D01*
X68755167Y-110641281D01*
X68701437Y-110629958D01*
X68629354Y-110624058D01*
X68534029Y-110622137D01*
X68515743Y-110622103D01*
X68310334Y-110622080D01*
X68294400Y-110667789D01*
X68283560Y-110700253D01*
X68278512Y-110718065D01*
X68278466Y-110718589D01*
X68292152Y-110720343D01*
X68329904Y-110721836D01*
X68386756Y-110722954D01*
X68457746Y-110723583D01*
X68500907Y-110723680D01*
X68586007Y-110723882D01*
X68646999Y-110724922D01*
X68688803Y-110727449D01*
X68716338Y-110732116D01*
X68734524Y-110739573D01*
X68748282Y-110750469D01*
X68754907Y-110757273D01*
X68781605Y-110804008D01*
X68783605Y-110855008D01*
X68761025Y-110901279D01*
X68752873Y-110909836D01*
X68737544Y-110922387D01*
X68719362Y-110931092D01*
X68693071Y-110936649D01*
X68653418Y-110939754D01*
X68595148Y-110941104D01*
X68514807Y-110941394D01*
X68310334Y-110941394D01*
X68294400Y-110987103D01*
X68283560Y-111019567D01*
X68278512Y-111037379D01*
X68278466Y-111037903D01*
X68292357Y-111039243D01*
X68331541Y-111040452D01*
X68392280Y-111041479D01*
X68470839Y-111042278D01*
X68563482Y-111042799D01*
X68666471Y-111042994D01*
X69063638Y-111042994D01*
X69083536Y-110995823D01*
X69103433Y-110948651D01*
X68981691Y-110941394D01*
G36*
X68901741Y-112148977D02*
G01*
X68863245Y-112091753D01*
X68807645Y-112047531D01*
X68736894Y-112021113D01*
X68684818Y-112015770D01*
X68663087Y-112016377D01*
X68646449Y-112021458D01*
X68631543Y-112035425D01*
X68615007Y-112062691D01*
X68593482Y-112107668D01*
X68563606Y-112174769D01*
X68563456Y-112175109D01*
X68535167Y-112236873D01*
X68510047Y-112287521D01*
X68490801Y-112321876D01*
X68480132Y-112334762D01*
X68480046Y-112334766D01*
X68456814Y-112323408D01*
X68431206Y-112296849D01*
X68412759Y-112266357D01*
X68409094Y-112250910D01*
X68421768Y-112208765D01*
X68453509Y-112172472D01*
X68488408Y-112154763D01*
X68514135Y-112137728D01*
X68543434Y-112104358D01*
X68568745Y-112065131D01*
X68582509Y-112030524D01*
X68583266Y-112023287D01*
X68570820Y-112015141D01*
X68539008Y-112014650D01*
X68496114Y-112020637D01*
X68450422Y-112031923D01*
X68410219Y-112047330D01*
X68408658Y-112048109D01*
X68343918Y-112094476D01*
X68299883Y-112154569D01*
X68278269Y-112222815D01*
X68280795Y-112293642D01*
X68309176Y-112361476D01*
X68311172Y-112364492D01*
X68359532Y-112417853D01*
X68422628Y-112452940D01*
X68505593Y-112472358D01*
X68528902Y-112474964D01*
X68638925Y-112479579D01*
X68690232Y-112474047D01*
X68690232Y-112334766D01*
X68658227Y-112332956D01*
X68648887Y-112323058D01*
X68655875Y-112298382D01*
X68672393Y-112259485D01*
X68693099Y-112216005D01*
X68693647Y-112214924D01*
X68713031Y-112178071D01*
X68725967Y-112163280D01*
X68739529Y-112166927D01*
X68757348Y-112182285D01*
X68783135Y-112221357D01*
X68785030Y-112263434D01*
X68766263Y-112301177D01*
X68730065Y-112327246D01*
X68690232Y-112334766D01*
X68690232Y-112474047D01*
X68726953Y-112470086D01*
X68796768Y-112445730D01*
X68845678Y-112411824D01*
X68895102Y-112350627D01*
X68919621Y-112283217D01*
X68921183Y-112214400D01*
X68901741Y-112148977D01*
X68901741Y-112148977D01*
G37*
X68901741Y-112148977D02*
X68863245Y-112091753D01*
X68807645Y-112047531D01*
X68736894Y-112021113D01*
X68684818Y-112015770D01*
X68663087Y-112016377D01*
X68646449Y-112021458D01*
X68631543Y-112035425D01*
X68615007Y-112062691D01*
X68593482Y-112107668D01*
X68563606Y-112174769D01*
X68563456Y-112175109D01*
X68535167Y-112236873D01*
X68510047Y-112287521D01*
X68490801Y-112321876D01*
X68480132Y-112334762D01*
X68480046Y-112334766D01*
X68456814Y-112323408D01*
X68431206Y-112296849D01*
X68412759Y-112266357D01*
X68409094Y-112250910D01*
X68421768Y-112208765D01*
X68453509Y-112172472D01*
X68488408Y-112154763D01*
X68514135Y-112137728D01*
X68543434Y-112104358D01*
X68568745Y-112065131D01*
X68582509Y-112030524D01*
X68583266Y-112023287D01*
X68570820Y-112015141D01*
X68539008Y-112014650D01*
X68496114Y-112020637D01*
X68450422Y-112031923D01*
X68410219Y-112047330D01*
X68408658Y-112048109D01*
X68343918Y-112094476D01*
X68299883Y-112154569D01*
X68278269Y-112222815D01*
X68280795Y-112293642D01*
X68309176Y-112361476D01*
X68311172Y-112364492D01*
X68359532Y-112417853D01*
X68422628Y-112452940D01*
X68505593Y-112472358D01*
X68528902Y-112474964D01*
X68638925Y-112479579D01*
X68690232Y-112474047D01*
X68690232Y-112334766D01*
X68658227Y-112332956D01*
X68648887Y-112323058D01*
X68655875Y-112298382D01*
X68672393Y-112259485D01*
X68693099Y-112216005D01*
X68693647Y-112214924D01*
X68713031Y-112178071D01*
X68725967Y-112163280D01*
X68739529Y-112166927D01*
X68757348Y-112182285D01*
X68783135Y-112221357D01*
X68785030Y-112263434D01*
X68766263Y-112301177D01*
X68730065Y-112327246D01*
X68690232Y-112334766D01*
X68690232Y-112474047D01*
X68726953Y-112470086D01*
X68796768Y-112445730D01*
X68845678Y-112411824D01*
X68895102Y-112350627D01*
X68919621Y-112283217D01*
X68921183Y-112214400D01*
X68901741Y-112148977D01*
G36*
X68911018Y-113276165D02*
G01*
X68875247Y-113208135D01*
X68817679Y-113157929D01*
X68780668Y-113140095D01*
X68725098Y-113126217D01*
X68654884Y-113119113D01*
X68578253Y-113118440D01*
X68503428Y-113123853D01*
X68438638Y-113135010D01*
X68392107Y-113151566D01*
X68384093Y-113156654D01*
X68324273Y-113216925D01*
X68288445Y-113288511D01*
X68277960Y-113366188D01*
X68294170Y-113444732D01*
X68303888Y-113466591D01*
X68333837Y-113509158D01*
X68373547Y-113546517D01*
X68378583Y-113550048D01*
X68402856Y-113564399D01*
X68428802Y-113573886D01*
X68462958Y-113579490D01*
X68511861Y-113582194D01*
X68582045Y-113582981D01*
X68597780Y-113582994D01*
X68602788Y-113582958D01*
X68602788Y-113437851D01*
X68536550Y-113437007D01*
X68492594Y-113433684D01*
X68464201Y-113426697D01*
X68444655Y-113414864D01*
X68438123Y-113408823D01*
X68413300Y-113374094D01*
X68414432Y-113340377D01*
X68435964Y-113306285D01*
X68458951Y-113285951D01*
X68492502Y-113273909D01*
X68545411Y-113267146D01*
X68551581Y-113266682D01*
X68647467Y-113265528D01*
X68718681Y-113277592D01*
X68764786Y-113302710D01*
X68785345Y-113340720D01*
X68786466Y-113354288D01*
X68780828Y-113389916D01*
X68761294Y-113414286D01*
X68723938Y-113429187D01*
X68664830Y-113436405D01*
X68602788Y-113437851D01*
X68602788Y-113582958D01*
X68672567Y-113582454D01*
X68724821Y-113580184D01*
X68761031Y-113575212D01*
X68787681Y-113566567D01*
X68811258Y-113553275D01*
X68815642Y-113550337D01*
X68874731Y-113500967D01*
X68909033Y-113447171D01*
X68922649Y-113381678D01*
X68923315Y-113359438D01*
X68911018Y-113276165D01*
X68911018Y-113276165D01*
G37*
X68911018Y-113276165D02*
X68875247Y-113208135D01*
X68817679Y-113157929D01*
X68780668Y-113140095D01*
X68725098Y-113126217D01*
X68654884Y-113119113D01*
X68578253Y-113118440D01*
X68503428Y-113123853D01*
X68438638Y-113135010D01*
X68392107Y-113151566D01*
X68384093Y-113156654D01*
X68324273Y-113216925D01*
X68288445Y-113288511D01*
X68277960Y-113366188D01*
X68294170Y-113444732D01*
X68303888Y-113466591D01*
X68333837Y-113509158D01*
X68373547Y-113546517D01*
X68378583Y-113550048D01*
X68402856Y-113564399D01*
X68428802Y-113573886D01*
X68462958Y-113579490D01*
X68511861Y-113582194D01*
X68582045Y-113582981D01*
X68597780Y-113582994D01*
X68602788Y-113582958D01*
X68602788Y-113437851D01*
X68536550Y-113437007D01*
X68492594Y-113433684D01*
X68464201Y-113426697D01*
X68444655Y-113414864D01*
X68438123Y-113408823D01*
X68413300Y-113374094D01*
X68414432Y-113340377D01*
X68435964Y-113306285D01*
X68458951Y-113285951D01*
X68492502Y-113273909D01*
X68545411Y-113267146D01*
X68551581Y-113266682D01*
X68647467Y-113265528D01*
X68718681Y-113277592D01*
X68764786Y-113302710D01*
X68785345Y-113340720D01*
X68786466Y-113354288D01*
X68780828Y-113389916D01*
X68761294Y-113414286D01*
X68723938Y-113429187D01*
X68664830Y-113436405D01*
X68602788Y-113437851D01*
X68602788Y-113582958D01*
X68672567Y-113582454D01*
X68724821Y-113580184D01*
X68761031Y-113575212D01*
X68787681Y-113566567D01*
X68811258Y-113553275D01*
X68815642Y-113550337D01*
X68874731Y-113500967D01*
X68909033Y-113447171D01*
X68922649Y-113381678D01*
X68923315Y-113359438D01*
X68911018Y-113276165D01*
G36*
X68905200Y-111601187D02*
G01*
X68878257Y-111554608D01*
X68851514Y-111522223D01*
X68823496Y-111498538D01*
X68789232Y-111482221D01*
X68743753Y-111471941D01*
X68682088Y-111466366D01*
X68599269Y-111464164D01*
X68539734Y-111463909D01*
X68320589Y-111463909D01*
X68292936Y-111525594D01*
X68265283Y-111587280D01*
X68505310Y-111594537D01*
X68594952Y-111597536D01*
X68660018Y-111600682D01*
X68704954Y-111604579D01*
X68734210Y-111609833D01*
X68752232Y-111617049D01*
X68763469Y-111626830D01*
X68765901Y-111629968D01*
X68784897Y-111677519D01*
X68777380Y-111725583D01*
X68757437Y-111754194D01*
X68743305Y-111765833D01*
X68724760Y-111773889D01*
X68696646Y-111779009D01*
X68653807Y-111781839D01*
X68591085Y-111783024D01*
X68525719Y-111783223D01*
X68443712Y-111783262D01*
X68385664Y-111784666D01*
X68346515Y-111789366D01*
X68321200Y-111799293D01*
X68304657Y-111816377D01*
X68291824Y-111842548D01*
X68278489Y-111877505D01*
X68263973Y-111915684D01*
X68521591Y-111911139D01*
X68614461Y-111909309D01*
X68683091Y-111907168D01*
X68732269Y-111904099D01*
X68766782Y-111899486D01*
X68791418Y-111892712D01*
X68810964Y-111883161D01*
X68828210Y-111871646D01*
X68883300Y-111816090D01*
X68915158Y-111748300D01*
X68922789Y-111674567D01*
X68905200Y-111601187D01*
X68905200Y-111601187D01*
G37*
X68905200Y-111601187D02*
X68878257Y-111554608D01*
X68851514Y-111522223D01*
X68823496Y-111498538D01*
X68789232Y-111482221D01*
X68743753Y-111471941D01*
X68682088Y-111466366D01*
X68599269Y-111464164D01*
X68539734Y-111463909D01*
X68320589Y-111463909D01*
X68292936Y-111525594D01*
X68265283Y-111587280D01*
X68505310Y-111594537D01*
X68594952Y-111597536D01*
X68660018Y-111600682D01*
X68704954Y-111604579D01*
X68734210Y-111609833D01*
X68752232Y-111617049D01*
X68763469Y-111626830D01*
X68765901Y-111629968D01*
X68784897Y-111677519D01*
X68777380Y-111725583D01*
X68757437Y-111754194D01*
X68743305Y-111765833D01*
X68724760Y-111773889D01*
X68696646Y-111779009D01*
X68653807Y-111781839D01*
X68591085Y-111783024D01*
X68525719Y-111783223D01*
X68443712Y-111783262D01*
X68385664Y-111784666D01*
X68346515Y-111789366D01*
X68321200Y-111799293D01*
X68304657Y-111816377D01*
X68291824Y-111842548D01*
X68278489Y-111877505D01*
X68263973Y-111915684D01*
X68521591Y-111911139D01*
X68614461Y-111909309D01*
X68683091Y-111907168D01*
X68732269Y-111904099D01*
X68766782Y-111899486D01*
X68791418Y-111892712D01*
X68810964Y-111883161D01*
X68828210Y-111871646D01*
X68883300Y-111816090D01*
X68915158Y-111748300D01*
X68922789Y-111674567D01*
X68905200Y-111601187D01*
G36*
X68913062Y-112717536D02*
G01*
X68885412Y-112662079D01*
X68834500Y-112613132D01*
X68815642Y-112599651D01*
X68790965Y-112584966D01*
X68764164Y-112575438D01*
X68728393Y-112569987D01*
X68676811Y-112567533D01*
X68608713Y-112566994D01*
X68515392Y-112569428D01*
X68445323Y-112577886D01*
X68393049Y-112594106D01*
X68353111Y-112619826D01*
X68320051Y-112656783D01*
X68318094Y-112659498D01*
X68298072Y-112695920D01*
X68288165Y-112739778D01*
X68285723Y-112795556D01*
X68285723Y-112886232D01*
X68197697Y-112886270D01*
X68148672Y-112887114D01*
X68119915Y-112892256D01*
X68102669Y-112905693D01*
X68088172Y-112931422D01*
X68085211Y-112937601D01*
X68071332Y-112966516D01*
X68062566Y-112988904D01*
X68061809Y-113005551D01*
X68071957Y-113017244D01*
X68095907Y-113024770D01*
X68136554Y-113028914D01*
X68196794Y-113030465D01*
X68279525Y-113030209D01*
X68387641Y-113028931D01*
X68419980Y-113028532D01*
X68531456Y-113027095D01*
X68604377Y-113025808D01*
X68604377Y-112886309D01*
X68542481Y-112885525D01*
X68501983Y-112882040D01*
X68475272Y-112874156D01*
X68454736Y-112860175D01*
X68444720Y-112850683D01*
X68415413Y-112811876D01*
X68413028Y-112777517D01*
X68437230Y-112742064D01*
X68438123Y-112741166D01*
X68456827Y-112726741D01*
X68482248Y-112717967D01*
X68521396Y-112713541D01*
X68581283Y-112712162D01*
X68594550Y-112712137D01*
X68677079Y-112715468D01*
X68734289Y-112726311D01*
X68769214Y-112745940D01*
X68784886Y-112775630D01*
X68786466Y-112792789D01*
X68779054Y-112833514D01*
X68754650Y-112861448D01*
X68710000Y-112878263D01*
X68641850Y-112885630D01*
X68604377Y-112886309D01*
X68604377Y-113025808D01*
X68617735Y-113025572D01*
X68682647Y-113023603D01*
X68730022Y-113020830D01*
X68763690Y-113016892D01*
X68787482Y-113011431D01*
X68805227Y-113004088D01*
X68820756Y-112994503D01*
X68826599Y-112990393D01*
X68881795Y-112935875D01*
X68913090Y-112866944D01*
X68921815Y-112787208D01*
X68913062Y-112717536D01*
X68913062Y-112717536D01*
G37*
X68913062Y-112717536D02*
X68885412Y-112662079D01*
X68834500Y-112613132D01*
X68815642Y-112599651D01*
X68790965Y-112584966D01*
X68764164Y-112575438D01*
X68728393Y-112569987D01*
X68676811Y-112567533D01*
X68608713Y-112566994D01*
X68515392Y-112569428D01*
X68445323Y-112577886D01*
X68393049Y-112594106D01*
X68353111Y-112619826D01*
X68320051Y-112656783D01*
X68318094Y-112659498D01*
X68298072Y-112695920D01*
X68288165Y-112739778D01*
X68285723Y-112795556D01*
X68285723Y-112886232D01*
X68197697Y-112886270D01*
X68148672Y-112887114D01*
X68119915Y-112892256D01*
X68102669Y-112905693D01*
X68088172Y-112931422D01*
X68085211Y-112937601D01*
X68071332Y-112966516D01*
X68062566Y-112988904D01*
X68061809Y-113005551D01*
X68071957Y-113017244D01*
X68095907Y-113024770D01*
X68136554Y-113028914D01*
X68196794Y-113030465D01*
X68279525Y-113030209D01*
X68387641Y-113028931D01*
X68419980Y-113028532D01*
X68531456Y-113027095D01*
X68604377Y-113025808D01*
X68604377Y-112886309D01*
X68542481Y-112885525D01*
X68501983Y-112882040D01*
X68475272Y-112874156D01*
X68454736Y-112860175D01*
X68444720Y-112850683D01*
X68415413Y-112811876D01*
X68413028Y-112777517D01*
X68437230Y-112742064D01*
X68438123Y-112741166D01*
X68456827Y-112726741D01*
X68482248Y-112717967D01*
X68521396Y-112713541D01*
X68581283Y-112712162D01*
X68594550Y-112712137D01*
X68677079Y-112715468D01*
X68734289Y-112726311D01*
X68769214Y-112745940D01*
X68784886Y-112775630D01*
X68786466Y-112792789D01*
X68779054Y-112833514D01*
X68754650Y-112861448D01*
X68710000Y-112878263D01*
X68641850Y-112885630D01*
X68604377Y-112886309D01*
X68604377Y-113025808D01*
X68617735Y-113025572D01*
X68682647Y-113023603D01*
X68730022Y-113020830D01*
X68763690Y-113016892D01*
X68787482Y-113011431D01*
X68805227Y-113004088D01*
X68820756Y-112994503D01*
X68826599Y-112990393D01*
X68881795Y-112935875D01*
X68913090Y-112866944D01*
X68921815Y-112787208D01*
X68913062Y-112717536D01*
D12*
X77166400Y-104138472D02*
X77166400Y-103615968D01*
X78586400Y-104138472D02*
X78586400Y-103615968D01*
X89984600Y-107082140D02*
X82684600Y-107082140D01*
X89984600Y-112582140D02*
X82684600Y-112582140D01*
X82684600Y-112582140D02*
X82684600Y-111432140D01*
X88834000Y-116512340D02*
G75*
G03X88834000Y-116512340I-950000J0D01*
G01*
X83215520Y-116563140D02*
G75*
G03X83215520Y-116563140I-950000J0D01*
G01*
X86024760Y-116563140D02*
G75*
G03X86024760Y-116563140I-950000J0D01*
G01*
X80248800Y-116568220D02*
G75*
G03X80248800Y-116568220I-950000J0D01*
G01*
D13*
X80039482Y-104450853D02*
X80087101Y-104403234D01*
X80134720Y-104260377D01*
X80134720Y-104165139D01*
X80087101Y-104022281D01*
X79991863Y-103927043D01*
X79896625Y-103879424D01*
X79706149Y-103831805D01*
X79563292Y-103831805D01*
X79372816Y-103879424D01*
X79277578Y-103927043D01*
X79182340Y-104022281D01*
X79134720Y-104165139D01*
X79134720Y-104260377D01*
X79182340Y-104403234D01*
X79229959Y-104450853D01*
X79134720Y-104784186D02*
X79134720Y-105403234D01*
X79515673Y-105069900D01*
X79515673Y-105212758D01*
X79563292Y-105307996D01*
X79610911Y-105355615D01*
X79706149Y-105403234D01*
X79944244Y-105403234D01*
X80039482Y-105355615D01*
X80087101Y-105307996D01*
X80134720Y-105212758D01*
X80134720Y-104927043D01*
X80087101Y-104831805D01*
X80039482Y-104784186D01*
X87072695Y-106784520D02*
X87072695Y-105784520D01*
X86834600Y-105784520D01*
X86691742Y-105832140D01*
X86596504Y-105927378D01*
X86548885Y-106022616D01*
X86501266Y-106213092D01*
X86501266Y-106355949D01*
X86548885Y-106546425D01*
X86596504Y-106641663D01*
X86691742Y-106736901D01*
X86834600Y-106784520D01*
X87072695Y-106784520D01*
X85548885Y-106784520D02*
X86120314Y-106784520D01*
X85834600Y-106784520D02*
X85834600Y-105784520D01*
X85929838Y-105927378D01*
X86025076Y-106022616D01*
X86120314Y-106070235D01*
X90198885Y-108684520D02*
X90770314Y-108684520D01*
X90484600Y-108684520D02*
X90484600Y-107684520D01*
X90579838Y-107827378D01*
X90675076Y-107922616D01*
X90770314Y-107970235D01*
X89797735Y-117714780D02*
X89178687Y-117714780D01*
X89512020Y-118095733D01*
X89369163Y-118095733D01*
X89273925Y-118143352D01*
X89226306Y-118190971D01*
X89178687Y-118286209D01*
X89178687Y-118524304D01*
X89226306Y-118619542D01*
X89273925Y-118667161D01*
X89369163Y-118714780D01*
X89654878Y-118714780D01*
X89750116Y-118667161D01*
X89797735Y-118619542D01*
X88892973Y-117714780D02*
X88559640Y-118714780D01*
X88226306Y-117714780D01*
X87988211Y-117714780D02*
X87369163Y-117714780D01*
X87702497Y-118095733D01*
X87559640Y-118095733D01*
X87464401Y-118143352D01*
X87416782Y-118190971D01*
X87369163Y-118286209D01*
X87369163Y-118524304D01*
X87416782Y-118619542D01*
X87464401Y-118667161D01*
X87559640Y-118714780D01*
X87845354Y-118714780D01*
X87940592Y-118667161D01*
X87988211Y-118619542D01*
X82527424Y-118663520D02*
X82527424Y-117663520D01*
X82289329Y-117663520D01*
X82146472Y-117711140D01*
X82051234Y-117806378D01*
X82003615Y-117901616D01*
X81955996Y-118092092D01*
X81955996Y-118234949D01*
X82003615Y-118425425D01*
X82051234Y-118520663D01*
X82146472Y-118615901D01*
X82289329Y-118663520D01*
X82527424Y-118663520D01*
X85669998Y-118568282D02*
X85717617Y-118615901D01*
X85860474Y-118663520D01*
X85955712Y-118663520D01*
X86098569Y-118615901D01*
X86193807Y-118520663D01*
X86241426Y-118425425D01*
X86289045Y-118234949D01*
X86289045Y-118092092D01*
X86241426Y-117901616D01*
X86193807Y-117806378D01*
X86098569Y-117711140D01*
X85955712Y-117663520D01*
X85860474Y-117663520D01*
X85717617Y-117711140D01*
X85669998Y-117758759D01*
X84765236Y-118663520D02*
X85241426Y-118663520D01*
X85241426Y-117663520D01*
X84431902Y-118663520D02*
X84431902Y-117663520D01*
X83860474Y-118663520D02*
X84289045Y-118092092D01*
X83860474Y-117663520D02*
X84431902Y-118234949D01*
X80223264Y-117808120D02*
X80318502Y-117760500D01*
X80461360Y-117760500D01*
X80604217Y-117808120D01*
X80699455Y-117903358D01*
X80747074Y-117998596D01*
X80794693Y-118189072D01*
X80794693Y-118331929D01*
X80747074Y-118522405D01*
X80699455Y-118617643D01*
X80604217Y-118712881D01*
X80461360Y-118760500D01*
X80366121Y-118760500D01*
X80223264Y-118712881D01*
X80175645Y-118665262D01*
X80175645Y-118331929D01*
X80366121Y-118331929D01*
X79747074Y-118760500D02*
X79747074Y-117760500D01*
X79175645Y-118760500D01*
X79175645Y-117760500D01*
X78699455Y-118760500D02*
X78699455Y-117760500D01*
X78461360Y-117760500D01*
X78318502Y-117808120D01*
X78223264Y-117903358D01*
X78175645Y-117998596D01*
X78128026Y-118189072D01*
X78128026Y-118331929D01*
X78175645Y-118522405D01*
X78223264Y-118617643D01*
X78318502Y-118712881D01*
X78461360Y-118760500D01*
X78699455Y-118760500D01*
M02*
