G04 #@! TF.GenerationSoftware,KiCad,Pcbnew,5.1.3-ffb9f22~84~ubuntu18.04.1*
G04 #@! TF.CreationDate,2019-07-28T18:08:26+02:00*
G04 #@! TF.ProjectId,board,626f6172-642e-46b6-9963-61645f706362,rev?*
G04 #@! TF.SameCoordinates,Original*
G04 #@! TF.FileFunction,Paste,Top*
G04 #@! TF.FilePolarity,Positive*
%FSLAX46Y46*%
G04 Gerber Fmt 4.6, Leading zero omitted, Abs format (unit mm)*
G04 Created by KiCad (PCBNEW 5.1.3-ffb9f22~84~ubuntu18.04.1) date 2019-07-28 18:08:26*
%MOMM*%
%LPD*%
G04 APERTURE LIST*
%ADD10C,0.100000*%
%ADD11C,1.150000*%
%ADD12R,0.900000X0.800000*%
%ADD13C,0.300000*%
G04 APERTURE END LIST*
D10*
G36*
X81832705Y-116349484D02*
G01*
X81856973Y-116353084D01*
X81880772Y-116359045D01*
X81903871Y-116367310D01*
X81926050Y-116377800D01*
X81947093Y-116390412D01*
X81966799Y-116405027D01*
X81984977Y-116421503D01*
X82001453Y-116439681D01*
X82016068Y-116459387D01*
X82028680Y-116480430D01*
X82039170Y-116502609D01*
X82047435Y-116525708D01*
X82053396Y-116549507D01*
X82056996Y-116573775D01*
X82058200Y-116598279D01*
X82058200Y-117498281D01*
X82056996Y-117522785D01*
X82053396Y-117547053D01*
X82047435Y-117570852D01*
X82039170Y-117593951D01*
X82028680Y-117616130D01*
X82016068Y-117637173D01*
X82001453Y-117656879D01*
X81984977Y-117675057D01*
X81966799Y-117691533D01*
X81947093Y-117706148D01*
X81926050Y-117718760D01*
X81903871Y-117729250D01*
X81880772Y-117737515D01*
X81856973Y-117743476D01*
X81832705Y-117747076D01*
X81808201Y-117748280D01*
X81158199Y-117748280D01*
X81133695Y-117747076D01*
X81109427Y-117743476D01*
X81085628Y-117737515D01*
X81062529Y-117729250D01*
X81040350Y-117718760D01*
X81019307Y-117706148D01*
X80999601Y-117691533D01*
X80981423Y-117675057D01*
X80964947Y-117656879D01*
X80950332Y-117637173D01*
X80937720Y-117616130D01*
X80927230Y-117593951D01*
X80918965Y-117570852D01*
X80913004Y-117547053D01*
X80909404Y-117522785D01*
X80908200Y-117498281D01*
X80908200Y-116598279D01*
X80909404Y-116573775D01*
X80913004Y-116549507D01*
X80918965Y-116525708D01*
X80927230Y-116502609D01*
X80937720Y-116480430D01*
X80950332Y-116459387D01*
X80964947Y-116439681D01*
X80981423Y-116421503D01*
X80999601Y-116405027D01*
X81019307Y-116390412D01*
X81040350Y-116377800D01*
X81062529Y-116367310D01*
X81085628Y-116359045D01*
X81109427Y-116353084D01*
X81133695Y-116349484D01*
X81158199Y-116348280D01*
X81808201Y-116348280D01*
X81832705Y-116349484D01*
X81832705Y-116349484D01*
G37*
D11*
X81483200Y-117048280D03*
D10*
G36*
X79782705Y-116349484D02*
G01*
X79806973Y-116353084D01*
X79830772Y-116359045D01*
X79853871Y-116367310D01*
X79876050Y-116377800D01*
X79897093Y-116390412D01*
X79916799Y-116405027D01*
X79934977Y-116421503D01*
X79951453Y-116439681D01*
X79966068Y-116459387D01*
X79978680Y-116480430D01*
X79989170Y-116502609D01*
X79997435Y-116525708D01*
X80003396Y-116549507D01*
X80006996Y-116573775D01*
X80008200Y-116598279D01*
X80008200Y-117498281D01*
X80006996Y-117522785D01*
X80003396Y-117547053D01*
X79997435Y-117570852D01*
X79989170Y-117593951D01*
X79978680Y-117616130D01*
X79966068Y-117637173D01*
X79951453Y-117656879D01*
X79934977Y-117675057D01*
X79916799Y-117691533D01*
X79897093Y-117706148D01*
X79876050Y-117718760D01*
X79853871Y-117729250D01*
X79830772Y-117737515D01*
X79806973Y-117743476D01*
X79782705Y-117747076D01*
X79758201Y-117748280D01*
X79108199Y-117748280D01*
X79083695Y-117747076D01*
X79059427Y-117743476D01*
X79035628Y-117737515D01*
X79012529Y-117729250D01*
X78990350Y-117718760D01*
X78969307Y-117706148D01*
X78949601Y-117691533D01*
X78931423Y-117675057D01*
X78914947Y-117656879D01*
X78900332Y-117637173D01*
X78887720Y-117616130D01*
X78877230Y-117593951D01*
X78868965Y-117570852D01*
X78863004Y-117547053D01*
X78859404Y-117522785D01*
X78858200Y-117498281D01*
X78858200Y-116598279D01*
X78859404Y-116573775D01*
X78863004Y-116549507D01*
X78868965Y-116525708D01*
X78877230Y-116502609D01*
X78887720Y-116480430D01*
X78900332Y-116459387D01*
X78914947Y-116439681D01*
X78931423Y-116421503D01*
X78949601Y-116405027D01*
X78969307Y-116390412D01*
X78990350Y-116377800D01*
X79012529Y-116367310D01*
X79035628Y-116359045D01*
X79059427Y-116353084D01*
X79083695Y-116349484D01*
X79108199Y-116348280D01*
X79758201Y-116348280D01*
X79782705Y-116349484D01*
X79782705Y-116349484D01*
G37*
D11*
X79433200Y-117048280D03*
D10*
G36*
X79767905Y-106875284D02*
G01*
X79792173Y-106878884D01*
X79815972Y-106884845D01*
X79839071Y-106893110D01*
X79861250Y-106903600D01*
X79882293Y-106916212D01*
X79901999Y-106930827D01*
X79920177Y-106947303D01*
X79936653Y-106965481D01*
X79951268Y-106985187D01*
X79963880Y-107006230D01*
X79974370Y-107028409D01*
X79982635Y-107051508D01*
X79988596Y-107075307D01*
X79992196Y-107099575D01*
X79993400Y-107124079D01*
X79993400Y-108024081D01*
X79992196Y-108048585D01*
X79988596Y-108072853D01*
X79982635Y-108096652D01*
X79974370Y-108119751D01*
X79963880Y-108141930D01*
X79951268Y-108162973D01*
X79936653Y-108182679D01*
X79920177Y-108200857D01*
X79901999Y-108217333D01*
X79882293Y-108231948D01*
X79861250Y-108244560D01*
X79839071Y-108255050D01*
X79815972Y-108263315D01*
X79792173Y-108269276D01*
X79767905Y-108272876D01*
X79743401Y-108274080D01*
X79093399Y-108274080D01*
X79068895Y-108272876D01*
X79044627Y-108269276D01*
X79020828Y-108263315D01*
X78997729Y-108255050D01*
X78975550Y-108244560D01*
X78954507Y-108231948D01*
X78934801Y-108217333D01*
X78916623Y-108200857D01*
X78900147Y-108182679D01*
X78885532Y-108162973D01*
X78872920Y-108141930D01*
X78862430Y-108119751D01*
X78854165Y-108096652D01*
X78848204Y-108072853D01*
X78844604Y-108048585D01*
X78843400Y-108024081D01*
X78843400Y-107124079D01*
X78844604Y-107099575D01*
X78848204Y-107075307D01*
X78854165Y-107051508D01*
X78862430Y-107028409D01*
X78872920Y-107006230D01*
X78885532Y-106985187D01*
X78900147Y-106965481D01*
X78916623Y-106947303D01*
X78934801Y-106930827D01*
X78954507Y-106916212D01*
X78975550Y-106903600D01*
X78997729Y-106893110D01*
X79020828Y-106884845D01*
X79044627Y-106878884D01*
X79068895Y-106875284D01*
X79093399Y-106874080D01*
X79743401Y-106874080D01*
X79767905Y-106875284D01*
X79767905Y-106875284D01*
G37*
D11*
X79418400Y-107574080D03*
D10*
G36*
X77717905Y-106875284D02*
G01*
X77742173Y-106878884D01*
X77765972Y-106884845D01*
X77789071Y-106893110D01*
X77811250Y-106903600D01*
X77832293Y-106916212D01*
X77851999Y-106930827D01*
X77870177Y-106947303D01*
X77886653Y-106965481D01*
X77901268Y-106985187D01*
X77913880Y-107006230D01*
X77924370Y-107028409D01*
X77932635Y-107051508D01*
X77938596Y-107075307D01*
X77942196Y-107099575D01*
X77943400Y-107124079D01*
X77943400Y-108024081D01*
X77942196Y-108048585D01*
X77938596Y-108072853D01*
X77932635Y-108096652D01*
X77924370Y-108119751D01*
X77913880Y-108141930D01*
X77901268Y-108162973D01*
X77886653Y-108182679D01*
X77870177Y-108200857D01*
X77851999Y-108217333D01*
X77832293Y-108231948D01*
X77811250Y-108244560D01*
X77789071Y-108255050D01*
X77765972Y-108263315D01*
X77742173Y-108269276D01*
X77717905Y-108272876D01*
X77693401Y-108274080D01*
X77043399Y-108274080D01*
X77018895Y-108272876D01*
X76994627Y-108269276D01*
X76970828Y-108263315D01*
X76947729Y-108255050D01*
X76925550Y-108244560D01*
X76904507Y-108231948D01*
X76884801Y-108217333D01*
X76866623Y-108200857D01*
X76850147Y-108182679D01*
X76835532Y-108162973D01*
X76822920Y-108141930D01*
X76812430Y-108119751D01*
X76804165Y-108096652D01*
X76798204Y-108072853D01*
X76794604Y-108048585D01*
X76793400Y-108024081D01*
X76793400Y-107124079D01*
X76794604Y-107099575D01*
X76798204Y-107075307D01*
X76804165Y-107051508D01*
X76812430Y-107028409D01*
X76822920Y-107006230D01*
X76835532Y-106985187D01*
X76850147Y-106965481D01*
X76866623Y-106947303D01*
X76884801Y-106930827D01*
X76904507Y-106916212D01*
X76925550Y-106903600D01*
X76947729Y-106893110D01*
X76970828Y-106884845D01*
X76994627Y-106878884D01*
X77018895Y-106875284D01*
X77043399Y-106874080D01*
X77693401Y-106874080D01*
X77717905Y-106875284D01*
X77717905Y-106875284D01*
G37*
D11*
X77368400Y-107574080D03*
D10*
G36*
X81706245Y-104395624D02*
G01*
X81730513Y-104399224D01*
X81754312Y-104405185D01*
X81777411Y-104413450D01*
X81799590Y-104423940D01*
X81820633Y-104436552D01*
X81840339Y-104451167D01*
X81858517Y-104467643D01*
X81874993Y-104485821D01*
X81889608Y-104505527D01*
X81902220Y-104526570D01*
X81912710Y-104548749D01*
X81920975Y-104571848D01*
X81926936Y-104595647D01*
X81930536Y-104619915D01*
X81931740Y-104644419D01*
X81931740Y-105294421D01*
X81930536Y-105318925D01*
X81926936Y-105343193D01*
X81920975Y-105366992D01*
X81912710Y-105390091D01*
X81902220Y-105412270D01*
X81889608Y-105433313D01*
X81874993Y-105453019D01*
X81858517Y-105471197D01*
X81840339Y-105487673D01*
X81820633Y-105502288D01*
X81799590Y-105514900D01*
X81777411Y-105525390D01*
X81754312Y-105533655D01*
X81730513Y-105539616D01*
X81706245Y-105543216D01*
X81681741Y-105544420D01*
X80781739Y-105544420D01*
X80757235Y-105543216D01*
X80732967Y-105539616D01*
X80709168Y-105533655D01*
X80686069Y-105525390D01*
X80663890Y-105514900D01*
X80642847Y-105502288D01*
X80623141Y-105487673D01*
X80604963Y-105471197D01*
X80588487Y-105453019D01*
X80573872Y-105433313D01*
X80561260Y-105412270D01*
X80550770Y-105390091D01*
X80542505Y-105366992D01*
X80536544Y-105343193D01*
X80532944Y-105318925D01*
X80531740Y-105294421D01*
X80531740Y-104644419D01*
X80532944Y-104619915D01*
X80536544Y-104595647D01*
X80542505Y-104571848D01*
X80550770Y-104548749D01*
X80561260Y-104526570D01*
X80573872Y-104505527D01*
X80588487Y-104485821D01*
X80604963Y-104467643D01*
X80623141Y-104451167D01*
X80642847Y-104436552D01*
X80663890Y-104423940D01*
X80686069Y-104413450D01*
X80709168Y-104405185D01*
X80732967Y-104399224D01*
X80757235Y-104395624D01*
X80781739Y-104394420D01*
X81681741Y-104394420D01*
X81706245Y-104395624D01*
X81706245Y-104395624D01*
G37*
D11*
X81231740Y-104969420D03*
D10*
G36*
X81706245Y-102345624D02*
G01*
X81730513Y-102349224D01*
X81754312Y-102355185D01*
X81777411Y-102363450D01*
X81799590Y-102373940D01*
X81820633Y-102386552D01*
X81840339Y-102401167D01*
X81858517Y-102417643D01*
X81874993Y-102435821D01*
X81889608Y-102455527D01*
X81902220Y-102476570D01*
X81912710Y-102498749D01*
X81920975Y-102521848D01*
X81926936Y-102545647D01*
X81930536Y-102569915D01*
X81931740Y-102594419D01*
X81931740Y-103244421D01*
X81930536Y-103268925D01*
X81926936Y-103293193D01*
X81920975Y-103316992D01*
X81912710Y-103340091D01*
X81902220Y-103362270D01*
X81889608Y-103383313D01*
X81874993Y-103403019D01*
X81858517Y-103421197D01*
X81840339Y-103437673D01*
X81820633Y-103452288D01*
X81799590Y-103464900D01*
X81777411Y-103475390D01*
X81754312Y-103483655D01*
X81730513Y-103489616D01*
X81706245Y-103493216D01*
X81681741Y-103494420D01*
X80781739Y-103494420D01*
X80757235Y-103493216D01*
X80732967Y-103489616D01*
X80709168Y-103483655D01*
X80686069Y-103475390D01*
X80663890Y-103464900D01*
X80642847Y-103452288D01*
X80623141Y-103437673D01*
X80604963Y-103421197D01*
X80588487Y-103403019D01*
X80573872Y-103383313D01*
X80561260Y-103362270D01*
X80550770Y-103340091D01*
X80542505Y-103316992D01*
X80536544Y-103293193D01*
X80532944Y-103268925D01*
X80531740Y-103244421D01*
X80531740Y-102594419D01*
X80532944Y-102569915D01*
X80536544Y-102545647D01*
X80542505Y-102521848D01*
X80550770Y-102498749D01*
X80561260Y-102476570D01*
X80573872Y-102455527D01*
X80588487Y-102435821D01*
X80604963Y-102417643D01*
X80623141Y-102401167D01*
X80642847Y-102386552D01*
X80663890Y-102373940D01*
X80686069Y-102363450D01*
X80709168Y-102355185D01*
X80732967Y-102349224D01*
X80757235Y-102345624D01*
X80781739Y-102344420D01*
X81681741Y-102344420D01*
X81706245Y-102345624D01*
X81706245Y-102345624D01*
G37*
D11*
X81231740Y-102919420D03*
D10*
G36*
X86785705Y-116324084D02*
G01*
X86809973Y-116327684D01*
X86833772Y-116333645D01*
X86856871Y-116341910D01*
X86879050Y-116352400D01*
X86900093Y-116365012D01*
X86919799Y-116379627D01*
X86937977Y-116396103D01*
X86954453Y-116414281D01*
X86969068Y-116433987D01*
X86981680Y-116455030D01*
X86992170Y-116477209D01*
X87000435Y-116500308D01*
X87006396Y-116524107D01*
X87009996Y-116548375D01*
X87011200Y-116572879D01*
X87011200Y-117472881D01*
X87009996Y-117497385D01*
X87006396Y-117521653D01*
X87000435Y-117545452D01*
X86992170Y-117568551D01*
X86981680Y-117590730D01*
X86969068Y-117611773D01*
X86954453Y-117631479D01*
X86937977Y-117649657D01*
X86919799Y-117666133D01*
X86900093Y-117680748D01*
X86879050Y-117693360D01*
X86856871Y-117703850D01*
X86833772Y-117712115D01*
X86809973Y-117718076D01*
X86785705Y-117721676D01*
X86761201Y-117722880D01*
X86111199Y-117722880D01*
X86086695Y-117721676D01*
X86062427Y-117718076D01*
X86038628Y-117712115D01*
X86015529Y-117703850D01*
X85993350Y-117693360D01*
X85972307Y-117680748D01*
X85952601Y-117666133D01*
X85934423Y-117649657D01*
X85917947Y-117631479D01*
X85903332Y-117611773D01*
X85890720Y-117590730D01*
X85880230Y-117568551D01*
X85871965Y-117545452D01*
X85866004Y-117521653D01*
X85862404Y-117497385D01*
X85861200Y-117472881D01*
X85861200Y-116572879D01*
X85862404Y-116548375D01*
X85866004Y-116524107D01*
X85871965Y-116500308D01*
X85880230Y-116477209D01*
X85890720Y-116455030D01*
X85903332Y-116433987D01*
X85917947Y-116414281D01*
X85934423Y-116396103D01*
X85952601Y-116379627D01*
X85972307Y-116365012D01*
X85993350Y-116352400D01*
X86015529Y-116341910D01*
X86038628Y-116333645D01*
X86062427Y-116327684D01*
X86086695Y-116324084D01*
X86111199Y-116322880D01*
X86761201Y-116322880D01*
X86785705Y-116324084D01*
X86785705Y-116324084D01*
G37*
D11*
X86436200Y-117022880D03*
D10*
G36*
X84735705Y-116324084D02*
G01*
X84759973Y-116327684D01*
X84783772Y-116333645D01*
X84806871Y-116341910D01*
X84829050Y-116352400D01*
X84850093Y-116365012D01*
X84869799Y-116379627D01*
X84887977Y-116396103D01*
X84904453Y-116414281D01*
X84919068Y-116433987D01*
X84931680Y-116455030D01*
X84942170Y-116477209D01*
X84950435Y-116500308D01*
X84956396Y-116524107D01*
X84959996Y-116548375D01*
X84961200Y-116572879D01*
X84961200Y-117472881D01*
X84959996Y-117497385D01*
X84956396Y-117521653D01*
X84950435Y-117545452D01*
X84942170Y-117568551D01*
X84931680Y-117590730D01*
X84919068Y-117611773D01*
X84904453Y-117631479D01*
X84887977Y-117649657D01*
X84869799Y-117666133D01*
X84850093Y-117680748D01*
X84829050Y-117693360D01*
X84806871Y-117703850D01*
X84783772Y-117712115D01*
X84759973Y-117718076D01*
X84735705Y-117721676D01*
X84711201Y-117722880D01*
X84061199Y-117722880D01*
X84036695Y-117721676D01*
X84012427Y-117718076D01*
X83988628Y-117712115D01*
X83965529Y-117703850D01*
X83943350Y-117693360D01*
X83922307Y-117680748D01*
X83902601Y-117666133D01*
X83884423Y-117649657D01*
X83867947Y-117631479D01*
X83853332Y-117611773D01*
X83840720Y-117590730D01*
X83830230Y-117568551D01*
X83821965Y-117545452D01*
X83816004Y-117521653D01*
X83812404Y-117497385D01*
X83811200Y-117472881D01*
X83811200Y-116572879D01*
X83812404Y-116548375D01*
X83816004Y-116524107D01*
X83821965Y-116500308D01*
X83830230Y-116477209D01*
X83840720Y-116455030D01*
X83853332Y-116433987D01*
X83867947Y-116414281D01*
X83884423Y-116396103D01*
X83902601Y-116379627D01*
X83922307Y-116365012D01*
X83943350Y-116352400D01*
X83965529Y-116341910D01*
X83988628Y-116333645D01*
X84012427Y-116327684D01*
X84036695Y-116324084D01*
X84061199Y-116322880D01*
X84711201Y-116322880D01*
X84735705Y-116324084D01*
X84735705Y-116324084D01*
G37*
D11*
X84386200Y-117022880D03*
D10*
G36*
X93422505Y-116349484D02*
G01*
X93446773Y-116353084D01*
X93470572Y-116359045D01*
X93493671Y-116367310D01*
X93515850Y-116377800D01*
X93536893Y-116390412D01*
X93556599Y-116405027D01*
X93574777Y-116421503D01*
X93591253Y-116439681D01*
X93605868Y-116459387D01*
X93618480Y-116480430D01*
X93628970Y-116502609D01*
X93637235Y-116525708D01*
X93643196Y-116549507D01*
X93646796Y-116573775D01*
X93648000Y-116598279D01*
X93648000Y-117498281D01*
X93646796Y-117522785D01*
X93643196Y-117547053D01*
X93637235Y-117570852D01*
X93628970Y-117593951D01*
X93618480Y-117616130D01*
X93605868Y-117637173D01*
X93591253Y-117656879D01*
X93574777Y-117675057D01*
X93556599Y-117691533D01*
X93536893Y-117706148D01*
X93515850Y-117718760D01*
X93493671Y-117729250D01*
X93470572Y-117737515D01*
X93446773Y-117743476D01*
X93422505Y-117747076D01*
X93398001Y-117748280D01*
X92747999Y-117748280D01*
X92723495Y-117747076D01*
X92699227Y-117743476D01*
X92675428Y-117737515D01*
X92652329Y-117729250D01*
X92630150Y-117718760D01*
X92609107Y-117706148D01*
X92589401Y-117691533D01*
X92571223Y-117675057D01*
X92554747Y-117656879D01*
X92540132Y-117637173D01*
X92527520Y-117616130D01*
X92517030Y-117593951D01*
X92508765Y-117570852D01*
X92502804Y-117547053D01*
X92499204Y-117522785D01*
X92498000Y-117498281D01*
X92498000Y-116598279D01*
X92499204Y-116573775D01*
X92502804Y-116549507D01*
X92508765Y-116525708D01*
X92517030Y-116502609D01*
X92527520Y-116480430D01*
X92540132Y-116459387D01*
X92554747Y-116439681D01*
X92571223Y-116421503D01*
X92589401Y-116405027D01*
X92609107Y-116390412D01*
X92630150Y-116377800D01*
X92652329Y-116367310D01*
X92675428Y-116359045D01*
X92699227Y-116353084D01*
X92723495Y-116349484D01*
X92747999Y-116348280D01*
X93398001Y-116348280D01*
X93422505Y-116349484D01*
X93422505Y-116349484D01*
G37*
D11*
X93073000Y-117048280D03*
D10*
G36*
X95472505Y-116349484D02*
G01*
X95496773Y-116353084D01*
X95520572Y-116359045D01*
X95543671Y-116367310D01*
X95565850Y-116377800D01*
X95586893Y-116390412D01*
X95606599Y-116405027D01*
X95624777Y-116421503D01*
X95641253Y-116439681D01*
X95655868Y-116459387D01*
X95668480Y-116480430D01*
X95678970Y-116502609D01*
X95687235Y-116525708D01*
X95693196Y-116549507D01*
X95696796Y-116573775D01*
X95698000Y-116598279D01*
X95698000Y-117498281D01*
X95696796Y-117522785D01*
X95693196Y-117547053D01*
X95687235Y-117570852D01*
X95678970Y-117593951D01*
X95668480Y-117616130D01*
X95655868Y-117637173D01*
X95641253Y-117656879D01*
X95624777Y-117675057D01*
X95606599Y-117691533D01*
X95586893Y-117706148D01*
X95565850Y-117718760D01*
X95543671Y-117729250D01*
X95520572Y-117737515D01*
X95496773Y-117743476D01*
X95472505Y-117747076D01*
X95448001Y-117748280D01*
X94797999Y-117748280D01*
X94773495Y-117747076D01*
X94749227Y-117743476D01*
X94725428Y-117737515D01*
X94702329Y-117729250D01*
X94680150Y-117718760D01*
X94659107Y-117706148D01*
X94639401Y-117691533D01*
X94621223Y-117675057D01*
X94604747Y-117656879D01*
X94590132Y-117637173D01*
X94577520Y-117616130D01*
X94567030Y-117593951D01*
X94558765Y-117570852D01*
X94552804Y-117547053D01*
X94549204Y-117522785D01*
X94548000Y-117498281D01*
X94548000Y-116598279D01*
X94549204Y-116573775D01*
X94552804Y-116549507D01*
X94558765Y-116525708D01*
X94567030Y-116502609D01*
X94577520Y-116480430D01*
X94590132Y-116459387D01*
X94604747Y-116439681D01*
X94621223Y-116421503D01*
X94639401Y-116405027D01*
X94659107Y-116390412D01*
X94680150Y-116377800D01*
X94702329Y-116367310D01*
X94725428Y-116359045D01*
X94749227Y-116353084D01*
X94773495Y-116349484D01*
X94797999Y-116348280D01*
X95448001Y-116348280D01*
X95472505Y-116349484D01*
X95472505Y-116349484D01*
G37*
D11*
X95123000Y-117048280D03*
D10*
G36*
X91197905Y-116349484D02*
G01*
X91222173Y-116353084D01*
X91245972Y-116359045D01*
X91269071Y-116367310D01*
X91291250Y-116377800D01*
X91312293Y-116390412D01*
X91331999Y-116405027D01*
X91350177Y-116421503D01*
X91366653Y-116439681D01*
X91381268Y-116459387D01*
X91393880Y-116480430D01*
X91404370Y-116502609D01*
X91412635Y-116525708D01*
X91418596Y-116549507D01*
X91422196Y-116573775D01*
X91423400Y-116598279D01*
X91423400Y-117498281D01*
X91422196Y-117522785D01*
X91418596Y-117547053D01*
X91412635Y-117570852D01*
X91404370Y-117593951D01*
X91393880Y-117616130D01*
X91381268Y-117637173D01*
X91366653Y-117656879D01*
X91350177Y-117675057D01*
X91331999Y-117691533D01*
X91312293Y-117706148D01*
X91291250Y-117718760D01*
X91269071Y-117729250D01*
X91245972Y-117737515D01*
X91222173Y-117743476D01*
X91197905Y-117747076D01*
X91173401Y-117748280D01*
X90523399Y-117748280D01*
X90498895Y-117747076D01*
X90474627Y-117743476D01*
X90450828Y-117737515D01*
X90427729Y-117729250D01*
X90405550Y-117718760D01*
X90384507Y-117706148D01*
X90364801Y-117691533D01*
X90346623Y-117675057D01*
X90330147Y-117656879D01*
X90315532Y-117637173D01*
X90302920Y-117616130D01*
X90292430Y-117593951D01*
X90284165Y-117570852D01*
X90278204Y-117547053D01*
X90274604Y-117522785D01*
X90273400Y-117498281D01*
X90273400Y-116598279D01*
X90274604Y-116573775D01*
X90278204Y-116549507D01*
X90284165Y-116525708D01*
X90292430Y-116502609D01*
X90302920Y-116480430D01*
X90315532Y-116459387D01*
X90330147Y-116439681D01*
X90346623Y-116421503D01*
X90364801Y-116405027D01*
X90384507Y-116390412D01*
X90405550Y-116377800D01*
X90427729Y-116367310D01*
X90450828Y-116359045D01*
X90474627Y-116353084D01*
X90498895Y-116349484D01*
X90523399Y-116348280D01*
X91173401Y-116348280D01*
X91197905Y-116349484D01*
X91197905Y-116349484D01*
G37*
D11*
X90848400Y-117048280D03*
D10*
G36*
X89147905Y-116349484D02*
G01*
X89172173Y-116353084D01*
X89195972Y-116359045D01*
X89219071Y-116367310D01*
X89241250Y-116377800D01*
X89262293Y-116390412D01*
X89281999Y-116405027D01*
X89300177Y-116421503D01*
X89316653Y-116439681D01*
X89331268Y-116459387D01*
X89343880Y-116480430D01*
X89354370Y-116502609D01*
X89362635Y-116525708D01*
X89368596Y-116549507D01*
X89372196Y-116573775D01*
X89373400Y-116598279D01*
X89373400Y-117498281D01*
X89372196Y-117522785D01*
X89368596Y-117547053D01*
X89362635Y-117570852D01*
X89354370Y-117593951D01*
X89343880Y-117616130D01*
X89331268Y-117637173D01*
X89316653Y-117656879D01*
X89300177Y-117675057D01*
X89281999Y-117691533D01*
X89262293Y-117706148D01*
X89241250Y-117718760D01*
X89219071Y-117729250D01*
X89195972Y-117737515D01*
X89172173Y-117743476D01*
X89147905Y-117747076D01*
X89123401Y-117748280D01*
X88473399Y-117748280D01*
X88448895Y-117747076D01*
X88424627Y-117743476D01*
X88400828Y-117737515D01*
X88377729Y-117729250D01*
X88355550Y-117718760D01*
X88334507Y-117706148D01*
X88314801Y-117691533D01*
X88296623Y-117675057D01*
X88280147Y-117656879D01*
X88265532Y-117637173D01*
X88252920Y-117616130D01*
X88242430Y-117593951D01*
X88234165Y-117570852D01*
X88228204Y-117547053D01*
X88224604Y-117522785D01*
X88223400Y-117498281D01*
X88223400Y-116598279D01*
X88224604Y-116573775D01*
X88228204Y-116549507D01*
X88234165Y-116525708D01*
X88242430Y-116502609D01*
X88252920Y-116480430D01*
X88265532Y-116459387D01*
X88280147Y-116439681D01*
X88296623Y-116421503D01*
X88314801Y-116405027D01*
X88334507Y-116390412D01*
X88355550Y-116377800D01*
X88377729Y-116367310D01*
X88400828Y-116359045D01*
X88424627Y-116353084D01*
X88448895Y-116349484D01*
X88473399Y-116348280D01*
X89123401Y-116348280D01*
X89147905Y-116349484D01*
X89147905Y-116349484D01*
G37*
D11*
X88798400Y-117048280D03*
D10*
G36*
X94073505Y-108851944D02*
G01*
X94097773Y-108855544D01*
X94121572Y-108861505D01*
X94144671Y-108869770D01*
X94166850Y-108880260D01*
X94187893Y-108892872D01*
X94207599Y-108907487D01*
X94225777Y-108923963D01*
X94242253Y-108942141D01*
X94256868Y-108961847D01*
X94269480Y-108982890D01*
X94279970Y-109005069D01*
X94288235Y-109028168D01*
X94294196Y-109051967D01*
X94297796Y-109076235D01*
X94299000Y-109100739D01*
X94299000Y-109750741D01*
X94297796Y-109775245D01*
X94294196Y-109799513D01*
X94288235Y-109823312D01*
X94279970Y-109846411D01*
X94269480Y-109868590D01*
X94256868Y-109889633D01*
X94242253Y-109909339D01*
X94225777Y-109927517D01*
X94207599Y-109943993D01*
X94187893Y-109958608D01*
X94166850Y-109971220D01*
X94144671Y-109981710D01*
X94121572Y-109989975D01*
X94097773Y-109995936D01*
X94073505Y-109999536D01*
X94049001Y-110000740D01*
X93148999Y-110000740D01*
X93124495Y-109999536D01*
X93100227Y-109995936D01*
X93076428Y-109989975D01*
X93053329Y-109981710D01*
X93031150Y-109971220D01*
X93010107Y-109958608D01*
X92990401Y-109943993D01*
X92972223Y-109927517D01*
X92955747Y-109909339D01*
X92941132Y-109889633D01*
X92928520Y-109868590D01*
X92918030Y-109846411D01*
X92909765Y-109823312D01*
X92903804Y-109799513D01*
X92900204Y-109775245D01*
X92899000Y-109750741D01*
X92899000Y-109100739D01*
X92900204Y-109076235D01*
X92903804Y-109051967D01*
X92909765Y-109028168D01*
X92918030Y-109005069D01*
X92928520Y-108982890D01*
X92941132Y-108961847D01*
X92955747Y-108942141D01*
X92972223Y-108923963D01*
X92990401Y-108907487D01*
X93010107Y-108892872D01*
X93031150Y-108880260D01*
X93053329Y-108869770D01*
X93076428Y-108861505D01*
X93100227Y-108855544D01*
X93124495Y-108851944D01*
X93148999Y-108850740D01*
X94049001Y-108850740D01*
X94073505Y-108851944D01*
X94073505Y-108851944D01*
G37*
D11*
X93599000Y-109425740D03*
D10*
G36*
X94073505Y-106801944D02*
G01*
X94097773Y-106805544D01*
X94121572Y-106811505D01*
X94144671Y-106819770D01*
X94166850Y-106830260D01*
X94187893Y-106842872D01*
X94207599Y-106857487D01*
X94225777Y-106873963D01*
X94242253Y-106892141D01*
X94256868Y-106911847D01*
X94269480Y-106932890D01*
X94279970Y-106955069D01*
X94288235Y-106978168D01*
X94294196Y-107001967D01*
X94297796Y-107026235D01*
X94299000Y-107050739D01*
X94299000Y-107700741D01*
X94297796Y-107725245D01*
X94294196Y-107749513D01*
X94288235Y-107773312D01*
X94279970Y-107796411D01*
X94269480Y-107818590D01*
X94256868Y-107839633D01*
X94242253Y-107859339D01*
X94225777Y-107877517D01*
X94207599Y-107893993D01*
X94187893Y-107908608D01*
X94166850Y-107921220D01*
X94144671Y-107931710D01*
X94121572Y-107939975D01*
X94097773Y-107945936D01*
X94073505Y-107949536D01*
X94049001Y-107950740D01*
X93148999Y-107950740D01*
X93124495Y-107949536D01*
X93100227Y-107945936D01*
X93076428Y-107939975D01*
X93053329Y-107931710D01*
X93031150Y-107921220D01*
X93010107Y-107908608D01*
X92990401Y-107893993D01*
X92972223Y-107877517D01*
X92955747Y-107859339D01*
X92941132Y-107839633D01*
X92928520Y-107818590D01*
X92918030Y-107796411D01*
X92909765Y-107773312D01*
X92903804Y-107749513D01*
X92900204Y-107725245D01*
X92899000Y-107700741D01*
X92899000Y-107050739D01*
X92900204Y-107026235D01*
X92903804Y-107001967D01*
X92909765Y-106978168D01*
X92918030Y-106955069D01*
X92928520Y-106932890D01*
X92941132Y-106911847D01*
X92955747Y-106892141D01*
X92972223Y-106873963D01*
X92990401Y-106857487D01*
X93010107Y-106842872D01*
X93031150Y-106830260D01*
X93053329Y-106819770D01*
X93076428Y-106811505D01*
X93100227Y-106805544D01*
X93124495Y-106801944D01*
X93148999Y-106800740D01*
X94049001Y-106800740D01*
X94073505Y-106801944D01*
X94073505Y-106801944D01*
G37*
D11*
X93599000Y-107375740D03*
D10*
G36*
X93447905Y-114086344D02*
G01*
X93472173Y-114089944D01*
X93495972Y-114095905D01*
X93519071Y-114104170D01*
X93541250Y-114114660D01*
X93562293Y-114127272D01*
X93581999Y-114141887D01*
X93600177Y-114158363D01*
X93616653Y-114176541D01*
X93631268Y-114196247D01*
X93643880Y-114217290D01*
X93654370Y-114239469D01*
X93662635Y-114262568D01*
X93668596Y-114286367D01*
X93672196Y-114310635D01*
X93673400Y-114335139D01*
X93673400Y-115235141D01*
X93672196Y-115259645D01*
X93668596Y-115283913D01*
X93662635Y-115307712D01*
X93654370Y-115330811D01*
X93643880Y-115352990D01*
X93631268Y-115374033D01*
X93616653Y-115393739D01*
X93600177Y-115411917D01*
X93581999Y-115428393D01*
X93562293Y-115443008D01*
X93541250Y-115455620D01*
X93519071Y-115466110D01*
X93495972Y-115474375D01*
X93472173Y-115480336D01*
X93447905Y-115483936D01*
X93423401Y-115485140D01*
X92773399Y-115485140D01*
X92748895Y-115483936D01*
X92724627Y-115480336D01*
X92700828Y-115474375D01*
X92677729Y-115466110D01*
X92655550Y-115455620D01*
X92634507Y-115443008D01*
X92614801Y-115428393D01*
X92596623Y-115411917D01*
X92580147Y-115393739D01*
X92565532Y-115374033D01*
X92552920Y-115352990D01*
X92542430Y-115330811D01*
X92534165Y-115307712D01*
X92528204Y-115283913D01*
X92524604Y-115259645D01*
X92523400Y-115235141D01*
X92523400Y-114335139D01*
X92524604Y-114310635D01*
X92528204Y-114286367D01*
X92534165Y-114262568D01*
X92542430Y-114239469D01*
X92552920Y-114217290D01*
X92565532Y-114196247D01*
X92580147Y-114176541D01*
X92596623Y-114158363D01*
X92614801Y-114141887D01*
X92634507Y-114127272D01*
X92655550Y-114114660D01*
X92677729Y-114104170D01*
X92700828Y-114095905D01*
X92724627Y-114089944D01*
X92748895Y-114086344D01*
X92773399Y-114085140D01*
X93423401Y-114085140D01*
X93447905Y-114086344D01*
X93447905Y-114086344D01*
G37*
D11*
X93098400Y-114785140D03*
D10*
G36*
X95497905Y-114086344D02*
G01*
X95522173Y-114089944D01*
X95545972Y-114095905D01*
X95569071Y-114104170D01*
X95591250Y-114114660D01*
X95612293Y-114127272D01*
X95631999Y-114141887D01*
X95650177Y-114158363D01*
X95666653Y-114176541D01*
X95681268Y-114196247D01*
X95693880Y-114217290D01*
X95704370Y-114239469D01*
X95712635Y-114262568D01*
X95718596Y-114286367D01*
X95722196Y-114310635D01*
X95723400Y-114335139D01*
X95723400Y-115235141D01*
X95722196Y-115259645D01*
X95718596Y-115283913D01*
X95712635Y-115307712D01*
X95704370Y-115330811D01*
X95693880Y-115352990D01*
X95681268Y-115374033D01*
X95666653Y-115393739D01*
X95650177Y-115411917D01*
X95631999Y-115428393D01*
X95612293Y-115443008D01*
X95591250Y-115455620D01*
X95569071Y-115466110D01*
X95545972Y-115474375D01*
X95522173Y-115480336D01*
X95497905Y-115483936D01*
X95473401Y-115485140D01*
X94823399Y-115485140D01*
X94798895Y-115483936D01*
X94774627Y-115480336D01*
X94750828Y-115474375D01*
X94727729Y-115466110D01*
X94705550Y-115455620D01*
X94684507Y-115443008D01*
X94664801Y-115428393D01*
X94646623Y-115411917D01*
X94630147Y-115393739D01*
X94615532Y-115374033D01*
X94602920Y-115352990D01*
X94592430Y-115330811D01*
X94584165Y-115307712D01*
X94578204Y-115283913D01*
X94574604Y-115259645D01*
X94573400Y-115235141D01*
X94573400Y-114335139D01*
X94574604Y-114310635D01*
X94578204Y-114286367D01*
X94584165Y-114262568D01*
X94592430Y-114239469D01*
X94602920Y-114217290D01*
X94615532Y-114196247D01*
X94630147Y-114176541D01*
X94646623Y-114158363D01*
X94664801Y-114141887D01*
X94684507Y-114127272D01*
X94705550Y-114114660D01*
X94727729Y-114104170D01*
X94750828Y-114095905D01*
X94774627Y-114089944D01*
X94798895Y-114086344D01*
X94823399Y-114085140D01*
X95473401Y-114085140D01*
X95497905Y-114086344D01*
X95497905Y-114086344D01*
G37*
D11*
X95148400Y-114785140D03*
D12*
X75718160Y-111942840D03*
X75718160Y-113842840D03*
X77718160Y-112892840D03*
D10*
G36*
X91067891Y-112054041D02*
G01*
X91075172Y-112055121D01*
X91082311Y-112056909D01*
X91089241Y-112059389D01*
X91095895Y-112062536D01*
X91102208Y-112066320D01*
X91108119Y-112070704D01*
X91113573Y-112075647D01*
X91118516Y-112081101D01*
X91122900Y-112087012D01*
X91126684Y-112093325D01*
X91129831Y-112099979D01*
X91132311Y-112106909D01*
X91134099Y-112114048D01*
X91135179Y-112121329D01*
X91135540Y-112128680D01*
X91135540Y-112278680D01*
X91135179Y-112286031D01*
X91134099Y-112293312D01*
X91132311Y-112300451D01*
X91129831Y-112307381D01*
X91126684Y-112314035D01*
X91122900Y-112320348D01*
X91118516Y-112326259D01*
X91113573Y-112331713D01*
X91108119Y-112336656D01*
X91102208Y-112341040D01*
X91095895Y-112344824D01*
X91089241Y-112347971D01*
X91082311Y-112350451D01*
X91075172Y-112352239D01*
X91067891Y-112353319D01*
X91060540Y-112353680D01*
X89735540Y-112353680D01*
X89728189Y-112353319D01*
X89720908Y-112352239D01*
X89713769Y-112350451D01*
X89706839Y-112347971D01*
X89700185Y-112344824D01*
X89693872Y-112341040D01*
X89687961Y-112336656D01*
X89682507Y-112331713D01*
X89677564Y-112326259D01*
X89673180Y-112320348D01*
X89669396Y-112314035D01*
X89666249Y-112307381D01*
X89663769Y-112300451D01*
X89661981Y-112293312D01*
X89660901Y-112286031D01*
X89660540Y-112278680D01*
X89660540Y-112128680D01*
X89660901Y-112121329D01*
X89661981Y-112114048D01*
X89663769Y-112106909D01*
X89666249Y-112099979D01*
X89669396Y-112093325D01*
X89673180Y-112087012D01*
X89677564Y-112081101D01*
X89682507Y-112075647D01*
X89687961Y-112070704D01*
X89693872Y-112066320D01*
X89700185Y-112062536D01*
X89706839Y-112059389D01*
X89713769Y-112056909D01*
X89720908Y-112055121D01*
X89728189Y-112054041D01*
X89735540Y-112053680D01*
X91060540Y-112053680D01*
X91067891Y-112054041D01*
X91067891Y-112054041D01*
G37*
D13*
X90398040Y-112203680D03*
D10*
G36*
X91067891Y-111554041D02*
G01*
X91075172Y-111555121D01*
X91082311Y-111556909D01*
X91089241Y-111559389D01*
X91095895Y-111562536D01*
X91102208Y-111566320D01*
X91108119Y-111570704D01*
X91113573Y-111575647D01*
X91118516Y-111581101D01*
X91122900Y-111587012D01*
X91126684Y-111593325D01*
X91129831Y-111599979D01*
X91132311Y-111606909D01*
X91134099Y-111614048D01*
X91135179Y-111621329D01*
X91135540Y-111628680D01*
X91135540Y-111778680D01*
X91135179Y-111786031D01*
X91134099Y-111793312D01*
X91132311Y-111800451D01*
X91129831Y-111807381D01*
X91126684Y-111814035D01*
X91122900Y-111820348D01*
X91118516Y-111826259D01*
X91113573Y-111831713D01*
X91108119Y-111836656D01*
X91102208Y-111841040D01*
X91095895Y-111844824D01*
X91089241Y-111847971D01*
X91082311Y-111850451D01*
X91075172Y-111852239D01*
X91067891Y-111853319D01*
X91060540Y-111853680D01*
X89735540Y-111853680D01*
X89728189Y-111853319D01*
X89720908Y-111852239D01*
X89713769Y-111850451D01*
X89706839Y-111847971D01*
X89700185Y-111844824D01*
X89693872Y-111841040D01*
X89687961Y-111836656D01*
X89682507Y-111831713D01*
X89677564Y-111826259D01*
X89673180Y-111820348D01*
X89669396Y-111814035D01*
X89666249Y-111807381D01*
X89663769Y-111800451D01*
X89661981Y-111793312D01*
X89660901Y-111786031D01*
X89660540Y-111778680D01*
X89660540Y-111628680D01*
X89660901Y-111621329D01*
X89661981Y-111614048D01*
X89663769Y-111606909D01*
X89666249Y-111599979D01*
X89669396Y-111593325D01*
X89673180Y-111587012D01*
X89677564Y-111581101D01*
X89682507Y-111575647D01*
X89687961Y-111570704D01*
X89693872Y-111566320D01*
X89700185Y-111562536D01*
X89706839Y-111559389D01*
X89713769Y-111556909D01*
X89720908Y-111555121D01*
X89728189Y-111554041D01*
X89735540Y-111553680D01*
X91060540Y-111553680D01*
X91067891Y-111554041D01*
X91067891Y-111554041D01*
G37*
D13*
X90398040Y-111703680D03*
D10*
G36*
X91067891Y-111054041D02*
G01*
X91075172Y-111055121D01*
X91082311Y-111056909D01*
X91089241Y-111059389D01*
X91095895Y-111062536D01*
X91102208Y-111066320D01*
X91108119Y-111070704D01*
X91113573Y-111075647D01*
X91118516Y-111081101D01*
X91122900Y-111087012D01*
X91126684Y-111093325D01*
X91129831Y-111099979D01*
X91132311Y-111106909D01*
X91134099Y-111114048D01*
X91135179Y-111121329D01*
X91135540Y-111128680D01*
X91135540Y-111278680D01*
X91135179Y-111286031D01*
X91134099Y-111293312D01*
X91132311Y-111300451D01*
X91129831Y-111307381D01*
X91126684Y-111314035D01*
X91122900Y-111320348D01*
X91118516Y-111326259D01*
X91113573Y-111331713D01*
X91108119Y-111336656D01*
X91102208Y-111341040D01*
X91095895Y-111344824D01*
X91089241Y-111347971D01*
X91082311Y-111350451D01*
X91075172Y-111352239D01*
X91067891Y-111353319D01*
X91060540Y-111353680D01*
X89735540Y-111353680D01*
X89728189Y-111353319D01*
X89720908Y-111352239D01*
X89713769Y-111350451D01*
X89706839Y-111347971D01*
X89700185Y-111344824D01*
X89693872Y-111341040D01*
X89687961Y-111336656D01*
X89682507Y-111331713D01*
X89677564Y-111326259D01*
X89673180Y-111320348D01*
X89669396Y-111314035D01*
X89666249Y-111307381D01*
X89663769Y-111300451D01*
X89661981Y-111293312D01*
X89660901Y-111286031D01*
X89660540Y-111278680D01*
X89660540Y-111128680D01*
X89660901Y-111121329D01*
X89661981Y-111114048D01*
X89663769Y-111106909D01*
X89666249Y-111099979D01*
X89669396Y-111093325D01*
X89673180Y-111087012D01*
X89677564Y-111081101D01*
X89682507Y-111075647D01*
X89687961Y-111070704D01*
X89693872Y-111066320D01*
X89700185Y-111062536D01*
X89706839Y-111059389D01*
X89713769Y-111056909D01*
X89720908Y-111055121D01*
X89728189Y-111054041D01*
X89735540Y-111053680D01*
X91060540Y-111053680D01*
X91067891Y-111054041D01*
X91067891Y-111054041D01*
G37*
D13*
X90398040Y-111203680D03*
D10*
G36*
X91067891Y-110554041D02*
G01*
X91075172Y-110555121D01*
X91082311Y-110556909D01*
X91089241Y-110559389D01*
X91095895Y-110562536D01*
X91102208Y-110566320D01*
X91108119Y-110570704D01*
X91113573Y-110575647D01*
X91118516Y-110581101D01*
X91122900Y-110587012D01*
X91126684Y-110593325D01*
X91129831Y-110599979D01*
X91132311Y-110606909D01*
X91134099Y-110614048D01*
X91135179Y-110621329D01*
X91135540Y-110628680D01*
X91135540Y-110778680D01*
X91135179Y-110786031D01*
X91134099Y-110793312D01*
X91132311Y-110800451D01*
X91129831Y-110807381D01*
X91126684Y-110814035D01*
X91122900Y-110820348D01*
X91118516Y-110826259D01*
X91113573Y-110831713D01*
X91108119Y-110836656D01*
X91102208Y-110841040D01*
X91095895Y-110844824D01*
X91089241Y-110847971D01*
X91082311Y-110850451D01*
X91075172Y-110852239D01*
X91067891Y-110853319D01*
X91060540Y-110853680D01*
X89735540Y-110853680D01*
X89728189Y-110853319D01*
X89720908Y-110852239D01*
X89713769Y-110850451D01*
X89706839Y-110847971D01*
X89700185Y-110844824D01*
X89693872Y-110841040D01*
X89687961Y-110836656D01*
X89682507Y-110831713D01*
X89677564Y-110826259D01*
X89673180Y-110820348D01*
X89669396Y-110814035D01*
X89666249Y-110807381D01*
X89663769Y-110800451D01*
X89661981Y-110793312D01*
X89660901Y-110786031D01*
X89660540Y-110778680D01*
X89660540Y-110628680D01*
X89660901Y-110621329D01*
X89661981Y-110614048D01*
X89663769Y-110606909D01*
X89666249Y-110599979D01*
X89669396Y-110593325D01*
X89673180Y-110587012D01*
X89677564Y-110581101D01*
X89682507Y-110575647D01*
X89687961Y-110570704D01*
X89693872Y-110566320D01*
X89700185Y-110562536D01*
X89706839Y-110559389D01*
X89713769Y-110556909D01*
X89720908Y-110555121D01*
X89728189Y-110554041D01*
X89735540Y-110553680D01*
X91060540Y-110553680D01*
X91067891Y-110554041D01*
X91067891Y-110554041D01*
G37*
D13*
X90398040Y-110703680D03*
D10*
G36*
X91067891Y-110054041D02*
G01*
X91075172Y-110055121D01*
X91082311Y-110056909D01*
X91089241Y-110059389D01*
X91095895Y-110062536D01*
X91102208Y-110066320D01*
X91108119Y-110070704D01*
X91113573Y-110075647D01*
X91118516Y-110081101D01*
X91122900Y-110087012D01*
X91126684Y-110093325D01*
X91129831Y-110099979D01*
X91132311Y-110106909D01*
X91134099Y-110114048D01*
X91135179Y-110121329D01*
X91135540Y-110128680D01*
X91135540Y-110278680D01*
X91135179Y-110286031D01*
X91134099Y-110293312D01*
X91132311Y-110300451D01*
X91129831Y-110307381D01*
X91126684Y-110314035D01*
X91122900Y-110320348D01*
X91118516Y-110326259D01*
X91113573Y-110331713D01*
X91108119Y-110336656D01*
X91102208Y-110341040D01*
X91095895Y-110344824D01*
X91089241Y-110347971D01*
X91082311Y-110350451D01*
X91075172Y-110352239D01*
X91067891Y-110353319D01*
X91060540Y-110353680D01*
X89735540Y-110353680D01*
X89728189Y-110353319D01*
X89720908Y-110352239D01*
X89713769Y-110350451D01*
X89706839Y-110347971D01*
X89700185Y-110344824D01*
X89693872Y-110341040D01*
X89687961Y-110336656D01*
X89682507Y-110331713D01*
X89677564Y-110326259D01*
X89673180Y-110320348D01*
X89669396Y-110314035D01*
X89666249Y-110307381D01*
X89663769Y-110300451D01*
X89661981Y-110293312D01*
X89660901Y-110286031D01*
X89660540Y-110278680D01*
X89660540Y-110128680D01*
X89660901Y-110121329D01*
X89661981Y-110114048D01*
X89663769Y-110106909D01*
X89666249Y-110099979D01*
X89669396Y-110093325D01*
X89673180Y-110087012D01*
X89677564Y-110081101D01*
X89682507Y-110075647D01*
X89687961Y-110070704D01*
X89693872Y-110066320D01*
X89700185Y-110062536D01*
X89706839Y-110059389D01*
X89713769Y-110056909D01*
X89720908Y-110055121D01*
X89728189Y-110054041D01*
X89735540Y-110053680D01*
X91060540Y-110053680D01*
X91067891Y-110054041D01*
X91067891Y-110054041D01*
G37*
D13*
X90398040Y-110203680D03*
D10*
G36*
X91067891Y-109554041D02*
G01*
X91075172Y-109555121D01*
X91082311Y-109556909D01*
X91089241Y-109559389D01*
X91095895Y-109562536D01*
X91102208Y-109566320D01*
X91108119Y-109570704D01*
X91113573Y-109575647D01*
X91118516Y-109581101D01*
X91122900Y-109587012D01*
X91126684Y-109593325D01*
X91129831Y-109599979D01*
X91132311Y-109606909D01*
X91134099Y-109614048D01*
X91135179Y-109621329D01*
X91135540Y-109628680D01*
X91135540Y-109778680D01*
X91135179Y-109786031D01*
X91134099Y-109793312D01*
X91132311Y-109800451D01*
X91129831Y-109807381D01*
X91126684Y-109814035D01*
X91122900Y-109820348D01*
X91118516Y-109826259D01*
X91113573Y-109831713D01*
X91108119Y-109836656D01*
X91102208Y-109841040D01*
X91095895Y-109844824D01*
X91089241Y-109847971D01*
X91082311Y-109850451D01*
X91075172Y-109852239D01*
X91067891Y-109853319D01*
X91060540Y-109853680D01*
X89735540Y-109853680D01*
X89728189Y-109853319D01*
X89720908Y-109852239D01*
X89713769Y-109850451D01*
X89706839Y-109847971D01*
X89700185Y-109844824D01*
X89693872Y-109841040D01*
X89687961Y-109836656D01*
X89682507Y-109831713D01*
X89677564Y-109826259D01*
X89673180Y-109820348D01*
X89669396Y-109814035D01*
X89666249Y-109807381D01*
X89663769Y-109800451D01*
X89661981Y-109793312D01*
X89660901Y-109786031D01*
X89660540Y-109778680D01*
X89660540Y-109628680D01*
X89660901Y-109621329D01*
X89661981Y-109614048D01*
X89663769Y-109606909D01*
X89666249Y-109599979D01*
X89669396Y-109593325D01*
X89673180Y-109587012D01*
X89677564Y-109581101D01*
X89682507Y-109575647D01*
X89687961Y-109570704D01*
X89693872Y-109566320D01*
X89700185Y-109562536D01*
X89706839Y-109559389D01*
X89713769Y-109556909D01*
X89720908Y-109555121D01*
X89728189Y-109554041D01*
X89735540Y-109553680D01*
X91060540Y-109553680D01*
X91067891Y-109554041D01*
X91067891Y-109554041D01*
G37*
D13*
X90398040Y-109703680D03*
D10*
G36*
X91067891Y-109054041D02*
G01*
X91075172Y-109055121D01*
X91082311Y-109056909D01*
X91089241Y-109059389D01*
X91095895Y-109062536D01*
X91102208Y-109066320D01*
X91108119Y-109070704D01*
X91113573Y-109075647D01*
X91118516Y-109081101D01*
X91122900Y-109087012D01*
X91126684Y-109093325D01*
X91129831Y-109099979D01*
X91132311Y-109106909D01*
X91134099Y-109114048D01*
X91135179Y-109121329D01*
X91135540Y-109128680D01*
X91135540Y-109278680D01*
X91135179Y-109286031D01*
X91134099Y-109293312D01*
X91132311Y-109300451D01*
X91129831Y-109307381D01*
X91126684Y-109314035D01*
X91122900Y-109320348D01*
X91118516Y-109326259D01*
X91113573Y-109331713D01*
X91108119Y-109336656D01*
X91102208Y-109341040D01*
X91095895Y-109344824D01*
X91089241Y-109347971D01*
X91082311Y-109350451D01*
X91075172Y-109352239D01*
X91067891Y-109353319D01*
X91060540Y-109353680D01*
X89735540Y-109353680D01*
X89728189Y-109353319D01*
X89720908Y-109352239D01*
X89713769Y-109350451D01*
X89706839Y-109347971D01*
X89700185Y-109344824D01*
X89693872Y-109341040D01*
X89687961Y-109336656D01*
X89682507Y-109331713D01*
X89677564Y-109326259D01*
X89673180Y-109320348D01*
X89669396Y-109314035D01*
X89666249Y-109307381D01*
X89663769Y-109300451D01*
X89661981Y-109293312D01*
X89660901Y-109286031D01*
X89660540Y-109278680D01*
X89660540Y-109128680D01*
X89660901Y-109121329D01*
X89661981Y-109114048D01*
X89663769Y-109106909D01*
X89666249Y-109099979D01*
X89669396Y-109093325D01*
X89673180Y-109087012D01*
X89677564Y-109081101D01*
X89682507Y-109075647D01*
X89687961Y-109070704D01*
X89693872Y-109066320D01*
X89700185Y-109062536D01*
X89706839Y-109059389D01*
X89713769Y-109056909D01*
X89720908Y-109055121D01*
X89728189Y-109054041D01*
X89735540Y-109053680D01*
X91060540Y-109053680D01*
X91067891Y-109054041D01*
X91067891Y-109054041D01*
G37*
D13*
X90398040Y-109203680D03*
D10*
G36*
X91067891Y-108554041D02*
G01*
X91075172Y-108555121D01*
X91082311Y-108556909D01*
X91089241Y-108559389D01*
X91095895Y-108562536D01*
X91102208Y-108566320D01*
X91108119Y-108570704D01*
X91113573Y-108575647D01*
X91118516Y-108581101D01*
X91122900Y-108587012D01*
X91126684Y-108593325D01*
X91129831Y-108599979D01*
X91132311Y-108606909D01*
X91134099Y-108614048D01*
X91135179Y-108621329D01*
X91135540Y-108628680D01*
X91135540Y-108778680D01*
X91135179Y-108786031D01*
X91134099Y-108793312D01*
X91132311Y-108800451D01*
X91129831Y-108807381D01*
X91126684Y-108814035D01*
X91122900Y-108820348D01*
X91118516Y-108826259D01*
X91113573Y-108831713D01*
X91108119Y-108836656D01*
X91102208Y-108841040D01*
X91095895Y-108844824D01*
X91089241Y-108847971D01*
X91082311Y-108850451D01*
X91075172Y-108852239D01*
X91067891Y-108853319D01*
X91060540Y-108853680D01*
X89735540Y-108853680D01*
X89728189Y-108853319D01*
X89720908Y-108852239D01*
X89713769Y-108850451D01*
X89706839Y-108847971D01*
X89700185Y-108844824D01*
X89693872Y-108841040D01*
X89687961Y-108836656D01*
X89682507Y-108831713D01*
X89677564Y-108826259D01*
X89673180Y-108820348D01*
X89669396Y-108814035D01*
X89666249Y-108807381D01*
X89663769Y-108800451D01*
X89661981Y-108793312D01*
X89660901Y-108786031D01*
X89660540Y-108778680D01*
X89660540Y-108628680D01*
X89660901Y-108621329D01*
X89661981Y-108614048D01*
X89663769Y-108606909D01*
X89666249Y-108599979D01*
X89669396Y-108593325D01*
X89673180Y-108587012D01*
X89677564Y-108581101D01*
X89682507Y-108575647D01*
X89687961Y-108570704D01*
X89693872Y-108566320D01*
X89700185Y-108562536D01*
X89706839Y-108559389D01*
X89713769Y-108556909D01*
X89720908Y-108555121D01*
X89728189Y-108554041D01*
X89735540Y-108553680D01*
X91060540Y-108553680D01*
X91067891Y-108554041D01*
X91067891Y-108554041D01*
G37*
D13*
X90398040Y-108703680D03*
D10*
G36*
X91067891Y-108054041D02*
G01*
X91075172Y-108055121D01*
X91082311Y-108056909D01*
X91089241Y-108059389D01*
X91095895Y-108062536D01*
X91102208Y-108066320D01*
X91108119Y-108070704D01*
X91113573Y-108075647D01*
X91118516Y-108081101D01*
X91122900Y-108087012D01*
X91126684Y-108093325D01*
X91129831Y-108099979D01*
X91132311Y-108106909D01*
X91134099Y-108114048D01*
X91135179Y-108121329D01*
X91135540Y-108128680D01*
X91135540Y-108278680D01*
X91135179Y-108286031D01*
X91134099Y-108293312D01*
X91132311Y-108300451D01*
X91129831Y-108307381D01*
X91126684Y-108314035D01*
X91122900Y-108320348D01*
X91118516Y-108326259D01*
X91113573Y-108331713D01*
X91108119Y-108336656D01*
X91102208Y-108341040D01*
X91095895Y-108344824D01*
X91089241Y-108347971D01*
X91082311Y-108350451D01*
X91075172Y-108352239D01*
X91067891Y-108353319D01*
X91060540Y-108353680D01*
X89735540Y-108353680D01*
X89728189Y-108353319D01*
X89720908Y-108352239D01*
X89713769Y-108350451D01*
X89706839Y-108347971D01*
X89700185Y-108344824D01*
X89693872Y-108341040D01*
X89687961Y-108336656D01*
X89682507Y-108331713D01*
X89677564Y-108326259D01*
X89673180Y-108320348D01*
X89669396Y-108314035D01*
X89666249Y-108307381D01*
X89663769Y-108300451D01*
X89661981Y-108293312D01*
X89660901Y-108286031D01*
X89660540Y-108278680D01*
X89660540Y-108128680D01*
X89660901Y-108121329D01*
X89661981Y-108114048D01*
X89663769Y-108106909D01*
X89666249Y-108099979D01*
X89669396Y-108093325D01*
X89673180Y-108087012D01*
X89677564Y-108081101D01*
X89682507Y-108075647D01*
X89687961Y-108070704D01*
X89693872Y-108066320D01*
X89700185Y-108062536D01*
X89706839Y-108059389D01*
X89713769Y-108056909D01*
X89720908Y-108055121D01*
X89728189Y-108054041D01*
X89735540Y-108053680D01*
X91060540Y-108053680D01*
X91067891Y-108054041D01*
X91067891Y-108054041D01*
G37*
D13*
X90398040Y-108203680D03*
D10*
G36*
X91067891Y-107554041D02*
G01*
X91075172Y-107555121D01*
X91082311Y-107556909D01*
X91089241Y-107559389D01*
X91095895Y-107562536D01*
X91102208Y-107566320D01*
X91108119Y-107570704D01*
X91113573Y-107575647D01*
X91118516Y-107581101D01*
X91122900Y-107587012D01*
X91126684Y-107593325D01*
X91129831Y-107599979D01*
X91132311Y-107606909D01*
X91134099Y-107614048D01*
X91135179Y-107621329D01*
X91135540Y-107628680D01*
X91135540Y-107778680D01*
X91135179Y-107786031D01*
X91134099Y-107793312D01*
X91132311Y-107800451D01*
X91129831Y-107807381D01*
X91126684Y-107814035D01*
X91122900Y-107820348D01*
X91118516Y-107826259D01*
X91113573Y-107831713D01*
X91108119Y-107836656D01*
X91102208Y-107841040D01*
X91095895Y-107844824D01*
X91089241Y-107847971D01*
X91082311Y-107850451D01*
X91075172Y-107852239D01*
X91067891Y-107853319D01*
X91060540Y-107853680D01*
X89735540Y-107853680D01*
X89728189Y-107853319D01*
X89720908Y-107852239D01*
X89713769Y-107850451D01*
X89706839Y-107847971D01*
X89700185Y-107844824D01*
X89693872Y-107841040D01*
X89687961Y-107836656D01*
X89682507Y-107831713D01*
X89677564Y-107826259D01*
X89673180Y-107820348D01*
X89669396Y-107814035D01*
X89666249Y-107807381D01*
X89663769Y-107800451D01*
X89661981Y-107793312D01*
X89660901Y-107786031D01*
X89660540Y-107778680D01*
X89660540Y-107628680D01*
X89660901Y-107621329D01*
X89661981Y-107614048D01*
X89663769Y-107606909D01*
X89666249Y-107599979D01*
X89669396Y-107593325D01*
X89673180Y-107587012D01*
X89677564Y-107581101D01*
X89682507Y-107575647D01*
X89687961Y-107570704D01*
X89693872Y-107566320D01*
X89700185Y-107562536D01*
X89706839Y-107559389D01*
X89713769Y-107556909D01*
X89720908Y-107555121D01*
X89728189Y-107554041D01*
X89735540Y-107553680D01*
X91060540Y-107553680D01*
X91067891Y-107554041D01*
X91067891Y-107554041D01*
G37*
D13*
X90398040Y-107703680D03*
D10*
G36*
X91067891Y-107054041D02*
G01*
X91075172Y-107055121D01*
X91082311Y-107056909D01*
X91089241Y-107059389D01*
X91095895Y-107062536D01*
X91102208Y-107066320D01*
X91108119Y-107070704D01*
X91113573Y-107075647D01*
X91118516Y-107081101D01*
X91122900Y-107087012D01*
X91126684Y-107093325D01*
X91129831Y-107099979D01*
X91132311Y-107106909D01*
X91134099Y-107114048D01*
X91135179Y-107121329D01*
X91135540Y-107128680D01*
X91135540Y-107278680D01*
X91135179Y-107286031D01*
X91134099Y-107293312D01*
X91132311Y-107300451D01*
X91129831Y-107307381D01*
X91126684Y-107314035D01*
X91122900Y-107320348D01*
X91118516Y-107326259D01*
X91113573Y-107331713D01*
X91108119Y-107336656D01*
X91102208Y-107341040D01*
X91095895Y-107344824D01*
X91089241Y-107347971D01*
X91082311Y-107350451D01*
X91075172Y-107352239D01*
X91067891Y-107353319D01*
X91060540Y-107353680D01*
X89735540Y-107353680D01*
X89728189Y-107353319D01*
X89720908Y-107352239D01*
X89713769Y-107350451D01*
X89706839Y-107347971D01*
X89700185Y-107344824D01*
X89693872Y-107341040D01*
X89687961Y-107336656D01*
X89682507Y-107331713D01*
X89677564Y-107326259D01*
X89673180Y-107320348D01*
X89669396Y-107314035D01*
X89666249Y-107307381D01*
X89663769Y-107300451D01*
X89661981Y-107293312D01*
X89660901Y-107286031D01*
X89660540Y-107278680D01*
X89660540Y-107128680D01*
X89660901Y-107121329D01*
X89661981Y-107114048D01*
X89663769Y-107106909D01*
X89666249Y-107099979D01*
X89669396Y-107093325D01*
X89673180Y-107087012D01*
X89677564Y-107081101D01*
X89682507Y-107075647D01*
X89687961Y-107070704D01*
X89693872Y-107066320D01*
X89700185Y-107062536D01*
X89706839Y-107059389D01*
X89713769Y-107056909D01*
X89720908Y-107055121D01*
X89728189Y-107054041D01*
X89735540Y-107053680D01*
X91060540Y-107053680D01*
X91067891Y-107054041D01*
X91067891Y-107054041D01*
G37*
D13*
X90398040Y-107203680D03*
D10*
G36*
X91067891Y-106554041D02*
G01*
X91075172Y-106555121D01*
X91082311Y-106556909D01*
X91089241Y-106559389D01*
X91095895Y-106562536D01*
X91102208Y-106566320D01*
X91108119Y-106570704D01*
X91113573Y-106575647D01*
X91118516Y-106581101D01*
X91122900Y-106587012D01*
X91126684Y-106593325D01*
X91129831Y-106599979D01*
X91132311Y-106606909D01*
X91134099Y-106614048D01*
X91135179Y-106621329D01*
X91135540Y-106628680D01*
X91135540Y-106778680D01*
X91135179Y-106786031D01*
X91134099Y-106793312D01*
X91132311Y-106800451D01*
X91129831Y-106807381D01*
X91126684Y-106814035D01*
X91122900Y-106820348D01*
X91118516Y-106826259D01*
X91113573Y-106831713D01*
X91108119Y-106836656D01*
X91102208Y-106841040D01*
X91095895Y-106844824D01*
X91089241Y-106847971D01*
X91082311Y-106850451D01*
X91075172Y-106852239D01*
X91067891Y-106853319D01*
X91060540Y-106853680D01*
X89735540Y-106853680D01*
X89728189Y-106853319D01*
X89720908Y-106852239D01*
X89713769Y-106850451D01*
X89706839Y-106847971D01*
X89700185Y-106844824D01*
X89693872Y-106841040D01*
X89687961Y-106836656D01*
X89682507Y-106831713D01*
X89677564Y-106826259D01*
X89673180Y-106820348D01*
X89669396Y-106814035D01*
X89666249Y-106807381D01*
X89663769Y-106800451D01*
X89661981Y-106793312D01*
X89660901Y-106786031D01*
X89660540Y-106778680D01*
X89660540Y-106628680D01*
X89660901Y-106621329D01*
X89661981Y-106614048D01*
X89663769Y-106606909D01*
X89666249Y-106599979D01*
X89669396Y-106593325D01*
X89673180Y-106587012D01*
X89677564Y-106581101D01*
X89682507Y-106575647D01*
X89687961Y-106570704D01*
X89693872Y-106566320D01*
X89700185Y-106562536D01*
X89706839Y-106559389D01*
X89713769Y-106556909D01*
X89720908Y-106555121D01*
X89728189Y-106554041D01*
X89735540Y-106553680D01*
X91060540Y-106553680D01*
X91067891Y-106554041D01*
X91067891Y-106554041D01*
G37*
D13*
X90398040Y-106703680D03*
D10*
G36*
X89067891Y-104554041D02*
G01*
X89075172Y-104555121D01*
X89082311Y-104556909D01*
X89089241Y-104559389D01*
X89095895Y-104562536D01*
X89102208Y-104566320D01*
X89108119Y-104570704D01*
X89113573Y-104575647D01*
X89118516Y-104581101D01*
X89122900Y-104587012D01*
X89126684Y-104593325D01*
X89129831Y-104599979D01*
X89132311Y-104606909D01*
X89134099Y-104614048D01*
X89135179Y-104621329D01*
X89135540Y-104628680D01*
X89135540Y-105953680D01*
X89135179Y-105961031D01*
X89134099Y-105968312D01*
X89132311Y-105975451D01*
X89129831Y-105982381D01*
X89126684Y-105989035D01*
X89122900Y-105995348D01*
X89118516Y-106001259D01*
X89113573Y-106006713D01*
X89108119Y-106011656D01*
X89102208Y-106016040D01*
X89095895Y-106019824D01*
X89089241Y-106022971D01*
X89082311Y-106025451D01*
X89075172Y-106027239D01*
X89067891Y-106028319D01*
X89060540Y-106028680D01*
X88910540Y-106028680D01*
X88903189Y-106028319D01*
X88895908Y-106027239D01*
X88888769Y-106025451D01*
X88881839Y-106022971D01*
X88875185Y-106019824D01*
X88868872Y-106016040D01*
X88862961Y-106011656D01*
X88857507Y-106006713D01*
X88852564Y-106001259D01*
X88848180Y-105995348D01*
X88844396Y-105989035D01*
X88841249Y-105982381D01*
X88838769Y-105975451D01*
X88836981Y-105968312D01*
X88835901Y-105961031D01*
X88835540Y-105953680D01*
X88835540Y-104628680D01*
X88835901Y-104621329D01*
X88836981Y-104614048D01*
X88838769Y-104606909D01*
X88841249Y-104599979D01*
X88844396Y-104593325D01*
X88848180Y-104587012D01*
X88852564Y-104581101D01*
X88857507Y-104575647D01*
X88862961Y-104570704D01*
X88868872Y-104566320D01*
X88875185Y-104562536D01*
X88881839Y-104559389D01*
X88888769Y-104556909D01*
X88895908Y-104555121D01*
X88903189Y-104554041D01*
X88910540Y-104553680D01*
X89060540Y-104553680D01*
X89067891Y-104554041D01*
X89067891Y-104554041D01*
G37*
D13*
X88985540Y-105291180D03*
D10*
G36*
X88567891Y-104554041D02*
G01*
X88575172Y-104555121D01*
X88582311Y-104556909D01*
X88589241Y-104559389D01*
X88595895Y-104562536D01*
X88602208Y-104566320D01*
X88608119Y-104570704D01*
X88613573Y-104575647D01*
X88618516Y-104581101D01*
X88622900Y-104587012D01*
X88626684Y-104593325D01*
X88629831Y-104599979D01*
X88632311Y-104606909D01*
X88634099Y-104614048D01*
X88635179Y-104621329D01*
X88635540Y-104628680D01*
X88635540Y-105953680D01*
X88635179Y-105961031D01*
X88634099Y-105968312D01*
X88632311Y-105975451D01*
X88629831Y-105982381D01*
X88626684Y-105989035D01*
X88622900Y-105995348D01*
X88618516Y-106001259D01*
X88613573Y-106006713D01*
X88608119Y-106011656D01*
X88602208Y-106016040D01*
X88595895Y-106019824D01*
X88589241Y-106022971D01*
X88582311Y-106025451D01*
X88575172Y-106027239D01*
X88567891Y-106028319D01*
X88560540Y-106028680D01*
X88410540Y-106028680D01*
X88403189Y-106028319D01*
X88395908Y-106027239D01*
X88388769Y-106025451D01*
X88381839Y-106022971D01*
X88375185Y-106019824D01*
X88368872Y-106016040D01*
X88362961Y-106011656D01*
X88357507Y-106006713D01*
X88352564Y-106001259D01*
X88348180Y-105995348D01*
X88344396Y-105989035D01*
X88341249Y-105982381D01*
X88338769Y-105975451D01*
X88336981Y-105968312D01*
X88335901Y-105961031D01*
X88335540Y-105953680D01*
X88335540Y-104628680D01*
X88335901Y-104621329D01*
X88336981Y-104614048D01*
X88338769Y-104606909D01*
X88341249Y-104599979D01*
X88344396Y-104593325D01*
X88348180Y-104587012D01*
X88352564Y-104581101D01*
X88357507Y-104575647D01*
X88362961Y-104570704D01*
X88368872Y-104566320D01*
X88375185Y-104562536D01*
X88381839Y-104559389D01*
X88388769Y-104556909D01*
X88395908Y-104555121D01*
X88403189Y-104554041D01*
X88410540Y-104553680D01*
X88560540Y-104553680D01*
X88567891Y-104554041D01*
X88567891Y-104554041D01*
G37*
D13*
X88485540Y-105291180D03*
D10*
G36*
X88067891Y-104554041D02*
G01*
X88075172Y-104555121D01*
X88082311Y-104556909D01*
X88089241Y-104559389D01*
X88095895Y-104562536D01*
X88102208Y-104566320D01*
X88108119Y-104570704D01*
X88113573Y-104575647D01*
X88118516Y-104581101D01*
X88122900Y-104587012D01*
X88126684Y-104593325D01*
X88129831Y-104599979D01*
X88132311Y-104606909D01*
X88134099Y-104614048D01*
X88135179Y-104621329D01*
X88135540Y-104628680D01*
X88135540Y-105953680D01*
X88135179Y-105961031D01*
X88134099Y-105968312D01*
X88132311Y-105975451D01*
X88129831Y-105982381D01*
X88126684Y-105989035D01*
X88122900Y-105995348D01*
X88118516Y-106001259D01*
X88113573Y-106006713D01*
X88108119Y-106011656D01*
X88102208Y-106016040D01*
X88095895Y-106019824D01*
X88089241Y-106022971D01*
X88082311Y-106025451D01*
X88075172Y-106027239D01*
X88067891Y-106028319D01*
X88060540Y-106028680D01*
X87910540Y-106028680D01*
X87903189Y-106028319D01*
X87895908Y-106027239D01*
X87888769Y-106025451D01*
X87881839Y-106022971D01*
X87875185Y-106019824D01*
X87868872Y-106016040D01*
X87862961Y-106011656D01*
X87857507Y-106006713D01*
X87852564Y-106001259D01*
X87848180Y-105995348D01*
X87844396Y-105989035D01*
X87841249Y-105982381D01*
X87838769Y-105975451D01*
X87836981Y-105968312D01*
X87835901Y-105961031D01*
X87835540Y-105953680D01*
X87835540Y-104628680D01*
X87835901Y-104621329D01*
X87836981Y-104614048D01*
X87838769Y-104606909D01*
X87841249Y-104599979D01*
X87844396Y-104593325D01*
X87848180Y-104587012D01*
X87852564Y-104581101D01*
X87857507Y-104575647D01*
X87862961Y-104570704D01*
X87868872Y-104566320D01*
X87875185Y-104562536D01*
X87881839Y-104559389D01*
X87888769Y-104556909D01*
X87895908Y-104555121D01*
X87903189Y-104554041D01*
X87910540Y-104553680D01*
X88060540Y-104553680D01*
X88067891Y-104554041D01*
X88067891Y-104554041D01*
G37*
D13*
X87985540Y-105291180D03*
D10*
G36*
X87567891Y-104554041D02*
G01*
X87575172Y-104555121D01*
X87582311Y-104556909D01*
X87589241Y-104559389D01*
X87595895Y-104562536D01*
X87602208Y-104566320D01*
X87608119Y-104570704D01*
X87613573Y-104575647D01*
X87618516Y-104581101D01*
X87622900Y-104587012D01*
X87626684Y-104593325D01*
X87629831Y-104599979D01*
X87632311Y-104606909D01*
X87634099Y-104614048D01*
X87635179Y-104621329D01*
X87635540Y-104628680D01*
X87635540Y-105953680D01*
X87635179Y-105961031D01*
X87634099Y-105968312D01*
X87632311Y-105975451D01*
X87629831Y-105982381D01*
X87626684Y-105989035D01*
X87622900Y-105995348D01*
X87618516Y-106001259D01*
X87613573Y-106006713D01*
X87608119Y-106011656D01*
X87602208Y-106016040D01*
X87595895Y-106019824D01*
X87589241Y-106022971D01*
X87582311Y-106025451D01*
X87575172Y-106027239D01*
X87567891Y-106028319D01*
X87560540Y-106028680D01*
X87410540Y-106028680D01*
X87403189Y-106028319D01*
X87395908Y-106027239D01*
X87388769Y-106025451D01*
X87381839Y-106022971D01*
X87375185Y-106019824D01*
X87368872Y-106016040D01*
X87362961Y-106011656D01*
X87357507Y-106006713D01*
X87352564Y-106001259D01*
X87348180Y-105995348D01*
X87344396Y-105989035D01*
X87341249Y-105982381D01*
X87338769Y-105975451D01*
X87336981Y-105968312D01*
X87335901Y-105961031D01*
X87335540Y-105953680D01*
X87335540Y-104628680D01*
X87335901Y-104621329D01*
X87336981Y-104614048D01*
X87338769Y-104606909D01*
X87341249Y-104599979D01*
X87344396Y-104593325D01*
X87348180Y-104587012D01*
X87352564Y-104581101D01*
X87357507Y-104575647D01*
X87362961Y-104570704D01*
X87368872Y-104566320D01*
X87375185Y-104562536D01*
X87381839Y-104559389D01*
X87388769Y-104556909D01*
X87395908Y-104555121D01*
X87403189Y-104554041D01*
X87410540Y-104553680D01*
X87560540Y-104553680D01*
X87567891Y-104554041D01*
X87567891Y-104554041D01*
G37*
D13*
X87485540Y-105291180D03*
D10*
G36*
X87067891Y-104554041D02*
G01*
X87075172Y-104555121D01*
X87082311Y-104556909D01*
X87089241Y-104559389D01*
X87095895Y-104562536D01*
X87102208Y-104566320D01*
X87108119Y-104570704D01*
X87113573Y-104575647D01*
X87118516Y-104581101D01*
X87122900Y-104587012D01*
X87126684Y-104593325D01*
X87129831Y-104599979D01*
X87132311Y-104606909D01*
X87134099Y-104614048D01*
X87135179Y-104621329D01*
X87135540Y-104628680D01*
X87135540Y-105953680D01*
X87135179Y-105961031D01*
X87134099Y-105968312D01*
X87132311Y-105975451D01*
X87129831Y-105982381D01*
X87126684Y-105989035D01*
X87122900Y-105995348D01*
X87118516Y-106001259D01*
X87113573Y-106006713D01*
X87108119Y-106011656D01*
X87102208Y-106016040D01*
X87095895Y-106019824D01*
X87089241Y-106022971D01*
X87082311Y-106025451D01*
X87075172Y-106027239D01*
X87067891Y-106028319D01*
X87060540Y-106028680D01*
X86910540Y-106028680D01*
X86903189Y-106028319D01*
X86895908Y-106027239D01*
X86888769Y-106025451D01*
X86881839Y-106022971D01*
X86875185Y-106019824D01*
X86868872Y-106016040D01*
X86862961Y-106011656D01*
X86857507Y-106006713D01*
X86852564Y-106001259D01*
X86848180Y-105995348D01*
X86844396Y-105989035D01*
X86841249Y-105982381D01*
X86838769Y-105975451D01*
X86836981Y-105968312D01*
X86835901Y-105961031D01*
X86835540Y-105953680D01*
X86835540Y-104628680D01*
X86835901Y-104621329D01*
X86836981Y-104614048D01*
X86838769Y-104606909D01*
X86841249Y-104599979D01*
X86844396Y-104593325D01*
X86848180Y-104587012D01*
X86852564Y-104581101D01*
X86857507Y-104575647D01*
X86862961Y-104570704D01*
X86868872Y-104566320D01*
X86875185Y-104562536D01*
X86881839Y-104559389D01*
X86888769Y-104556909D01*
X86895908Y-104555121D01*
X86903189Y-104554041D01*
X86910540Y-104553680D01*
X87060540Y-104553680D01*
X87067891Y-104554041D01*
X87067891Y-104554041D01*
G37*
D13*
X86985540Y-105291180D03*
D10*
G36*
X86567891Y-104554041D02*
G01*
X86575172Y-104555121D01*
X86582311Y-104556909D01*
X86589241Y-104559389D01*
X86595895Y-104562536D01*
X86602208Y-104566320D01*
X86608119Y-104570704D01*
X86613573Y-104575647D01*
X86618516Y-104581101D01*
X86622900Y-104587012D01*
X86626684Y-104593325D01*
X86629831Y-104599979D01*
X86632311Y-104606909D01*
X86634099Y-104614048D01*
X86635179Y-104621329D01*
X86635540Y-104628680D01*
X86635540Y-105953680D01*
X86635179Y-105961031D01*
X86634099Y-105968312D01*
X86632311Y-105975451D01*
X86629831Y-105982381D01*
X86626684Y-105989035D01*
X86622900Y-105995348D01*
X86618516Y-106001259D01*
X86613573Y-106006713D01*
X86608119Y-106011656D01*
X86602208Y-106016040D01*
X86595895Y-106019824D01*
X86589241Y-106022971D01*
X86582311Y-106025451D01*
X86575172Y-106027239D01*
X86567891Y-106028319D01*
X86560540Y-106028680D01*
X86410540Y-106028680D01*
X86403189Y-106028319D01*
X86395908Y-106027239D01*
X86388769Y-106025451D01*
X86381839Y-106022971D01*
X86375185Y-106019824D01*
X86368872Y-106016040D01*
X86362961Y-106011656D01*
X86357507Y-106006713D01*
X86352564Y-106001259D01*
X86348180Y-105995348D01*
X86344396Y-105989035D01*
X86341249Y-105982381D01*
X86338769Y-105975451D01*
X86336981Y-105968312D01*
X86335901Y-105961031D01*
X86335540Y-105953680D01*
X86335540Y-104628680D01*
X86335901Y-104621329D01*
X86336981Y-104614048D01*
X86338769Y-104606909D01*
X86341249Y-104599979D01*
X86344396Y-104593325D01*
X86348180Y-104587012D01*
X86352564Y-104581101D01*
X86357507Y-104575647D01*
X86362961Y-104570704D01*
X86368872Y-104566320D01*
X86375185Y-104562536D01*
X86381839Y-104559389D01*
X86388769Y-104556909D01*
X86395908Y-104555121D01*
X86403189Y-104554041D01*
X86410540Y-104553680D01*
X86560540Y-104553680D01*
X86567891Y-104554041D01*
X86567891Y-104554041D01*
G37*
D13*
X86485540Y-105291180D03*
D10*
G36*
X86067891Y-104554041D02*
G01*
X86075172Y-104555121D01*
X86082311Y-104556909D01*
X86089241Y-104559389D01*
X86095895Y-104562536D01*
X86102208Y-104566320D01*
X86108119Y-104570704D01*
X86113573Y-104575647D01*
X86118516Y-104581101D01*
X86122900Y-104587012D01*
X86126684Y-104593325D01*
X86129831Y-104599979D01*
X86132311Y-104606909D01*
X86134099Y-104614048D01*
X86135179Y-104621329D01*
X86135540Y-104628680D01*
X86135540Y-105953680D01*
X86135179Y-105961031D01*
X86134099Y-105968312D01*
X86132311Y-105975451D01*
X86129831Y-105982381D01*
X86126684Y-105989035D01*
X86122900Y-105995348D01*
X86118516Y-106001259D01*
X86113573Y-106006713D01*
X86108119Y-106011656D01*
X86102208Y-106016040D01*
X86095895Y-106019824D01*
X86089241Y-106022971D01*
X86082311Y-106025451D01*
X86075172Y-106027239D01*
X86067891Y-106028319D01*
X86060540Y-106028680D01*
X85910540Y-106028680D01*
X85903189Y-106028319D01*
X85895908Y-106027239D01*
X85888769Y-106025451D01*
X85881839Y-106022971D01*
X85875185Y-106019824D01*
X85868872Y-106016040D01*
X85862961Y-106011656D01*
X85857507Y-106006713D01*
X85852564Y-106001259D01*
X85848180Y-105995348D01*
X85844396Y-105989035D01*
X85841249Y-105982381D01*
X85838769Y-105975451D01*
X85836981Y-105968312D01*
X85835901Y-105961031D01*
X85835540Y-105953680D01*
X85835540Y-104628680D01*
X85835901Y-104621329D01*
X85836981Y-104614048D01*
X85838769Y-104606909D01*
X85841249Y-104599979D01*
X85844396Y-104593325D01*
X85848180Y-104587012D01*
X85852564Y-104581101D01*
X85857507Y-104575647D01*
X85862961Y-104570704D01*
X85868872Y-104566320D01*
X85875185Y-104562536D01*
X85881839Y-104559389D01*
X85888769Y-104556909D01*
X85895908Y-104555121D01*
X85903189Y-104554041D01*
X85910540Y-104553680D01*
X86060540Y-104553680D01*
X86067891Y-104554041D01*
X86067891Y-104554041D01*
G37*
D13*
X85985540Y-105291180D03*
D10*
G36*
X85567891Y-104554041D02*
G01*
X85575172Y-104555121D01*
X85582311Y-104556909D01*
X85589241Y-104559389D01*
X85595895Y-104562536D01*
X85602208Y-104566320D01*
X85608119Y-104570704D01*
X85613573Y-104575647D01*
X85618516Y-104581101D01*
X85622900Y-104587012D01*
X85626684Y-104593325D01*
X85629831Y-104599979D01*
X85632311Y-104606909D01*
X85634099Y-104614048D01*
X85635179Y-104621329D01*
X85635540Y-104628680D01*
X85635540Y-105953680D01*
X85635179Y-105961031D01*
X85634099Y-105968312D01*
X85632311Y-105975451D01*
X85629831Y-105982381D01*
X85626684Y-105989035D01*
X85622900Y-105995348D01*
X85618516Y-106001259D01*
X85613573Y-106006713D01*
X85608119Y-106011656D01*
X85602208Y-106016040D01*
X85595895Y-106019824D01*
X85589241Y-106022971D01*
X85582311Y-106025451D01*
X85575172Y-106027239D01*
X85567891Y-106028319D01*
X85560540Y-106028680D01*
X85410540Y-106028680D01*
X85403189Y-106028319D01*
X85395908Y-106027239D01*
X85388769Y-106025451D01*
X85381839Y-106022971D01*
X85375185Y-106019824D01*
X85368872Y-106016040D01*
X85362961Y-106011656D01*
X85357507Y-106006713D01*
X85352564Y-106001259D01*
X85348180Y-105995348D01*
X85344396Y-105989035D01*
X85341249Y-105982381D01*
X85338769Y-105975451D01*
X85336981Y-105968312D01*
X85335901Y-105961031D01*
X85335540Y-105953680D01*
X85335540Y-104628680D01*
X85335901Y-104621329D01*
X85336981Y-104614048D01*
X85338769Y-104606909D01*
X85341249Y-104599979D01*
X85344396Y-104593325D01*
X85348180Y-104587012D01*
X85352564Y-104581101D01*
X85357507Y-104575647D01*
X85362961Y-104570704D01*
X85368872Y-104566320D01*
X85375185Y-104562536D01*
X85381839Y-104559389D01*
X85388769Y-104556909D01*
X85395908Y-104555121D01*
X85403189Y-104554041D01*
X85410540Y-104553680D01*
X85560540Y-104553680D01*
X85567891Y-104554041D01*
X85567891Y-104554041D01*
G37*
D13*
X85485540Y-105291180D03*
D10*
G36*
X85067891Y-104554041D02*
G01*
X85075172Y-104555121D01*
X85082311Y-104556909D01*
X85089241Y-104559389D01*
X85095895Y-104562536D01*
X85102208Y-104566320D01*
X85108119Y-104570704D01*
X85113573Y-104575647D01*
X85118516Y-104581101D01*
X85122900Y-104587012D01*
X85126684Y-104593325D01*
X85129831Y-104599979D01*
X85132311Y-104606909D01*
X85134099Y-104614048D01*
X85135179Y-104621329D01*
X85135540Y-104628680D01*
X85135540Y-105953680D01*
X85135179Y-105961031D01*
X85134099Y-105968312D01*
X85132311Y-105975451D01*
X85129831Y-105982381D01*
X85126684Y-105989035D01*
X85122900Y-105995348D01*
X85118516Y-106001259D01*
X85113573Y-106006713D01*
X85108119Y-106011656D01*
X85102208Y-106016040D01*
X85095895Y-106019824D01*
X85089241Y-106022971D01*
X85082311Y-106025451D01*
X85075172Y-106027239D01*
X85067891Y-106028319D01*
X85060540Y-106028680D01*
X84910540Y-106028680D01*
X84903189Y-106028319D01*
X84895908Y-106027239D01*
X84888769Y-106025451D01*
X84881839Y-106022971D01*
X84875185Y-106019824D01*
X84868872Y-106016040D01*
X84862961Y-106011656D01*
X84857507Y-106006713D01*
X84852564Y-106001259D01*
X84848180Y-105995348D01*
X84844396Y-105989035D01*
X84841249Y-105982381D01*
X84838769Y-105975451D01*
X84836981Y-105968312D01*
X84835901Y-105961031D01*
X84835540Y-105953680D01*
X84835540Y-104628680D01*
X84835901Y-104621329D01*
X84836981Y-104614048D01*
X84838769Y-104606909D01*
X84841249Y-104599979D01*
X84844396Y-104593325D01*
X84848180Y-104587012D01*
X84852564Y-104581101D01*
X84857507Y-104575647D01*
X84862961Y-104570704D01*
X84868872Y-104566320D01*
X84875185Y-104562536D01*
X84881839Y-104559389D01*
X84888769Y-104556909D01*
X84895908Y-104555121D01*
X84903189Y-104554041D01*
X84910540Y-104553680D01*
X85060540Y-104553680D01*
X85067891Y-104554041D01*
X85067891Y-104554041D01*
G37*
D13*
X84985540Y-105291180D03*
D10*
G36*
X84567891Y-104554041D02*
G01*
X84575172Y-104555121D01*
X84582311Y-104556909D01*
X84589241Y-104559389D01*
X84595895Y-104562536D01*
X84602208Y-104566320D01*
X84608119Y-104570704D01*
X84613573Y-104575647D01*
X84618516Y-104581101D01*
X84622900Y-104587012D01*
X84626684Y-104593325D01*
X84629831Y-104599979D01*
X84632311Y-104606909D01*
X84634099Y-104614048D01*
X84635179Y-104621329D01*
X84635540Y-104628680D01*
X84635540Y-105953680D01*
X84635179Y-105961031D01*
X84634099Y-105968312D01*
X84632311Y-105975451D01*
X84629831Y-105982381D01*
X84626684Y-105989035D01*
X84622900Y-105995348D01*
X84618516Y-106001259D01*
X84613573Y-106006713D01*
X84608119Y-106011656D01*
X84602208Y-106016040D01*
X84595895Y-106019824D01*
X84589241Y-106022971D01*
X84582311Y-106025451D01*
X84575172Y-106027239D01*
X84567891Y-106028319D01*
X84560540Y-106028680D01*
X84410540Y-106028680D01*
X84403189Y-106028319D01*
X84395908Y-106027239D01*
X84388769Y-106025451D01*
X84381839Y-106022971D01*
X84375185Y-106019824D01*
X84368872Y-106016040D01*
X84362961Y-106011656D01*
X84357507Y-106006713D01*
X84352564Y-106001259D01*
X84348180Y-105995348D01*
X84344396Y-105989035D01*
X84341249Y-105982381D01*
X84338769Y-105975451D01*
X84336981Y-105968312D01*
X84335901Y-105961031D01*
X84335540Y-105953680D01*
X84335540Y-104628680D01*
X84335901Y-104621329D01*
X84336981Y-104614048D01*
X84338769Y-104606909D01*
X84341249Y-104599979D01*
X84344396Y-104593325D01*
X84348180Y-104587012D01*
X84352564Y-104581101D01*
X84357507Y-104575647D01*
X84362961Y-104570704D01*
X84368872Y-104566320D01*
X84375185Y-104562536D01*
X84381839Y-104559389D01*
X84388769Y-104556909D01*
X84395908Y-104555121D01*
X84403189Y-104554041D01*
X84410540Y-104553680D01*
X84560540Y-104553680D01*
X84567891Y-104554041D01*
X84567891Y-104554041D01*
G37*
D13*
X84485540Y-105291180D03*
D10*
G36*
X84067891Y-104554041D02*
G01*
X84075172Y-104555121D01*
X84082311Y-104556909D01*
X84089241Y-104559389D01*
X84095895Y-104562536D01*
X84102208Y-104566320D01*
X84108119Y-104570704D01*
X84113573Y-104575647D01*
X84118516Y-104581101D01*
X84122900Y-104587012D01*
X84126684Y-104593325D01*
X84129831Y-104599979D01*
X84132311Y-104606909D01*
X84134099Y-104614048D01*
X84135179Y-104621329D01*
X84135540Y-104628680D01*
X84135540Y-105953680D01*
X84135179Y-105961031D01*
X84134099Y-105968312D01*
X84132311Y-105975451D01*
X84129831Y-105982381D01*
X84126684Y-105989035D01*
X84122900Y-105995348D01*
X84118516Y-106001259D01*
X84113573Y-106006713D01*
X84108119Y-106011656D01*
X84102208Y-106016040D01*
X84095895Y-106019824D01*
X84089241Y-106022971D01*
X84082311Y-106025451D01*
X84075172Y-106027239D01*
X84067891Y-106028319D01*
X84060540Y-106028680D01*
X83910540Y-106028680D01*
X83903189Y-106028319D01*
X83895908Y-106027239D01*
X83888769Y-106025451D01*
X83881839Y-106022971D01*
X83875185Y-106019824D01*
X83868872Y-106016040D01*
X83862961Y-106011656D01*
X83857507Y-106006713D01*
X83852564Y-106001259D01*
X83848180Y-105995348D01*
X83844396Y-105989035D01*
X83841249Y-105982381D01*
X83838769Y-105975451D01*
X83836981Y-105968312D01*
X83835901Y-105961031D01*
X83835540Y-105953680D01*
X83835540Y-104628680D01*
X83835901Y-104621329D01*
X83836981Y-104614048D01*
X83838769Y-104606909D01*
X83841249Y-104599979D01*
X83844396Y-104593325D01*
X83848180Y-104587012D01*
X83852564Y-104581101D01*
X83857507Y-104575647D01*
X83862961Y-104570704D01*
X83868872Y-104566320D01*
X83875185Y-104562536D01*
X83881839Y-104559389D01*
X83888769Y-104556909D01*
X83895908Y-104555121D01*
X83903189Y-104554041D01*
X83910540Y-104553680D01*
X84060540Y-104553680D01*
X84067891Y-104554041D01*
X84067891Y-104554041D01*
G37*
D13*
X83985540Y-105291180D03*
D10*
G36*
X83567891Y-104554041D02*
G01*
X83575172Y-104555121D01*
X83582311Y-104556909D01*
X83589241Y-104559389D01*
X83595895Y-104562536D01*
X83602208Y-104566320D01*
X83608119Y-104570704D01*
X83613573Y-104575647D01*
X83618516Y-104581101D01*
X83622900Y-104587012D01*
X83626684Y-104593325D01*
X83629831Y-104599979D01*
X83632311Y-104606909D01*
X83634099Y-104614048D01*
X83635179Y-104621329D01*
X83635540Y-104628680D01*
X83635540Y-105953680D01*
X83635179Y-105961031D01*
X83634099Y-105968312D01*
X83632311Y-105975451D01*
X83629831Y-105982381D01*
X83626684Y-105989035D01*
X83622900Y-105995348D01*
X83618516Y-106001259D01*
X83613573Y-106006713D01*
X83608119Y-106011656D01*
X83602208Y-106016040D01*
X83595895Y-106019824D01*
X83589241Y-106022971D01*
X83582311Y-106025451D01*
X83575172Y-106027239D01*
X83567891Y-106028319D01*
X83560540Y-106028680D01*
X83410540Y-106028680D01*
X83403189Y-106028319D01*
X83395908Y-106027239D01*
X83388769Y-106025451D01*
X83381839Y-106022971D01*
X83375185Y-106019824D01*
X83368872Y-106016040D01*
X83362961Y-106011656D01*
X83357507Y-106006713D01*
X83352564Y-106001259D01*
X83348180Y-105995348D01*
X83344396Y-105989035D01*
X83341249Y-105982381D01*
X83338769Y-105975451D01*
X83336981Y-105968312D01*
X83335901Y-105961031D01*
X83335540Y-105953680D01*
X83335540Y-104628680D01*
X83335901Y-104621329D01*
X83336981Y-104614048D01*
X83338769Y-104606909D01*
X83341249Y-104599979D01*
X83344396Y-104593325D01*
X83348180Y-104587012D01*
X83352564Y-104581101D01*
X83357507Y-104575647D01*
X83362961Y-104570704D01*
X83368872Y-104566320D01*
X83375185Y-104562536D01*
X83381839Y-104559389D01*
X83388769Y-104556909D01*
X83395908Y-104555121D01*
X83403189Y-104554041D01*
X83410540Y-104553680D01*
X83560540Y-104553680D01*
X83567891Y-104554041D01*
X83567891Y-104554041D01*
G37*
D13*
X83485540Y-105291180D03*
D10*
G36*
X82742891Y-106554041D02*
G01*
X82750172Y-106555121D01*
X82757311Y-106556909D01*
X82764241Y-106559389D01*
X82770895Y-106562536D01*
X82777208Y-106566320D01*
X82783119Y-106570704D01*
X82788573Y-106575647D01*
X82793516Y-106581101D01*
X82797900Y-106587012D01*
X82801684Y-106593325D01*
X82804831Y-106599979D01*
X82807311Y-106606909D01*
X82809099Y-106614048D01*
X82810179Y-106621329D01*
X82810540Y-106628680D01*
X82810540Y-106778680D01*
X82810179Y-106786031D01*
X82809099Y-106793312D01*
X82807311Y-106800451D01*
X82804831Y-106807381D01*
X82801684Y-106814035D01*
X82797900Y-106820348D01*
X82793516Y-106826259D01*
X82788573Y-106831713D01*
X82783119Y-106836656D01*
X82777208Y-106841040D01*
X82770895Y-106844824D01*
X82764241Y-106847971D01*
X82757311Y-106850451D01*
X82750172Y-106852239D01*
X82742891Y-106853319D01*
X82735540Y-106853680D01*
X81410540Y-106853680D01*
X81403189Y-106853319D01*
X81395908Y-106852239D01*
X81388769Y-106850451D01*
X81381839Y-106847971D01*
X81375185Y-106844824D01*
X81368872Y-106841040D01*
X81362961Y-106836656D01*
X81357507Y-106831713D01*
X81352564Y-106826259D01*
X81348180Y-106820348D01*
X81344396Y-106814035D01*
X81341249Y-106807381D01*
X81338769Y-106800451D01*
X81336981Y-106793312D01*
X81335901Y-106786031D01*
X81335540Y-106778680D01*
X81335540Y-106628680D01*
X81335901Y-106621329D01*
X81336981Y-106614048D01*
X81338769Y-106606909D01*
X81341249Y-106599979D01*
X81344396Y-106593325D01*
X81348180Y-106587012D01*
X81352564Y-106581101D01*
X81357507Y-106575647D01*
X81362961Y-106570704D01*
X81368872Y-106566320D01*
X81375185Y-106562536D01*
X81381839Y-106559389D01*
X81388769Y-106556909D01*
X81395908Y-106555121D01*
X81403189Y-106554041D01*
X81410540Y-106553680D01*
X82735540Y-106553680D01*
X82742891Y-106554041D01*
X82742891Y-106554041D01*
G37*
D13*
X82073040Y-106703680D03*
D10*
G36*
X82742891Y-107054041D02*
G01*
X82750172Y-107055121D01*
X82757311Y-107056909D01*
X82764241Y-107059389D01*
X82770895Y-107062536D01*
X82777208Y-107066320D01*
X82783119Y-107070704D01*
X82788573Y-107075647D01*
X82793516Y-107081101D01*
X82797900Y-107087012D01*
X82801684Y-107093325D01*
X82804831Y-107099979D01*
X82807311Y-107106909D01*
X82809099Y-107114048D01*
X82810179Y-107121329D01*
X82810540Y-107128680D01*
X82810540Y-107278680D01*
X82810179Y-107286031D01*
X82809099Y-107293312D01*
X82807311Y-107300451D01*
X82804831Y-107307381D01*
X82801684Y-107314035D01*
X82797900Y-107320348D01*
X82793516Y-107326259D01*
X82788573Y-107331713D01*
X82783119Y-107336656D01*
X82777208Y-107341040D01*
X82770895Y-107344824D01*
X82764241Y-107347971D01*
X82757311Y-107350451D01*
X82750172Y-107352239D01*
X82742891Y-107353319D01*
X82735540Y-107353680D01*
X81410540Y-107353680D01*
X81403189Y-107353319D01*
X81395908Y-107352239D01*
X81388769Y-107350451D01*
X81381839Y-107347971D01*
X81375185Y-107344824D01*
X81368872Y-107341040D01*
X81362961Y-107336656D01*
X81357507Y-107331713D01*
X81352564Y-107326259D01*
X81348180Y-107320348D01*
X81344396Y-107314035D01*
X81341249Y-107307381D01*
X81338769Y-107300451D01*
X81336981Y-107293312D01*
X81335901Y-107286031D01*
X81335540Y-107278680D01*
X81335540Y-107128680D01*
X81335901Y-107121329D01*
X81336981Y-107114048D01*
X81338769Y-107106909D01*
X81341249Y-107099979D01*
X81344396Y-107093325D01*
X81348180Y-107087012D01*
X81352564Y-107081101D01*
X81357507Y-107075647D01*
X81362961Y-107070704D01*
X81368872Y-107066320D01*
X81375185Y-107062536D01*
X81381839Y-107059389D01*
X81388769Y-107056909D01*
X81395908Y-107055121D01*
X81403189Y-107054041D01*
X81410540Y-107053680D01*
X82735540Y-107053680D01*
X82742891Y-107054041D01*
X82742891Y-107054041D01*
G37*
D13*
X82073040Y-107203680D03*
D10*
G36*
X82742891Y-107554041D02*
G01*
X82750172Y-107555121D01*
X82757311Y-107556909D01*
X82764241Y-107559389D01*
X82770895Y-107562536D01*
X82777208Y-107566320D01*
X82783119Y-107570704D01*
X82788573Y-107575647D01*
X82793516Y-107581101D01*
X82797900Y-107587012D01*
X82801684Y-107593325D01*
X82804831Y-107599979D01*
X82807311Y-107606909D01*
X82809099Y-107614048D01*
X82810179Y-107621329D01*
X82810540Y-107628680D01*
X82810540Y-107778680D01*
X82810179Y-107786031D01*
X82809099Y-107793312D01*
X82807311Y-107800451D01*
X82804831Y-107807381D01*
X82801684Y-107814035D01*
X82797900Y-107820348D01*
X82793516Y-107826259D01*
X82788573Y-107831713D01*
X82783119Y-107836656D01*
X82777208Y-107841040D01*
X82770895Y-107844824D01*
X82764241Y-107847971D01*
X82757311Y-107850451D01*
X82750172Y-107852239D01*
X82742891Y-107853319D01*
X82735540Y-107853680D01*
X81410540Y-107853680D01*
X81403189Y-107853319D01*
X81395908Y-107852239D01*
X81388769Y-107850451D01*
X81381839Y-107847971D01*
X81375185Y-107844824D01*
X81368872Y-107841040D01*
X81362961Y-107836656D01*
X81357507Y-107831713D01*
X81352564Y-107826259D01*
X81348180Y-107820348D01*
X81344396Y-107814035D01*
X81341249Y-107807381D01*
X81338769Y-107800451D01*
X81336981Y-107793312D01*
X81335901Y-107786031D01*
X81335540Y-107778680D01*
X81335540Y-107628680D01*
X81335901Y-107621329D01*
X81336981Y-107614048D01*
X81338769Y-107606909D01*
X81341249Y-107599979D01*
X81344396Y-107593325D01*
X81348180Y-107587012D01*
X81352564Y-107581101D01*
X81357507Y-107575647D01*
X81362961Y-107570704D01*
X81368872Y-107566320D01*
X81375185Y-107562536D01*
X81381839Y-107559389D01*
X81388769Y-107556909D01*
X81395908Y-107555121D01*
X81403189Y-107554041D01*
X81410540Y-107553680D01*
X82735540Y-107553680D01*
X82742891Y-107554041D01*
X82742891Y-107554041D01*
G37*
D13*
X82073040Y-107703680D03*
D10*
G36*
X82742891Y-108054041D02*
G01*
X82750172Y-108055121D01*
X82757311Y-108056909D01*
X82764241Y-108059389D01*
X82770895Y-108062536D01*
X82777208Y-108066320D01*
X82783119Y-108070704D01*
X82788573Y-108075647D01*
X82793516Y-108081101D01*
X82797900Y-108087012D01*
X82801684Y-108093325D01*
X82804831Y-108099979D01*
X82807311Y-108106909D01*
X82809099Y-108114048D01*
X82810179Y-108121329D01*
X82810540Y-108128680D01*
X82810540Y-108278680D01*
X82810179Y-108286031D01*
X82809099Y-108293312D01*
X82807311Y-108300451D01*
X82804831Y-108307381D01*
X82801684Y-108314035D01*
X82797900Y-108320348D01*
X82793516Y-108326259D01*
X82788573Y-108331713D01*
X82783119Y-108336656D01*
X82777208Y-108341040D01*
X82770895Y-108344824D01*
X82764241Y-108347971D01*
X82757311Y-108350451D01*
X82750172Y-108352239D01*
X82742891Y-108353319D01*
X82735540Y-108353680D01*
X81410540Y-108353680D01*
X81403189Y-108353319D01*
X81395908Y-108352239D01*
X81388769Y-108350451D01*
X81381839Y-108347971D01*
X81375185Y-108344824D01*
X81368872Y-108341040D01*
X81362961Y-108336656D01*
X81357507Y-108331713D01*
X81352564Y-108326259D01*
X81348180Y-108320348D01*
X81344396Y-108314035D01*
X81341249Y-108307381D01*
X81338769Y-108300451D01*
X81336981Y-108293312D01*
X81335901Y-108286031D01*
X81335540Y-108278680D01*
X81335540Y-108128680D01*
X81335901Y-108121329D01*
X81336981Y-108114048D01*
X81338769Y-108106909D01*
X81341249Y-108099979D01*
X81344396Y-108093325D01*
X81348180Y-108087012D01*
X81352564Y-108081101D01*
X81357507Y-108075647D01*
X81362961Y-108070704D01*
X81368872Y-108066320D01*
X81375185Y-108062536D01*
X81381839Y-108059389D01*
X81388769Y-108056909D01*
X81395908Y-108055121D01*
X81403189Y-108054041D01*
X81410540Y-108053680D01*
X82735540Y-108053680D01*
X82742891Y-108054041D01*
X82742891Y-108054041D01*
G37*
D13*
X82073040Y-108203680D03*
D10*
G36*
X82742891Y-108554041D02*
G01*
X82750172Y-108555121D01*
X82757311Y-108556909D01*
X82764241Y-108559389D01*
X82770895Y-108562536D01*
X82777208Y-108566320D01*
X82783119Y-108570704D01*
X82788573Y-108575647D01*
X82793516Y-108581101D01*
X82797900Y-108587012D01*
X82801684Y-108593325D01*
X82804831Y-108599979D01*
X82807311Y-108606909D01*
X82809099Y-108614048D01*
X82810179Y-108621329D01*
X82810540Y-108628680D01*
X82810540Y-108778680D01*
X82810179Y-108786031D01*
X82809099Y-108793312D01*
X82807311Y-108800451D01*
X82804831Y-108807381D01*
X82801684Y-108814035D01*
X82797900Y-108820348D01*
X82793516Y-108826259D01*
X82788573Y-108831713D01*
X82783119Y-108836656D01*
X82777208Y-108841040D01*
X82770895Y-108844824D01*
X82764241Y-108847971D01*
X82757311Y-108850451D01*
X82750172Y-108852239D01*
X82742891Y-108853319D01*
X82735540Y-108853680D01*
X81410540Y-108853680D01*
X81403189Y-108853319D01*
X81395908Y-108852239D01*
X81388769Y-108850451D01*
X81381839Y-108847971D01*
X81375185Y-108844824D01*
X81368872Y-108841040D01*
X81362961Y-108836656D01*
X81357507Y-108831713D01*
X81352564Y-108826259D01*
X81348180Y-108820348D01*
X81344396Y-108814035D01*
X81341249Y-108807381D01*
X81338769Y-108800451D01*
X81336981Y-108793312D01*
X81335901Y-108786031D01*
X81335540Y-108778680D01*
X81335540Y-108628680D01*
X81335901Y-108621329D01*
X81336981Y-108614048D01*
X81338769Y-108606909D01*
X81341249Y-108599979D01*
X81344396Y-108593325D01*
X81348180Y-108587012D01*
X81352564Y-108581101D01*
X81357507Y-108575647D01*
X81362961Y-108570704D01*
X81368872Y-108566320D01*
X81375185Y-108562536D01*
X81381839Y-108559389D01*
X81388769Y-108556909D01*
X81395908Y-108555121D01*
X81403189Y-108554041D01*
X81410540Y-108553680D01*
X82735540Y-108553680D01*
X82742891Y-108554041D01*
X82742891Y-108554041D01*
G37*
D13*
X82073040Y-108703680D03*
D10*
G36*
X82742891Y-109054041D02*
G01*
X82750172Y-109055121D01*
X82757311Y-109056909D01*
X82764241Y-109059389D01*
X82770895Y-109062536D01*
X82777208Y-109066320D01*
X82783119Y-109070704D01*
X82788573Y-109075647D01*
X82793516Y-109081101D01*
X82797900Y-109087012D01*
X82801684Y-109093325D01*
X82804831Y-109099979D01*
X82807311Y-109106909D01*
X82809099Y-109114048D01*
X82810179Y-109121329D01*
X82810540Y-109128680D01*
X82810540Y-109278680D01*
X82810179Y-109286031D01*
X82809099Y-109293312D01*
X82807311Y-109300451D01*
X82804831Y-109307381D01*
X82801684Y-109314035D01*
X82797900Y-109320348D01*
X82793516Y-109326259D01*
X82788573Y-109331713D01*
X82783119Y-109336656D01*
X82777208Y-109341040D01*
X82770895Y-109344824D01*
X82764241Y-109347971D01*
X82757311Y-109350451D01*
X82750172Y-109352239D01*
X82742891Y-109353319D01*
X82735540Y-109353680D01*
X81410540Y-109353680D01*
X81403189Y-109353319D01*
X81395908Y-109352239D01*
X81388769Y-109350451D01*
X81381839Y-109347971D01*
X81375185Y-109344824D01*
X81368872Y-109341040D01*
X81362961Y-109336656D01*
X81357507Y-109331713D01*
X81352564Y-109326259D01*
X81348180Y-109320348D01*
X81344396Y-109314035D01*
X81341249Y-109307381D01*
X81338769Y-109300451D01*
X81336981Y-109293312D01*
X81335901Y-109286031D01*
X81335540Y-109278680D01*
X81335540Y-109128680D01*
X81335901Y-109121329D01*
X81336981Y-109114048D01*
X81338769Y-109106909D01*
X81341249Y-109099979D01*
X81344396Y-109093325D01*
X81348180Y-109087012D01*
X81352564Y-109081101D01*
X81357507Y-109075647D01*
X81362961Y-109070704D01*
X81368872Y-109066320D01*
X81375185Y-109062536D01*
X81381839Y-109059389D01*
X81388769Y-109056909D01*
X81395908Y-109055121D01*
X81403189Y-109054041D01*
X81410540Y-109053680D01*
X82735540Y-109053680D01*
X82742891Y-109054041D01*
X82742891Y-109054041D01*
G37*
D13*
X82073040Y-109203680D03*
D10*
G36*
X82742891Y-109554041D02*
G01*
X82750172Y-109555121D01*
X82757311Y-109556909D01*
X82764241Y-109559389D01*
X82770895Y-109562536D01*
X82777208Y-109566320D01*
X82783119Y-109570704D01*
X82788573Y-109575647D01*
X82793516Y-109581101D01*
X82797900Y-109587012D01*
X82801684Y-109593325D01*
X82804831Y-109599979D01*
X82807311Y-109606909D01*
X82809099Y-109614048D01*
X82810179Y-109621329D01*
X82810540Y-109628680D01*
X82810540Y-109778680D01*
X82810179Y-109786031D01*
X82809099Y-109793312D01*
X82807311Y-109800451D01*
X82804831Y-109807381D01*
X82801684Y-109814035D01*
X82797900Y-109820348D01*
X82793516Y-109826259D01*
X82788573Y-109831713D01*
X82783119Y-109836656D01*
X82777208Y-109841040D01*
X82770895Y-109844824D01*
X82764241Y-109847971D01*
X82757311Y-109850451D01*
X82750172Y-109852239D01*
X82742891Y-109853319D01*
X82735540Y-109853680D01*
X81410540Y-109853680D01*
X81403189Y-109853319D01*
X81395908Y-109852239D01*
X81388769Y-109850451D01*
X81381839Y-109847971D01*
X81375185Y-109844824D01*
X81368872Y-109841040D01*
X81362961Y-109836656D01*
X81357507Y-109831713D01*
X81352564Y-109826259D01*
X81348180Y-109820348D01*
X81344396Y-109814035D01*
X81341249Y-109807381D01*
X81338769Y-109800451D01*
X81336981Y-109793312D01*
X81335901Y-109786031D01*
X81335540Y-109778680D01*
X81335540Y-109628680D01*
X81335901Y-109621329D01*
X81336981Y-109614048D01*
X81338769Y-109606909D01*
X81341249Y-109599979D01*
X81344396Y-109593325D01*
X81348180Y-109587012D01*
X81352564Y-109581101D01*
X81357507Y-109575647D01*
X81362961Y-109570704D01*
X81368872Y-109566320D01*
X81375185Y-109562536D01*
X81381839Y-109559389D01*
X81388769Y-109556909D01*
X81395908Y-109555121D01*
X81403189Y-109554041D01*
X81410540Y-109553680D01*
X82735540Y-109553680D01*
X82742891Y-109554041D01*
X82742891Y-109554041D01*
G37*
D13*
X82073040Y-109703680D03*
D10*
G36*
X82742891Y-110054041D02*
G01*
X82750172Y-110055121D01*
X82757311Y-110056909D01*
X82764241Y-110059389D01*
X82770895Y-110062536D01*
X82777208Y-110066320D01*
X82783119Y-110070704D01*
X82788573Y-110075647D01*
X82793516Y-110081101D01*
X82797900Y-110087012D01*
X82801684Y-110093325D01*
X82804831Y-110099979D01*
X82807311Y-110106909D01*
X82809099Y-110114048D01*
X82810179Y-110121329D01*
X82810540Y-110128680D01*
X82810540Y-110278680D01*
X82810179Y-110286031D01*
X82809099Y-110293312D01*
X82807311Y-110300451D01*
X82804831Y-110307381D01*
X82801684Y-110314035D01*
X82797900Y-110320348D01*
X82793516Y-110326259D01*
X82788573Y-110331713D01*
X82783119Y-110336656D01*
X82777208Y-110341040D01*
X82770895Y-110344824D01*
X82764241Y-110347971D01*
X82757311Y-110350451D01*
X82750172Y-110352239D01*
X82742891Y-110353319D01*
X82735540Y-110353680D01*
X81410540Y-110353680D01*
X81403189Y-110353319D01*
X81395908Y-110352239D01*
X81388769Y-110350451D01*
X81381839Y-110347971D01*
X81375185Y-110344824D01*
X81368872Y-110341040D01*
X81362961Y-110336656D01*
X81357507Y-110331713D01*
X81352564Y-110326259D01*
X81348180Y-110320348D01*
X81344396Y-110314035D01*
X81341249Y-110307381D01*
X81338769Y-110300451D01*
X81336981Y-110293312D01*
X81335901Y-110286031D01*
X81335540Y-110278680D01*
X81335540Y-110128680D01*
X81335901Y-110121329D01*
X81336981Y-110114048D01*
X81338769Y-110106909D01*
X81341249Y-110099979D01*
X81344396Y-110093325D01*
X81348180Y-110087012D01*
X81352564Y-110081101D01*
X81357507Y-110075647D01*
X81362961Y-110070704D01*
X81368872Y-110066320D01*
X81375185Y-110062536D01*
X81381839Y-110059389D01*
X81388769Y-110056909D01*
X81395908Y-110055121D01*
X81403189Y-110054041D01*
X81410540Y-110053680D01*
X82735540Y-110053680D01*
X82742891Y-110054041D01*
X82742891Y-110054041D01*
G37*
D13*
X82073040Y-110203680D03*
D10*
G36*
X82742891Y-110554041D02*
G01*
X82750172Y-110555121D01*
X82757311Y-110556909D01*
X82764241Y-110559389D01*
X82770895Y-110562536D01*
X82777208Y-110566320D01*
X82783119Y-110570704D01*
X82788573Y-110575647D01*
X82793516Y-110581101D01*
X82797900Y-110587012D01*
X82801684Y-110593325D01*
X82804831Y-110599979D01*
X82807311Y-110606909D01*
X82809099Y-110614048D01*
X82810179Y-110621329D01*
X82810540Y-110628680D01*
X82810540Y-110778680D01*
X82810179Y-110786031D01*
X82809099Y-110793312D01*
X82807311Y-110800451D01*
X82804831Y-110807381D01*
X82801684Y-110814035D01*
X82797900Y-110820348D01*
X82793516Y-110826259D01*
X82788573Y-110831713D01*
X82783119Y-110836656D01*
X82777208Y-110841040D01*
X82770895Y-110844824D01*
X82764241Y-110847971D01*
X82757311Y-110850451D01*
X82750172Y-110852239D01*
X82742891Y-110853319D01*
X82735540Y-110853680D01*
X81410540Y-110853680D01*
X81403189Y-110853319D01*
X81395908Y-110852239D01*
X81388769Y-110850451D01*
X81381839Y-110847971D01*
X81375185Y-110844824D01*
X81368872Y-110841040D01*
X81362961Y-110836656D01*
X81357507Y-110831713D01*
X81352564Y-110826259D01*
X81348180Y-110820348D01*
X81344396Y-110814035D01*
X81341249Y-110807381D01*
X81338769Y-110800451D01*
X81336981Y-110793312D01*
X81335901Y-110786031D01*
X81335540Y-110778680D01*
X81335540Y-110628680D01*
X81335901Y-110621329D01*
X81336981Y-110614048D01*
X81338769Y-110606909D01*
X81341249Y-110599979D01*
X81344396Y-110593325D01*
X81348180Y-110587012D01*
X81352564Y-110581101D01*
X81357507Y-110575647D01*
X81362961Y-110570704D01*
X81368872Y-110566320D01*
X81375185Y-110562536D01*
X81381839Y-110559389D01*
X81388769Y-110556909D01*
X81395908Y-110555121D01*
X81403189Y-110554041D01*
X81410540Y-110553680D01*
X82735540Y-110553680D01*
X82742891Y-110554041D01*
X82742891Y-110554041D01*
G37*
D13*
X82073040Y-110703680D03*
D10*
G36*
X82742891Y-111054041D02*
G01*
X82750172Y-111055121D01*
X82757311Y-111056909D01*
X82764241Y-111059389D01*
X82770895Y-111062536D01*
X82777208Y-111066320D01*
X82783119Y-111070704D01*
X82788573Y-111075647D01*
X82793516Y-111081101D01*
X82797900Y-111087012D01*
X82801684Y-111093325D01*
X82804831Y-111099979D01*
X82807311Y-111106909D01*
X82809099Y-111114048D01*
X82810179Y-111121329D01*
X82810540Y-111128680D01*
X82810540Y-111278680D01*
X82810179Y-111286031D01*
X82809099Y-111293312D01*
X82807311Y-111300451D01*
X82804831Y-111307381D01*
X82801684Y-111314035D01*
X82797900Y-111320348D01*
X82793516Y-111326259D01*
X82788573Y-111331713D01*
X82783119Y-111336656D01*
X82777208Y-111341040D01*
X82770895Y-111344824D01*
X82764241Y-111347971D01*
X82757311Y-111350451D01*
X82750172Y-111352239D01*
X82742891Y-111353319D01*
X82735540Y-111353680D01*
X81410540Y-111353680D01*
X81403189Y-111353319D01*
X81395908Y-111352239D01*
X81388769Y-111350451D01*
X81381839Y-111347971D01*
X81375185Y-111344824D01*
X81368872Y-111341040D01*
X81362961Y-111336656D01*
X81357507Y-111331713D01*
X81352564Y-111326259D01*
X81348180Y-111320348D01*
X81344396Y-111314035D01*
X81341249Y-111307381D01*
X81338769Y-111300451D01*
X81336981Y-111293312D01*
X81335901Y-111286031D01*
X81335540Y-111278680D01*
X81335540Y-111128680D01*
X81335901Y-111121329D01*
X81336981Y-111114048D01*
X81338769Y-111106909D01*
X81341249Y-111099979D01*
X81344396Y-111093325D01*
X81348180Y-111087012D01*
X81352564Y-111081101D01*
X81357507Y-111075647D01*
X81362961Y-111070704D01*
X81368872Y-111066320D01*
X81375185Y-111062536D01*
X81381839Y-111059389D01*
X81388769Y-111056909D01*
X81395908Y-111055121D01*
X81403189Y-111054041D01*
X81410540Y-111053680D01*
X82735540Y-111053680D01*
X82742891Y-111054041D01*
X82742891Y-111054041D01*
G37*
D13*
X82073040Y-111203680D03*
D10*
G36*
X82742891Y-111554041D02*
G01*
X82750172Y-111555121D01*
X82757311Y-111556909D01*
X82764241Y-111559389D01*
X82770895Y-111562536D01*
X82777208Y-111566320D01*
X82783119Y-111570704D01*
X82788573Y-111575647D01*
X82793516Y-111581101D01*
X82797900Y-111587012D01*
X82801684Y-111593325D01*
X82804831Y-111599979D01*
X82807311Y-111606909D01*
X82809099Y-111614048D01*
X82810179Y-111621329D01*
X82810540Y-111628680D01*
X82810540Y-111778680D01*
X82810179Y-111786031D01*
X82809099Y-111793312D01*
X82807311Y-111800451D01*
X82804831Y-111807381D01*
X82801684Y-111814035D01*
X82797900Y-111820348D01*
X82793516Y-111826259D01*
X82788573Y-111831713D01*
X82783119Y-111836656D01*
X82777208Y-111841040D01*
X82770895Y-111844824D01*
X82764241Y-111847971D01*
X82757311Y-111850451D01*
X82750172Y-111852239D01*
X82742891Y-111853319D01*
X82735540Y-111853680D01*
X81410540Y-111853680D01*
X81403189Y-111853319D01*
X81395908Y-111852239D01*
X81388769Y-111850451D01*
X81381839Y-111847971D01*
X81375185Y-111844824D01*
X81368872Y-111841040D01*
X81362961Y-111836656D01*
X81357507Y-111831713D01*
X81352564Y-111826259D01*
X81348180Y-111820348D01*
X81344396Y-111814035D01*
X81341249Y-111807381D01*
X81338769Y-111800451D01*
X81336981Y-111793312D01*
X81335901Y-111786031D01*
X81335540Y-111778680D01*
X81335540Y-111628680D01*
X81335901Y-111621329D01*
X81336981Y-111614048D01*
X81338769Y-111606909D01*
X81341249Y-111599979D01*
X81344396Y-111593325D01*
X81348180Y-111587012D01*
X81352564Y-111581101D01*
X81357507Y-111575647D01*
X81362961Y-111570704D01*
X81368872Y-111566320D01*
X81375185Y-111562536D01*
X81381839Y-111559389D01*
X81388769Y-111556909D01*
X81395908Y-111555121D01*
X81403189Y-111554041D01*
X81410540Y-111553680D01*
X82735540Y-111553680D01*
X82742891Y-111554041D01*
X82742891Y-111554041D01*
G37*
D13*
X82073040Y-111703680D03*
D10*
G36*
X82742891Y-112054041D02*
G01*
X82750172Y-112055121D01*
X82757311Y-112056909D01*
X82764241Y-112059389D01*
X82770895Y-112062536D01*
X82777208Y-112066320D01*
X82783119Y-112070704D01*
X82788573Y-112075647D01*
X82793516Y-112081101D01*
X82797900Y-112087012D01*
X82801684Y-112093325D01*
X82804831Y-112099979D01*
X82807311Y-112106909D01*
X82809099Y-112114048D01*
X82810179Y-112121329D01*
X82810540Y-112128680D01*
X82810540Y-112278680D01*
X82810179Y-112286031D01*
X82809099Y-112293312D01*
X82807311Y-112300451D01*
X82804831Y-112307381D01*
X82801684Y-112314035D01*
X82797900Y-112320348D01*
X82793516Y-112326259D01*
X82788573Y-112331713D01*
X82783119Y-112336656D01*
X82777208Y-112341040D01*
X82770895Y-112344824D01*
X82764241Y-112347971D01*
X82757311Y-112350451D01*
X82750172Y-112352239D01*
X82742891Y-112353319D01*
X82735540Y-112353680D01*
X81410540Y-112353680D01*
X81403189Y-112353319D01*
X81395908Y-112352239D01*
X81388769Y-112350451D01*
X81381839Y-112347971D01*
X81375185Y-112344824D01*
X81368872Y-112341040D01*
X81362961Y-112336656D01*
X81357507Y-112331713D01*
X81352564Y-112326259D01*
X81348180Y-112320348D01*
X81344396Y-112314035D01*
X81341249Y-112307381D01*
X81338769Y-112300451D01*
X81336981Y-112293312D01*
X81335901Y-112286031D01*
X81335540Y-112278680D01*
X81335540Y-112128680D01*
X81335901Y-112121329D01*
X81336981Y-112114048D01*
X81338769Y-112106909D01*
X81341249Y-112099979D01*
X81344396Y-112093325D01*
X81348180Y-112087012D01*
X81352564Y-112081101D01*
X81357507Y-112075647D01*
X81362961Y-112070704D01*
X81368872Y-112066320D01*
X81375185Y-112062536D01*
X81381839Y-112059389D01*
X81388769Y-112056909D01*
X81395908Y-112055121D01*
X81403189Y-112054041D01*
X81410540Y-112053680D01*
X82735540Y-112053680D01*
X82742891Y-112054041D01*
X82742891Y-112054041D01*
G37*
D13*
X82073040Y-112203680D03*
D10*
G36*
X83567891Y-112879041D02*
G01*
X83575172Y-112880121D01*
X83582311Y-112881909D01*
X83589241Y-112884389D01*
X83595895Y-112887536D01*
X83602208Y-112891320D01*
X83608119Y-112895704D01*
X83613573Y-112900647D01*
X83618516Y-112906101D01*
X83622900Y-112912012D01*
X83626684Y-112918325D01*
X83629831Y-112924979D01*
X83632311Y-112931909D01*
X83634099Y-112939048D01*
X83635179Y-112946329D01*
X83635540Y-112953680D01*
X83635540Y-114278680D01*
X83635179Y-114286031D01*
X83634099Y-114293312D01*
X83632311Y-114300451D01*
X83629831Y-114307381D01*
X83626684Y-114314035D01*
X83622900Y-114320348D01*
X83618516Y-114326259D01*
X83613573Y-114331713D01*
X83608119Y-114336656D01*
X83602208Y-114341040D01*
X83595895Y-114344824D01*
X83589241Y-114347971D01*
X83582311Y-114350451D01*
X83575172Y-114352239D01*
X83567891Y-114353319D01*
X83560540Y-114353680D01*
X83410540Y-114353680D01*
X83403189Y-114353319D01*
X83395908Y-114352239D01*
X83388769Y-114350451D01*
X83381839Y-114347971D01*
X83375185Y-114344824D01*
X83368872Y-114341040D01*
X83362961Y-114336656D01*
X83357507Y-114331713D01*
X83352564Y-114326259D01*
X83348180Y-114320348D01*
X83344396Y-114314035D01*
X83341249Y-114307381D01*
X83338769Y-114300451D01*
X83336981Y-114293312D01*
X83335901Y-114286031D01*
X83335540Y-114278680D01*
X83335540Y-112953680D01*
X83335901Y-112946329D01*
X83336981Y-112939048D01*
X83338769Y-112931909D01*
X83341249Y-112924979D01*
X83344396Y-112918325D01*
X83348180Y-112912012D01*
X83352564Y-112906101D01*
X83357507Y-112900647D01*
X83362961Y-112895704D01*
X83368872Y-112891320D01*
X83375185Y-112887536D01*
X83381839Y-112884389D01*
X83388769Y-112881909D01*
X83395908Y-112880121D01*
X83403189Y-112879041D01*
X83410540Y-112878680D01*
X83560540Y-112878680D01*
X83567891Y-112879041D01*
X83567891Y-112879041D01*
G37*
D13*
X83485540Y-113616180D03*
D10*
G36*
X84067891Y-112879041D02*
G01*
X84075172Y-112880121D01*
X84082311Y-112881909D01*
X84089241Y-112884389D01*
X84095895Y-112887536D01*
X84102208Y-112891320D01*
X84108119Y-112895704D01*
X84113573Y-112900647D01*
X84118516Y-112906101D01*
X84122900Y-112912012D01*
X84126684Y-112918325D01*
X84129831Y-112924979D01*
X84132311Y-112931909D01*
X84134099Y-112939048D01*
X84135179Y-112946329D01*
X84135540Y-112953680D01*
X84135540Y-114278680D01*
X84135179Y-114286031D01*
X84134099Y-114293312D01*
X84132311Y-114300451D01*
X84129831Y-114307381D01*
X84126684Y-114314035D01*
X84122900Y-114320348D01*
X84118516Y-114326259D01*
X84113573Y-114331713D01*
X84108119Y-114336656D01*
X84102208Y-114341040D01*
X84095895Y-114344824D01*
X84089241Y-114347971D01*
X84082311Y-114350451D01*
X84075172Y-114352239D01*
X84067891Y-114353319D01*
X84060540Y-114353680D01*
X83910540Y-114353680D01*
X83903189Y-114353319D01*
X83895908Y-114352239D01*
X83888769Y-114350451D01*
X83881839Y-114347971D01*
X83875185Y-114344824D01*
X83868872Y-114341040D01*
X83862961Y-114336656D01*
X83857507Y-114331713D01*
X83852564Y-114326259D01*
X83848180Y-114320348D01*
X83844396Y-114314035D01*
X83841249Y-114307381D01*
X83838769Y-114300451D01*
X83836981Y-114293312D01*
X83835901Y-114286031D01*
X83835540Y-114278680D01*
X83835540Y-112953680D01*
X83835901Y-112946329D01*
X83836981Y-112939048D01*
X83838769Y-112931909D01*
X83841249Y-112924979D01*
X83844396Y-112918325D01*
X83848180Y-112912012D01*
X83852564Y-112906101D01*
X83857507Y-112900647D01*
X83862961Y-112895704D01*
X83868872Y-112891320D01*
X83875185Y-112887536D01*
X83881839Y-112884389D01*
X83888769Y-112881909D01*
X83895908Y-112880121D01*
X83903189Y-112879041D01*
X83910540Y-112878680D01*
X84060540Y-112878680D01*
X84067891Y-112879041D01*
X84067891Y-112879041D01*
G37*
D13*
X83985540Y-113616180D03*
D10*
G36*
X84567891Y-112879041D02*
G01*
X84575172Y-112880121D01*
X84582311Y-112881909D01*
X84589241Y-112884389D01*
X84595895Y-112887536D01*
X84602208Y-112891320D01*
X84608119Y-112895704D01*
X84613573Y-112900647D01*
X84618516Y-112906101D01*
X84622900Y-112912012D01*
X84626684Y-112918325D01*
X84629831Y-112924979D01*
X84632311Y-112931909D01*
X84634099Y-112939048D01*
X84635179Y-112946329D01*
X84635540Y-112953680D01*
X84635540Y-114278680D01*
X84635179Y-114286031D01*
X84634099Y-114293312D01*
X84632311Y-114300451D01*
X84629831Y-114307381D01*
X84626684Y-114314035D01*
X84622900Y-114320348D01*
X84618516Y-114326259D01*
X84613573Y-114331713D01*
X84608119Y-114336656D01*
X84602208Y-114341040D01*
X84595895Y-114344824D01*
X84589241Y-114347971D01*
X84582311Y-114350451D01*
X84575172Y-114352239D01*
X84567891Y-114353319D01*
X84560540Y-114353680D01*
X84410540Y-114353680D01*
X84403189Y-114353319D01*
X84395908Y-114352239D01*
X84388769Y-114350451D01*
X84381839Y-114347971D01*
X84375185Y-114344824D01*
X84368872Y-114341040D01*
X84362961Y-114336656D01*
X84357507Y-114331713D01*
X84352564Y-114326259D01*
X84348180Y-114320348D01*
X84344396Y-114314035D01*
X84341249Y-114307381D01*
X84338769Y-114300451D01*
X84336981Y-114293312D01*
X84335901Y-114286031D01*
X84335540Y-114278680D01*
X84335540Y-112953680D01*
X84335901Y-112946329D01*
X84336981Y-112939048D01*
X84338769Y-112931909D01*
X84341249Y-112924979D01*
X84344396Y-112918325D01*
X84348180Y-112912012D01*
X84352564Y-112906101D01*
X84357507Y-112900647D01*
X84362961Y-112895704D01*
X84368872Y-112891320D01*
X84375185Y-112887536D01*
X84381839Y-112884389D01*
X84388769Y-112881909D01*
X84395908Y-112880121D01*
X84403189Y-112879041D01*
X84410540Y-112878680D01*
X84560540Y-112878680D01*
X84567891Y-112879041D01*
X84567891Y-112879041D01*
G37*
D13*
X84485540Y-113616180D03*
D10*
G36*
X85067891Y-112879041D02*
G01*
X85075172Y-112880121D01*
X85082311Y-112881909D01*
X85089241Y-112884389D01*
X85095895Y-112887536D01*
X85102208Y-112891320D01*
X85108119Y-112895704D01*
X85113573Y-112900647D01*
X85118516Y-112906101D01*
X85122900Y-112912012D01*
X85126684Y-112918325D01*
X85129831Y-112924979D01*
X85132311Y-112931909D01*
X85134099Y-112939048D01*
X85135179Y-112946329D01*
X85135540Y-112953680D01*
X85135540Y-114278680D01*
X85135179Y-114286031D01*
X85134099Y-114293312D01*
X85132311Y-114300451D01*
X85129831Y-114307381D01*
X85126684Y-114314035D01*
X85122900Y-114320348D01*
X85118516Y-114326259D01*
X85113573Y-114331713D01*
X85108119Y-114336656D01*
X85102208Y-114341040D01*
X85095895Y-114344824D01*
X85089241Y-114347971D01*
X85082311Y-114350451D01*
X85075172Y-114352239D01*
X85067891Y-114353319D01*
X85060540Y-114353680D01*
X84910540Y-114353680D01*
X84903189Y-114353319D01*
X84895908Y-114352239D01*
X84888769Y-114350451D01*
X84881839Y-114347971D01*
X84875185Y-114344824D01*
X84868872Y-114341040D01*
X84862961Y-114336656D01*
X84857507Y-114331713D01*
X84852564Y-114326259D01*
X84848180Y-114320348D01*
X84844396Y-114314035D01*
X84841249Y-114307381D01*
X84838769Y-114300451D01*
X84836981Y-114293312D01*
X84835901Y-114286031D01*
X84835540Y-114278680D01*
X84835540Y-112953680D01*
X84835901Y-112946329D01*
X84836981Y-112939048D01*
X84838769Y-112931909D01*
X84841249Y-112924979D01*
X84844396Y-112918325D01*
X84848180Y-112912012D01*
X84852564Y-112906101D01*
X84857507Y-112900647D01*
X84862961Y-112895704D01*
X84868872Y-112891320D01*
X84875185Y-112887536D01*
X84881839Y-112884389D01*
X84888769Y-112881909D01*
X84895908Y-112880121D01*
X84903189Y-112879041D01*
X84910540Y-112878680D01*
X85060540Y-112878680D01*
X85067891Y-112879041D01*
X85067891Y-112879041D01*
G37*
D13*
X84985540Y-113616180D03*
D10*
G36*
X85567891Y-112879041D02*
G01*
X85575172Y-112880121D01*
X85582311Y-112881909D01*
X85589241Y-112884389D01*
X85595895Y-112887536D01*
X85602208Y-112891320D01*
X85608119Y-112895704D01*
X85613573Y-112900647D01*
X85618516Y-112906101D01*
X85622900Y-112912012D01*
X85626684Y-112918325D01*
X85629831Y-112924979D01*
X85632311Y-112931909D01*
X85634099Y-112939048D01*
X85635179Y-112946329D01*
X85635540Y-112953680D01*
X85635540Y-114278680D01*
X85635179Y-114286031D01*
X85634099Y-114293312D01*
X85632311Y-114300451D01*
X85629831Y-114307381D01*
X85626684Y-114314035D01*
X85622900Y-114320348D01*
X85618516Y-114326259D01*
X85613573Y-114331713D01*
X85608119Y-114336656D01*
X85602208Y-114341040D01*
X85595895Y-114344824D01*
X85589241Y-114347971D01*
X85582311Y-114350451D01*
X85575172Y-114352239D01*
X85567891Y-114353319D01*
X85560540Y-114353680D01*
X85410540Y-114353680D01*
X85403189Y-114353319D01*
X85395908Y-114352239D01*
X85388769Y-114350451D01*
X85381839Y-114347971D01*
X85375185Y-114344824D01*
X85368872Y-114341040D01*
X85362961Y-114336656D01*
X85357507Y-114331713D01*
X85352564Y-114326259D01*
X85348180Y-114320348D01*
X85344396Y-114314035D01*
X85341249Y-114307381D01*
X85338769Y-114300451D01*
X85336981Y-114293312D01*
X85335901Y-114286031D01*
X85335540Y-114278680D01*
X85335540Y-112953680D01*
X85335901Y-112946329D01*
X85336981Y-112939048D01*
X85338769Y-112931909D01*
X85341249Y-112924979D01*
X85344396Y-112918325D01*
X85348180Y-112912012D01*
X85352564Y-112906101D01*
X85357507Y-112900647D01*
X85362961Y-112895704D01*
X85368872Y-112891320D01*
X85375185Y-112887536D01*
X85381839Y-112884389D01*
X85388769Y-112881909D01*
X85395908Y-112880121D01*
X85403189Y-112879041D01*
X85410540Y-112878680D01*
X85560540Y-112878680D01*
X85567891Y-112879041D01*
X85567891Y-112879041D01*
G37*
D13*
X85485540Y-113616180D03*
D10*
G36*
X86067891Y-112879041D02*
G01*
X86075172Y-112880121D01*
X86082311Y-112881909D01*
X86089241Y-112884389D01*
X86095895Y-112887536D01*
X86102208Y-112891320D01*
X86108119Y-112895704D01*
X86113573Y-112900647D01*
X86118516Y-112906101D01*
X86122900Y-112912012D01*
X86126684Y-112918325D01*
X86129831Y-112924979D01*
X86132311Y-112931909D01*
X86134099Y-112939048D01*
X86135179Y-112946329D01*
X86135540Y-112953680D01*
X86135540Y-114278680D01*
X86135179Y-114286031D01*
X86134099Y-114293312D01*
X86132311Y-114300451D01*
X86129831Y-114307381D01*
X86126684Y-114314035D01*
X86122900Y-114320348D01*
X86118516Y-114326259D01*
X86113573Y-114331713D01*
X86108119Y-114336656D01*
X86102208Y-114341040D01*
X86095895Y-114344824D01*
X86089241Y-114347971D01*
X86082311Y-114350451D01*
X86075172Y-114352239D01*
X86067891Y-114353319D01*
X86060540Y-114353680D01*
X85910540Y-114353680D01*
X85903189Y-114353319D01*
X85895908Y-114352239D01*
X85888769Y-114350451D01*
X85881839Y-114347971D01*
X85875185Y-114344824D01*
X85868872Y-114341040D01*
X85862961Y-114336656D01*
X85857507Y-114331713D01*
X85852564Y-114326259D01*
X85848180Y-114320348D01*
X85844396Y-114314035D01*
X85841249Y-114307381D01*
X85838769Y-114300451D01*
X85836981Y-114293312D01*
X85835901Y-114286031D01*
X85835540Y-114278680D01*
X85835540Y-112953680D01*
X85835901Y-112946329D01*
X85836981Y-112939048D01*
X85838769Y-112931909D01*
X85841249Y-112924979D01*
X85844396Y-112918325D01*
X85848180Y-112912012D01*
X85852564Y-112906101D01*
X85857507Y-112900647D01*
X85862961Y-112895704D01*
X85868872Y-112891320D01*
X85875185Y-112887536D01*
X85881839Y-112884389D01*
X85888769Y-112881909D01*
X85895908Y-112880121D01*
X85903189Y-112879041D01*
X85910540Y-112878680D01*
X86060540Y-112878680D01*
X86067891Y-112879041D01*
X86067891Y-112879041D01*
G37*
D13*
X85985540Y-113616180D03*
D10*
G36*
X86567891Y-112879041D02*
G01*
X86575172Y-112880121D01*
X86582311Y-112881909D01*
X86589241Y-112884389D01*
X86595895Y-112887536D01*
X86602208Y-112891320D01*
X86608119Y-112895704D01*
X86613573Y-112900647D01*
X86618516Y-112906101D01*
X86622900Y-112912012D01*
X86626684Y-112918325D01*
X86629831Y-112924979D01*
X86632311Y-112931909D01*
X86634099Y-112939048D01*
X86635179Y-112946329D01*
X86635540Y-112953680D01*
X86635540Y-114278680D01*
X86635179Y-114286031D01*
X86634099Y-114293312D01*
X86632311Y-114300451D01*
X86629831Y-114307381D01*
X86626684Y-114314035D01*
X86622900Y-114320348D01*
X86618516Y-114326259D01*
X86613573Y-114331713D01*
X86608119Y-114336656D01*
X86602208Y-114341040D01*
X86595895Y-114344824D01*
X86589241Y-114347971D01*
X86582311Y-114350451D01*
X86575172Y-114352239D01*
X86567891Y-114353319D01*
X86560540Y-114353680D01*
X86410540Y-114353680D01*
X86403189Y-114353319D01*
X86395908Y-114352239D01*
X86388769Y-114350451D01*
X86381839Y-114347971D01*
X86375185Y-114344824D01*
X86368872Y-114341040D01*
X86362961Y-114336656D01*
X86357507Y-114331713D01*
X86352564Y-114326259D01*
X86348180Y-114320348D01*
X86344396Y-114314035D01*
X86341249Y-114307381D01*
X86338769Y-114300451D01*
X86336981Y-114293312D01*
X86335901Y-114286031D01*
X86335540Y-114278680D01*
X86335540Y-112953680D01*
X86335901Y-112946329D01*
X86336981Y-112939048D01*
X86338769Y-112931909D01*
X86341249Y-112924979D01*
X86344396Y-112918325D01*
X86348180Y-112912012D01*
X86352564Y-112906101D01*
X86357507Y-112900647D01*
X86362961Y-112895704D01*
X86368872Y-112891320D01*
X86375185Y-112887536D01*
X86381839Y-112884389D01*
X86388769Y-112881909D01*
X86395908Y-112880121D01*
X86403189Y-112879041D01*
X86410540Y-112878680D01*
X86560540Y-112878680D01*
X86567891Y-112879041D01*
X86567891Y-112879041D01*
G37*
D13*
X86485540Y-113616180D03*
D10*
G36*
X87067891Y-112879041D02*
G01*
X87075172Y-112880121D01*
X87082311Y-112881909D01*
X87089241Y-112884389D01*
X87095895Y-112887536D01*
X87102208Y-112891320D01*
X87108119Y-112895704D01*
X87113573Y-112900647D01*
X87118516Y-112906101D01*
X87122900Y-112912012D01*
X87126684Y-112918325D01*
X87129831Y-112924979D01*
X87132311Y-112931909D01*
X87134099Y-112939048D01*
X87135179Y-112946329D01*
X87135540Y-112953680D01*
X87135540Y-114278680D01*
X87135179Y-114286031D01*
X87134099Y-114293312D01*
X87132311Y-114300451D01*
X87129831Y-114307381D01*
X87126684Y-114314035D01*
X87122900Y-114320348D01*
X87118516Y-114326259D01*
X87113573Y-114331713D01*
X87108119Y-114336656D01*
X87102208Y-114341040D01*
X87095895Y-114344824D01*
X87089241Y-114347971D01*
X87082311Y-114350451D01*
X87075172Y-114352239D01*
X87067891Y-114353319D01*
X87060540Y-114353680D01*
X86910540Y-114353680D01*
X86903189Y-114353319D01*
X86895908Y-114352239D01*
X86888769Y-114350451D01*
X86881839Y-114347971D01*
X86875185Y-114344824D01*
X86868872Y-114341040D01*
X86862961Y-114336656D01*
X86857507Y-114331713D01*
X86852564Y-114326259D01*
X86848180Y-114320348D01*
X86844396Y-114314035D01*
X86841249Y-114307381D01*
X86838769Y-114300451D01*
X86836981Y-114293312D01*
X86835901Y-114286031D01*
X86835540Y-114278680D01*
X86835540Y-112953680D01*
X86835901Y-112946329D01*
X86836981Y-112939048D01*
X86838769Y-112931909D01*
X86841249Y-112924979D01*
X86844396Y-112918325D01*
X86848180Y-112912012D01*
X86852564Y-112906101D01*
X86857507Y-112900647D01*
X86862961Y-112895704D01*
X86868872Y-112891320D01*
X86875185Y-112887536D01*
X86881839Y-112884389D01*
X86888769Y-112881909D01*
X86895908Y-112880121D01*
X86903189Y-112879041D01*
X86910540Y-112878680D01*
X87060540Y-112878680D01*
X87067891Y-112879041D01*
X87067891Y-112879041D01*
G37*
D13*
X86985540Y-113616180D03*
D10*
G36*
X87567891Y-112879041D02*
G01*
X87575172Y-112880121D01*
X87582311Y-112881909D01*
X87589241Y-112884389D01*
X87595895Y-112887536D01*
X87602208Y-112891320D01*
X87608119Y-112895704D01*
X87613573Y-112900647D01*
X87618516Y-112906101D01*
X87622900Y-112912012D01*
X87626684Y-112918325D01*
X87629831Y-112924979D01*
X87632311Y-112931909D01*
X87634099Y-112939048D01*
X87635179Y-112946329D01*
X87635540Y-112953680D01*
X87635540Y-114278680D01*
X87635179Y-114286031D01*
X87634099Y-114293312D01*
X87632311Y-114300451D01*
X87629831Y-114307381D01*
X87626684Y-114314035D01*
X87622900Y-114320348D01*
X87618516Y-114326259D01*
X87613573Y-114331713D01*
X87608119Y-114336656D01*
X87602208Y-114341040D01*
X87595895Y-114344824D01*
X87589241Y-114347971D01*
X87582311Y-114350451D01*
X87575172Y-114352239D01*
X87567891Y-114353319D01*
X87560540Y-114353680D01*
X87410540Y-114353680D01*
X87403189Y-114353319D01*
X87395908Y-114352239D01*
X87388769Y-114350451D01*
X87381839Y-114347971D01*
X87375185Y-114344824D01*
X87368872Y-114341040D01*
X87362961Y-114336656D01*
X87357507Y-114331713D01*
X87352564Y-114326259D01*
X87348180Y-114320348D01*
X87344396Y-114314035D01*
X87341249Y-114307381D01*
X87338769Y-114300451D01*
X87336981Y-114293312D01*
X87335901Y-114286031D01*
X87335540Y-114278680D01*
X87335540Y-112953680D01*
X87335901Y-112946329D01*
X87336981Y-112939048D01*
X87338769Y-112931909D01*
X87341249Y-112924979D01*
X87344396Y-112918325D01*
X87348180Y-112912012D01*
X87352564Y-112906101D01*
X87357507Y-112900647D01*
X87362961Y-112895704D01*
X87368872Y-112891320D01*
X87375185Y-112887536D01*
X87381839Y-112884389D01*
X87388769Y-112881909D01*
X87395908Y-112880121D01*
X87403189Y-112879041D01*
X87410540Y-112878680D01*
X87560540Y-112878680D01*
X87567891Y-112879041D01*
X87567891Y-112879041D01*
G37*
D13*
X87485540Y-113616180D03*
D10*
G36*
X88067891Y-112879041D02*
G01*
X88075172Y-112880121D01*
X88082311Y-112881909D01*
X88089241Y-112884389D01*
X88095895Y-112887536D01*
X88102208Y-112891320D01*
X88108119Y-112895704D01*
X88113573Y-112900647D01*
X88118516Y-112906101D01*
X88122900Y-112912012D01*
X88126684Y-112918325D01*
X88129831Y-112924979D01*
X88132311Y-112931909D01*
X88134099Y-112939048D01*
X88135179Y-112946329D01*
X88135540Y-112953680D01*
X88135540Y-114278680D01*
X88135179Y-114286031D01*
X88134099Y-114293312D01*
X88132311Y-114300451D01*
X88129831Y-114307381D01*
X88126684Y-114314035D01*
X88122900Y-114320348D01*
X88118516Y-114326259D01*
X88113573Y-114331713D01*
X88108119Y-114336656D01*
X88102208Y-114341040D01*
X88095895Y-114344824D01*
X88089241Y-114347971D01*
X88082311Y-114350451D01*
X88075172Y-114352239D01*
X88067891Y-114353319D01*
X88060540Y-114353680D01*
X87910540Y-114353680D01*
X87903189Y-114353319D01*
X87895908Y-114352239D01*
X87888769Y-114350451D01*
X87881839Y-114347971D01*
X87875185Y-114344824D01*
X87868872Y-114341040D01*
X87862961Y-114336656D01*
X87857507Y-114331713D01*
X87852564Y-114326259D01*
X87848180Y-114320348D01*
X87844396Y-114314035D01*
X87841249Y-114307381D01*
X87838769Y-114300451D01*
X87836981Y-114293312D01*
X87835901Y-114286031D01*
X87835540Y-114278680D01*
X87835540Y-112953680D01*
X87835901Y-112946329D01*
X87836981Y-112939048D01*
X87838769Y-112931909D01*
X87841249Y-112924979D01*
X87844396Y-112918325D01*
X87848180Y-112912012D01*
X87852564Y-112906101D01*
X87857507Y-112900647D01*
X87862961Y-112895704D01*
X87868872Y-112891320D01*
X87875185Y-112887536D01*
X87881839Y-112884389D01*
X87888769Y-112881909D01*
X87895908Y-112880121D01*
X87903189Y-112879041D01*
X87910540Y-112878680D01*
X88060540Y-112878680D01*
X88067891Y-112879041D01*
X88067891Y-112879041D01*
G37*
D13*
X87985540Y-113616180D03*
D10*
G36*
X88567891Y-112879041D02*
G01*
X88575172Y-112880121D01*
X88582311Y-112881909D01*
X88589241Y-112884389D01*
X88595895Y-112887536D01*
X88602208Y-112891320D01*
X88608119Y-112895704D01*
X88613573Y-112900647D01*
X88618516Y-112906101D01*
X88622900Y-112912012D01*
X88626684Y-112918325D01*
X88629831Y-112924979D01*
X88632311Y-112931909D01*
X88634099Y-112939048D01*
X88635179Y-112946329D01*
X88635540Y-112953680D01*
X88635540Y-114278680D01*
X88635179Y-114286031D01*
X88634099Y-114293312D01*
X88632311Y-114300451D01*
X88629831Y-114307381D01*
X88626684Y-114314035D01*
X88622900Y-114320348D01*
X88618516Y-114326259D01*
X88613573Y-114331713D01*
X88608119Y-114336656D01*
X88602208Y-114341040D01*
X88595895Y-114344824D01*
X88589241Y-114347971D01*
X88582311Y-114350451D01*
X88575172Y-114352239D01*
X88567891Y-114353319D01*
X88560540Y-114353680D01*
X88410540Y-114353680D01*
X88403189Y-114353319D01*
X88395908Y-114352239D01*
X88388769Y-114350451D01*
X88381839Y-114347971D01*
X88375185Y-114344824D01*
X88368872Y-114341040D01*
X88362961Y-114336656D01*
X88357507Y-114331713D01*
X88352564Y-114326259D01*
X88348180Y-114320348D01*
X88344396Y-114314035D01*
X88341249Y-114307381D01*
X88338769Y-114300451D01*
X88336981Y-114293312D01*
X88335901Y-114286031D01*
X88335540Y-114278680D01*
X88335540Y-112953680D01*
X88335901Y-112946329D01*
X88336981Y-112939048D01*
X88338769Y-112931909D01*
X88341249Y-112924979D01*
X88344396Y-112918325D01*
X88348180Y-112912012D01*
X88352564Y-112906101D01*
X88357507Y-112900647D01*
X88362961Y-112895704D01*
X88368872Y-112891320D01*
X88375185Y-112887536D01*
X88381839Y-112884389D01*
X88388769Y-112881909D01*
X88395908Y-112880121D01*
X88403189Y-112879041D01*
X88410540Y-112878680D01*
X88560540Y-112878680D01*
X88567891Y-112879041D01*
X88567891Y-112879041D01*
G37*
D13*
X88485540Y-113616180D03*
D10*
G36*
X89067891Y-112879041D02*
G01*
X89075172Y-112880121D01*
X89082311Y-112881909D01*
X89089241Y-112884389D01*
X89095895Y-112887536D01*
X89102208Y-112891320D01*
X89108119Y-112895704D01*
X89113573Y-112900647D01*
X89118516Y-112906101D01*
X89122900Y-112912012D01*
X89126684Y-112918325D01*
X89129831Y-112924979D01*
X89132311Y-112931909D01*
X89134099Y-112939048D01*
X89135179Y-112946329D01*
X89135540Y-112953680D01*
X89135540Y-114278680D01*
X89135179Y-114286031D01*
X89134099Y-114293312D01*
X89132311Y-114300451D01*
X89129831Y-114307381D01*
X89126684Y-114314035D01*
X89122900Y-114320348D01*
X89118516Y-114326259D01*
X89113573Y-114331713D01*
X89108119Y-114336656D01*
X89102208Y-114341040D01*
X89095895Y-114344824D01*
X89089241Y-114347971D01*
X89082311Y-114350451D01*
X89075172Y-114352239D01*
X89067891Y-114353319D01*
X89060540Y-114353680D01*
X88910540Y-114353680D01*
X88903189Y-114353319D01*
X88895908Y-114352239D01*
X88888769Y-114350451D01*
X88881839Y-114347971D01*
X88875185Y-114344824D01*
X88868872Y-114341040D01*
X88862961Y-114336656D01*
X88857507Y-114331713D01*
X88852564Y-114326259D01*
X88848180Y-114320348D01*
X88844396Y-114314035D01*
X88841249Y-114307381D01*
X88838769Y-114300451D01*
X88836981Y-114293312D01*
X88835901Y-114286031D01*
X88835540Y-114278680D01*
X88835540Y-112953680D01*
X88835901Y-112946329D01*
X88836981Y-112939048D01*
X88838769Y-112931909D01*
X88841249Y-112924979D01*
X88844396Y-112918325D01*
X88848180Y-112912012D01*
X88852564Y-112906101D01*
X88857507Y-112900647D01*
X88862961Y-112895704D01*
X88868872Y-112891320D01*
X88875185Y-112887536D01*
X88881839Y-112884389D01*
X88888769Y-112881909D01*
X88895908Y-112880121D01*
X88903189Y-112879041D01*
X88910540Y-112878680D01*
X89060540Y-112878680D01*
X89067891Y-112879041D01*
X89067891Y-112879041D01*
G37*
D13*
X88985540Y-113616180D03*
M02*
